<svg data-name="Impaired mucociliary clearance icon" xmlns="http://www.w3.org/2000/svg" width="72" height="72" viewBox="0 0 72 72">
    <g data-name="Group 2274">
        <path data-name="Path 2627" d="M6.4 18.272C16.949 21.615 21.966 20.9 31.307 20.9s13.393-2.678 22.834-1.971c14.847 1.114 17.644-3 12.454-3.658-3.875-.491-7.172-5.752-13.348-6.466-3.325-.385-3.105 1.212-7.41 1.2C40.427 10 39.611 7.613 35 7.6c-5.038-.014-5.228 2.831-11 3.267-5.736.433-7.34-2.241-11-.817-2.634 1.025-2.384 2.636-6.6 4.563-1.115.508-3.789 2.459 0 3.659z" style="opacity:.4;isolation:isolate;fill:#fcc454"/>
        <path data-name="Path 2628" d="M20.446 24.574a.751.751 0 0 1-.607-1.19 1.738 1.738 0 0 0 .454-1.288c-.139-.672-1.163-1.276-2.153-1.86-1.552-.916-3.676-2.17-2.789-4.5a.75.75 0 0 1 1.4.534c-.4 1.041.351 1.615 2.149 2.677 1.271.75 2.585 1.526 2.86 2.846a3.121 3.121 0 0 1-.708 2.474.75.75 0 0 1-.606.307z" style="fill:#010101"/>
        <path data-name="Path 2629" d="M27.177 24.139a.751.751 0 0 1-.654-1.116c.754-1.35.232-1.875-1.451-3.031-1.322-.909-2.968-2.039-2.361-4.2a.75.75 0 0 1 1.444.408c-.286 1.015.318 1.557 1.766 2.551s3.4 2.335 1.912 5a.752.752 0 0 1-.656.388z" style="fill:#010101"/>
        <path data-name="Path 2630" d="M32.958 24.774a.8.8 0 0 1-.128-.01.751.751 0 0 1-.612-.867 5.681 5.681 0 0 0-.506-3.927 7.2 7.2 0 0 1-.751-4.034.75.75 0 0 1 1.5.128 5.694 5.694 0 0 0 .625 3.294 7.157 7.157 0 0 1 .615 4.793.749.749 0 0 1-.743.623z" style="fill:#010101"/>
        <path data-name="Path 2631" d="M51.352 24.772a.75.75 0 0 1-.695-.467c-.922-2.263.986-3.723 2.518-4.9 1.72-1.318 2.485-2.057 2.074-3.142a.75.75 0 0 1 1.4-.532c.852 2.248-1.043 3.7-2.564 4.864-1.72 1.318-2.483 2.058-2.041 3.142a.748.748 0 0 1-.694 1.032z" style="fill:#010101"/>
        <path data-name="Path 2632" d="M46.489 24.139a.752.752 0 0 1-.656-.385c-1.487-2.664.478-4.014 1.912-5s2.055-1.535 1.767-2.554a.75.75 0 1 1 1.443-.408c.608 2.157-1.038 3.287-2.36 4.2-1.684 1.156-2.206 1.681-1.451 3.031a.752.752 0 0 1-.655 1.116z" style="fill:#010101"/>
        <path data-name="Path 2633" d="M40.708 24.574a.75.75 0 0 1-.737-.62 6.861 6.861 0 0 1 .617-4.694 5.415 5.415 0 0 0 .623-3.194.75.75 0 0 1 1.494-.132 6.9 6.9 0 0 1-.754 3.951 5.393 5.393 0 0 0-.5 3.809.749.749 0 0 1-.608.869.837.837 0 0 1-.135.011z" style="fill:#010101"/>
        <g data-name="Group 2273">
            <path data-name="Path 2634" d="M36.263 43.466h-.06a.75.75 0 0 1-.688-.808l.131-1.638q.127-1.662.233-3.121c.229-3.124.411-5.591.689-7.528a.75.75 0 0 1 1.485.214c-.271 1.885-.45 4.329-.678 7.425-.072.974-.148 2.015-.234 3.127l-.131 1.64a.75.75 0 0 1-.747.689z" style="fill:#010101"/>
            <path data-name="Path 2635" d="M27.548 64.75H25.48c-9.129 0-9.308-2.021-10.3-13.235-.255-2.9-.573-6.5-1.115-10.9a115.37 115.37 0 0 0-.465-3.269c-.692-4.545-1.29-8.469.968-11.1 1.822-2.12 5.288-3.107 10.908-3.107 6.488 0 10.209 1.3 11.758 4.226 1.241-3.627 3.769-4.291 9.3-4.291 7.569 0 9.044 1.352 9.873 9.043.515 5.119 1.494 14.857 1.523 15.1.138 1.121.305 2.215.465 3.265.692 4.545 1.29 8.47-.967 11.1-1.821 2.118-5.282 3.1-10.894 3.1h-1.457zM25.48 24.639c-5.08 0-8.275.845-9.77 2.585-1.809 2.1-1.286 5.542-.623 9.893.162 1.064.33 2.17.471 3.312.545 4.425.864 8.046 1.12 10.955.987 11.2 1.046 11.866 8.8 11.866h2.065l18.99-.065c5.071 0 8.263-.845 9.756-2.582 1.808-2.1 1.285-5.541.622-9.893-.162-1.064-.331-2.172-.472-3.314-.033-.287-1.464-14.519-1.525-15.124-.752-6.979-1.535-7.7-8.381-7.7-6.546 0-7.735.84-8.482 5.993l-.951 6.581-.537-6.625c-.247-3.055-1.763-5.882-11.083-5.882z" style="fill:#010101"/>
        </g>
        <path data-name="Path 2636" d="M44.46 64.75H27.54A4.127 4.127 0 0 1 24.2 63a4.915 4.915 0 0 1-.692-4.383c2.423-7.6 6.558-16.664 12.5-16.664s10.071 9.062 12.495 16.664A4.918 4.918 0 0 1 47.8 63a4.13 4.13 0 0 1-3.34 1.75zM36 43.449c-3.869 0-7.9 5.694-11.066 15.619a3.411 3.411 0 0 0 .474 3.043 2.645 2.645 0 0 0 2.132 1.139h16.92a2.646 2.646 0 0 0 2.132-1.139 3.41 3.41 0 0 0 .473-3.043C43.9 49.143 39.868 43.449 36 43.449z" style="fill:#010101"/>
        <circle data-name="Ellipse 297" cx="3.715" cy="3.715" r="3.715" transform="translate(32.285 52.092)" style="fill:#fcc454"/>
    </g>
</svg>
