<svg data-name="Neutrophilic Inflammation icon" xmlns="http://www.w3.org/2000/svg" width="72" height="72" viewBox="0 0 72 72">
    <g data-name="Group 2262">
        <path data-name="Path 2611" d="M50.5 39.735c-.006-.012-.006-.025-.013-.037-.019-.034-.045-.061-.065-.094l-.019-.028c-3.306-5.414-11.659-4.6-13.5-4.347a10.332 10.332 0 0 1-4.677-6.245 8.119 8.119 0 0 0 4.807 1.5c3.884 0 7.044-2.487 7.044-5.542S40.915 19.4 37.031 19.4c-3.511 0-6.421 2.034-6.95 4.681 0 .011-.01.019-.012.03-.005.03-.006.057-.01.086a4.38 4.38 0 0 0-.049.382 12.224 12.224 0 0 0 5.563 12.258c-.261 1.419-1.136 4.857-3.705 6.967a7.959 7.959 0 0 0-.591-5.271c-1.626-3.493-5.186-5.292-7.936-4.013s-3.663 5.167-2.036 8.658c1.271 2.73 3.723 4.425 6.046 4.425.027 0 .054-.008.081-.009s.037.011.058.011h.073c6.646-.461 9.385-6.577 10.054-10.37a18 18 0 0 1 7.259.608A8.171 8.171 0 0 0 40.9 40.38c-2.55 2.9-2.763 6.9-.478 8.909a4.725 4.725 0 0 0 3.178 1.133 7.686 7.686 0 0 0 5.6-2.762c2.184-2.487 2.648-5.771 1.3-7.925z" style="fill:#b93b4e"/>
        <g data-name="Group 2261">
            <circle data-name="Ellipse 283" cx="2.727" cy="2.727" r="2.727" transform="translate(61.547 7.615)" style="opacity:.4;isolation:isolate;fill:#b93b4e"/>
            <path data-name="Path 2612" d="M10.832 59.965a2.727 2.727 0 1 0 2.726 2.727 2.727 2.727 0 0 0-2.726-2.727z" style="opacity:.4;isolation:isolate;fill:#b93b4e"/>
            <path data-name="Path 2613" d="M56.639 8.7A1.636 1.636 0 1 0 55 7.069 1.636 1.636 0 0 0 56.639 8.7z" style="opacity:.4;isolation:isolate;fill:#b93b4e"/>
            <circle data-name="Ellipse 284" cx="1.636" cy="1.636" r="1.636" transform="translate(16.83 64.328)" style="opacity:.4;isolation:isolate;fill:#b93b4e"/>
            <path data-name="Path 2614" d="M54.491 20.843a3.638 3.638 0 0 0 1.775-3.118 3.511 3.511 0 0 0-.053-.527h.053a2.087 2.087 0 1 0-1.981-2.708 3.608 3.608 0 0 0-1.67-.422 3.65 3.65 0 0 0-3.379 2.274 34.452 34.452 0 0 0-2.614-1.428 20.326 20.326 0 0 0-8.879-2.363c-3.082 0-5.946 1.507-8.83 2.487a24.252 24.252 0 0 0-7.934 4.035 21.018 21.018 0 0 0-5.914 6.792 22.633 22.633 0 0 0-2.736 8.8c-.121 3.05.983 6.1 1.967 8.992a25.859 25.859 0 0 0 4.759 7.684q.474.589.958 1.163a3.628 3.628 0 0 0-1.309 2.78 3.538 3.538 0 0 0 .054.527c-.018 0-.035-.005-.054-.005a2.087 2.087 0 1 0 1.982 2.708 3.592 3.592 0 0 0 4.784-1.346c.091.047.175.1.269.147a19.127 19.127 0 0 0 8.774 1.621 27.383 27.383 0 0 0 8.941-1.129c2.879-.979 5.947-1.953 8.4-3.785a19.839 19.839 0 0 0 5.748-7.2 22.266 22.266 0 0 0 2.056-9.01 25.346 25.346 0 0 0-1.175-9.174 26.5 26.5 0 0 0-3.992-7.794zm-32.149 8.79a1.6 1.6 0 1 1 1.6-1.6 1.6 1.6 0 0 1-1.6 1.6zm13.321 24.221a1.639 1.639 0 1 1 1.637-1.639 1.639 1.639 0 0 1-1.637 1.639zm16.111-18.666a1.639 1.639 0 1 1 1.639-1.638 1.638 1.638 0 0 1-1.639 1.638z" style="opacity:.4;isolation:isolate;fill:#b93b4e"/>
        </g>
        <path data-name="Path 2615" d="M14.778 53.178a.749.749 0 0 1-.628-.339 30.855 30.855 0 0 1-4.708-9.654l-.116-.479c-.774-3.167-1.652-6.758-1.211-10.506a28.022 28.022 0 0 1 4-10.525 25.4 25.4 0 0 1 7.626-7.847 27.883 27.883 0 0 1 9.606-4.185c.7-.186 1.4-.4 2.1-.623a21.684 21.684 0 0 1 8.27-1.382 23.447 23.447 0 0 1 10.446 3.724.75.75 0 1 1-.785 1.278A22.01 22.01 0 0 0 39.6 9.134a20.6 20.6 0 0 0-7.7 1.319c-.722.225-1.442.449-2.161.64a26.558 26.558 0 0 0-9.109 3.949 24.065 24.065 0 0 0-7.209 7.384 26.689 26.689 0 0 0-3.821 9.95c-.409 3.479.435 6.931 1.179 9.976l.116.478a29.634 29.634 0 0 0 4.505 9.187.749.749 0 0 1-.626 1.161z" style="fill:#010101"/>
        <path data-name="Path 2616" d="M36.436 63.944c-1.4 0-2.776-.081-4.106-.185l-.111-.009a25.508 25.508 0 0 1-9.3-2.193.75.75 0 1 1 .649-1.352 24.17 24.17 0 0 0 8.773 2.049l.11.009a30.729 30.729 0 0 0 10.122-.518l.567-.143a31.5 31.5 0 0 0 9.224-3.419 23.364 23.364 0 0 0 7.406-7.878A25.6 25.6 0 0 0 62.987 40.1a28.922 28.922 0 0 0-.527-10.58 28.953 28.953 0 0 0-4.707-9.8.75.75 0 1 1 1.223-.868 30.358 30.358 0 0 1 4.937 10.3 30.365 30.365 0 0 1 .563 11.128 27.045 27.045 0 0 1-3.42 10.794 24.853 24.853 0 0 1-7.9 8.38 32.67 32.67 0 0 1-9.656 3.6l-.566.142a26.2 26.2 0 0 1-6.498.748z" style="fill:#010101"/>
        <circle data-name="Ellipse 285" cx="2.727" cy="2.727" r="2.727" transform="translate(8.105 59.965)" style="fill:#b93b4e"/>
        <circle data-name="Ellipse 286" cx="1.636" cy="1.636" r="1.636" transform="translate(16.83 64.328)" style="fill:#b93b4e"/>
        <circle data-name="Ellipse 287" cx="1.636" cy="1.636" r="1.636" transform="translate(7.83 53.328)" style="fill:#b93b4e"/>
        <circle data-name="Ellipse 288" cx="1.636" cy="1.636" r="1.636" transform="translate(63.83 17.328)" style="fill:#b93b4e"/>
        <circle data-name="Ellipse 289" cx="2.727" cy="2.727" r="2.727" transform="translate(61.547 7.615)" style="fill:#b93b4e"/>
        <circle data-name="Ellipse 290" cx="1.636" cy="1.636" r="1.636" transform="translate(55.003 5.433)" style="fill:#b93b4e"/>
    </g>
</svg>
