<svg xmlns="http://www.w3.org/2000/svg" width="411" height="349" viewBox="0 0 411 349">
    <g data-name="Group 2929">
        <g data-name="Group 2224">
            <g data-name="Group 1859">
                <path data-name="Path 1005" d="M251.938 50.615a1.123 1.123 0 0 0-1.414-.721 165.157 165.157 0 0 0-104.071 101.225l-3.679-8.588-2.064.888 5.311 12.39 11.973-6.2-1.032-2-8.435 4.369a162.9 162.9 0 0 1 102.69-99.949 1.122 1.122 0 0 0 .721-1.414z" transform="translate(-114.586 -35.523)" style="fill:#b4b4b4"/>
                <path data-name="Path 1006" d="M146.142 157.054a1.128 1.128 0 0 1-.378-.066 1.115 1.115 0 0 1-.652-.615l-5.312-12.391a1.122 1.122 0 0 1 .588-1.473l2.064-.888a1.123 1.123 0 0 1 1.475.589l2.566 5.989A166.605 166.605 0 0 1 250.3 48.948a2.245 2.245 0 0 1 1.386 4.271 162.062 162.062 0 0 0-100.992 96.564l5.874-3.043a1.135 1.135 0 0 1 .856-.073 1.12 1.12 0 0 1 .657.554l1.032 2a1.121 1.121 0 0 1-.48 1.512l-11.974 6.2a1.124 1.124 0 0 1-.517.121zm-3.837-12.925 4.393 10.25 2.451-1.269a1.122 1.122 0 0 1-1.559-1.38l.029-.08a1.122 1.122 0 0 1-1.01.713 1.171 1.171 0 0 1-1.067-.68l-3.236-7.555zm14.3 5.122-6.912 3.579 6.913-3.578zm71.431-88.689-.018.009zm22.959-9.479a160.741 160.741 0 0 0-22.957 9.478 160.735 160.735 0 0 1 22.957-9.477z" transform="translate(-114.709 -35.645)" style="fill:#b4b4b4"/>
            </g>
            <g data-name="Group 1860">
                <path data-name="Path 1007" d="M434.687 155.92A165.164 165.164 0 0 0 333.462 51.849l8.588-3.679-.887-2.064-12.391 5.311 6.2 11.973 2-1.032-4.372-8.435a162.9 162.9 0 0 1 99.954 102.691 1.123 1.123 0 0 0 2.136-.694z" transform="translate(-91.559 -35.98)" style="fill:#b4b4b4"/>
                <path data-name="Path 1008" d="M433.742 158.634a2.241 2.241 0 0 1-2.136-1.552A162.074 162.074 0 0 0 335.043 56.09l3.042 5.875a1.124 1.124 0 0 1-.482 1.514l-2 1.03a1.125 1.125 0 0 1-1.512-.48l-6.2-11.973a1.124 1.124 0 0 1 .554-1.548l12.398-5.308a1.121 1.121 0 0 1 1.474.589l.887 2.065a1.123 1.123 0 0 1-.59 1.474l-5.988 2.565A166.613 166.613 0 0 1 435.877 155.7a2.245 2.245 0 0 1-2.135 2.937zM330.446 52.095 335.573 62l-3.852-7.437a1.123 1.123 0 0 1 1.373-1.574l.083.029a1.122 1.122 0 0 1-.057-2.07zM340.7 47.7l-6.884 2.952L340.7 47.7z" transform="translate(-91.681 -36.102)" style="fill:#b4b4b4"/>
            </g>
            <g data-name="Group 1861">
                <path data-name="Path 1009" d="m439.055 246.558-5.31-12.39-11.974 6.2 1.032 2 8.436-4.369a162.913 162.913 0 0 1-102.692 99.955 1.122 1.122 0 0 0 .347 2.19 1.135 1.135 0 0 0 .347-.055 165.169 165.169 0 0 0 104.072-101.23l3.678 8.587z" transform="translate(-91.681 -12.952)" style="fill:#b4b4b4"/>
                <path data-name="Path 1010" d="M329.016 341.383a2.245 2.245 0 0 1-.694-4.38 162.078 162.078 0 0 0 100.993-96.566l-5.874 3.043a1.121 1.121 0 0 1-1.514-.48l-1.032-2a1.122 1.122 0 0 1 .482-1.511l11.973-6.2a1.121 1.121 0 0 1 1.548.554l5.31 12.39a1.123 1.123 0 0 1-.587 1.474l-2.065.888a1.122 1.122 0 0 1-1.475-.589l-2.565-5.988a166.611 166.611 0 0 1-103.809 99.251 2.239 2.239 0 0 1-.691.114zm5.739-4.23q-2.847 1.047-5.738 1.986 2.893-.939 5.738-1.986zm.034-.011-.029.01zm.033-.012-.018.007zm.034-.013h-.01zm.034-.011zm98.546-99.246a1.121 1.121 0 0 1 1.031.68l3.236 7.554-4.394-10.249-2.439 1.263a1.122 1.122 0 0 1 1.548 1.385l-.028.075a1.12 1.12 0 0 1 1.009-.706zm-10.029 3.11 6.07-3.143z" transform="translate(-91.803 -13.075)" style="fill:#b4b4b4"/>
            </g>
            <g data-name="Group 1862">
                <path data-name="Path 1011" d="m244.215 327.166-2 1.032 4.369 8.436a162.911 162.911 0 0 1-99.954-102.692 1.123 1.123 0 0 0-2.136.693 165.173 165.173 0 0 0 101.229 104.074l-8.588 3.678.888 2.064 12.39-5.31z" transform="translate(-114.13 -13.074)" style="fill:#750010"/>
                <path data-name="Path 1012" d="M238.145 345.7a1.121 1.121 0 0 1-1.032-.679l-.887-2.064a1.12 1.12 0 0 1 .589-1.474l5.987-2.566a166.617 166.617 0 0 1-99.25-103.817 2.245 2.245 0 0 1 4.271-1.385 162.076 162.076 0 0 0 96.564 100.992l-3.043-5.875a1.124 1.124 0 0 1 .483-1.514l2-1.03a1.126 1.126 0 0 1 1.512.482l6.2 11.973a1.124 1.124 0 0 1-.554 1.548l-12.391 5.31a1.107 1.107 0 0 1-.449.099zm.587-2.6 6.727-2.884zm7.5-5.323a1.122 1.122 0 0 1 .075 2.078l2.678-1.147-1.272-2.458a1.123 1.123 0 0 1-1.378 1.565 1.106 1.106 0 0 0-.105-.038zm-2.375-8.974 3.7 7.144-3.7-7.145z" transform="translate(-114.252 -13.196)" style="fill:#750010"/>
            </g>
            <g data-name="Group 1864">
                <path data-name="Path 1013" d="m244.046 71.023-.883 2.065 8.6 3.668A135.7 135.7 0 0 0 169.4 161.95a1.122 1.122 0 0 0 .721 1.414 1.135 1.135 0 0 0 .347.055 1.123 1.123 0 0 0 1.067-.777 133.444 133.444 0 0 1 81.087-83.81l-4.353 8.436 2 1.028 6.179-11.982z" transform="translate(-111.08 -32.928)" style="fill:#750010"/>
                <path data-name="Path 1014" d="M170.589 164.665a2.247 2.247 0 0 1-2.136-2.937 137.148 137.148 0 0 1 80.414-84.915l-6.023-2.568a1.125 1.125 0 0 1-.592-1.474l.884-2.066a1.122 1.122 0 0 1 1.473-.592l12.4 5.292a1.123 1.123 0 0 1 .557 1.547l-6.179 11.983a1.118 1.118 0 0 1-1.512.484l-2-1.028a1.121 1.121 0 0 1-.484-1.512l3.017-5.849a132.612 132.612 0 0 0-77.687 82.084 2.239 2.239 0 0 1-2.132 1.551zm1.1-5.48q-.569 1.608-1.1 3.235.527-1.627 1.097-3.235zm.01-.028-.008.024zm.01-.027-.006.016zm.01-.027v.008zm.009-.028zM249.9 86.908l5.113-9.913-10.253-4.378 7.565 3.227a1.122 1.122 0 0 1-.038 2.08l.074-.027a1.123 1.123 0 0 1 1.381 1.569z" transform="translate(-111.203 -33.05)" style="fill:#750010"/>
            </g>
            <g data-name="Group 1865">
                <path data-name="Path 1015" d="m410.011 148.559-3.668 8.6a135.709 135.709 0 0 0-85.194-82.363 1.122 1.122 0 1 0-.693 2.135 133.458 133.458 0 0 1 83.811 81.088l-8.437-4.353-1.028 2 11.983 6.179 5.292-12.4z" transform="translate(-92.672 -32.472)" style="fill:#b4b4b4"/>
                <path data-name="Path 1016" d="M406.908 163.086a1.112 1.112 0 0 1-.515-.126l-11.983-6.178a1.123 1.123 0 0 1-.483-1.512l1.028-2a1.123 1.123 0 0 1 1.513-.484l5.847 3.017a132.622 132.622 0 0 0-82.082-77.687 2.244 2.244 0 0 1 1.382-4.271 137.161 137.161 0 0 1 84.919 80.416l2.568-6.023a1.123 1.123 0 0 1 1.474-.59l2.066.882a1.123 1.123 0 0 1 .59 1.473l-5.291 12.4a1.128 1.128 0 0 1-1.033.682zm-3-3.931 2.439 1.257 1.138-2.667a1.077 1.077 0 0 1-1.052.658 1.124 1.124 0 0 1-1.017-.721l.027.075a1.123 1.123 0 0 1-1.536 1.4zm-7.473-3.854 5.763 2.972-5.762-2.974zm14.289-5.145-2.686 6.3 2.688-6.3z" transform="translate(-92.794 -32.595)" style="fill:#b4b4b4"/>
            </g>
            <g data-name="Group 1866">
                <path data-name="Path 1017" d="M407.006 225.131a1.121 1.121 0 0 0-1.413.721 133.452 133.452 0 0 1-81.088 83.812l4.353-8.437-2-1.028-6.179 11.983 12.4 5.291.883-2.065-8.6-3.667a135.711 135.711 0 0 0 82.363-85.195 1.123 1.123 0 0 0-.719-1.415z" transform="translate(-92.55 -14.064)" style="fill:#b4b4b4"/>
                <path data-name="Path 1018" d="M333.2 318.718a1.115 1.115 0 0 1-.441-.09l-12.4-5.291a1.123 1.123 0 0 1-.558-1.547l6.18-11.983a1.119 1.119 0 0 1 1.511-.484l2 1.028a1.122 1.122 0 0 1 .484 1.513l-3.017 5.849a132.615 132.615 0 0 0 77.686-82.085 2.246 2.246 0 0 1 2.827-1.442 2.248 2.248 0 0 1 1.442 2.827A137.161 137.161 0 0 1 328.5 311.93l6.022 2.568a1.122 1.122 0 0 1 .591 1.474l-.883 2.065a1.124 1.124 0 0 1-1.03.681zm-5.51-4.694 4.92 2.1zm-5.337-2.277 2.658 1.133a1.121 1.121 0 0 1 .092-2.07q2.334-.849 4.627-1.781-2.34.951-4.721 1.815a1.123 1.123 0 0 1-1.381-1.57l3.839-7.44zm84.427-85.425a131.433 131.433 0 0 1-7.082 17.435 131.587 131.587 0 0 0 7.083-17.435z" transform="translate(-92.672 -14.187)" style="fill:#b4b4b4"/>
            </g>
            <g data-name="Group 1867">
                <path data-name="Path 1019" d="M257.247 310.988a133.453 133.453 0 0 1-83.811-81.088l8.437 4.353 1.028-2-11.982-6.179-5.292 12.4 2.065.883 3.668-8.6a135.715 135.715 0 0 0 85.194 82.363 1.135 1.135 0 0 0 .347.055 1.123 1.123 0 0 0 .346-2.191z" transform="translate(-111.535 -13.942)" style="fill:#b4b4b4"/>
                <path data-name="Path 1020" d="M257.024 314.424a2.264 2.264 0 0 1-.691-.109 137.159 137.159 0 0 1-84.917-80.415l-2.568 6.023a1.124 1.124 0 0 1-1.475.59l-2.065-.883a1.123 1.123 0 0 1-.59-1.473l5.292-12.4a1.125 1.125 0 0 1 1.547-.557l11.983 6.18a1.123 1.123 0 0 1 .483 1.512l-1.028 2a1.118 1.118 0 0 1-.656.554 1.1 1.1 0 0 1-.856-.071l-5.849-3.018a132.62 132.62 0 0 0 82.083 77.687 2.246 2.246 0 0 1-.694 4.381zm-5.736-4.256q2.84 1.069 5.736 2.011l.346-1.069-.346 1.069q-2.896-.941-5.736-2.011zm-.025-.009.024.009zm-84.041-72.151 2.4-5.625zm6.336-9.106a1.105 1.105 0 0 1 .515.126l7.438 3.838-9.912-5.113-1.137 2.666a1.122 1.122 0 0 1 2.068.064l-.026-.074a1.122 1.122 0 0 1 1.054-1.505z" transform="translate(-111.658 -14.065)" style="fill:#b4b4b4"/>
            </g>
            <g data-name="Group 1873">
                <path data-name="Path 1027" d="M404.122 214.593a1.127 1.127 0 0 0-1.4-.752c-27.619 8.3-66.686 13.056-107.184 13.056-38.915 0-75.345-4.208-102.936-11.847l8.41-4.413-1.046-1.989-11.935 6.267 7.117 11.45 1.909-1.184-4.934-7.935c27.768 7.672 64.36 11.9 103.415 11.9 40.708 0 80.01-4.793 107.829-13.151a1.123 1.123 0 0 0 .755-1.402z" transform="translate(-108.791 -16.077)" style="fill:#b4b4b4"/>
                <path data-name="Path 1028" d="M295.663 230.387c-37.743 0-73.443-3.967-100.959-11.194l3.431 5.517a1.121 1.121 0 0 1-.36 1.546l-1.91 1.185a1.121 1.121 0 0 1-1.544-.36L187.2 215.63a1.123 1.123 0 0 1 .431-1.587l11.935-6.267a1.126 1.126 0 0 1 1.515.471l1.046 1.988a1.124 1.124 0 0 1-.471 1.518l-5.874 3.081c27.153 7.143 62.468 11.063 99.878 11.063 40.395 0 79.344-4.741 106.86-13.009a2.246 2.246 0 0 1 1.292 4.3c-27.917 8.388-67.337 13.199-108.149 13.199zm-.342-2.245zm-103.769-9.769 4.083 6.569zm-1.8-2.9 1.539 2.476a1.122 1.122 0 0 1 .064-1.249 1.134 1.134 0 0 1 1.179-.415l-.1-.028a1.123 1.123 0 0 1-.256-2.057zm214.5-.754-1.075.322zm-204.625-4.43-5.323 2.795 5.324-2.793z" transform="translate(-108.914 -16.199)" style="fill:#b4b4b4"/>
            </g>
            <g data-name="Group 1869">
                <path data-name="Path 1021" d="m264.66 295.6-4.4 8.413c-7.674-27.564-11.9-64-11.9-102.949 0-40.538 4.781-79.611 13.115-107.2a1.122 1.122 0 1 0-2.148-.649c-8.4 27.79-13.211 67.1-13.211 107.847 0 39.094 4.244 75.693 11.951 103.437l-7.942-4.926-1.182 1.91 11.457 7.1 6.253-11.945z" transform="translate(-101.68 -30.308)" style="fill:#b4b4b4"/>
                <path data-name="Path 1022" d="M260.52 309.829a1.11 1.11 0 0 1-.59-.17l-11.458-7.1a1.123 1.123 0 0 1-.364-1.544l1.182-1.91a1.124 1.124 0 0 1 1.547-.363l5.524 3.427c-7.26-27.492-11.246-63.2-11.246-100.983 0-40.856 4.832-80.283 13.259-108.171a2.244 2.244 0 1 1 4.3 1.3c-8.3 27.485-13.066 66.439-13.066 106.873 0 37.44 3.938 72.76 11.111 99.89l3.073-5.875a1.124 1.124 0 0 1 .66-.551 1.105 1.105 0 0 1 .856.077l1.99 1.044a1.122 1.122 0 0 1 .473 1.514l-6.253 11.945a1.123 1.123 0 0 1-.7.562 1.157 1.157 0 0 1-.298.035zm-2.887-4.234 2.453 1.521 1.284-2.453a1.123 1.123 0 0 1-2.07-.231l-.025-.093a1.123 1.123 0 0 1-1.642 1.256zm7.624-8.361-3.71 7.092 3.712-7.09zm-14.649 4.006 4.557 2.825-4.556-2.825zm-3.248-99.75zm0-.247zm0-.6z" transform="translate(-101.802 -30.431)" style="fill:#b4b4b4"/>
            </g>
            <g data-name="Group 1870">
                <path data-name="Path 1023" d="m311.8 97.5 7.942 4.926 1.183-1.91-11.458-7.1-6.253 11.945 1.99 1.043 4.4-8.412c7.674 27.563 11.9 64 11.9 102.948 0 40.537-4.78 79.611-13.115 107.2a1.122 1.122 0 1 0 2.148.649c8.4-27.791 13.211-67.1 13.211-107.848.002-39.098-4.242-75.699-11.948-103.441z" transform="translate(-94.688 -30.185)" style="fill:#b4b4b4"/>
                <path data-name="Path 1024" d="M309.587 310.829a2.255 2.255 0 0 1-.652-.1 2.244 2.244 0 0 1-1.5-2.8c8.3-27.488 13.066-66.442 13.066-106.874 0-37.443-3.937-72.76-11.111-99.889l-3.073 5.874a1.125 1.125 0 0 1-1.516.474l-1.989-1.044a1.121 1.121 0 0 1-.473-1.514l6.261-11.94a1.119 1.119 0 0 1 .7-.562 1.135 1.135 0 0 1 .888.129l11.458 7.1a1.123 1.123 0 0 1 .354 1.547l-1.182 1.912a1.122 1.122 0 0 1-1.546.363l-5.525-3.426c7.26 27.49 11.246 63.2 11.246 100.982 0 40.854-4.832 80.282-13.259 108.173a2.229 2.229 0 0 1-2.147 1.595zM322.75 201.12zm0-.345zm0-.057zm-17.9-95.71 3.88-7.417a1.123 1.123 0 0 1 2.077.22l.02.074a1.122 1.122 0 0 1 1.683-1.216L319.5 101l-9.479-5.875z" transform="translate(-94.81 -30.308)" style="fill:#b4b4b4"/>
            </g>
            <g data-name="Group 1872">
                <path data-name="Path 1025" d="m396.051 154.288-1.909 1.184 4.935 7.935c-27.768-7.672-64.36-11.9-103.413-11.9-40.711 0-80.013 4.793-107.83 13.151a1.123 1.123 0 0 0 .645 2.151c27.617-8.3 66.684-13.056 107.185-13.056 38.914 0 75.344 4.208 102.935 11.847l-8.412 4.415 1.046 1.985 11.936-6.267z" transform="translate(-108.914 -23.074)" style="fill:#750010"/>
                <path data-name="Path 1026" d="M391.357 173.25a1.122 1.122 0 0 1-.994-.6l-1.046-1.988a1.123 1.123 0 0 1 .473-1.518l5.874-3.082C368.511 158.921 333.195 155 295.786 155c-40.395 0-79.344 4.741-106.863 13.009a2.28 2.28 0 0 1-2.795-1.5 2.248 2.248 0 0 1 1.5-2.8c27.918-8.387 67.338-13.2 108.153-13.2 37.742 0 73.442 3.967 100.956 11.194l-3.431-5.517a1.123 1.123 0 0 1 .363-1.547l1.908-1.183a1.123 1.123 0 0 1 1.544.36l7.119 11.449a1.123 1.123 0 0 1-.431 1.587l-11.936 6.268a1.13 1.13 0 0 1-.516.13zm.469-2.639 5.7-2.994zm7.1-5.994.1.026a1.123 1.123 0 0 1 .249 2.061l2.431-1.276-5.889-9.472 4.341 6.979a1.122 1.122 0 0 1-1.226 1.681zm-103.14-11.862c-40.606 0-79.79 4.776-107.508 13.1 27.722-8.323 66.903-13.1 107.508-13.1zm.249 0z" transform="translate(-109.037 -23.196)" style="fill:#750010"/>
            </g>
        </g>
        <text data-name="Chronic airway infection" transform="translate(187 14)" style="font-size:14px;font-family:NunitoSans-ExtraBold,Nunito Sans;font-weight:800;fill:#707070"><tspan x="-25.256" y="0">Chronic</tspan><tspan x="-22.274" y="16">airway</tspan><tspan x="-28.714" y="32">infection</tspan></text>
        <text data-name="Chronic airway inflammation, primarily neutrophilic" transform="translate(299 137)" style="font-size:14px;font-family:NunitoSans-ExtraBold,Nunito Sans;font-weight:800;fill:#707070"><tspan x="-49.483" y="14">Chronic airway </tspan><tspan x="-45.248" y="30">inflammation, </tspan><tspan x="-29.267" y="46">primarily </tspan><tspan x="-39.102" y="62">neutrophilic</tspan></text>
        <text data-name="Lung destruction" transform="translate(38 167)" style="font-size:14px;font-family:NunitoSans-ExtraBold,Nunito Sans;font-weight:800;fill:#750010"><tspan x="-16.478" y="0">Lung</tspan><tspan x="-37.387" y="16">destruction</tspan></text>
        <text data-name="Impaired mucociliary clearance" transform="translate(187 312)" style="font-size:14px;font-family:NunitoSans-ExtraBold,Nunito Sans;font-weight:800;fill:#707070"><tspan x="-29.008" y="0">Impaired</tspan><tspan x="-37.534" y="16">mucociliary</tspan><tspan x="-30.863" y="32">clearance</tspan></text>
    </g>
</svg>
