<svg xmlns="http://www.w3.org/2000/svg" width="780" height="423" viewBox="0 0 780 423">
    <g data-name="Group 2479" transform="translate(-264 -2907)">
        <text data-name="0" transform="translate(335 3287)" style="font-family:NunitoSans-Regular,Nunito Sans;font-size:18px"><tspan x="0" y="0">0</tspan></text>
        <text data-name="n=4,818" transform="translate(366 3324)" style="font-family:NunitoSans-Regular,Nunito Sans;font-size:18px"><tspan x="0" y="0">n=4,818</tspan></text>
        <text data-name="1-year follow-up" transform="translate(446 2925)" style="font-family:NunitoSans-Bold,Nunito Sans;font-weight:700;font-size:18px"><tspan x="0" y="0">1-year follow-up</tspan></text>
        <text data-name="% of patients with pulmonary exacerbations" transform="rotate(-90 1799.75 1517.75)" style="font-family:NunitoSans-Bold,Nunito Sans;font-weight:700;font-size:18px"><tspan x="0" y="0">% of patients with pulmonary exacerbations</tspan></text>
        <text data-name="2-year follow-up" transform="translate(829 2925)" style="font-family:NunitoSans-Bold,Nunito Sans;font-weight:700;font-size:18px"><tspan x="0" y="0">2-year follow-up</tspan></text>
        <text data-name="3,475" transform="translate(749 3324)" style="font-family:NunitoSans-Regular,Nunito Sans;font-size:18px"><tspan x="0" y="0">3,475</tspan></text>
        <text data-name="3,098" transform="translate(458 3324)" style="font-family:NunitoSans-Regular,Nunito Sans;font-size:18px"><tspan x="0" y="0">3,098</tspan></text>
        <text data-name="2,554" transform="translate(830 3324)" style="font-family:NunitoSans-Regular,Nunito Sans;font-size:18px"><tspan x="0" y="0">2,554</tspan></text>
        <text data-name="2,083" transform="translate(540 3324)" style="font-family:NunitoSans-Regular,Nunito Sans;font-size:18px"><tspan x="0" y="0">2,083</tspan></text>
        <text data-name="1,935" transform="translate(913 3324)" style="font-family:NunitoSans-Regular,Nunito Sans;font-size:18px"><tspan x="0" y="0">1,935</tspan></text>
        <text data-name="4,799" transform="translate(622 3324)" style="font-family:NunitoSans-Regular,Nunito Sans;font-size:18px"><tspan x="0" y="0">4,799</tspan></text>
        <text data-name="6,834" transform="translate(996 3324)" style="font-family:NunitoSans-Regular,Nunito Sans;font-size:18px"><tspan x="0" y="0">6,834</tspan></text>
        <text data-name="20" transform="translate(335 3162)" style="font-family:NunitoSans-Regular,Nunito Sans;font-size:18px"><tspan x="0" y="0">20</tspan></text>
        <text data-name="45" transform="translate(335 3006)" style="font-family:NunitoSans-Regular,Nunito Sans;font-size:18px"><tspan x="0" y="0">45</tspan></text>
        <text data-name="10" transform="translate(335 3225)" style="font-family:NunitoSans-Regular,Nunito Sans;font-size:18px"><tspan x="0" y="0">10</tspan></text>
        <text data-name="30" transform="translate(335 3100)" style="font-family:NunitoSans-Regular,Nunito Sans;font-size:18px"><tspan x="0" y="0">30</tspan></text>
        <text data-name="5" transform="translate(335 3256)" style="font-family:NunitoSans-Regular,Nunito Sans;font-size:18px"><tspan x="0" y="0">5</tspan></text>
        <text data-name="25" transform="translate(335 3131)" style="font-family:NunitoSans-Regular,Nunito Sans;font-size:18px"><tspan x="0" y="0">25</tspan></text>
        <text data-name="50" transform="translate(335 2975)" style="font-family:NunitoSans-Regular,Nunito Sans;font-size:18px"><tspan x="0" y="0">50</tspan></text>
        <text data-name="15" transform="translate(335 3193)" style="font-family:NunitoSans-Regular,Nunito Sans;font-size:18px"><tspan x="0" y="0">15</tspan></text>
        <text data-name="40" transform="translate(335 3037)" style="font-family:NunitoSans-Regular,Nunito Sans;font-size:18px"><tspan x="0" y="0">40</tspan></text>
        <text data-name="35" transform="translate(335 3069)" style="font-family:NunitoSans-Regular,Nunito Sans;font-size:18px"><tspan x="0" y="0">35</tspan></text>
        <rect data-name="Rectangle 999" width="43" height="324" rx="8" transform="translate(460 2957)" style="fill:#ebebeb"/>
        <rect data-name="Rectangle 1004" width="43" height="324" rx="8" transform="translate(833 2957)" style="fill:#ebebeb"/>
        <rect data-name="Rectangle 1000" width="43" height="324" rx="8" transform="translate(542 2957)" style="fill:#ebebeb"/>
        <rect data-name="Rectangle 1005" width="43" height="324" rx="8" transform="translate(915 2957)" style="fill:#ebebeb"/>
        <rect data-name="Rectangle 1001" width="43" height="324" rx="8" transform="translate(624 2957)" style="fill:#ebebeb"/>
        <rect data-name="Rectangle 1006" width="43" height="324" rx="8" transform="translate(997 2957)" style="fill:#ebebeb"/>
        <rect data-name="Rectangle 1002" width="43" height="324" rx="8" transform="translate(378 2957)" style="fill:#ebebeb"/>
        <rect data-name="Rectangle 1007" width="43" height="203" rx="8" transform="translate(624 3078)" style="fill:#750010"/>
        <rect data-name="Rectangle 1010" width="43" height="204" rx="8" transform="translate(378 3077)" style="fill:#fcc454"/>
        <rect data-name="Rectangle 1008" width="43" height="130" rx="8" transform="translate(460 3151)" style="fill:#ff7f51"/>
        <rect data-name="Rectangle 1009" width="43" height="89" rx="8" transform="translate(542 3192)" style="fill:#b83b4d"/>
        <rect data-name="Rectangle 1003" width="43" height="324" rx="8" transform="translate(751 2957)" style="fill:#ebebeb"/>
        <rect data-name="Rectangle 1012" width="43" height="147" rx="8" transform="translate(751 3134)" style="fill:#fcc454"/>
        <rect data-name="Rectangle 1013" width="43" height="109" rx="8" transform="translate(833 3172)" style="fill:#ff7f51"/>
        <rect data-name="Rectangle 1015" width="43" height="289" rx="8" transform="translate(997 2992)" style="fill:#750010"/>
        <rect data-name="Rectangle 1014" width="43" height="84" rx="8" transform="translate(915 3197)" style="fill:#b83b4d"/>
        <text data-name="20.9" transform="translate(482 3142)" style="font-family:NunitoSans-Bold,Nunito Sans;font-weight:700;font-size:18px"><tspan x="-18.441" y="0">20.9</tspan></text>
        <text data-name="17.3" transform="translate(855 3163)" style="font-family:NunitoSans-Bold,Nunito Sans;font-weight:700;font-size:18px"><tspan x="-18.432" y="0">17.3</tspan></text>
        <text data-name="32.6" transform="translate(400 3068)" style="font-family:NunitoSans-Bold,Nunito Sans;font-weight:700;font-size:18px"><tspan x="-18.441" y="0">32.6</tspan></text>
        <text data-name="23.5" transform="translate(773 3125)" style="font-family:NunitoSans-Bold,Nunito Sans;font-weight:700;font-size:18px"><tspan x="-18.441" y="0">23.5</tspan></text>
        <text data-name="14.1" transform="translate(564 3183)" style="font-family:NunitoSans-Bold,Nunito Sans;font-weight:700;font-size:18px"><tspan x="-18.432" y="0">14.1</tspan></text>
        <text data-name="13.1" transform="translate(937 3188)" style="font-family:NunitoSans-Bold,Nunito Sans;font-weight:700;font-size:18px"><tspan x="-18.432" y="0">13.1</tspan></text>
        <text data-name="32.4" transform="translate(645 3069)" style="font-family:NunitoSans-Bold,Nunito Sans;font-weight:700;font-size:18px"><tspan x="-18.441" y="0">32.4</tspan></text>
        <text data-name="46.2" transform="translate(1019 2983)" style="font-family:NunitoSans-Bold,Nunito Sans;font-weight:700;font-size:18px"><tspan x="-18.441" y="0">46.2</tspan></text>
    </g>
</svg>
