<svg xmlns="http://www.w3.org/2000/svg" width="335.392" height="123.147" viewBox="0 0 335.392 123.147">
    <g data-name="Group 1601">
        <path data-name="Path 858" d="m18.131 77.449-3.295 23.556a.753.753 0 0 1-.793.752l-2.533.175c-.525.041-.731-.144-.885-.628L6.867 89.34c-.062-.227-.329-.175-.36.062l-1.75 12.314a.753.753 0 0 1-.793.752l-3.356.232c-.494.031-.659-.154-.6-.649L3.3 78.5a.753.753 0 0 1 .793-.752l2.533-.175c.525-.041.721.144.885.628l3.758 11.964c.062.227.329.175.36-.062l1.709-12.314a.753.753 0 0 1 .793-.752l3.4-.237c.497-.031.661.155.6.649z" transform="translate(.002 -6.515)" style="fill:#750010"/>
        <path data-name="Path 859" d="M24.4 89.955c-.041.35.041.432.391.412l3.295-.227c.35-.021.463.1.412.453l-.35 2.4a.522.522 0 0 1-.556.525l-3.295.227c-.35.021-.463.124-.5.474L23.4 97.08c-.041.35.041.432.391.412l3.295-.227c.35-.021.463.1.412.453l-.35 2.4a.522.522 0 0 1-.556.525l-7.011.494c-.35.021-.463-.1-.412-.453l2.306-16.494a.522.522 0 0 1 .556-.525l7.011-.494c.35-.021.463.1.412.453l-.35 2.4a.522.522 0 0 1-.556.525l-3.295.226c-.35.021-.443.124-.484.474l-.391 2.7z" transform="translate(.569 -6.327)" style="fill:#750010"/>
        <path data-name="Path 860" d="m43.655 82.643-1.5 10.81c-.535 3.82-2.533 6.517-6.249 6.775s-5.024-2.214-4.5-6.023l1.5-10.81a.522.522 0 0 1 .556-.525l2.79-.2c.35-.021.463.1.412.453l-1.5 10.831c-.227 1.534-.113 2.842 1.225 2.749 1.318-.093 1.781-1.441 2.008-2.975L39.9 82.9a.522.522 0 0 1 .556-.525l2.79-.2c.35-.021.463.1.412.453z" transform="translate(.927 -6.356)" style="fill:#750010"/>
        <path data-name="Path 861" d="m56.411 81.743-.35 2.4a.522.522 0 0 1-.556.525l-2.08.144c-.35.021-.463.124-.5.474l-1.847 13.157a.522.522 0 0 1-.556.525l-2.79.2c-.35.021-.463-.1-.412-.453l1.843-13.158c.041-.35-.021-.432-.371-.412l-2.08.144c-.35.021-.463-.1-.412-.453l.319-2.4a.522.522 0 0 1 .556-.525l8.813-.618c.35-.021.463.1.412.453z" transform="translate(1.371 -6.383)" style="fill:#750010"/>
        <path data-name="Path 862" d="m57.32 98.009 2.306-16.494a.522.522 0 0 1 .556-.525l4.705-.329c2.842-.2 4.664 1.884 4.221 5.168l-.093.7a6.9 6.9 0 0 1-2.533 4.561l1.688 6.177a.352.352 0 0 1-.3.484l-3.017.216c-.3.021-.463-.062-.5-.288l-1.318-5.24-.762.051c-.35.021-.463.124-.5.474l-.673 4.777a.522.522 0 0 1-.556.525l-2.79.2c-.35.021-.463-.1-.412-.453zm6-9.132a2.323 2.323 0 0 0 1.966-2.214l.072-.556c.227-1.441-.484-2.09-1.359-2.028l-.577.041c-.35.021-.443.124-.484.474l-.556 3.912c-.041.35.021.432.371.412l.577-.041z" transform="translate(1.697 -6.401)" style="fill:#750010"/>
        <path data-name="Path 863" d="m71.693 91.383.69-5.127c.5-3.82 2.564-6.517 6.27-6.785s4.983 2.214 4.479 6.033l-.69 5.127c-.5 3.82-2.564 6.517-6.27 6.785s-4.983-2.214-4.479-6.033zm6.991-.463.69-5.148c.227-1.534.134-2.872-1.2-2.78-1.318.093-1.822 1.462-2.028 3.006l-.69 5.148c-.227 1.534-.134 2.852 1.2 2.749 1.317-.095 1.801-1.442 2.028-2.976z" transform="translate(2.119 -6.437)" style="fill:#750010"/>
        <path data-name="Path 864" d="m85.16 96.059 2.306-16.494a.522.522 0 0 1 .556-.525l4.705-.329c2.842-.2 4.664 1.884 4.221 5.168l-.113.772a6.54 6.54 0 0 1-5.765 5.889l-.988.072c-.35.021-.443.124-.484.474l-.669 4.705a.522.522 0 0 1-.556.525l-2.79.2c-.35.021-.463-.1-.412-.453zm6-9.07a2.276 2.276 0 0 0 1.94-2.163l.093-.68c.185-1.441-.484-2.09-1.359-2.028l-.577.041c-.35.021-.443.124-.484.474l-.556 3.984c-.041.35.021.432.371.412l.577-.041z" transform="translate(2.52 -6.459)" style="fill:#750010"/>
        <path data-name="Path 865" d="m111.442 77.9-2.307 16.5a.522.522 0 0 1-.556.525l-2.79.2c-.35.021-.463-.1-.412-.453l.855-6.2c.041-.35-.021-.432-.371-.412l-2.234.154c-.35.021-.463.124-.5.474l-.855 6.2a.522.522 0 0 1-.556.525l-2.79.2c-.35.021-.463-.1-.412-.453l2.306-16.494a.522.522 0 0 1 .556-.525l2.79-.2c.35-.021.463.1.412.453l-.855 6.033c-.041.35.041.432.391.412l2.234-.154c.35-.021.443-.124.484-.474l.855-6.033a.522.522 0 0 1 .556-.525l2.79-.2c.35-.021.463.1.412.453z" transform="translate(2.914 -6.496)" style="fill:#750010"/>
        <path data-name="Path 866" d="M115.057 77.641a.522.522 0 0 1 .556-.525l2.79-.2c.35-.021.463.1.412.453l-2.306 16.494a.522.522 0 0 1-.556.525l-2.79.2c-.35.021-.463-.1-.412-.453l2.306-16.494z" transform="translate(3.335 -6.512)" style="fill:#750010"/>
        <path data-name="Path 867" d="m128.155 90.67-.35 2.4a.522.522 0 0 1-.556.525l-6.507.453c-.35.021-.463-.1-.412-.453l2.307-16.495a.522.522 0 0 1 .556-.525l2.79-.2c.35-.021.463.1.412.453l-1.843 13.158c-.041.35.041.432.391.412l2.79-.2c.35-.021.463.1.412.453z" transform="translate(3.559 -6.528)" style="fill:#750010"/>
        <path data-name="Path 868" d="M133.317 76.361a.522.522 0 0 1 .556-.525l2.79-.2c.35-.021.463.1.412.453l-2.306 16.494a.522.522 0 0 1-.556.525l-2.79.2c-.35.021-.463-.1-.412-.453z" transform="translate(3.875 -6.55)" style="fill:#750010"/>
        <path data-name="Path 869" d="m139.263 86.653.69-5.127c.535-3.82 2.564-6.517 6.27-6.785 3.48-.247 4.726 2.018 4.479 4.715-.021.237-.093.422-.371.443l-2.931.201c-.257.021-.391-.093-.371-.34.072-.762-.257-1.575-1.287-1.5-1.318.093-1.822 1.462-2.028 3.006l-.69 5.127c-.227 1.534-.134 2.872 1.2 2.78a1.979 1.979 0 0 0 1.75-1.74.455.455 0 0 1 .463-.381l2.955-.206c.278-.021.278.165.227.4a6.348 6.348 0 0 1-5.879 5.436c-3.717.257-5-2.214-4.479-6.023z" transform="translate(4.116 -6.577)" style="fill:#750010"/>
        <path data-name="Path 870" d="M164.845 67.168a.753.753 0 0 1 .793-.752l3.356-.237c.494-.031.659.154.6.649L166.3 90.385a.753.753 0 0 1-.793.752l-3.356.237c-.494.031-.659-.154-.6-.649z" transform="translate(4.778 -6.829)" style="fill:#750010"/>
        <path data-name="Path 871" d="m184.2 72.813-2.306 16.494a.522.522 0 0 1-.556.525l-2.08.144c-.391.031-.525-.124-.649-.443l-2.564-7.526c-.041-.134-.226-.1-.257.062l-1.08 7.731a.522.522 0 0 1-.556.525l-2.79.2c-.35.021-.463-.1-.412-.453l2.306-16.494a.522.522 0 0 1 .556-.525l2.08-.144a.544.544 0 0 1 .649.443l2.564 7.526c.041.134.227.124.257-.062l1.081-7.732a.522.522 0 0 1 .556-.525l2.79-.2c.35-.02.463.104.411.454z" transform="translate(5.056 -6.647)" style="fill:#750010"/>
        <path data-name="Path 872" d="m195.868 71.993-.35 2.4a.522.522 0 0 1-.556.525l-3.367.237c-.35.021-.443.124-.484.474l-.391 2.7c-.041.35.041.432.391.412l2.214-.154c.35-.021.463.1.412.453l-.319 2.4a.522.522 0 0 1-.556.525l-2.234.154c-.35.021-.463.124-.5.474l-.855 6.2a.522.522 0 0 1-.556.525l-2.79.2c-.35.021-.463-.1-.412-.453l2.306-16.494a.522.522 0 0 1 .556-.525l7.083-.494c.346-.033.459.091.408.441z" transform="translate(5.487 -6.671)" style="fill:#750010"/>
        <path data-name="Path 873" d="m204.605 85.33-.35 2.4a.522.522 0 0 1-.556.525l-6.507.453c-.35.021-.463-.1-.412-.453l2.306-16.494a.522.522 0 0 1 .556-.525l2.79-.2c.35-.021.463.1.412.453L201 84.651c-.041.35.041.432.391.412l2.79-.2c.35-.021.463.1.412.453z" transform="translate(5.82 -6.686)" style="fill:#750010"/>
        <path data-name="Path 874" d="M213.1 70.769a.665.665 0 0 1 .69-.515l2.234-.154c.371-.021.5.031.535.422l1.73 16.257a.4.4 0 0 1-.412.494l-2.862.2c-.3.021-.443-.062-.484-.432l-.165-1.575c-.021-.3-.113-.319-.412-.3l-2.306.165c-.3.021-.391.051-.5.36l-.6 1.637a.624.624 0 0 1-.628.5l-2.862.2c-.257.021-.412-.082-.278-.443l6.32-16.816zm-.6 11.161 1.544-.1a.254.254 0 0 0 .227-.268L214 77.564c-.021-.185-.226-.144-.278.021l-1.359 4.108c-.041.165 0 .257.134.247z" transform="translate(6.114 -6.713)" style="fill:#750010"/>
        <path data-name="Path 875" d="m221.22 86.563 2.306-16.494a.522.522 0 0 1 .556-.525l1.894-.134c.35-.021.391.206.463.453l2.1 9.328c.021.134.185.144.278-.021l4.757-9.812c.134-.268.257-.5.6-.525l1.894-.134c.35-.021.463.1.412.453l-2.306 16.483a.522.522 0 0 1-.556.525l-2.79.2c-.35.021-.463-.1-.412-.453l.741-5.168c.021-.165-.185-.2-.278 0l-2.533 5.343c-.165.329-.3.484-.669.5h-.077c-.371.031-.463-.1-.535-.422l-1.06-5.1c-.041-.185-.257-.144-.278.041l-.741 5.168a.522.522 0 0 1-.556.525l-2.79.2c-.35.021-.463-.1-.412-.453z" transform="translate(6.543 -6.755)" style="fill:#750010"/>
        <path data-name="Path 876" d="m237.71 85.4 2.306-16.494a.522.522 0 0 1 .556-.525l1.894-.134c.35-.021.391.206.463.453l2.1 9.328c.021.134.185.144.278-.021l4.757-9.812c.134-.268.257-.5.6-.525l1.894-.134c.35-.021.463.1.412.453l-2.306 16.494a.522.522 0 0 1-.556.525l-2.79.2c-.35.021-.463-.1-.412-.453l.741-5.168c.021-.165-.185-.2-.278 0l-2.533 5.343c-.165.329-.3.484-.669.5h-.072c-.371.031-.463-.1-.535-.422l-1.06-5.1c-.041-.185-.257-.144-.278.041l-.741 5.168a.522.522 0 0 1-.556.525l-2.79.2c-.35.021-.463-.1-.412-.453z" transform="translate(7.03 -6.789)" style="fill:#750010"/>
        <path data-name="Path 877" d="M259.863 67.5a.665.665 0 0 1 .69-.515l2.234-.154c.371-.021.5.031.535.422l1.73 16.257a.4.4 0 0 1-.412.494l-2.862.2c-.3.021-.443-.062-.484-.432l-.165-1.575c-.021-.3-.113-.319-.412-.3l-2.306.165c-.3.021-.391.051-.5.36l-.6 1.637a.621.621 0 0 1-.618.5l-2.862.2c-.257.021-.412-.082-.278-.443l6.32-16.816zm-.6 11.161 1.544-.1a.254.254 0 0 0 .227-.268l-.278-3.995c-.021-.185-.227-.144-.278.021l-1.359 4.108c-.041.165 0 .257.134.247z" transform="translate(7.497 -6.81)" style="fill:#750010"/>
        <path data-name="Path 878" d="m278.621 66.2-.35 2.4a.522.522 0 0 1-.556.525l-2.08.144c-.35.021-.463.124-.5.474L273.288 82.9a.522.522 0 0 1-.556.525l-2.79.2c-.35.021-.463-.1-.412-.453l1.843-13.158c.041-.35-.021-.432-.371-.412l-2.08.144c-.35.021-.463-.1-.412-.453l.319-2.4a.522.522 0 0 1 .556-.525l8.813-.618c.35-.021.463.1.412.453z" transform="translate(7.941 -6.842)" style="fill:#750010"/>
        <path data-name="Path 879" d="M281.827 65.971a.522.522 0 0 1 .556-.525l2.79-.2c.35-.021.463.1.412.453L283.278 82.2a.522.522 0 0 1-.556.525l-2.79.2c-.35.021-.463-.1-.412-.453z" transform="translate(8.266 -6.857)" style="fill:#750010"/>
        <path data-name="Path 880" d="m287.773 76.273.69-5.127c.5-3.82 2.564-6.517 6.27-6.785s4.983 2.214 4.479 6.023l-.69 5.127c-.5 3.82-2.564 6.517-6.27 6.775s-4.983-2.214-4.479-6.023zm6.991-.463.69-5.148c.227-1.534.134-2.872-1.2-2.78-1.318.093-1.822 1.462-2.028 3.006l-.69 5.148c-.227 1.534-.134 2.852 1.2 2.749 1.317-.093 1.801-1.442 2.028-2.976z" transform="translate(8.507 -6.884)" style="fill:#750010"/>
        <path data-name="Path 881" d="m314.481 63.7-2.306 16.5a.522.522 0 0 1-.556.525l-2.08.144a.544.544 0 0 1-.649-.443l-2.563-7.526c-.041-.134-.227-.1-.257.062l-1.081 7.732a.522.522 0 0 1-.556.525l-2.79.2c-.35.021-.463-.1-.412-.453l2.306-16.494a.522.522 0 0 1 .556-.525l2.08-.144a.544.544 0 0 1 .649.443l2.564 7.526c.041.134.227.124.257-.062l1.081-7.732a.522.522 0 0 1 .556-.525l2.79-.2c.35-.021.463.1.412.453z" transform="translate(8.908 -6.916)" style="fill:#750010"/>
    </g>
    <g data-name="Group 1602">
        <path data-name="Path 882" d="m69.1 124.136.494-3.686c.381-2.749 1.843-4.685 4.509-4.87 2.5-.175 3.4 1.452 3.212 3.387-.021.165-.062.3-.268.319l-2.1.144c-.185.01-.278-.062-.268-.247.051-.546-.185-1.133-.927-1.081-.947.062-1.308 1.05-1.462 2.162l-.494 3.686c-.165 1.1-.1 2.059.865 2a1.421 1.421 0 0 0 1.256-1.246.314.314 0 0 1 .329-.268l2.121-.144c.2-.01.2.113.165.288a4.566 4.566 0 0 1-4.232 3.912c-2.667.185-3.6-1.586-3.212-4.334z" transform="translate(-42.281 -5.358)" style="fill:#750010"/>
        <path data-name="Path 883" d="M81.382 115.564a.46.46 0 0 1 .494-.36l1.606-.113c.268-.021.36.021.381.309l1.246 11.686a.281.281 0 0 1-.3.35l-2.059.144c-.216.01-.319-.041-.35-.309l-.113-1.133c-.021-.216-.082-.227-.3-.216l-1.658.113c-.216.01-.278.041-.36.257l-.432 1.174c-.1.268-.237.35-.443.36l-2.059.144c-.185.01-.3-.062-.2-.319zm-.432 8.02 1.112-.082a.185.185 0 0 0 .165-.2l-.2-2.872c-.021-.134-.165-.1-.2.01l-.978 2.955c-.031.113 0 .185.1.175z" transform="translate(-42.051 -5.372)" style="fill:#750010"/>
        <path data-name="Path 884" d="m95.584 114.6-1.658 11.85a.365.365 0 0 1-.4.371l-1.493.1a.394.394 0 0 1-.463-.319l-1.844-5.402c-.031-.093-.165-.072-.185.041l-.782 5.56a.371.371 0 0 1-.4.371l-2.008.144c-.247.021-.329-.072-.3-.329l1.658-11.85a.365.365 0 0 1 .4-.371l1.493-.1a.394.394 0 0 1 .463.319l1.843 5.405c.031.093.165.093.185-.041l.782-5.56a.365.365 0 0 1 .4-.371l2.008-.144c.249-.025.332.068.301.326z" transform="translate(-41.778 -5.396)" style="fill:#750010"/>
        <path data-name="Path 885" d="m100.55 125.979 1.658-11.85a.365.365 0 0 1 .4-.371l3.614-.257a2.444 2.444 0 0 1 2.656 2.945l-.021.165a4.212 4.212 0 0 1-1.709 2.759 2.57 2.57 0 0 1 1.225 2.852l-.031.185a4.235 4.235 0 0 1-3.861 3.655l-3.634.257c-.247.021-.329-.072-.3-.329zm3.809-2.317a1.544 1.544 0 0 0 1.338-1.452l.031-.165c.113-.885-.3-1.338-.978-1.287l-.494.031c-.247.021-.319.093-.36.34l-.319 2.275c-.031.247.031.309.278.3l.494-.031zm.762-5.343a1.278 1.278 0 0 0 1.06-1.184V117c.1-.69-.227-1.081-.731-1.04l-.535.041c-.247.021-.319.093-.36.412l-.227 1.658c-.031.247.031.309.278.3l.515-.041z" transform="translate(-41.349 -5.419)" style="fill:#750010"/>
        <path data-name="Path 886" d="M112.718 117.68c-.031.247.031.309.278.3l2.368-.165c.247-.021.329.072.3.329l-.247 1.73a.371.371 0 0 1-.4.371l-2.368.165c-.247.021-.329.093-.36.34l-.278 2.059c-.031.247.031.309.278.3l2.368-.165c.247-.021.329.072.3.329l-.247 1.73a.365.365 0 0 1-.4.371l-5.045.35c-.247.021-.329-.072-.3-.329l1.658-11.85a.365.365 0 0 1 .4-.371l5.045-.35c.247-.021.329.072.3.329l-.247 1.73a.365.365 0 0 1-.4.371l-2.368.165c-.247.021-.319.093-.35.34l-.278 1.946z" transform="translate(-41.1 -5.439)" style="fill:#750010"/>
        <path data-name="Path 887" d="M125.372 112.494a.46.46 0 0 1 .494-.36l1.606-.113c.268-.021.36.021.381.309l1.246 11.686a.281.281 0 0 1-.3.35l-2.059.144c-.216.01-.319-.041-.35-.309l-.113-1.133c-.021-.216-.082-.227-.3-.216l-1.658.113c-.216.01-.278.041-.371.257l-.432 1.174c-.1.268-.227.35-.443.36l-2.059.144c-.185.01-.3-.062-.2-.319l4.54-12.087zm-.432 8.02 1.112-.082a.185.185 0 0 0 .165-.2l-.2-2.872c-.021-.134-.165-.1-.2.01l-.978 2.955c-.031.113 0 .185.1.175z" transform="translate(-40.75 -5.463)" style="fill:#750010"/>
    </g>
    <g data-name="Group 1603">
        <path data-name="Path 888" d="m159.838 110.315-1.05 7.588c-.721 5.292-3.521 8.844-8.865 9.215l-6.126.432c-.494.031-.659-.154-.6-.649l3.295-23.556a.753.753 0 0 1 .793-.752l6.126-.432c5.336-.371 7.189 2.862 6.427 8.154zm-4.715.134c.329-2.43-.031-4.18-2.574-4.005l-1.184.082c-.494.031-.628.175-.69.669l-2.142 15.176c-.062.5.062.618.556.587l1.184-.082c2.533-.175 3.356-2.018 3.727-4.448l1.122-7.989z" transform="translate(-40.088 -5.755)" style="fill:#750010"/>
        <path data-name="Path 889" d="M167.553 108.829a.665.665 0 0 1 .69-.515l2.234-.154c.371-.031.5.031.535.422l1.73 16.257a.4.4 0 0 1-.412.494l-2.862.2c-.3.021-.443-.062-.484-.432l-.165-1.575c-.021-.3-.113-.319-.412-.3l-2.306.165c-.3.021-.391.051-.5.36l-.6 1.637a.624.624 0 0 1-.628.5l-2.862.2c-.257.021-.412-.082-.278-.443l6.322-16.813zm-.6 11.16 1.544-.1a.247.247 0 0 0 .226-.268l-.278-3.995c-.021-.185-.227-.144-.278.021l-1.359 4.108c-.041.165 0 .257.134.247z" transform="translate(-39.556 -5.577)" style="fill:#750010"/>
        <path data-name="Path 890" d="m175.66 124.623 2.306-16.494a.522.522 0 0 1 .556-.525l1.894-.134c.35-.021.391.206.463.453l2.1 9.328c.021.134.185.144.278-.021l4.757-9.812c.134-.268.257-.5.6-.525l1.894-.134c.35-.021.463.1.412.453l-2.306 16.494a.522.522 0 0 1-.556.525l-2.79.2c-.35.021-.463-.1-.412-.453l.741-5.168c.021-.165-.185-.2-.278 0l-2.533 5.343c-.165.329-.3.484-.669.5h-.072c-.371.031-.463-.1-.535-.422l-1.06-5.1c-.041-.185-.257-.144-.278.041l-.741 5.168a.522.522 0 0 1-.556.525l-2.79.2c-.35.021-.463-.1-.412-.453z" transform="translate(-39.128 -5.618)" style="fill:#750010"/>
        <path data-name="Path 891" d="M197.8 106.719a.665.665 0 0 1 .69-.515l2.234-.154c.371-.021.5.031.525.422l1.73 16.257a.4.4 0 0 1-.412.494l-2.862.2c-.3.021-.443-.062-.484-.432l-.165-1.575c-.021-.3-.113-.319-.412-.3l-2.306.165c-.3.021-.391.051-.5.36l-.6 1.637a.624.624 0 0 1-.628.5l-2.862.2c-.257.021-.412-.082-.278-.443l6.322-16.813zm-.6 11.161 1.544-.1a.247.247 0 0 0 .227-.268l-.278-3.995c-.021-.185-.227-.144-.278.021l-1.359 4.108c-.041.165 0 .257.134.247z" transform="translate(-38.662 -5.639)" style="fill:#750010"/>
        <path data-name="Path 892" d="m217.441 112.426-.69 4.87a6.231 6.231 0 0 1-5.91 5.58c-3.717.257-5-2.214-4.479-6.033l.69-5.127c.535-3.82 2.564-6.517 6.27-6.785 3.48-.247 4.726 2.018 4.479 4.715-.021.237-.093.422-.371.443l-2.934.206c-.257.021-.371-.093-.371-.34 0-.762-.257-1.575-1.287-1.5-1.318.093-1.822 1.462-2.028 3.006l-.69 5.127c-.227 1.534-.041 2.862 1.266 2.77a2.134 2.134 0 0 0 1.843-2.039l.257-1.658c.041-.371-.072-.453-.412-.432l-.968.072c-.35.021-.443-.082-.391-.432l.278-2.049c.041-.35.185-.474.535-.494l4.52-.319c.35-.021.443.082.391.432z" transform="translate(-38.223 -5.673)" style="fill:#750010"/>
        <path data-name="Path 893" d="M221.967 105.041a.522.522 0 0 1 .556-.525l2.79-.2c.35-.021.463.1.412.453l-2.306 16.494a.522.522 0 0 1-.556.525l-2.79.2c-.35.021-.463-.1-.412-.453l2.306-16.494z" transform="translate(-37.827 -5.69)" style="fill:#750010"/>
        <path data-name="Path 894" d="m240.481 103.763-2.306 16.494a.522.522 0 0 1-.556.525l-2.08.144c-.391.031-.525-.124-.649-.443l-2.564-7.526c-.041-.134-.227-.1-.257.062l-1.081 7.732a.522.522 0 0 1-.556.525l-2.79.2c-.35.021-.463-.1-.412-.453l2.306-16.494a.522.522 0 0 1 .556-.525l2.08-.144a.544.544 0 0 1 .649.443l2.564 7.526c.041.134.226.124.257-.062l1.081-7.732a.522.522 0 0 1 .556-.525l2.79-.2c.35-.021.463.103.412.453z" transform="translate(-37.604 -5.72)" style="fill:#750010"/>
        <path data-name="Path 895" d="m253.541 109.9-.69 4.87a6.231 6.231 0 0 1-5.91 5.58c-3.717.257-5-2.214-4.479-6.033l.69-5.127c.525-3.82 2.564-6.517 6.27-6.785 3.48-.247 4.726 2.018 4.479 4.715-.021.237-.093.422-.371.443l-2.924.206c-.257.021-.371-.093-.371-.34 0-.762-.257-1.575-1.287-1.5-1.318.093-1.822 1.462-2.028 3.006l-.69 5.127c-.227 1.534-.041 2.862 1.266 2.77a2.134 2.134 0 0 0 1.843-2.039l.257-1.658c.041-.371-.072-.453-.412-.432l-.968.072c-.35.021-.443-.082-.391-.432l.278-2.049a.473.473 0 0 1 .525-.494l4.52-.319c.35-.021.443.082.391.432z" transform="translate(-37.156 -5.747)" style="fill:#750010"/>
        <path data-name="Path 896" d="m278.968 94.078-.432 2.862a.753.753 0 0 1-.793.752l-4.808.34c-.494.031-.628.175-.69.669l-.659 4.623c-.062.494.062.618.556.587l3.161-.216c.494-.031.659.154.6.649l-.391 2.862a.753.753 0 0 1-.793.752l-3.192.227c-.494.031-.659.175-.721.68l-1.287 9.215a.753.753 0 0 1-.793.752l-3.356.237c-.494.031-.659-.154-.6-.649l3.295-23.556a.753.753 0 0 1 .793-.752l9.523-.669c.494-.031.659.154.6.649z" transform="translate(-36.494 -6.012)" style="fill:#750010"/>
        <path data-name="Path 897" d="m280.113 111.683.69-5.127c.5-3.82 2.564-6.517 6.27-6.785s4.983 2.214 4.479 6.033l-.69 5.127c-.5 3.82-2.564 6.517-6.27 6.775s-4.983-2.214-4.479-6.023zm6.991-.463.69-5.148c.227-1.534.134-2.873-1.2-2.78-1.318.093-1.822 1.462-2.028 3.006l-.69 5.148c-.226 1.534-.134 2.842 1.2 2.749 1.317-.095 1.801-1.442 2.024-2.976z" transform="translate(-36.043 -5.825)" style="fill:#750010"/>
        <path data-name="Path 898" d="m293.58 116.369 2.306-16.494a.522.522 0 0 1 .556-.525l4.705-.329c2.842-.2 4.664 1.884 4.221 5.168l-.093.7a6.9 6.9 0 0 1-2.533 4.561l1.689 6.177a.349.349 0 0 1-.3.484l-3.027.216c-.3.021-.463-.062-.5-.288l-1.318-5.24-.762.051c-.35.021-.463.124-.5.474l-.669 4.777a.522.522 0 0 1-.556.525l-2.79.2c-.35.021-.463-.1-.412-.453zm6-9.132a2.305 2.305 0 0 0 1.956-2.214l.072-.556c.227-1.441-.484-2.09-1.359-2.028l-.577.041c-.35.021-.443.124-.484.474l-.556 3.912c-.041.35.021.432.371.412l.577-.041z" transform="translate(-35.642 -5.847)" style="fill:#750010"/>
        <path data-name="Path 899" d="m307.953 109.743.69-5.127c.525-3.82 2.564-6.517 6.27-6.785 3.48-.247 4.726 2.018 4.479 4.715-.021.237-.093.422-.371.443l-2.924.206c-.257.021-.391-.093-.371-.34.072-.762-.257-1.575-1.287-1.5-1.318.093-1.822 1.462-2.028 3.006l-.69 5.127c-.227 1.534-.134 2.872 1.2 2.78a1.979 1.979 0 0 0 1.75-1.74.455.455 0 0 1 .463-.381l2.955-.206c.278-.021.278.165.227.4a6.348 6.348 0 0 1-5.879 5.436c-3.717.257-5-2.214-4.479-6.023z" transform="translate(-35.22 -5.882)" style="fill:#750010"/>
        <path data-name="Path 900" d="M326.431 103.715c-.041.35.041.432.391.412l3.295-.227c.35-.021.463.1.412.453l-.35 2.4a.522.522 0 0 1-.556.525l-3.295.227c-.35.021-.463.124-.5.474l-.391 2.862c-.041.35.041.432.391.412l3.295-.227c.35-.021.463.1.412.453l-.35 2.4a.522.522 0 0 1-.556.525l-7.011.494c-.35.021-.463-.1-.412-.453l2.306-16.494a.522.522 0 0 1 .556-.525l7.011-.494c.35-.021.463.1.412.453l-.35 2.4a.522.522 0 0 1-.556.525l-3.295.226c-.35.021-.443.124-.484.474l-.391 2.7z" transform="translate(-34.825 -5.909)" style="fill:#750010"/>
    </g>
    <g data-name="Group 1604">
        <path data-name="Path 901" d="m75.96 47.534 3.8-27.242a.857.857 0 0 1 .916-.865l8.288-.577c4.139-.288 6.61 2.965 6.085 6.775l-.041.381a9.655 9.655 0 0 1-3.912 6.332c2.162.957 3.233 3.624 2.811 6.548l-.072.422a9.69 9.69 0 0 1-8.856 8.392l-8.319.587c-.566.041-.762-.175-.69-.752zM84.7 42.2a3.542 3.542 0 0 0 3.078-3.336l.072-.391c.268-2.039-.68-3.078-2.244-2.965l-1.143.082c-.566.041-.721.206-.834.782L82.91 41.6c-.072.577.072.721.649.68l1.141-.08zm1.75-12.272a2.933 2.933 0 0 0 2.43-2.718v-.31c.227-1.575-.535-2.481-1.668-2.4L86 24.585c-.566.041-.721.206-.834.937l-.535 3.809c-.072.577.072.721.649.68z" transform="translate(-37.272 .549)" style="stroke-width:.75px;stroke-miterlimit:10;fill:#80000e;stroke:#80000e"/>
        <path data-name="Path 902" d="m97.11 46.053 3.8-27.242a.857.857 0 0 1 .916-.865l7.753-.546c4.674-.329 7.681 3.12 6.95 8.545l-.154 1.153a11.333 11.333 0 0 1-4.18 7.526l2.77 10.2c.113.453-.113.772-.494.793l-4.973.35c-.494.031-.762-.1-.834-.474l-2.164-8.644-1.256.082c-.566.041-.762.206-.834.782l-1.1 7.886a.854.854 0 0 1-.906.865l-4.6.319c-.566.041-.762-.175-.69-.752zm9.884-15.093c1.483-.1 2.893-1.349 3.233-3.655l.113-.927c.381-2.389-.8-3.449-2.244-3.346l-.947.062c-.566.041-.721.206-.793.782l-.916 6.466c-.072.577.041.721.607.68l.947-.062z" transform="translate(-36.647 .506)" style="stroke-width:.75px;stroke-miterlimit:10;fill:#80000e;stroke:#80000e"/>
        <path data-name="Path 903" d="m120 35.166 1.143-8.463c.834-6.3 4.221-10.769 10.337-11.2s8.206 3.655 7.372 9.966L137.7 33.93c-.834 6.311-4.221 10.769-10.337 11.2s-8.206-3.655-7.372-9.956zm11.511-.772 1.143-8.5c.381-2.543.227-4.736-1.977-4.582-2.162.154-3.006 2.419-3.346 4.963l-1.143 8.494c-.381 2.543-.227 4.705 1.977 4.551 2.157-.16 2.96-2.384 3.341-4.927z" transform="translate(-35.975 .45)" style="stroke-width:.75px;stroke-miterlimit:10;fill:#80000e;stroke:#80000e"/>
        <path data-name="Path 904" d="m163.217 14.482-3.8 27.242a.857.857 0 0 1-.916.865l-3.418.237a.894.894 0 0 1-1.06-.731L149.8 29.668c-.072-.227-.381-.165-.422.1l-1.791 12.777a.854.854 0 0 1-.906.865l-4.6.319c-.566.041-.762-.175-.69-.752l3.8-27.242a.857.857 0 0 1 .916-.865l3.418-.237a.894.894 0 0 1 1.06.731l4.221 12.427c.072.227.381.206.422-.1l1.781-12.777a.857.857 0 0 1 .916-.865l4.6-.319c.566-.041.762.175.68.752z" transform="translate(-35.338 .398)" style="stroke-width:.75px;stroke-miterlimit:10;fill:#80000e;stroke:#80000e"/>
        <path data-name="Path 905" d="m165.7 31.976 1.143-8.463c.875-6.311 4.221-10.769 10.337-11.2 5.735-.4 7.794 3.346 7.372 7.794-.041.381-.154.7-.607.731l-4.829.34c-.422.031-.649-.144-.607-.566.113-1.266-.422-2.595-2.131-2.481-2.162.154-3.006 2.419-3.346 4.952l-1.143 8.463c-.381 2.543-.227 4.736 1.977 4.582a3.29 3.29 0 0 0 2.893-2.872.737.737 0 0 1 .762-.628l4.86-.34c.453-.031.453.268.381.659-.916 4.448-3.954 8.576-9.688 8.978-6.116.432-8.247-3.655-7.372-9.956z" transform="translate(-34.624 .355)" style="stroke-width:.75px;stroke-miterlimit:10;fill:#80000e;stroke:#80000e"/>
        <path data-name="Path 906" d="m208.083 11.342-3.8 27.242a.857.857 0 0 1-.916.865l-4.592.319c-.566.041-.762-.175-.69-.752l1.415-10.233c.072-.577-.041-.721-.607-.68l-3.686.257c-.566.041-.762.206-.834.782l-1.41 10.234a.857.857 0 0 1-.916.865l-4.6.319c-.566.041-.762-.175-.68-.752l3.8-27.242a.857.857 0 0 1 .916-.865l4.6-.319c.566-.041.762.175.69.752l-1.41 9.966c-.072.577.072.721.649.68l3.686-.257c.566-.041.721-.206.8-.782l1.41-9.966a.857.857 0 0 1 .916-.865l4.6-.319c.566-.041.762.175.68.752z" transform="translate(-33.997 .305)" style="stroke-width:.75px;stroke-miterlimit:10;fill:#80000e;stroke:#80000e"/>
        <path data-name="Path 907" d="M213.26 10.954a.857.857 0 0 1 .916-.865l4.592-.319c.566-.041.762.175.69.752l-3.8 27.242a.857.857 0 0 1-.916.865l-4.6.319c-.566.041-.762-.175-.68-.752l3.8-27.242z" transform="translate(-33.325 .281)" style="stroke-width:.75px;stroke-miterlimit:10;fill:#80000e;stroke:#80000e"/>
        <path data-name="Path 908" d="M229.757 19.682c-.072.577.072.721.649.68l5.436-.381c.566-.041.762.175.68.752l-.566 3.964a.857.857 0 0 1-.916.865l-5.436.381c-.566.041-.762.206-.834.782l-.649 4.736c-.072.577.072.721.649.68l5.436-.381c.566-.041.762.175.68.752l-.566 3.964a.857.857 0 0 1-.916.865l-11.552.813c-.566.041-.762-.175-.68-.752l3.8-27.242a.857.857 0 0 1 .916-.865l11.552-.8c.566-.041.762.175.68.752l-.566 3.964a.857.857 0 0 1-.916.865l-5.436.381c-.566.041-.721.206-.793.782l-.649 4.468z" transform="translate(-32.979 .243)" style="stroke-width:.75px;stroke-miterlimit:10;fill:#80000e;stroke:#80000e"/>
        <path data-name="Path 909" d="m240.545 26.736 1.143-8.463c.875-6.311 4.221-10.769 10.337-11.2 5.735-.4 7.794 3.346 7.372 7.794-.041.381-.154.7-.607.731l-4.829.34c-.422.031-.649-.144-.607-.566.113-1.266-.422-2.595-2.131-2.481-2.162.154-3.006 2.419-3.346 4.952l-1.144 8.457c-.381 2.543-.227 4.736 1.977 4.582a3.29 3.29 0 0 0 2.893-2.872.737.737 0 0 1 .762-.628l4.87-.34c.453-.031.453.278.381.659-.916 4.448-3.954 8.576-9.688 8.978-6.116.432-8.247-3.655-7.372-9.966z" transform="translate(-32.411 .2)" style="stroke-width:.75px;stroke-miterlimit:10;fill:#80000e;stroke:#80000e"/>
        <path data-name="Path 910" d="m280.629 6.252-.566 3.964a.854.854 0 0 1-.906.865l-3.418.237c-.566.041-.762.206-.834.782l-3.037 21.734a.857.857 0 0 1-.916.865l-4.6.319c-.566.041-.762-.175-.69-.752l3.038-21.734c.072-.577-.041-.721-.607-.68l-3.418.237c-.566.041-.762-.175-.69-.752l.535-3.964a.857.857 0 0 1 .916-.865l14.513-1.018c.566-.041.762.175.68.752z" transform="translate(-31.713 .154)" style="stroke-width:.75px;stroke-miterlimit:10;fill:#80000e;stroke:#80000e"/>
        <path data-name="Path 911" d="M289.161 5.622a1.082 1.082 0 0 1 1.143-.844l3.686-.257c.607-.041.834.051.875.7l2.852 26.851a.656.656 0 0 1-.68.813l-4.715.329c-.494.031-.721-.1-.8-.71l-.268-2.6c-.041-.494-.185-.525-.68-.484l-3.8.268c-.494.031-.649.082-.834.6l-.988 2.7a1.037 1.037 0 0 1-1.03.834l-4.715.329c-.422.031-.679-.144-.453-.731l10.407-27.788zm-.988 18.429 2.543-.175a.417.417 0 0 0 .381-.443l-.453-6.6c-.041-.3-.381-.237-.453.031l-2.244 6.785c-.073.279-.001.423.226.402z" transform="translate(-31.279 .126)" style="stroke-width:.75px;stroke-miterlimit:10;fill:#80000e;stroke:#80000e"/>
        <path data-name="Path 912" d="M310.268 32.34c-5.168.36-8.669-2.594-7.794-7.876.072-.422.226-.7.68-.731l4.448-.309c.422-.031.649.185.607.638-.072 1.184.422 3.017 2.4 3.037a2.934 2.934 0 0 0 2.811-2.327c1.215-4.808-9.729-5.951-8.628-13.992a9.365 9.365 0 0 1 9.009-8.02c5.323-.371 7.217 2.965 6.805 7.526-.041.381-.113.69-.566.721l-4.52.319c-.422.031-.649-.144-.607-.638.041-1.112-.227-2.646-1.75-2.615a2.2 2.2 0 0 0-2.131 2.286c.113 3.686 9.688 5.8 8.628 13.755-.762 5.724-6 8-9.39 8.237z" transform="translate(-30.579 .073)" style="stroke-width:.75px;stroke-miterlimit:10;fill:#80000e;stroke:#80000e"/>
        <path data-name="Path 913" d="M327.5 2.964a.857.857 0 0 1 .916-.865l4.6-.319c.566-.041.762.175.69.752l-3.8 27.242a.857.857 0 0 1-.916.865l-4.6.319c-.566.041-.762-.175-.68-.752l3.8-27.242z" transform="translate(-29.948 .045)" style="stroke-width:.75px;stroke-miterlimit:10;fill:#80000e;stroke:#80000e"/>
        <path data-name="Path 914" d="M343.938 29.98c-5.168.36-8.669-2.595-7.794-7.876.072-.422.227-.7.68-.731l4.448-.309c.422-.031.649.185.607.638-.072 1.184.422 3.017 2.4 3.037a2.934 2.934 0 0 0 2.811-2.327c1.215-4.808-9.729-5.951-8.628-13.992A9.365 9.365 0 0 1 347.469.4c5.323-.371 7.217 2.965 6.805 7.526-.041.381-.113.69-.566.731l-4.52.319c-.422.031-.649-.144-.607-.638.041-1.112-.227-2.646-1.75-2.625A2.2 2.2 0 0 0 344.7 8c.113 3.686 9.688 5.8 8.628 13.755-.762 5.724-6 8-9.39 8.237z" transform="translate(-29.583 .003)" style="stroke-width:.75px;stroke-miterlimit:10;fill:#80000e;stroke:#80000e"/>
        <path data-name="Path 915" d="M357.225 24.837a3.553 3.553 0 0 1 3.575-3.027c2.656.041 4.448 3.192 2.049 7.588a17.794 17.794 0 0 1-3.954 4.736c-.453.34-.607.381-.947.144l-1.06-.958c-.268-.288-.2-.484.041-.8 1.328-1.616 2.512-2.955 2.317-3.82-.075-1.217-2.361-1.557-2.021-3.863z" transform="translate(-28.971 .637)" style="stroke-width:.75px;stroke-miterlimit:10;fill:#80000e;stroke:#80000e"/>
    </g>
    <g data-name="Group 1605">
        <path data-name="Path 916" d="M49.436 32.921a.522.522 0 0 1 .556-.525l2.78-.2c.34-.021.463.1.412.453l-2.3 16.483a.522.522 0 0 1-.556.525l-2.78.2c-.35.021-.463-.1-.412-.453z" transform="translate(-38.125 .944)" style="stroke:#750010;stroke-width:.75px;stroke-miterlimit:10;fill:#750010"/>
        <path data-name="Path 917" d="m67.9 31.643-2.306 16.483a.522.522 0 0 1-.556.525l-2.069.144c-.391.031-.525-.124-.649-.443l-2.553-7.526c-.041-.134-.226-.1-.257.062l-1.081 7.732a.522.522 0 0 1-.556.525l-2.78.2c-.34.021-.463-.1-.412-.453l2.3-16.483a.522.522 0 0 1 .556-.525l2.069-.144c.391-.031.525.124.638.443l2.549 7.517c.041.134.227.124.257-.062l1.081-7.732a.522.522 0 0 1 .556-.525l2.78-.2c.34-.021.463.1.412.453z" transform="translate(-37.902 .914)" style="stroke:#750010;stroke-width:.75px;stroke-miterlimit:10;fill:#750010"/>
    </g>
    <path data-name="Line 94" transform="translate(6.277 39.919)" style="fill:none;stroke:#ff895b;stroke-width:.78px;stroke-miterlimit:10" d="M0 21.734 310.847 0"/>
</svg>
