<svg data-name="Group 2660" xmlns="http://www.w3.org/2000/svg" width="160" height="160.001" viewBox="0 0 160 160.001">
    <g data-name="Group 1860">
        <path data-name="Path 1007" d="M381.157 100.419a81.689 81.689 0 0 0-50.066-51.473l4.248-1.82-.439-1.026-6.128 2.627 3.066 5.922.987-.51-2.161-4.172a80.572 80.572 0 0 1 49.437 50.79.555.555 0 0 0 1.056-.343z" transform="translate(-223.812 -45.548)" style="fill:#b4b4b4"/>
        <path data-name="Path 1008" d="M380.184 101.255a1.108 1.108 0 0 1-1.057-.768 80.161 80.161 0 0 0-47.759-49.95l1.5 2.906a.556.556 0 0 1-.238.749l-.988.51a.557.557 0 0 1-.748-.238l-3.065-5.922a.556.556 0 0 1 .274-.766l6.128-2.628a.554.554 0 0 1 .729.291l.439 1.021a.555.555 0 0 1-.292.729l-2.962 1.269A82.406 82.406 0 0 1 381.24 99.8a1.11 1.11 0 0 1-1.056 1.453zm-51.09-52.694 2.536 4.9-1.905-3.678a.555.555 0 0 1 .679-.778l.041.014a.555.555 0 0 1-.028-1.024zm5.07-2.173-3.4 1.46 3.405-1.459z" transform="translate(-223.367 -45.102)" style="fill:#b4b4b4"/>
    </g>
    <g data-name="Group 1862">
        <path data-name="Path 1011" d="m193.789 279.658-.988.51 2.161 4.173a80.575 80.575 0 0 1-49.437-50.791.555.555 0 0 0-1.056.343 81.694 81.694 0 0 0 50.066 51.474l-4.248 1.819.439 1.021 6.128-2.626z" transform="translate(-141.814 -128.762)" style="fill:#b4b4b4"/>
        <path data-name="Path 1012" d="M190.282 288.318a.555.555 0 0 1-.51-.336l-.439-1.021a.554.554 0 0 1 .291-.729l2.961-1.269A82.408 82.408 0 0 1 143.5 233.62a1.11 1.11 0 0 1 2.112-.685 80.162 80.162 0 0 0 47.76 49.95l-1.505-2.906a.556.556 0 0 1 .239-.749l.987-.51a.557.557 0 0 1 .748.238l3.066 5.922a.556.556 0 0 1-.274.766l-6.128 2.626a.548.548 0 0 1-.223.046zm.29-1.284 3.327-1.426zm3.708-2.633a.555.555 0 0 1 .037 1.028l1.325-.567-.629-1.216a.555.555 0 0 1-.682.774zm-1.175-4.438 1.83 3.534-1.829-3.534z" transform="translate(-141.369 -128.317)" style="fill:#b4b4b4"/>
    </g>
    <g data-name="Group 1864">
        <path data-name="Path 1013" d="m206.291 71.023-.437 1.021 4.253 1.814A67.117 67.117 0 0 0 169.371 116a.555.555 0 0 0 .356.7.562.562 0 0 0 .172.027.555.555 0 0 0 .528-.384 66 66 0 0 1 40.1-41.452l-2.153 4.173.988.509 3.056-5.926z" transform="translate(-152.892 -56.633)" style="fill:#b4b4b4"/>
        <path data-name="Path 1014" d="M169.454 116.831a1.111 1.111 0 0 1-1.056-1.453 67.833 67.833 0 0 1 39.773-42l-2.979-1.27a.556.556 0 0 1-.293-.729l.437-1.022a.555.555 0 0 1 .728-.293l6.132 2.618a.555.555 0 0 1 .275.765l-3.056 5.927a.553.553 0 0 1-.748.239l-.988-.509a.554.554 0 0 1-.239-.748l1.492-2.893a65.589 65.589 0 0 0-38.423 40.6 1.107 1.107 0 0 1-1.055.768zm.542-2.71q-.282.8-.542 1.6.261-.804.546-1.6zm0-.014v.012zm0-.013v.008zm0-.013zm0-.014zm38.667-35.693 2.529-4.9-5.073-2.165 3.742 1.6a.555.555 0 0 1-.019 1.029l.037-.013a.555.555 0 0 1 .683.776z" transform="translate(-152.447 -56.187)" style="fill:#b4b4b4"/>
    </g>
    <g data-name="Group 1866">
        <path data-name="Path 1017" d="M363.377 225.1a.555.555 0 0 0-.7.356 66 66 0 0 1-40.106 41.453l2.153-4.173-.988-.508-3.056 5.927 6.132 2.617.437-1.021L323 267.94a67.122 67.122 0 0 0 40.734-42.14.555.555 0 0 0-.357-.7z" transform="translate(-220.213 -125.163)" style="fill:#b4b4b4"/>
        <path data-name="Path 1018" d="M326.368 270.885a.552.552 0 0 1-.218-.044l-6.132-2.617a.555.555 0 0 1-.276-.765l3.057-5.927a.553.553 0 0 1 .747-.239l.988.508a.555.555 0 0 1 .239.748l-1.492 2.893a65.591 65.591 0 0 0 38.423-40.6 1.111 1.111 0 0 1 1.4-.713 1.112 1.112 0 0 1 .713 1.4 67.839 67.839 0 0 1-39.772 42l2.978 1.27a.555.555 0 0 1 .293.729l-.437 1.021a.556.556 0 0 1-.511.336zm-2.725-2.322 2.433 1.039zM321 267.437l1.315.56a.554.554 0 0 1 .046-1.024q1.154-.42 2.288-.881-1.157.47-2.335.9a.555.555 0 0 1-.683-.777l1.9-3.68zm41.757-42.251a65 65 0 0 1-3.5 8.623 65.065 65.065 0 0 0 3.5-8.623z" transform="translate(-219.768 -124.718)" style="fill:#b4b4b4"/>
    </g>
    <g data-name="Group 1872">
        <path data-name="Path 1025" d="m290.412 152.884-.944.586 2.441 3.924c-13.734-3.794-31.832-5.884-51.148-5.884-20.136 0-39.574 2.37-53.332 6.5a.555.555 0 0 0 .319 1.064c13.659-4.1 32.981-6.458 53.013-6.458 19.247 0 37.265 2.081 50.911 5.86l-4.16 2.183.517.983 5.9-3.1z" transform="translate(-160.761 -92.437)" style="fill:#b4b4b4"/>
        <path data-name="Path 1026" d="M287.585 161.757a.555.555 0 0 1-.492-.3l-.517-.983a.555.555 0 0 1 .234-.751l2.905-1.524c-13.429-3.532-30.9-5.472-49.4-5.472-19.979 0-39.243 2.345-52.854 6.434a1.128 1.128 0 0 1-1.382-.744 1.112 1.112 0 0 1 .744-1.383c13.808-4.148 33.3-6.528 53.492-6.528 18.667 0 36.324 1.962 49.932 5.537l-1.7-2.729a.555.555 0 0 1 .179-.765l.944-.585a.555.555 0 0 1 .764.178l3.521 5.663a.555.555 0 0 1-.213.785l-5.9 3.1a.559.559 0 0 1-.257.067zm.232-1.305 2.819-1.481zm3.511-2.964.047.013a.555.555 0 0 1 .123 1.019l1.2-.631-2.913-4.685 2.147 3.452a.555.555 0 0 1-.606.832zm-51.012-5.867c-20.083 0-39.464 2.362-53.173 6.481 13.71-4.119 33.09-6.482 53.173-6.482zm.123 0z" transform="translate(-160.316 -91.992)" style="fill:#b4b4b4"/>
    </g>
    <g data-name="Group 1873">
        <path data-name="Path 1027" d="M294.91 211.588a.557.557 0 0 0-.691-.372c-13.66 4.1-32.982 6.458-53.012 6.458-19.247 0-37.265-2.081-50.912-5.86l4.16-2.183-.517-.984-5.9 3.1 3.52 5.663.944-.586-2.44-3.924c13.734 3.794 31.832 5.884 51.148 5.884 20.134 0 39.573-2.37 53.332-6.5a.555.555 0 0 0 .368-.696z" transform="translate(-161.206 -117.855)" style="fill:#b4b4b4"/>
        <path data-name="Path 1028" d="M240.761 218.895c-18.668 0-36.324-1.962-49.934-5.537l1.7 2.729a.555.555 0 0 1-.178.764l-.945.586a.554.554 0 0 1-.764-.178l-3.52-5.663a.555.555 0 0 1 .213-.785l5.9-3.1a.557.557 0 0 1 .749.233l.517.983a.556.556 0 0 1-.233.751l-2.905 1.524c13.43 3.533 30.9 5.472 49.4 5.472 19.979 0 39.243-2.345 52.853-6.434a1.111 1.111 0 0 1 .639 2.127c-13.81 4.148-33.307 6.528-53.492 6.528zm-.169-1.11zm-51.324-4.831 2.02 3.249zm-.893-1.436.761 1.225a.555.555 0 0 1 .032-.618.561.561 0 0 1 .583-.205l-.05-.014a.555.555 0 0 1-.127-1.018zm106.089-.373-.532.159zm-101.206-2.191-2.633 1.382 2.633-1.381z" transform="translate(-160.761 -117.41)" style="fill:#b4b4b4"/>
    </g>
    <g data-name="Group 1861">
        <path data-name="Path 1009" d="m382.811 240.3-2.626-6.128-5.922 3.066.51.987 4.172-2.161a80.576 80.576 0 0 1-50.791 49.436.555.555 0 0 0 .172 1.083.563.563 0 0 0 .172-.027 81.692 81.692 0 0 0 51.474-50.065l1.819 4.247z" transform="translate(-223.367 -129.207)" style="fill:#b4b4b4"/>
        <path data-name="Path 1010" d="M327.881 286.691a1.11 1.11 0 0 1-.343-2.166 80.163 80.163 0 0 0 49.951-47.761l-2.905 1.505a.554.554 0 0 1-.749-.238l-.51-.988a.555.555 0 0 1 .238-.747l5.922-3.066a.561.561 0 0 1 .442-.03.556.556 0 0 1 .323.3l2.626 6.128a.555.555 0 0 1-.29.729l-1.021.439a.555.555 0 0 1-.729-.291l-1.268-2.962a82.4 82.4 0 0 1-51.343 49.089 1.106 1.106 0 0 1-.344.059zm2.839-2.092q-1.408.518-2.838.982 1.431-.466 2.838-.981zm.017-.006-.014.005zm.016-.006h-.009zm.017-.007h-.005zm.017-.006zm48.741-49.086a.555.555 0 0 1 .51.336l1.6 3.736-2.173-5.069-1.206.625a.555.555 0 0 1 .766.685l-.014.037a.554.554 0 0 1 .5-.349zm-4.96 1.538 3-1.554z" transform="translate(-222.922 -128.763)" style="fill:#b4b4b4"/>
    </g>
    <g data-name="Group 1867">
        <path data-name="Path 1019" d="M210.942 268.073a66.005 66.005 0 0 1-41.452-40.105l4.173 2.153.509-.988-5.926-3.056-2.618 6.132 1.021.437 1.814-4.252A67.124 67.124 0 0 0 210.6 269.13a.562.562 0 0 0 .172.027.555.555 0 0 0 .171-1.084z" transform="translate(-151.239 -125.608)" style="fill:#b4b4b4"/>
        <path data-name="Path 1020" d="M210.326 269.267a1.122 1.122 0 0 1-.342-.054 67.838 67.838 0 0 1-42-39.773l-1.27 2.979a.556.556 0 0 1-.729.292l-1.021-.437a.556.556 0 0 1-.292-.728l2.618-6.132a.556.556 0 0 1 .765-.275l5.927 3.057a.555.555 0 0 1 .239.748l-.509.988a.553.553 0 0 1-.324.274.546.546 0 0 1-.424-.035l-2.893-1.493a65.593 65.593 0 0 0 40.6 38.423 1.111 1.111 0 0 1-.343 2.167zm-2.837-2.105q1.4.529 2.837.995l.171-.529-.171.529q-1.433-.466-2.837-.995zm-.012 0h.012zm-41.567-35.69 1.187-2.782zm3.134-4.5a.547.547 0 0 1 .255.062l3.679 1.9-4.9-2.529-.562 1.319a.555.555 0 0 1 1.023.032l-.013-.037a.555.555 0 0 1 .521-.744z" transform="translate(-150.794 -125.163)" style="fill:#b4b4b4"/>
    </g>
    <g data-name="Group 1870">
        <path data-name="Path 1023" d="m307.46 95.435 3.928 2.437.585-.945-5.667-3.513-3.093 5.908.984.516 2.177-4.16c3.8 13.632 5.886 31.652 5.886 50.917 0 20.049-2.364 39.375-6.487 53.02a.555.555 0 1 0 1.063.321c4.153-13.745 6.534-33.187 6.534-53.341.001-19.336-2.098-37.439-5.91-51.16z" transform="translate(-212.443 -66.592)" style="fill:#b4b4b4"/>
        <path data-name="Path 1024" d="M305.861 200.441a1.114 1.114 0 0 1-.323-.048 1.11 1.11 0 0 1-.74-1.384c4.107-13.6 6.463-32.862 6.463-52.859 0-18.519-1.947-35.987-5.5-49.4l-1.52 2.905a.557.557 0 0 1-.75.234l-.984-.516a.554.554 0 0 1-.234-.749l3.092-5.908a.554.554 0 0 1 .345-.278.561.561 0 0 1 .439.064l5.667 3.513a.555.555 0 0 1 .179.764l-.585.945a.555.555 0 0 1-.765.179l-2.726-1.703c3.591 13.6 5.562 31.258 5.562 49.945 0 20.206-2.39 39.707-6.558 53.5a1.1 1.1 0 0 1-1.062.796zm6.51-54.261zm0-.17zm0-.028zm-8.853-47.338 1.919-3.668a.556.556 0 0 1 1.027.109l.01.037a.555.555 0 0 1 .832-.6l3.457 2.143-4.688-2.906z" transform="translate(-211.998 -66.148)" style="fill:#b4b4b4"/>
    </g>
    <g data-name="Group 1859">
        <path data-name="Path 1005" d="M195.722 50.223a.556.556 0 0 0-.7-.356 81.686 81.686 0 0 0-51.472 50.065l-1.82-4.247-1.021.439 2.627 6.128 5.922-3.065-.51-.988-4.172 2.161a80.572 80.572 0 0 1 50.79-49.437.555.555 0 0 0 .356-.7z" transform="translate(-140.154 -47.21)" style="fill:#fcc454"/>
        <path data-name="Path 1006" d="M142.89 102.362a.558.558 0 0 1-.187-.033.551.551 0 0 1-.323-.3l-2.626-6.129a.555.555 0 0 1 .291-.728l1.021-.439a.555.555 0 0 1 .73.291l1.269 2.962a82.4 82.4 0 0 1 51.343-49.09 1.11 1.11 0 0 1 .686 2.112 80.155 80.155 0 0 0-49.95 47.76l2.905-1.505a.562.562 0 0 1 .424-.036.554.554 0 0 1 .325.274l.51.987a.554.554 0 0 1-.238.748l-5.922 3.066a.556.556 0 0 1-.258.06zm-1.9-6.393 2.173 5.07 1.212-.628a.555.555 0 0 1-.771-.682l.014-.039a.555.555 0 0 1-.5.353.579.579 0 0 1-.528-.336l-1.6-3.737zm7.072 2.533-3.419 1.77 3.419-1.77zm35.33-43.865h-.009zm11.355-4.688a79.5 79.5 0 0 0-11.355 4.688 79.5 79.5 0 0 1 11.355-4.687z" transform="translate(-139.709 -46.765)" style="fill:#fcc454"/>
    </g>
    <g data-name="Group 1865">
        <path data-name="Path 1015" d="m364.357 111.25-1.814 4.252a67.121 67.121 0 0 0-42.136-40.736.555.555 0 1 0-.343 1.056 66.007 66.007 0 0 1 41.452 40.106l-4.173-2.153-.508.988 5.927 3.056 2.618-6.132z" transform="translate(-219.768 -58.285)" style="fill:#b4b4b4"/>
        <path data-name="Path 1016" d="M362.317 117.93a.551.551 0 0 1-.255-.062l-5.927-3.056a.555.555 0 0 1-.239-.748l.509-.988a.555.555 0 0 1 .748-.239l2.892 1.492a65.594 65.594 0 0 0-40.6-38.423 1.11 1.11 0 0 1 .683-2.112 67.839 67.839 0 0 1 42 39.773l1.27-2.979a.556.556 0 0 1 .729-.292l1.022.436a.555.555 0 0 1 .292.728l-2.617 6.132a.556.556 0 0 1-.323.3.55.55 0 0 1-.184.038zm-1.483-1.944 1.206.622.563-1.319a.533.533 0 0 1-.52.325.556.556 0 0 1-.5-.356l.013.037a.556.556 0 0 1-.759.691zm-3.7-1.906 2.85 1.47-2.85-1.471zm7.067-2.545-1.328 3.114 1.33-3.114z" transform="translate(-219.323 -57.841)" style="fill:#fcc454"/>
    </g>
    <g data-name="Group 1869">
        <path data-name="Path 1021" d="m255.287 192.907-2.177 4.161c-3.8-13.633-5.886-31.653-5.886-50.918 0-20.05 2.364-39.375 6.486-53.02a.555.555 0 1 0-1.063-.321c-4.152 13.745-6.534 33.186-6.534 53.341 0 19.336 2.1 37.437 5.911 51.159l-3.928-2.437-.585.945 5.666 3.513 3.093-5.908z" transform="translate(-187.043 -66.149)" style="fill:#fcc454"/>
        <path data-name="Path 1022" d="M252.733 199.441a.549.549 0 0 1-.292-.084l-5.667-3.513a.555.555 0 0 1-.18-.764l.585-.945a.556.556 0 0 1 .765-.179l2.732 1.695c-3.591-13.6-5.562-31.259-5.562-49.946 0-20.207 2.39-39.708 6.558-53.5a1.11 1.11 0 1 1 2.125.642c-4.107 13.594-6.463 32.86-6.463 52.859 0 18.518 1.948 35.987 5.5 49.4l1.52-2.906a.556.556 0 0 1 .326-.273.547.547 0 0 1 .424.038l.984.516a.555.555 0 0 1 .234.749l-3.093 5.908a.556.556 0 0 1-.345.278.573.573 0 0 1-.151.025zm-1.428-2.094 1.213.752.635-1.213a.555.555 0 0 1-1.024-.114l-.012-.046a.555.555 0 0 1-.812.621zm3.771-4.135-1.835 3.507 1.836-3.507zm-7.245 1.981 2.254 1.4-2.253-1.4zm-1.607-49.336zm0-.122zm0-.3z" transform="translate(-186.598 -65.704)" style="fill:#fcc454"/>
    </g>
</svg>
