<svg xmlns="http://www.w3.org/2000/svg" width="72" height="72" viewBox="0 0 72 72">
    <g data-name="Group 2305">
        <g data-name="Group 2304" transform="translate(10.84 8.564)">
            <path data-name="Path 2637" d="M58.469 24.032a25.783 25.783 0 0 0-5.383-7.993 14.126 14.126 0 0 0 2.522-2.725.746.746 0 0 0-.367-.987.756.756 0 0 0-1 .363 16.383 16.383 0 0 1-2.267 2.329 18.067 18.067 0 0 0-1.764-1.33 10.317 10.317 0 0 0 1.2-3.029.75.75 0 0 0-1.473-.284 9.014 9.014 0 0 1-1.011 2.536 14.245 14.245 0 0 0-2.08-.912 5.6 5.6 0 0 0-1.771-3.43.749.749 0 1 0-1.006 1.111 4.792 4.792 0 0 1 1.2 1.9c-.107-.022-.213-.051-.319-.07a10.316 10.316 0 0 0-2.837-.087.763.763 0 0 0-.163-.173 9.812 9.812 0 0 0-3.38-1.589.75.75 0 1 0-.2 1.486 5.606 5.606 0 0 1 1.717.7 10.4 10.4 0 0 0-4.325 2.818 6.2 6.2 0 0 0-1.874 4.564c.144 3.533 3.5 6.58 5.511 8.4.483.438.9.816 1.114 1.062 2.073 2.388 2.738 5.463 3.138 8.394a23.9 23.9 0 0 1-2.517 2.491.75.75 0 0 0 .99 1.126c.336-.3 1.1-.977 1.775-1.664a33.314 33.314 0 0 0 .617 3.818.664.664 0 0 0-.051.079 8.475 8.475 0 0 1-1.93 2.326.75.75 0 0 0 .54 1.314.738.738 0 0 0 .444-.183 13.307 13.307 0 0 0 1.6-1.684 6.237 6.237 0 0 0 1.642 2.3.719.719 0 0 0-.045.154 7.422 7.422 0 0 1-.871 2.455.75.75 0 0 0 1.3.751 9.743 9.743 0 0 0 .979-2.508 7.79 7.79 0 0 0 2.668.611c0 .008 0 .018.009.027a7.483 7.483 0 0 1 .769 2.427.75.75 0 0 0 .79.653l.049-.005a.748.748 0 0 0 .648-.838 10.009 10.009 0 0 0-.613-2.284 8.342 8.342 0 0 0 6.163-4c3.194-4.928 3.143-12.941-.13-20.415z" transform="translate(-10.84 -8.375)" style="opacity:.4;isolation:isolate;fill:#f47e54"/>
            <path data-name="Path 2638" d="M30.038 60.052a11.3 11.3 0 0 1-1.659-.124c-5.7-.848-11.3-5.809-14.621-12.949-3.648-7.842-3.9-16.333-.629-21.629a8.714 8.714 0 0 1 7.222-4.45c7-.22 7.713 4.76 8.463 10.027.516 3.621 1.1 7.725 3.826 10.724.235.258.689.652 1.214 1.107 2.168 1.88 5.8 5.027 6.035 8.754a6.546 6.546 0 0 1-1.869 4.857 10.563 10.563 0 0 1-7.982 3.683zm-9.271-37.66h-.37a7.172 7.172 0 0 0-5.991 3.74c-3.009 4.879-2.728 12.811.713 20.21 3.11 6.687 8.276 11.323 13.481 12.1a8.957 8.957 0 0 0 8.3-3.075 5.043 5.043 0 0 0 1.49-3.763c-.2-3.1-3.53-5.989-5.521-7.715a17.668 17.668 0 0 1-1.341-1.231c-3.036-3.341-3.655-7.688-4.2-11.523-.719-5.057-1.245-8.743-6.561-8.743z" transform="translate(-10.84 -8.375)" style="fill:#010101"/>
            <circle data-name="Ellipse 299" cx="2.124" cy="2.124" r="2.124" transform="translate(9.425 21.259)" style="fill:#f47e54"/>
            <circle data-name="Ellipse 300" cx="2.655" cy="2.655" r="2.655" transform="translate(10.634 35.206)" style="fill:#f47e54"/>
            <circle data-name="Ellipse 301" cx="1.593" cy="1.593" r="1.593" transform="translate(5.108 29.424)" style="fill:#f47e54"/>
            <circle data-name="Ellipse 302" cx="1.593" cy="1.593" r="1.593" transform="translate(19.996 41.464)" style="fill:#f47e54"/>
            <path data-name="Path 2639" d="M28.829 63.245a.747.747 0 0 1-.491-.183c-.092-.081-2.271-2-1.918-4.27a.75.75 0 0 1 1.482.23c-.223 1.439 1.4 2.892 1.419 2.907a.75.75 0 0 1-.492 1.316z" transform="translate(-10.84 -8.375)" style="fill:#010101"/>
            <path data-name="Path 2640" d="M22.315 61.912a.678.678 0 0 1-.126-.011.75.75 0 0 1-.615-.863 10.814 10.814 0 0 1 1.643-3.944.75.75 0 1 1 1.233.855 9.332 9.332 0 0 0-1.4 3.337.752.752 0 0 1-.735.626z" transform="translate(-10.84 -8.375)" style="fill:#010101"/>
            <path data-name="Path 2641" d="M28.307 33.377a.749.749 0 0 1-.689-1.044 18.657 18.657 0 0 1 3.089-3.4.75.75 0 0 1 1.015 1.1A19.921 19.921 0 0 0 29 32.925a.751.751 0 0 1-.693.452z" transform="translate(-10.84 -8.375)" style="fill:#010101"/>
            <path data-name="Path 2642" d="M17.742 59.376a.756.756 0 0 1-.3-.062.748.748 0 0 1-.392-.983 18.579 18.579 0 0 1 3.088-3.394.75.75 0 1 1 1.016 1.1 19.752 19.752 0 0 0-2.726 2.883.753.753 0 0 1-.686.456z" transform="translate(-10.84 -8.375)" style="fill:#010101"/>
            <path data-name="Path 2643" d="M27.389 27.066a.775.775 0 0 1-.258-.045.752.752 0 0 1-.447-.963 10.374 10.374 0 0 1 2.4-3.127.75.75 0 0 1 1.016 1.108 9.025 9.025 0 0 0-2.006 2.535.751.751 0 0 1-.705.492z" transform="translate(-10.84 -8.375)" style="fill:#010101"/>
            <path data-name="Path 2644" d="M35.281 61.743a.823.823 0 0 1-.085-.005 10.371 10.371 0 0 1-3.606-1.6.75.75 0 0 1 .838-1.244 9.067 9.067 0 0 0 2.937 1.352.75.75 0 0 1-.084 1.495z" transform="translate(-10.84 -8.375)" style="fill:#010101"/>
            <path data-name="Path 2645" d="M24.855 22.858H24.8a.751.751 0 0 1-.7-.8 9.4 9.4 0 0 1 1.054-3.269.75.75 0 0 1 1.316.721 7.925 7.925 0 0 0-.872 2.647.751.751 0 0 1-.743.701z" transform="translate(-10.84 -8.375)" style="fill:#010101"/>
            <path data-name="Path 2646" d="M20.61 22.019a.75.75 0 0 1-.633-.347 9.423 9.423 0 0 1-1.1-3.161.75.75 0 0 1 1.484-.223 7.968 7.968 0 0 0 .881 2.578.75.75 0 0 1-.632 1.153z" transform="translate(-10.84 -8.375)" style="fill:#010101"/>
            <circle data-name="Ellipse 303" cx="2" cy="2" r="2" transform="translate(38.476 26.615)" style="fill:#f47e54"/>
            <circle data-name="Ellipse 304" cx="2.5" cy="2.5" r="2.5" transform="translate(34.851 12.746)" style="fill:#f47e54"/>
            <circle data-name="Ellipse 305" cx="1.5" cy="1.5" r="1.5" transform="translate(42.724 19.469)" style="fill:#f47e54"/>
            <circle data-name="Ellipse 306" cx="1.5" cy="1.5" r="1.5" transform="translate(27.546 9.74)" style="fill:#f47e54"/>
        </g>
    </g>
</svg>
