<svg id="Lung_Damage_icon" data-name="Lung Damage icon" xmlns="http://www.w3.org/2000/svg" width="72" height="72" viewBox="0 0 72 72">
  <defs>
    <style>
      .cls-1 {
        fill: #fff;
        opacity: 0;
      }

      .cls-2, .cls-3 {
        fill: #b93b4e;
      }

      .cls-2 {
        opacity: 0.4;
        isolation: isolate;
      }

      .cls-4 {
        fill: #010101;
      }
    </style>
  </defs>
  <rect id="Rectangle_1281" data-name="Rectangle 1281" class="cls-1" width="72" height="72" transform="translate(0 0)"/>
  <g id="Group_2272" data-name="Group 2272">
    <path id="Path_2617" data-name="Path 2617" class="cls-2" d="M62.755,61.4a3.762,3.762,0,0,1-1.208-.2c-3.941-1.322-9.467-3.467-13.418-6.17-6.142-4.2-6.141-10-6.138-22.71V17.1a3.131,3.131,0,0,1,3.327-2.879,3.819,3.819,0,0,1,1.195.194c5.262,1.746,12.611,6.068,17.734,16.741,6.027,12.555,3.639,23.086,1.68,28.246A3.328,3.328,0,0,1,62.755,61.4Z"/>
    <path id="Path_2618" data-name="Path 2618" class="cls-3" d="M61.9,49.877c-2.333-1.67-3.252-3.744-4.224-5.94a22.867,22.867,0,0,0-1.724-3.361c.733.341,1.567.757,2.742,1.408a5.9,5.9,0,0,0,2.639.916,1.552,1.552,0,0,0,.929-.273,1.445,1.445,0,0,0,.561-1.357,9.555,9.555,0,0,0-.446-2.591,2.334,2.334,0,0,0-1.346-1.5,2.242,2.242,0,0,0-1.924.094c-1.267.685-3.452,1.217-6.669-.043a13.034,13.034,0,0,0-1.482-.739.753.753,0,0,0-.8,1.251c2.458,2.232,3.645,4.086,3.432,5.361-.223,1.332-1.99,2.092-3.409,2.7-1.218.524-2.18.938-2.186,1.834-.006.811.815,1.29,1.7,1.686a1.951,1.951,0,0,0,1.641-.027c1.324-.6,2.43-2.528,3.135-4.075.525,2.871,1.51,7.3,4.089,8.612a2.581,2.581,0,0,0,1.185.285,3.745,3.745,0,0,0,2.154-.786,2.1,2.1,0,0,0,.923-1.715,2.131,2.131,0,0,0-.923-1.746Z"/>
    <circle id="Ellipse_291" data-name="Ellipse 291" class="cls-3" cx="1.303" cy="1.303" r="1.303" transform="translate(47.143 41.667)"/>
    <circle id="Ellipse_292" data-name="Ellipse 292" class="cls-3" cx="1.303" cy="1.303" r="1.303" transform="translate(55.409 32.154)"/>
    <circle id="Ellipse_293" data-name="Ellipse 293" class="cls-3" cx="1.303" cy="1.303" r="1.303" transform="translate(62.084 44.671)"/>
    <g id="Group_2270" data-name="Group 2270">
      <path id="Path_2619" data-name="Path 2619" class="cls-4" d="M58.163,40.957a.793.793,0,0,1-.191-.024c-.228-.061-22.722-6.24-22.722-26.582V8.2a.75.75,0,0,1,1.5,0v6.148c0,19.178,21.389,25.074,21.6,25.131a.75.75,0,0,1-.192,1.475Z"/>
      <path id="Path_2620" data-name="Path 2620" class="cls-4" d="M45.549,30.608a8.35,8.35,0,0,1-1.076-.069,8.617,8.617,0,0,1-5.922-3.789.75.75,0,1,1,1.213-.882,7.185,7.185,0,0,0,4.9,3.184c3.768.485,7.337-2.382,7.372-2.411a.75.75,0,1,1,.949,1.162A13.213,13.213,0,0,1,45.549,30.608Z"/>
    </g>
    <path id="Path_2621" data-name="Path 2621" class="cls-4" d="M57.485,49.871a.751.751,0,0,1-.745-.67c-.009-.085-.983-8.563-6.485-11.536a.75.75,0,1,1,.713-1.32c6.2,3.351,7.223,12.317,7.264,12.7a.749.749,0,0,1-.666.824A.734.734,0,0,1,57.485,49.871Z"/>
    <path id="Path_2622" data-name="Path 2622" class="cls-2" d="M9.245,61.4a3.762,3.762,0,0,0,1.208-.2c3.941-1.322,9.467-3.467,13.418-6.17,6.142-4.2,6.141-10,6.138-22.71V17.1a3.131,3.131,0,0,0-3.327-2.879,3.819,3.819,0,0,0-1.195.194C20.225,16.165,12.876,20.487,7.753,31.16,1.726,43.715,4.114,54.246,6.073,59.406A3.328,3.328,0,0,0,9.245,61.4Z"/>
    <path id="Path_2623" data-name="Path 2623" class="cls-3" d="M10.1,49.877c2.333-1.67,3.252-3.744,4.224-5.94a22.867,22.867,0,0,1,1.724-3.361c-.733.341-1.567.757-2.742,1.408a5.9,5.9,0,0,1-2.639.916,1.552,1.552,0,0,1-.929-.273,1.445,1.445,0,0,1-.561-1.357,9.555,9.555,0,0,1,.446-2.591,2.334,2.334,0,0,1,1.346-1.5,2.242,2.242,0,0,1,1.924.094c1.267.685,3.452,1.217,6.669-.043a13.034,13.034,0,0,1,1.482-.739.753.753,0,0,1,.8,1.251c-2.458,2.232-3.645,4.086-3.432,5.361.223,1.332,1.99,2.092,3.409,2.7,1.218.524,2.18.938,2.186,1.834.006.811-.815,1.29-1.7,1.686a1.951,1.951,0,0,1-1.641-.027c-1.324-.6-2.43-2.528-3.135-4.075-.525,2.871-1.51,7.3-4.089,8.612a2.581,2.581,0,0,1-1.185.285,3.745,3.745,0,0,1-2.154-.786,2.1,2.1,0,0,1-.923-1.715,2.131,2.131,0,0,1,.923-1.746Z"/>
    <circle id="Ellipse_294" data-name="Ellipse 294" class="cls-3" cx="1.303" cy="1.303" r="1.303" transform="translate(22.251 41.667)"/>
    <circle id="Ellipse_295" data-name="Ellipse 295" class="cls-3" cx="1.303" cy="1.303" r="1.303" transform="translate(13.986 32.154)"/>
    <circle id="Ellipse_296" data-name="Ellipse 296" class="cls-3" cx="1.303" cy="1.303" r="1.303" transform="translate(7.31 44.671)"/>
    <g id="Group_2271" data-name="Group 2271">
      <path id="Path_2624" data-name="Path 2624" class="cls-4" d="M13.836,40.957a.75.75,0,0,1-.191-1.475c.215-.057,21.6-5.953,21.6-25.131V8.2a.75.75,0,0,1,1.5,0v6.148c0,20.342-22.495,26.521-22.722,26.582A.8.8,0,0,1,13.836,40.957Z"/>
      <path id="Path_2625" data-name="Path 2625" class="cls-4" d="M26.451,30.608A13.209,13.209,0,0,1,19.014,27.8a.75.75,0,0,1,.948-1.162c.036.029,3.633,2.9,7.381,2.41a7.19,7.19,0,0,0,4.893-3.183.75.75,0,1,1,1.213.882,8.617,8.617,0,0,1-5.922,3.789A8.361,8.361,0,0,1,26.451,30.608Z"/>
    </g>
    <path id="Path_2626" data-name="Path 2626" class="cls-4" d="M14.515,49.871a.751.751,0,0,1-.745-.843c.045-.36,1.166-8.868,7.088-12.585a.75.75,0,1,1,.8,1.27c-5.314,3.335-6.387,11.42-6.4,11.5A.75.75,0,0,1,14.515,49.871Z"/>
  </g>
</svg>
