<svg xmlns="http://www.w3.org/2000/svg" width="36" height="36" viewBox="0 0 36 36">
    <g data-name="Cough icon">
        <g data-name="Group 2181" transform="translate(-.031)">
            <circle data-name="Ellipse 267" cx="1.328" cy="1.328" r="1.328" transform="translate(10 22.59)" style="fill:#750010"/>
            <circle data-name="Ellipse 268" cx="1.104" cy="1.104" r="1.104" transform="translate(8.558 26.906)" style="fill:#750010"/>
            <path data-name="Path 2575" d="M10.291 35.15h-.156a3.476 3.476 0 0 1-3.223-2.558 4.083 4.083 0 0 1-3.968-6.605 3.475 3.475 0 0 1 2.664-6.171 2.771 2.771 0 0 1 .83-1.211 3.745 3.745 0 0 1 3.5-.738 10.607 10.607 0 0 1 1.174.433 5.964 5.964 0 0 0 4.648.393.75.75 0 0 1 .474 1.423 7.419 7.419 0 0 1-5.695-.429 9.678 9.678 0 0 0-1.006-.376 2.286 2.286 0 0 0-2.108.421 1.233 1.233 0 0 0-.466 1.054.75.75 0 0 1-1.062.677 1.922 1.922 0 0 0-.271-.11 1.974 1.974 0 0 0-1.172 3.77.75.75 0 0 1 .18 1.33 2.584 2.584 0 0 0 2.579 4.463.749.749 0 0 1 1.076.7 1.976 1.976 0 0 0 3.665 1.084 2.037 2.037 0 0 0 .275-1.278.749.749 0 0 1 1.182-.7 1.629 1.629 0 0 0 .514.257 1.667 1.667 0 0 0 1-.022 1.364 1.364 0 0 0 .827-1.414l-.025-.377c-.123-1.817-.351-5.2 1.747-7.3a.75.75 0 1 1 1.06 1.061c-1.616 1.616-1.425 4.446-1.311 6.136l.026.389A2.86 2.86 0 0 1 15.4 32.38a3.14 3.14 0 0 1-1.752.081 3.635 3.635 0 0 1-.4 1 3.457 3.457 0 0 1-2.957 1.689z" style="fill:#750010"/>
            <path data-name="Path 2576" d="M34.357 32.848a.749.749 0 0 1-.721-.547l-2.016-7.157a1.5 1.5 0 0 0-1.58-.886l-6.5.846c-1.232.156-2.208-.9-2.884-3.159-.095-.3-.176-.618-.258-.949a.747.747 0 0 1 .41-.859l1.328-.622a.672.672 0 0 0 .522-.665.622.622 0 0 0-.474-.6 6.553 6.553 0 0 0-2.019-.175 1.25 1.25 0 0 1-1.349-1.15l-.234-2.509h-2.366a1.571 1.571 0 0 1-1.291-2.47 12.725 12.725 0 0 0 2.411-7.536.751.751 0 0 1 .74-.76.773.773 0 0 1 .76.74 14.2 14.2 0 0 1-2.679 8.41l.059.115h2.6a1.243 1.243 0 0 1 1.244 1.133l.234 2.518a7.852 7.852 0 0 1 2.286.235 2.145 2.145 0 0 1 .114 4.107l-.681.323c.026.092.052.184.082.275.518 1.732 1.013 2.15 1.257 2.112l6.5-.845a3.016 3.016 0 0 1 3.194 1.9l2.033 7.227a.749.749 0 0 1-.518.924.718.718 0 0 1-.204.024z" style="fill:#750010"/>
        </g>
    </g>
</svg>
