<svg xmlns="http://www.w3.org/2000/svg" width="48" height="48" viewBox="0 0 48 48">
    <g data-name="Group 2170">
        <g data-name="Group 2169">
            <path data-name="Path 2570" d="M21.823 13.563A5.657 5.657 0 1 0 16.258 7a10.619 10.619 0 0 0-9.648 6.527 1 1 0 0 0 1.843.779A8.625 8.625 0 0 1 16.278 9a5.661 5.661 0 0 0 5.545 4.563zm0-9.313a3.657 3.657 0 1 1-3.656 3.657 3.66 3.66 0 0 1 3.656-3.657z" transform="translate(2.136 .75)" style="fill:#fff"/>
            <path data-name="Path 2571" d="M32.17 16.326a10.649 10.649 0 0 0-6.531-9.716 1 1 0 0 0-.779 1.841 8.664 8.664 0 0 1 5.312 7.913 5.713 5.713 0 1 0 2-.039zm-.835 9.231a3.657 3.657 0 1 1 3.658-3.657 3.662 3.662 0 0 1-3.658 3.656z" transform="translate(8.042 2.177)" style="fill:#fff"/>
            <path data-name="Path 2572" d="M18.751 25.337a1 1 0 1 0 2 0v-3.905A25.506 25.506 0 0 0 26 20.683a1 1 0 0 0-.492-1.939 23.371 23.371 0 0 1-4.759.685v-5.341a1 1 0 1 0-2 0v5.341a23.464 23.464 0 0 1-4.759-.685 1 1 0 0 0-.493 1.939 25.532 25.532 0 0 0 5.252.749z" transform="translate(4.208 4.363)" style="fill:#fff"/>
            <path data-name="Path 2573" d="M34.1 24.33a1 1 0 0 0-1.311.531 8.629 8.629 0 0 1-7.825 5.305 5.7 5.7 0 1 0 .02 2 10.623 10.623 0 0 0 9.647-6.525 1 1 0 0 0-.531-1.311zM19.414 34.917a3.657 3.657 0 1 1 3.656-3.657 3.66 3.66 0 0 1-3.656 3.657z" transform="translate(4.545 8.083)" style="fill:#fff"/>
            <path data-name="Path 2574" d="M14.325 32.766A8.606 8.606 0 0 1 9.025 25a5.71 5.71 0 1 0-2 .044 10.588 10.588 0 0 0 6.517 9.561.979.979 0 0 0 .389.08 1 1 0 0 0 .389-1.921zM4.193 19.471a3.657 3.657 0 1 1 3.657 3.658 3.661 3.661 0 0 1-3.657-3.658z" transform="translate(.69 4.605)" style="fill:#fff"/>
        </g>
    </g>
</svg>
