<svg data-name="Group 2343" xmlns="http://www.w3.org/2000/svg" width="72" height="72" viewBox="0 0 72 72">
    <g data-name="Group 2342">
        <g data-name="Group 2340" style="opacity:.4">
            <path data-name="Path 2688" d="M30.281 31.786a14.967 14.967 0 0 0 2.77-10.162A15.058 15.058 0 0 0 3.038 24.1a15.288 15.288 0 0 0 15.373 13.976h13.2c1.548 0 1.768-.516 1.476-.837l-2.673-2.934a2 2 0 0 1-.131-2.519z" style="fill:#fcc454"/>
        </g>
        <path data-name="Path 2689" d="M69.422 62.6a.749.749 0 0 1-.734-.6L66.54 51.393a11.1 11.1 0 0 0-7.582-8.679 34.636 34.636 0 0 0-6.376-1.131c-.647-.052-1.3-.083-1.934-.093l-5.037 10.14a.781.781 0 0 1-1.343 0l-5.039-10.14c-.637.01-1.285.041-1.931.093a34.617 34.617 0 0 0-6.377 1.131 11.1 11.1 0 0 0-7.583 8.679L21.19 62a.749.749 0 1 1-1.469-.3l2.148-10.6a12.443 12.443 0 0 1 8.657-9.829 36.247 36.247 0 0 1 6.654-1.18c.842-.066 1.688-.1 2.512-.1a.749.749 0 0 1 .672.416l4.575 9.208 4.575-9.215a.749.749 0 0 1 .672-.416c.825 0 1.67.035 2.514.1a36.281 36.281 0 0 1 6.653 1.18 12.449 12.449 0 0 1 8.658 9.836l2.147 10.61a.747.747 0 0 1-.736.9z" style="fill:#010101"/>
        <path data-name="Path 2690" d="M30.071 62.825a.727.727 0 0 1-.113-.009.748.748 0 0 1-.629-.853l1.153-7.6a.75.75 0 0 1 1.484.225l-1.154 7.6a.75.75 0 0 1-.741.637z" style="fill:#010101"/>
        <path data-name="Path 2691" d="M58.908 62.825a.749.749 0 0 1-.74-.637l-1.153-7.6a.749.749 0 1 1 1.482-.225l1.153 7.6a.747.747 0 0 1-.629.853.727.727 0 0 1-.113.009z" style="fill:#010101"/>
        <path data-name="Path 2692" d="M45.036 37.834c-5.237 0-9.5-4.976-9.5-11.092s4.26-11.092 9.5-11.092 9.5 4.976 9.5 11.092-4.263 11.092-9.5 11.092zm0-20.684c-4.41 0-8 4.3-8 9.592s3.588 9.592 8 9.592 8-4.3 8-9.592-3.59-9.592-8-9.592z" style="fill:#010101"/>
        <path data-name="Path 2693" d="M44.946 33.168a5.5 5.5 0 0 1-1.189-.13.75.75 0 1 1 .328-1.464 4.042 4.042 0 0 0 3.762-1.123.75.75 0 0 1 1.076 1.049 5.567 5.567 0 0 1-3.977 1.668z" style="fill:#010101"/>
        <path data-name="Path 2694" d="M43.5 24.069a18.743 18.743 0 0 1-6.745-1.37.75.75 0 0 1 .539-1.4c12.1 4.662 16.224-4.783 16.393-5.188a.75.75 0 0 1 1.385.576A12.428 12.428 0 0 1 43.5 24.069z" style="fill:#010101"/>
        <g data-name="Group 2341">
            <path data-name="Path 2695" d="M22.494 26.676a.725.725 0 0 1-.61-1.116l9.346-14.539a.725.725 0 0 1 1.219.784L23.1 26.343a.723.723 0 0 1-.606.333z" style="fill:#fbab18"/>
            <path data-name="Path 2696" d="M10.032 27.714a.724.724 0 0 1-.61-1.114l6.823-10.7a.725.725 0 1 1 1.222.779l-6.823 10.7a.723.723 0 0 1-.612.335z" style="fill:#fbab18"/>
            <path data-name="Path 2697" d="M21.337 23.787a.726.726 0 0 1-.665-.434l-3.045-6.965a.724.724 0 1 1 1.327-.581L22 22.771a.726.726 0 0 1-.663 1.016z" style="fill:#fbab18"/>
            <circle data-name="Ellipse 315" cx="3.306" cy="3.306" r="3.306" transform="translate(19.059 22.897)" style="fill:#fbab18"/>
            <circle data-name="Ellipse 316" cx="3.306" cy="3.306" r="3.306" transform="translate(27.388 9.609)" style="fill:#fbab18"/>
            <circle data-name="Ellipse 317" cx="3.115" cy="3.115" r="3.115" transform="translate(14.523 12.452)" style="fill:#fbab18"/>
            <circle data-name="Ellipse 318" cx="2.884" cy="2.884" r="2.884" transform="translate(7.379 24.336)" style="fill:#fbab18"/>
        </g>
    </g>
</svg>
