<svg xmlns="http://www.w3.org/2000/svg" width="14.713" height="21.008" viewBox="0 0 14.713 21.008">
    <g data-name="Group 1055">
        <path data-name="Path 742" d="m6.252 16.339-5.18-5.18a1.554 1.554 0 0 1 2.192-2.2l3.655 3.65a.614.614 0 0 0 .861 0l3.647-3.642a1.556 1.556 0 0 1 2.2 2.2l-5.183 5.172a1.555 1.555 0 0 1-2.2 0"/>
        <path data-name="Line 71" d="M7.356 14.713a1.139 1.139 0 0 1-1.2-1.062V1.062A1.139 1.139 0 0 1 7.356 0a1.139 1.139 0 0 1 1.203 1.062v12.589a1.139 1.139 0 0 1-1.203 1.062z"/>
        <path data-name="Line 72" d="M0 19.945a1.062 1.062 0 0 1 1.062-1.062h12.589a1.062 1.062 0 0 1 0 2.124H1.062A1.062 1.062 0 0 1 0 19.945z"/>
    </g>
</svg>
