<svg xmlns="http://www.w3.org/2000/svg" width="14.713" height="21.008" viewBox="0 0 14.713 21.008">
    <g data-name="Group 1055">
        <path data-name="Path 742" d="m7.8 7.8-5.18 5.18a1.554 1.554 0 0 1-2.2-2.192l3.65-3.655a.614.614 0 0 0 0-.861L.428 2.625a1.554 1.554 0 0 1 2.2-2.2L7.8 5.608a1.555 1.555 0 0 1 0 2.2" transform="rotate(90 2.756 11.296)" style="fill:#fff"/>
        <path data-name="Line 71" d="M.077 13.588a1.139 1.139 0 0 1-1.2-1.062V-.063a1.139 1.139 0 0 1 1.2-1.062A1.139 1.139 0 0 1 1.28-.063v12.589a1.139 1.139 0 0 1-1.203 1.062z" transform="translate(7.279 1.125)" style="fill:#fff"/>
        <path data-name="Line 72" d="M1.062 14.713A1.062 1.062 0 0 1 0 13.651V1.062a1.062 1.062 0 0 1 2.124 0v12.589a1.062 1.062 0 0 1-1.062 1.062z" transform="rotate(90 -2.085 16.798)" style="fill:#fff"/>
    </g>
</svg>
