<svg data-name="Breathless icon" xmlns="http://www.w3.org/2000/svg" width="36" height="36" viewBox="0 0 36 36">
    <g data-name="Group 2190">
        <path data-name="Path 2588" d="M14.563 21.769a.75.75 0 0 0-1.061 0l-2 2-2-2a.75.75 0 1 0-1.061 1.06l2 2-2 2A.75.75 0 0 0 9.5 27.9l2-2 2 2a.75.75 0 1 0 1.061-1.061l-2-2 2-2a.749.749 0 0 0 .002-1.07z" style="fill:#750010"/>
        <path data-name="Path 2589" d="M18.961 23.163a.749.749 0 0 0-1.007.333 9.964 9.964 0 0 0-1.206 5.05 1.364 1.364 0 0 1-.827 1.414 1.659 1.659 0 0 1-1 .022 1.629 1.629 0 0 1-.514-.257.749.749 0 0 0-1.182.7 2.037 2.037 0 0 1-.275 1.278 1.976 1.976 0 0 1-3.662-1.095.749.749 0 0 0-1.076-.7 2.584 2.584 0 0 1-2.579-4.463.75.75 0 0 0-.18-1.33 1.975 1.975 0 0 1 1.172-3.77 1.922 1.922 0 0 1 .271.11.75.75 0 0 0 1.062-.677 1.233 1.233 0 0 1 .466-1.054 2.275 2.275 0 0 1 2.108-.421 34.719 34.719 0 0 0 4.649.929.75.75 0 0 0 .2-1.486 33.177 33.177 0 0 1-4.446-.887 3.745 3.745 0 0 0-3.5.738 2.771 2.771 0 0 0-.83 1.211 3.475 3.475 0 0 0-2.664 6.171 4.133 4.133 0 0 0-.924 2.253 4.083 4.083 0 0 0 4.892 4.352 3.476 3.476 0 0 0 3.223 2.558h.156a3.457 3.457 0 0 0 2.959-1.691 3.635 3.635 0 0 0 .4-1 3.139 3.139 0 0 0 1.753-.071 2.86 2.86 0 0 0 1.843-2.924 8.518 8.518 0 0 1 1.049-4.286.75.75 0 0 0-.331-1.007z" style="fill:#750010"/>
        <path data-name="Path 2590" d="m35.079 31.9-2.038-7.23a3.016 3.016 0 0 0-3.194-1.9l-6.5.845c-.244.038-.739-.38-1.257-2.112a6.665 6.665 0 0 1-.082-.275l.681-.323a2.145 2.145 0 0 0-.109-4.105 7.852 7.852 0 0 0-2.286-.235l-.234-2.518a1.243 1.243 0 0 0-1.244-1.133h-2.6l-.059-.115a14.2 14.2 0 0 0 2.679-8.409.773.773 0 0 0-.76-.74.751.751 0 0 0-.74.76 12.725 12.725 0 0 1-2.411 7.532 1.571 1.571 0 0 0 1.291 2.47h2.371l.234 2.509a1.25 1.25 0 0 0 1.349 1.15 6.553 6.553 0 0 1 2.019.175.622.622 0 0 1 .474.6.672.672 0 0 1-.522.665l-1.328.622A.747.747 0 0 0 20.4 21c.082.331.163.651.258.949.676 2.258 1.652 3.315 2.884 3.159l6.5-.846a1.5 1.5 0 0 1 1.58.886l2.014 7.152a.749.749 0 0 0 .721.547.718.718 0 0 0 .2-.029.749.749 0 0 0 .522-.918z" style="fill:#750010"/>
    </g>
</svg>
