<svg data-name="Breathless icon" xmlns="http://www.w3.org/2000/svg" width="28" height="28" viewBox="0 0 28 28">
    <g data-name="Group 2190">
        <path data-name="Path 2588" d="M13.153 21.72a.584.584 0 0 0-.825 0l-1.557 1.557-1.558-1.557a.583.583 0 0 0-.825.824L9.945 24.1l-1.557 1.56a.584.584 0 0 0 .825.825l1.557-1.558 1.557 1.558a.584.584 0 0 0 .825-.825L11.6 24.1l1.557-1.558a.583.583 0 0 0-.004-.822z" transform="translate(-1.826 -4.789)" style="fill:#010101"/>
        <path data-name="Path 2589" d="M15.327 21.729a.583.583 0 0 0-.783.259 7.749 7.749 0 0 0-.938 3.928 1.061 1.061 0 0 1-.643 1.1 1.291 1.291 0 0 1-.775.017 1.267 1.267 0 0 1-.4-.2.583.583 0 0 0-.919.544 1.584 1.584 0 0 1-.214.994 1.537 1.537 0 0 1-2.848-.852.583.583 0 0 0-.837-.541 2.01 2.01 0 0 1-2.006-3.471.584.584 0 0 0-.14-1.034 1.536 1.536 0 0 1 .912-2.932 1.5 1.5 0 0 1 .211.086.583.583 0 0 0 .826-.527.959.959 0 0 1 .362-.82 1.769 1.769 0 0 1 1.64-.327 27 27 0 0 0 3.616.723.583.583 0 1 0 .157-1.156 25.8 25.8 0 0 1-3.458-.69 2.913 2.913 0 0 0-2.725.574 2.155 2.155 0 0 0-.646.942 2.7 2.7 0 0 0-2.072 4.8 3.215 3.215 0 0 0-.718 1.754 3.176 3.176 0 0 0 3.8 3.385 2.7 2.7 0 0 0 2.507 1.99h.121a2.689 2.689 0 0 0 2.3-1.315 2.827 2.827 0 0 0 .311-.776 2.442 2.442 0 0 0 1.363-.063 2.225 2.225 0 0 0 1.433-2.274 6.625 6.625 0 0 1 .816-3.334.583.583 0 0 0-.253-.784z" transform="translate(-.579 -3.714)" style="fill:#010101"/>
        <path data-name="Path 2590" d="M30.537 25.618 28.952 20a2.345 2.345 0 0 0-2.484-1.478l-5.052.657c-.19.03-.575-.3-.978-1.643a5.262 5.262 0 0 1-.064-.214l.53-.251a1.669 1.669 0 0 0-.089-3.194 6.107 6.107 0 0 0-1.778-.183l-.182-1.958a.967.967 0 0 0-.968-.881h-2.021l-.046-.089a11.046 11.046 0 0 0 2.08-6.54.6.6 0 0 0-.591-.576.584.584 0 0 0-.576.591 9.9 9.9 0 0 1-1.871 5.859 1.222 1.222 0 0 0 1 1.921h1.848l.182 1.951a.972.972 0 0 0 1.049.894 5.1 5.1 0 0 1 1.57.136.484.484 0 0 1 .369.47.522.522 0 0 1-.406.517l-1.033.484a.581.581 0 0 0-.319.668c.064.257.127.506.2.738.526 1.756 1.285 2.578 2.243 2.457l5.052-.658a1.165 1.165 0 0 1 1.229.689l1.568 5.567a.582.582 0 0 0 .561.425.559.559 0 0 0 .159-.023.583.583 0 0 0 .403-.718z" transform="translate(-3.253 -.811)" style="fill:#010101"/>
    </g>
</svg>
