<svg xmlns="http://www.w3.org/2000/svg" width="72" height="72" viewBox="0 0 72 72">
    <g data-name="Group 2346" transform="translate(-897 -757)">
        <circle data-name="Ellipse 209" cx="36" cy="36" r="36" transform="translate(897 757)" style="fill:#fff"/>
        <g data-name="Group 2344">
            <path data-name="Path 2673" d="M48.76 28.82C36.822 46.1 18.938 46.1 7 28.82v-3.6c11.938 17.28 29.822 17.28 41.76 0z" transform="translate(905.12 759.821)" style="opacity:.4;isolation:isolate;fill:#f47e54"/>
            <path data-name="Path 2674" d="M47.11 49.97H8.23a1.982 1.982 0 0 1-1.98-1.98V24.23a1.982 1.982 0 0 1 1.98-1.98h12.462a.54.54 0 1 1 0 1.08H8.23a.9.9 0 0 0-.9.9v23.76a.9.9 0 0 0 .9.9h38.88a.9.9 0 0 0 .9-.9V24.23a.9.9 0 0 0-.9-.9H35.337a.54.54 0 0 1 0-1.08H47.11a1.982 1.982 0 0 1 1.98 1.98v23.76a1.982 1.982 0 0 1-1.98 1.98z" transform="translate(905.33 760.653)" style="fill:#010101"/>
            <path data-name="Path 2675" d="M27.67 38.508c-7.873 0-15.446-4.685-21.324-13.193a.54.54 0 1 1 .888-.614C12.9 32.908 20.162 37.428 27.67 37.428s14.766-4.52 20.436-12.728a.54.54 0 1 1 .888.614c-5.878 8.509-13.451 13.194-21.324 13.194z" transform="translate(905.33 760.032)" style="fill:#010101"/>
            <g data-name="Group 2333">
                <path data-name="Path 2676" d="M34.883 12.743c-1.82 0-3.195 1.516-3.4 3.558h6.733c-.159-1.901-1.251-3.558-3.333-3.558z" transform="translate(898.264 763.315)" style="fill:#f47e54"/>
                <path data-name="Path 2677" d="M39.209 8.56a9.432 9.432 0 0 0-13.464.126 9.638 9.638 0 0 0 .345 13.435l5.431 5.431a1.44 1.44 0 0 0 2.036 0l5.652-5.652-.014-.015c.1-.092.207-.178.3-.275 3.687-3.684 3.397-9.366-.286-13.05zm-2.485 6.949h-7.563a3.65 3.65 0 0 0 3.68 3.539 4.274 4.274 0 0 0 3.013-1.213.672.672 0 0 1 1.132.485.67.67 0 0 1-.243.505A5.314 5.314 0 0 1 32.8 20.4a5.2 5.2 0 0 1-5.216-5.44v-.04A5.157 5.157 0 0 1 32.6 9.483c3.094 0 4.853 2.528 4.853 5.3a.724.724 0 0 1-.728.728z" transform="translate(900.589 765.26)" style="fill:#f47e54"/>
            </g>
        </g>
    </g>
</svg>
