<svg id="Group_2335" data-name="Group 2335" xmlns="http://www.w3.org/2000/svg" width="72" height="72" viewBox="0 0 72 72">
  <defs>
    <style>
      .cls-1 {
        fill: #fff;
        opacity: 0;
      }

      .cls-2, .cls-4 {
        fill: #f47e54;
      }

      .cls-2 {
        opacity: 0.4;
        isolation: isolate;
      }

      .cls-3 {
        fill: #010101;
      }
    </style>
  </defs>
  <rect id="Rectangle_1287" data-name="Rectangle 1287" class="cls-1" width="72" height="72"/>
  <g id="Group_2334" data-name="Group 2334">
    <path id="Path_2673" data-name="Path 2673" class="cls-2" d="M65,30.22c-16.58,24-41.42,24-58,0v-5c16.58,24,41.42,24,58,0Z"/>
    <path id="Path_2674" data-name="Path 2674" class="cls-3" d="M63,60.75H9A2.752,2.752,0,0,1,6.25,58V25A2.752,2.752,0,0,1,9,22.25H26.309a.75.75,0,0,1,0,1.5H9A1.252,1.252,0,0,0,7.75,25V58A1.252,1.252,0,0,0,9,59.25H63A1.252,1.252,0,0,0,64.25,58V25A1.252,1.252,0,0,0,63,23.75H46.648a.75.75,0,0,1,0-1.5H63A2.752,2.752,0,0,1,65.75,25V58A2.752,2.752,0,0,1,63,60.75Z"/>
    <path id="Path_2675" data-name="Path 2675" class="cls-3" d="M36,43.968c-10.935,0-21.453-6.507-29.617-18.323a.75.75,0,1,1,1.234-.853C15.493,36.19,25.573,42.468,36,42.468S56.508,36.19,64.383,24.792a.75.75,0,1,1,1.234.853C57.453,37.461,46.935,43.968,36,43.968Z"/>
    <g id="Group_2333" data-name="Group 2333">
      <path id="Path_2676" data-name="Path 2676" class="cls-4" d="M36.2,12.743c-2.528,0-4.437,2.106-4.718,4.942h9.351C40.613,15.046,39.1,12.743,36.2,12.743Z"/>
      <path id="Path_2677" data-name="Path 2677" class="cls-4" d="M45.441,9.635a13.1,13.1,0,0,0-18.7.175,13.386,13.386,0,0,0,.479,18.66l7.543,7.543a2,2,0,0,0,2.828,0l7.85-7.85-.02-.021c.14-.128.287-.247.423-.382C50.96,22.643,50.557,14.751,45.441,9.635Zm-3.452,9.651h-10.5A5.07,5.07,0,0,0,36.6,24.2a5.936,5.936,0,0,0,4.185-1.685.933.933,0,0,1,1.572.674.931.931,0,0,1-.337.7,7.381,7.381,0,0,1-5.476,2.191A7.216,7.216,0,0,1,29.3,18.528v-.056c0-4.184,2.948-7.555,6.964-7.555,4.3,0,6.74,3.511,6.74,7.358a1.006,1.006,0,0,1-1.011,1.011Z"/>
    </g>
  </g>
</svg>
