<svg xmlns="http://www.w3.org/2000/svg" width="12.242" height="12.297" viewBox="0 0 12.242 12.297">
    <g data-name="Group 2925">
        <g data-name="Group 2906">
            <path data-name="Line 161" d="M4.75 4.32h-4A.75.75 0 0 1 0 3.57a.75.75 0 0 1 .75-.75h4a.75.75 0 0 1 .75.75.75.75 0 0 1-.75.75z"/>
            <path data-name="Line 163" d="M.773 10.797H8.75a.75.75 0 0 1 .75.75.75.75 0 0 1-.75.75H.773a.75.75 0 0 1-.75-.75.75.75 0 0 1 .75-.75z"/>
            <path data-name="Line 162" d="M.024 11.547V3.57a.75.75 0 0 1 .75-.75.75.75 0 0 1 .75.75v7.977a.75.75 0 0 1-.75.75.75.75 0 0 1-.75-.75z"/>
            <path data-name="Line 164" d="M8.75 12.297a.75.75 0 0 1-.75-.75V7.07a.75.75 0 0 1 .75-.75.75.75 0 0 1 .75.75v4.477a.75.75 0 0 1-.75.75z"/>
            <path data-name="Line 165" d="M3.949 9.054a1 1 0 0 1-.708-.294 1 1 0 0 1 0-1.414l6.252-6.238a1 1 0 0 1 1.414 0 1 1 0 0 1 0 1.414l-6.252 6.24a1 1 0 0 1-.706.292z"/>
        </g>
        <path data-name="Path 2834" d="M-20681.051-22273.945h6.418v6.023" transform="translate(20686 22274.82)" style="fill:none;stroke:#000;stroke-linecap:round;stroke-linejoin:round;stroke-width:1.75px"/>
    </g>
</svg>
