<svg xmlns="http://www.w3.org/2000/svg" width="12.201" height="12.471" viewBox="0 0 12.201 12.471">
    <path data-name="Union 23" d="M20746.75 22311.471a.75.75 0 0 1-.75-.75v-8.377a.751.751 0 0 1 .75-.752h4.441a.751.751 0 0 1 0 1.5h-3.689v6.875h6.854v-4.5a.75.75 0 0 1 1.5 0v5.248a.75.75 0 0 1-.75.75zm2.145-3.461a.751.751 0 0 1 .023-1.059l6.7-6.451h-4.721a.75.75 0 0 1 0-1.5h6.551a.75.75 0 0 1 .75.75v6.367a.75.75 0 0 1-1.5 0v-4.578l-6.742 6.492a.746.746 0 0 1-1.064-.021z" transform="translate(-20746 -22299)" style="fill:#750010"/>
</svg>
