<svg xmlns="http://www.w3.org/2000/svg" width="36" height="36" viewBox="0 0 36 36">
    <g data-name="Fatigue icon">
        <path data-name="Path 2577" d="M35.569 17.425c-.332-.44-8.226-10.775-17.6-10.775S.701 16.985.369 17.425a.741.741 0 0 0-.139.568.726.726 0 0 0 .139.383c.332.44 8.229 10.774 17.6 10.774s17.268-10.334 17.6-10.774a.857.857 0 0 0 0-.951zm-17.6-9.275c6.579 0 12.618 5.862 15.147 8.688a88.165 88.165 0 0 0-13.069-1.3 64.32 64.32 0 0 0-2.683-.029c-.49 0-.981.007-1.459.021a88.025 88.025 0 0 0-13.082 1.3c2.53-2.82 8.569-8.68 15.146-8.68zm0 11.213a2.265 2.265 0 0 0 2.224-2.3v-.018q1.557.039 3.114.133a5.463 5.463 0 0 1-5.338 4.98 5.463 5.463 0 0 1-5.337-4.984q1.557-.1 3.116-.134v.025a2.265 2.265 0 0 0 2.221 2.298zm0 8.287c-7.027 0-13.446-6.7-15.62-9.226a86.005 86.005 0 0 1 8.786-1.131 6.967 6.967 0 0 0 6.834 6.365 6.966 6.966 0 0 0 6.833-6.36 86.6 86.6 0 0 1 8.786 1.127c-2.174 2.53-8.592 9.225-15.619 9.225z"/>
    </g>
</svg>
