<svg xmlns="http://www.w3.org/2000/svg" width="28" height="28" viewBox="0 0 28 28">
  <defs>
    <style>
      .cls-1 {
        fill: #fff;
        opacity: 0;
      }

      .cls-2 {
        fill: #750010;
      }
    </style>
  </defs>
  <g id="Fatigue_icon" data-name="Fatigue icon" transform="translate(-0.031)">
    <rect id="Rectangle_1272" data-name="Rectangle 1272" class="cls-1" width="28" height="28" transform="translate(0.031)"/>
    <path id="Path_2577" data-name="Path 2577" class="cls-2" d="M27.73,14.851c-.257-.335-6.394-8.2-13.681-8.2S.625,14.516.368,14.851a.555.555,0,0,0-.108.432.546.546,0,0,0,.108.292c.257.335,6.4,8.2,13.681,8.2s13.424-7.865,13.681-8.2a.641.641,0,0,0,0-.724ZM14.049,7.792c5.114,0,9.809,4.462,11.775,6.613a69.957,69.957,0,0,0-10.16-.988c-.684-.022-1.379-.028-2.086-.022-.381,0-.763.005-1.134.016a69.845,69.845,0,0,0-10.17.992C4.242,12.252,8.936,7.792,14.049,7.792Zm0,8.534a1.741,1.741,0,0,0,1.729-1.749l0-.014q1.21.03,2.421.1a4.165,4.165,0,0,1-8.3,0q1.21-.073,2.422-.1c0,.007,0,.012,0,.019A1.741,1.741,0,0,0,14.049,16.326Zm0,6.307c-5.463,0-10.453-5.1-12.143-7.022a68.218,68.218,0,0,1,6.83-.861,5.335,5.335,0,0,0,10.624,0,68.688,68.688,0,0,1,6.83.858C24.5,17.538,19.512,22.633,14.049,22.633Z" transform="translate(-0.043 -1.293)"/>
  </g>
</svg>
