<svg xmlns="http://www.w3.org/2000/svg" width="36" height="36" viewBox="0 0 36 36">
    <g data-name="Chronic infection icon">
        <g data-name="Group 2187" transform="translate(-.031)">
            <path data-name="Path 2585" d="M32.912 15.977c-2.469-5.216-6.036-7.337-8.6-8.2a2.466 2.466 0 0 0-.786-.129 2.194 2.194 0 0 0-2.28 2.092v4.821a2.593 2.593 0 0 1-.931-.894c0-.007-.012-.011-.016-.017A9.669 9.669 0 0 1 18.75 8.4v-4a.75.75 0 0 0-1.5 0v4c0 .114.009.224.012.337a.56.56 0 0 0-.012.059 9.32 9.32 0 0 1-1.493 5.085 2.433 2.433 0 0 1-1.007.8V9.742a2.194 2.194 0 0 0-2.28-2.092 2.478 2.478 0 0 0-.788.129c-2.558.861-6.125 2.982-8.594 8.2a17.484 17.484 0 0 0-.8 13.756 2.281 2.281 0 0 0 2.164 1.415 2.476 2.476 0 0 0 .8-.132 27.39 27.39 0 0 0 6.348-2.971c3.053-2.119 3.143-5.029 3.145-10.689a13.621 13.621 0 0 0 2.213-2.583c.03-.04.062-.073.091-.114a.733.733 0 0 0 .035-.081 11.1 11.1 0 0 0 .975-1.965 13.082 13.082 0 0 0 3.186 4.559c0 5.781.058 8.731 3.145 10.873a27.419 27.419 0 0 0 6.354 2.971 2.5 2.5 0 0 0 .8.132 2.281 2.281 0 0 0 2.161-1.418 17.481 17.481 0 0 0-.793-13.755zM10.75 26.814A25.956 25.956 0 0 1 4.764 29.6a.872.872 0 0 1-1.064-.393 15.99 15.99 0 0 1 .748-12.589c2.239-4.739 5.43-6.649 7.711-7.418a.957.957 0 0 1 .311-.052c.423 0 .78.271.78.592v5.1a6.816 6.816 0 0 1-2.572-1 .75.75 0 0 0-.837 1.244 7.728 7.728 0 0 0 3.409 1.252v.349a19.062 19.062 0 0 1-5.9 3.282.75.75 0 0 0 .217 1.467.709.709 0 0 0 .217-.032 20.823 20.823 0 0 0 5.464-2.826c-.026 4.59-.263 6.688-2.498 8.238zm21.555 2.392a.864.864 0 0 1-1.072.392 25.932 25.932 0 0 1-5.983-2.784c-2.256-1.565-2.476-3.689-2.5-8.367a21.162 21.162 0 0 0 5.417 2.953.725.725 0 0 0 .241.04.75.75 0 0 0 .242-1.46 19.955 19.955 0 0 1-5.9-3.514v-.11a8.282 8.282 0 0 0 3.683-1.256.75.75 0 0 0-.833-1.25 6.9 6.9 0 0 1-2.85 1.009V9.742c0-.321.357-.592.78-.592a.978.978 0 0 1 .31.051c2.282.768 5.473 2.678 7.717 7.417a16 16 0 0 1 .748 12.588z" style="fill:#010101"/>
            <circle data-name="Ellipse 269" cx="1" cy="1" r="1" transform="translate(25 22.4)" style="fill:#010101"/>
            <circle data-name="Ellipse 270" cx="1" cy="1" r="1" transform="translate(28 16.4)" style="fill:#010101"/>
            <path data-name="Path 2586" d="M30.5 22.8a1.1 1.1 0 1 0 1.1 1.1 1.1 1.1 0 0 0-1.1-1.1z" style="fill:#010101"/>
            <circle data-name="Ellipse 271" cx="1" cy="1" r="1" transform="translate(9 22.4)" style="fill:#010101"/>
            <circle data-name="Ellipse 272" cx="1" cy="1" r="1" transform="translate(6 16.4)" style="fill:#010101"/>
            <path data-name="Path 2587" d="M5.5 22.8a1.1 1.1 0 1 0 1.1 1.1 1.1 1.1 0 0 0-1.1-1.1z" style="fill:#010101"/>
        </g>
    </g>
</svg>
