<svg data-name="Group 2331" xmlns="http://www.w3.org/2000/svg" width="72" height="72" viewBox="0 0 72 72">
    <g data-name="Group 2330">
        <g data-name="Layer 1">
            <g data-name="Group 2326">
                <path data-name="Path 2663" d="M56.736 49a2.913 2.913 0 0 1-.908-.144 44.571 44.571 0 0 1-10.092-4.5c-4.619-3.068-4.618-7.3-4.616-16.58V16.661a2.331 2.331 0 0 1 2.5-2.1 2.933 2.933 0 0 1 .9.142c3.958 1.274 9.484 4.429 13.337 12.221a25.175 25.175 0 0 1 1.264 20.621A2.509 2.509 0 0 1 56.736 49z" style="fill:#b93b4e"/>
                <path data-name="Path 2664" d="M56.736 49a2.913 2.913 0 0 1-.908-.144 44.571 44.571 0 0 1-10.092-4.5c-4.619-3.068-4.618-7.3-4.616-16.58V16.661a2.331 2.331 0 0 1 2.5-2.1 2.933 2.933 0 0 1 .9.142c3.958 1.274 9.484 4.429 13.337 12.221a25.175 25.175 0 0 1 1.264 20.621A2.509 2.509 0 0 1 56.736 49z" style="fill:#f47e54;opacity:.25;isolation:isolate"/>
            </g>
            <g data-name="Group 2327" style="opacity:.4">
                <path data-name="Path 2665" d="M15.264 49a2.509 2.509 0 0 1-2.386-1.456 25.177 25.177 0 0 1 1.264-20.622C18 19.131 23.521 15.976 27.479 14.7a2.933 2.933 0 0 1 .9-.142 2.331 2.331 0 0 1 2.5 2.1v11.11c0 9.277 0 13.512-4.616 16.58a44.571 44.571 0 0 1-10.092 4.5 2.913 2.913 0 0 1-.908.144z" style="fill:#b93b4e"/>
                <path data-name="Path 2666" d="M15.264 49a2.509 2.509 0 0 1-2.386-1.456 25.177 25.177 0 0 1 1.264-20.622C18 19.131 23.521 15.976 27.479 14.7a2.933 2.933 0 0 1 .9-.142 2.331 2.331 0 0 1 2.5 2.1v11.11c0 9.277 0 13.512-4.616 16.58a44.571 44.571 0 0 1-10.092 4.5 2.913 2.913 0 0 1-.908.144z" style="fill:#f47e54;opacity:.25;isolation:isolate"/>
            </g>
            <g data-name="Group 2328">
                <path data-name="Path 2667" d="M17.842 37.738a.75.75 0 0 1-.183-1.477c.175-.045 17.591-4.622 17.591-19.461a.75.75 0 1 1 1.5 0c0 16.015-18.537 20.868-18.725 20.915a.771.771 0 0 1-.183.023z" style="fill:#010101"/>
                <path data-name="Path 2668" d="M28.1 29.655a10.992 10.992 0 0 1-6.25-2.207.75.75 0 0 1 .9-1.2c.25.188 6.181 4.547 10.069-.567a.75.75 0 1 1 1.195.907 7.183 7.183 0 0 1-5.914 3.067z" style="fill:#010101"/>
                <path data-name="Path 2669" d="M54.113 37.738a.773.773 0 0 1-.184-.023c-.187-.047-18.679-4.9-18.679-20.915V12a.75.75 0 0 1 1.5 0v4.8c0 14.839 17.371 19.416 17.546 19.461a.75.75 0 0 1-.183 1.477z" style="fill:#010101"/>
                <path data-name="Path 2670" d="M43.9 29.655a7.181 7.181 0 0 1-5.918-3.065.75.75 0 1 1 1.194-.907c3.888 5.113 9.826.755 10.076.567a.75.75 0 0 1 .9 1.2 11.009 11.009 0 0 1-6.252 2.205z" style="fill:#010101"/>
            </g>
            <g data-name="Group 2329">
                <path data-name="Path 2671" d="M39.859 57.239h-7.73a.75.75 0 1 1 0-1.5h7.73a1.732 1.732 0 0 0 1.379-.764 1.986 1.986 0 0 0 .275-1.791c-.121-.352-.489-1.422-2.842-1.422a50.987 50.987 0 0 1-11.65-1.854c-6.031-1.682-13.395 6.268-13.468 6.349a.75.75 0 0 1-1.106-1.014c.325-.356 8.067-8.71 14.978-6.78a49.089 49.089 0 0 0 11.246 1.8c2.83 0 3.879 1.323 4.26 2.433a3.487 3.487 0 0 1-.472 3.151 3.229 3.229 0 0 1-2.6 1.392z" style="fill:#010101"/>
                <path data-name="Path 2672" d="M27.731 65.479a43.022 43.022 0 0 1-8.854-.7.75.75 0 0 1 .338-1.461c.063.015 6.6 1.461 19.37-.014 9.847-1.139 17.562-8.538 18.646-12.333a2.879 2.879 0 0 0-.634-1.268c-.771-.832-1.824-.014-2.129.257-3.264 2.885-8.495 5.744-12.13 5.586a.749.749 0 0 1-.72-.778.761.761 0 0 1 .778-.72c2.835.079 7.591-2.13 11.079-5.212 1.436-1.27 3.133-1.329 4.223-.151a4.373 4.373 0 0 1 1.045 2.215.743.743 0 0 1-.014.278C57.6 55.812 49.052 63.606 38.757 64.8a96.239 96.239 0 0 1-11.026.679z" style="fill:#010101"/>
            </g>
        </g>
    </g>
</svg>
