<svg id="Group_2324" data-name="Group 2324" xmlns="http://www.w3.org/2000/svg" width="72" height="72" viewBox="0 0 72 72">
  <defs>
    <style>
      .cls-1 {
        fill: #fff;
        opacity: 0;
      }

      .cls-2, .cls-3 {
        fill: #f47e54;
      }

      .cls-2 {
        opacity: 0.4;
        isolation: isolate;
      }

      .cls-4 {
        fill: #010101;
      }
    </style>
  </defs>
  <rect id="Rectangle_1285" data-name="Rectangle 1285" class="cls-1" width="72" height="72"/>
  <g id="Group_2323" data-name="Group 2323">
    <circle id="Ellipse_309" data-name="Ellipse 309" class="cls-2" cx="8.394" cy="8.394" r="8.394" transform="translate(27.606 6.6)"/>
    <circle id="Ellipse_310" data-name="Ellipse 310" class="cls-2" cx="8.394" cy="8.394" r="8.394" transform="translate(27.606 49.6)"/>
    <path id="Path_2655" data-name="Path 2655" class="cls-3" d="M57.606,44.994A8.394,8.394,0,1,1,66,36.6,8.4,8.4,0,0,1,57.606,44.994Z"/>
    <path id="Path_2656" data-name="Path 2656" class="cls-4" d="M36,51.44a.75.75,0,0,1-.75-.75V22.509a.75.75,0,0,1,1.5,0V50.69A.75.75,0,0,1,36,51.44Z"/>
    <path id="Path_2657" data-name="Path 2657" class="cls-3" d="M14.394,44.994A8.394,8.394,0,1,1,22.788,36.6,8.4,8.4,0,0,1,14.394,44.994Z"/>
    <path id="Path_2658" data-name="Path 2658" class="cls-4" d="M36,39.229a54.538,54.538,0,0,1-14.288-1.9.75.75,0,0,1,.394-1.448,53.273,53.273,0,0,0,27.789,0,.75.75,0,0,1,.392,1.448A54.519,54.519,0,0,1,36,39.229Z"/>
    <path id="Path_2659" data-name="Path 2659" class="cls-4" d="M15.972,25.281a.749.749,0,0,1-.69-1.043,14.821,14.821,0,0,1,13.673-9.055.75.75,0,0,1,0,1.5,13.32,13.32,0,0,0-12.291,8.14A.752.752,0,0,1,15.972,25.281Z"/>
    <path id="Path_2660" data-name="Path 2660" class="cls-4" d="M23.363,57.806a.747.747,0,0,1-.3-.062,14.834,14.834,0,0,1-8.952-13.629.75.75,0,0,1,1.5,0,13.334,13.334,0,0,0,8.047,12.252.75.75,0,0,1-.3,1.439Z"/>
    <path id="Path_2661" data-name="Path 2661" class="cls-4" d="M43.046,58.956a.75.75,0,0,1,0-1.5,13.33,13.33,0,0,0,12.265-8.078.75.75,0,1,1,1.378.592A14.827,14.827,0,0,1,43.046,58.956Z"/>
    <path id="Path_2662" data-name="Path 2662" class="cls-4" d="M57.137,30.774a.75.75,0,0,1-.75-.75,13.372,13.372,0,0,0-7.825-12.152.751.751,0,0,1,.621-1.367,14.877,14.877,0,0,1,8.7,13.519A.75.75,0,0,1,57.137,30.774Z"/>
  </g>
</svg>
