<svg xmlns="http://www.w3.org/2000/svg" width="72" height="72" viewBox="0 0 72 72">
    <g data-name="Group 2241">
        <g data-name="Group 2240">
            <path data-name="Path 2598" d="M61.566 6.25H5.934A3.69 3.69 0 0 0 2.25 9.934v39.632a3.689 3.689 0 0 0 3.684 3.684h55.632a3.687 3.687 0 0 0 3.684-3.684V9.934a3.689 3.689 0 0 0-3.684-3.684zm-55.632 3h55.632a.684.684 0 0 1 .684.684v.366c-8.622 12.324-18.468 18.844-28.5 18.844S13.872 22.626 5.25 10.3v-.366a.684.684 0 0 1 .684-.684zm55.632 41H5.934a.684.684 0 0 1-.684-.684V15.332c8.632 11.008 18.416 16.814 28.5 16.814s19.87-5.806 28.5-16.814v34.234a.684.684 0 0 1-.684.684z" transform="translate(2.188 6.25)" style="fill:#fff"/>
            <path data-name="Path 2599" d="M15.75 14.25h12a1.5 1.5 0 0 0 0-3h-12a1.5 1.5 0 0 0 0 3z" transform="translate(14.188 11.25)" style="fill:#fff"/>
        </g>
    </g>
</svg>
