<svg xmlns="http://www.w3.org/2000/svg" width="36" height="36" viewBox="0 0 36 36">
    <g data-name="Daily sputum icon">
        <g data-name="Group 2180">
            <path data-name="Path 2582" d="m34.373 27.527-1.894-6.716a2.857 2.857 0 0 0-3.025-1.8l-6.034.789c-.231.04-.671-.459-1.11-1.928-.023-.069-.043-.139-.064-.209l.587-.278a2.046 2.046 0 0 0-.108-3.917 7.219 7.219 0 0 0-2.09-.222l-.213-2.287a1.206 1.206 0 0 0-1.208-1.1l-2.426-.023a13.25 13.25 0 0 0 2.5-7.841.75.75 0 1 0-1.5.02 11.787 11.787 0 0 1-2.23 6.966 1.513 1.513 0 0 0 1.242 2.373h2.154l.213 2.282a1.21 1.21 0 0 0 1.31 1.117 6.043 6.043 0 0 1 1.859.161.526.526 0 0 1 .4.511.576.576 0 0 1-.455.567l-1.233.578a.751.751 0 0 0-.41.859c.077.309.153.61.241.885.636 2.125 1.561 3.119 2.736 2.972l6.034-.786a1.34 1.34 0 0 1 1.411.784l1.872 6.65a.747.747 0 0 0 .721.546.71.71 0 0 0 .2-.028.75.75 0 0 0 .52-.925z" style="fill:#750010" transform="translate(-.031)"/>
            <path data-name="Path 2583" d="M18.57 16.354a.288.288 0 0 0-.3-.163l-2.022.25a1.68 1.68 0 1 0 1.879 1.459 1.482 1.482 0 0 1 .378-1.217.288.288 0 0 0 .065-.329z" style="fill:#750010" transform="translate(-.031)"/>
            <path data-name="Path 2584" d="M19.319 21.25h-8.638a.75.75 0 1 0 0 1.5h.569v8.917c0 1.7 1.682 3.083 3.75 3.083s3.75-1.383 3.75-3.083V22.75h.569a.75.75 0 1 0 0-1.5zM17.25 31.667c0 .858-1.03 1.583-2.25 1.583s-2.25-.725-2.25-1.583V22.75h4.5z" style="fill:#750010" transform="translate(-.031)"/>
        </g>
    </g>
</svg>
