<svg id="Group_2674" data-name="Group 2674" xmlns="http://www.w3.org/2000/svg" width="28" height="28" viewBox="0 0 28 28">
  <defs>
    <style>
      .cls-1 {
        fill: none;
      }

      .cls-2 {
        fill: #750010;
      }
    </style>
  </defs>
  <rect id="Rectangle_1364" data-name="Rectangle 1364" class="cls-1" width="28" height="28"/>
  <path id="Path_2824" data-name="Path 2824" class="cls-2" d="M14.5,26.75A12.25,12.25,0,1,1,26.75,14.5,12.263,12.263,0,0,1,14.5,26.75m0-23.333A11.083,11.083,0,1,0,25.583,14.5,11.1,11.1,0,0,0,14.5,3.417" transform="translate(-0.5 -0.5)"/>
  <path id="Path_2825" data-name="Path 2825" class="cls-2" d="M16.507,25.61a2.121,2.121,0,0,1-1.725-.9,2.257,2.257,0,0,1-.768.134,2.3,2.3,0,0,1-.774-4.477,1.735,1.735,0,0,1,1.733-1.676,1.778,1.778,0,0,1,.322.03,3.258,3.258,0,0,1,2.2-2.194,3.256,3.256,0,0,1,1.129-2.051,1.689,1.689,0,0,1-.011-.189,1.733,1.733,0,0,1,.525-1.237,1.712,1.712,0,0,1-.142-.681,1.736,1.736,0,0,1,1.734-1.734,1.709,1.709,0,0,1,.755.175,1.925,1.925,0,0,1,3.281,1.367,1.88,1.88,0,0,1-.136.7,4.08,4.08,0,0,1,1.066,2.927,9.721,9.721,0,0,1-3.86,7.393,7.5,7.5,0,0,1-3.659,1.588,2.108,2.108,0,0,1-1.666.822m-1.468-2.279a.583.583,0,0,1,.561.422.94.94,0,0,0,1.74.185.582.582,0,0,1,.513-.3h.023a6.088,6.088,0,0,0,3.28-1.383,8.6,8.6,0,0,0,3.371-6.436,2.766,2.766,0,0,0-.979-2.322.583.583,0,0,1-.123-.844.756.756,0,1,0-1.281-.776.584.584,0,0,1-.983.137.56.56,0,0,0-.433-.208.565.565,0,0,0-.383.982.583.583,0,0,1-.194.975.568.568,0,0,0-.373.529.545.545,0,0,0,.043.21.584.584,0,0,1-.226.708,2.1,2.1,0,0,0-.968,1.768.613.613,0,0,1-.5.607,2.094,2.094,0,0,0-1.8,2.013.584.584,0,0,1-.975.415.559.559,0,0,0-.379-.151.559.559,0,0,0-.53.761.583.583,0,0,1-.507.783,1.139,1.139,0,0,0,.078,2.275,1.121,1.121,0,0,0,.677-.229.585.585,0,0,1,.348-.115" transform="translate(-2.601 -2.278)"/>
  <path id="Path_2826" data-name="Path 2826" class="cls-2" d="M15.219,16.266a1.133,1.133,0,1,0-1.133-1.133,1.133,1.133,0,0,0,1.133,1.133" transform="translate(-3.13 -3.111)"/>
  <path id="Path_2827" data-name="Path 2827" class="cls-2" d="M9.412,18.857a1.01,1.01,0,1,0-1.01-1.01,1.01,1.01,0,0,0,1.01,1.01" transform="translate(-1.867 -3.741)"/>
  <path id="Path_2828" data-name="Path 2828" class="cls-2" d="M17.412,9.857a1.01,1.01,0,1,0-1.01-1.01,1.01,1.01,0,0,0,1.01,1.01" transform="translate(-3.645 -1.741)"/>
</svg>
