<?xml version="1.0" encoding="UTF-8"?>
<svg width="685px" height="200px" viewBox="0 0 685 200" version="1.1" xmlns="http://www.w3.org/2000/svg" xmlns:xlink="http://www.w3.org/1999/xlink">
    <title>Brenso-DSA-Type-Lockup-with-TM</title>
    <defs>
        <rect id="path-1" x="0" y="0" width="685" height="200"></rect>
    </defs>
    <g id="Page-1" stroke="none" stroke-width="1" fill="none" fill-rule="evenodd">
        <g id="Brenso-DSA-Type-Lockup-with-TM">
            <mask id="mask-2" fill="white">
                <use xlink:href="#path-1"></use>
            </mask>
            <g id="Mask"></g>
            <g mask="url(#mask-2)" id="Group">
                <g transform="translate(-1890.600000, -573.305800)">
                    <g transform="translate(1891.230000, 573.305800)">
                        <g transform="translate(0.000000, -0.000000)" fill-rule="nonzero">
                            <g transform="translate(540.852534, 33.740000)" id="Path">
                                <path d="M104.337466,90.46 C103.627466,90.46 102.927466,90.34 102.257466,90.12 C95.4574664,87.81 85.9274664,84.08 79.1074664,79.37 C68.5074664,72.04 68.5174664,61.94 68.5174664,39.79 L68.5174664,13.26 C68.5174664,10.49 71.0974664,8.24 74.2574664,8.24 C74.9574664,8.24 75.6474664,8.35 76.3174664,8.58 C85.3974664,11.62 98.0774664,19.16 106.917466,37.76 C117.317466,59.64 113.197466,78 109.817466,86.99 C109.027466,89.07 106.827466,90.46 104.337466,90.46 Z" fill="#FF7F51"></path>
                                <path d="M9.19746642,90.46 C6.70746642,90.46 4.50746642,89.06 3.72746642,86.98 C0.347466425,77.99 -3.77253358,59.63 6.62746642,37.75 C15.4674664,19.15 28.1474664,11.62 37.2274664,8.58 C37.8974664,8.36 38.5874664,8.24 39.2874664,8.24 C42.4474664,8.24 45.0274665,10.49 45.0274665,13.26 L45.0274665,39.78 C45.0274665,61.93 45.0374664,72.04 34.4374664,79.36 C27.6174664,84.07 18.0874664,87.81 11.2874664,90.11 C10.6074664,90.35 9.90746642,90.46 9.19746642,90.46 Z" fill="#FF7F51"></path>
                                <path d="M98.8974664,57.4 C98.6574664,57.34 84.5074664,53.6 73.1474664,43.44 C73.7174664,43.49 74.2874664,43.52 74.8574664,43.52 C80.7474664,43.52 86.3374664,40.79 89.6174664,38.32 C90.6574664,37.53 90.8674664,36.05 90.0774664,35 C89.2874664,33.96 87.8074664,33.75 86.7574664,34.54 C86.2174664,34.95 73.5474664,44.3 64.9774664,33.89 C61.4574664,28.29 59.1174664,21.52 59.1174664,13.38 L59.1174664,2.37 C59.1174664,1.06 58.0574664,0 56.7474664,0 C55.4374664,0 54.3774664,1.06 54.3774664,2.37 L54.3774664,13.38 C54.3774664,21.53 52.0374664,28.3 48.5074664,33.89 C39.9774664,44.25 27.2874664,34.95 26.7474664,34.54 C25.7074664,33.75 24.2174664,33.96 23.4374664,35 C22.6474664,36.04 22.8574664,37.53 23.8974664,38.31 C27.1674664,40.78 32.7574664,43.51 38.6474664,43.51 C39.2074664,43.51 39.7674664,43.48 40.3274664,43.43 C28.9474664,53.58 14.7574664,57.32 14.5174664,57.38 C13.2474664,57.7 12.4874664,58.99 12.8074664,60.25 C13.0774664,61.32 14.0374664,62.04 15.0974664,62.04 C15.2874664,62.04 15.4874664,62.02 15.6774664,61.97 C16.0074664,61.89 40.3974664,55.5 52.4874664,36.5 C52.5674664,36.4 52.6374664,36.31 52.7174664,36.22 C52.8774664,36.01 52.9874664,35.77 53.0674664,35.53 C54.5274664,33.11 55.7674664,30.49 56.7574664,27.65 C57.7374664,30.48 58.9774664,33.1 60.4374664,35.52 C60.5174664,35.76 60.6274664,36 60.7874664,36.21 C60.8574664,36.31 60.9374664,36.4 61.0174664,36.49 C73.0774664,55.49 97.4174664,61.88 97.7374664,61.97 C97.9274664,62.02 98.1274664,62.04 98.3174664,62.04 C99.3774664,62.04 100.337466,61.33 100.607466,60.25 C100.937466,59.01 100.167466,57.72 98.8974664,57.4 Z" fill="#B83B4D"></path>
                            </g>
                            <g transform="translate(0.020000, 151.270000)" fill="#750010">
                                <path d="M36.89,27.74 C38.39,29.74 39.15,32.2 39.15,35.12 C39.15,39.12 37.68,42.29 34.74,44.62 C31.8,46.96 27.74,48.12 22.58,48.12 L4.92,48.12 C3.35,48.12 2.13,47.69 1.28,46.84 C0.43,45.99 0,44.77 0,43.2 L0,5.53 C0,3.96 0.43,2.75 1.28,1.89 C2.13,1.04 3.35,0.61 4.92,0.61 L21.9,0.61 C26.84,0.61 30.76,1.71 33.66,3.91 C36.56,6.11 38.01,9.12 38.01,12.94 C38.01,15.41 37.35,17.58 36.02,19.44 C34.69,21.3 32.86,22.66 30.53,23.52 C33.27,24.34 35.39,25.74 36.89,27.74 Z M10.24,19.96 L20.14,19.96 C22.84,19.96 24.82,19.5 26.1,18.58 C27.38,17.66 28.02,16.26 28.02,14.37 C28.02,12.39 27.38,10.95 26.1,10.02 C24.82,9.1 22.83,8.64 20.14,8.64 L10.24,8.64 L10.24,19.96 Z M27.43,38.69 C28.69,37.75 29.32,36.22 29.32,34.11 C29.32,32 28.69,30.45 27.43,29.46 C26.17,28.47 24.15,27.98 21.36,27.98 L10.24,27.98 L10.24,40.11 L21.36,40.11 C24.15,40.11 26.17,39.63 27.43,38.69 Z" id="Shape"></path>
                                <path d="M88.07,44.35 C88.07,45.61 87.56,46.64 86.55,47.45 C85.54,48.26 84.36,48.66 83.01,48.66 C82.16,48.66 81.33,48.46 80.52,48.05 C79.71,47.65 79.04,47.02 78.5,46.16 L69.61,32.95 C68.85,31.78 68.04,30.94 67.18,30.42 C66.33,29.9 65.25,29.65 63.95,29.65 L58.49,29.65 L58.49,43.26 C58.49,44.88 58.03,46.16 57.11,47.1 C56.19,48.04 54.94,48.52 53.37,48.52 C51.75,48.52 50.47,48.05 49.53,47.1 C48.59,46.15 48.12,44.88 48.12,43.26 L48.12,5.52 C48.12,3.95 48.55,2.74 49.4,1.88 C50.25,1.03 51.47,0.6 53.04,0.6 L69.95,0.6 C75.52,0.6 79.73,1.82 82.58,4.27 C85.43,6.72 86.86,10.26 86.86,14.88 C86.86,18.52 85.85,21.55 83.83,23.98 C81.81,26.41 78.96,28 75.27,28.76 C76.62,29.03 77.82,29.56 78.88,30.34 C79.93,31.13 80.96,32.26 81.95,33.74 L87.07,41.42 C87.74,42.44 88.07,43.41 88.07,44.35 Z M74.93,20.12 C76.28,19.07 76.95,17.41 76.95,15.17 C76.95,12.88 76.28,11.22 74.93,10.18 C73.58,9.15 71.4,8.63 68.39,8.63 L58.35,8.63 L58.35,21.7 L68.39,21.7 C71.41,21.71 73.59,21.18 74.93,20.12 Z" id="Shape"></path>
                                <path d="M106.24,45.73 C102.76,43.73 100.07,40.9 98.19,37.24 C96.3,33.58 95.36,29.28 95.36,24.34 C95.36,19.4 96.3,15.1 98.19,11.44 C100.08,7.78 102.76,4.96 106.24,2.98 C109.72,1 113.82,0.01 118.54,0.01 C123.26,0.01 127.36,1 130.84,2.98 C134.32,4.96 137.01,7.78 138.89,11.44 C140.78,15.1 141.72,19.4 141.72,24.34 C141.72,29.28 140.78,33.58 138.89,37.24 C137,40.9 134.32,43.73 130.84,45.73 C127.36,47.73 123.26,48.73 118.54,48.73 C113.82,48.73 109.72,47.73 106.24,45.73 Z M127.87,36.4 C130.14,33.62 131.27,29.59 131.27,24.34 C131.27,19.08 130.15,15.07 127.9,12.31 C125.65,9.55 122.53,8.17 118.53,8.17 C114.53,8.17 111.42,9.55 109.2,12.31 C106.98,15.07 105.86,19.08 105.86,24.34 C105.86,29.6 106.98,33.62 109.23,36.4 C111.48,39.19 114.58,40.58 118.53,40.58 C122.49,40.58 125.6,39.19 127.87,36.4 Z" id="Shape"></path>
                                <path d="M191.28,1.73 C192.2,2.7 192.66,3.94 192.66,5.47 L192.66,43.27 C192.66,44.84 192.2,46.11 191.28,47.08 C190.36,48.05 189.16,48.53 187.67,48.53 C186.05,48.53 184.75,47.95 183.76,46.78 L161.19,17.87 L161.19,43.27 C161.19,44.84 160.75,46.11 159.88,47.08 C159,48.05 157.82,48.53 156.34,48.53 C154.86,48.53 153.67,48.05 152.77,47.08 C151.87,46.11 151.42,44.85 151.42,43.27 L151.42,5.47 C151.42,3.94 151.88,2.7 152.8,1.73 C153.72,0.76 154.92,0.28 156.41,0.28 C158.07,0.28 159.35,0.86 160.25,2.03 L182.82,30.74 L182.82,5.47 C182.82,3.94 183.27,2.7 184.17,1.73 C185.07,0.76 186.24,0.28 187.67,0.28 C189.15,0.28 190.35,0.76 191.28,1.73 Z" id="Path"></path>
                                <path d="M213.35,45.77 C209.85,43.79 207.15,40.96 205.26,37.28 C203.37,33.6 202.43,29.28 202.43,24.34 C202.43,19.4 203.37,15.1 205.26,11.44 C207.15,7.78 209.84,4.96 213.35,2.98 C216.85,1 220.94,0.01 225.61,0.01 C231.49,0.01 236.57,1.63 240.84,4.86 C241.51,5.4 241.99,5.94 242.25,6.48 C242.52,7.02 242.65,7.69 242.65,8.5 C242.65,9.67 242.32,10.67 241.67,11.5 C241.02,12.33 240.22,12.75 239.28,12.75 C238.65,12.75 238.1,12.67 237.63,12.51 C237.16,12.35 236.63,12.07 236.05,11.67 C234.25,10.5 232.59,9.66 231.06,9.14 C229.53,8.62 227.89,8.36 226.14,8.36 C221.83,8.36 218.58,9.7 216.4,12.37 C214.22,15.04 213.13,19.03 213.13,24.33 C213.13,35.02 217.47,40.37 226.14,40.37 C227.8,40.37 229.37,40.11 230.86,39.6 C232.34,39.08 234.07,38.24 236.05,37.07 C236.72,36.67 237.28,36.39 237.73,36.23 C238.18,36.07 238.7,35.99 239.28,35.99 C240.22,35.99 241.02,36.41 241.67,37.24 C242.32,38.07 242.65,39.07 242.65,40.24 C242.65,41.05 242.5,41.73 242.21,42.29 C241.92,42.85 241.46,43.38 240.83,43.87 C236.56,47.1 231.49,48.720075 225.6,48.720075 C220.94,48.73 216.85,47.74 213.35,45.77 Z" id="Path"></path>
                                <path d="M292.25,1.7 C293.19,2.64 293.66,3.9 293.66,5.47 L293.66,43.27 C293.66,44.84 293.19,46.11 292.25,47.08 C291.31,48.05 290.05,48.53 288.48,48.53 C286.91,48.53 285.66,48.06 284.74,47.11 C283.82,46.17 283.36,44.89 283.36,43.27 L283.36,28.18 L261.46,28.18 L261.46,43.27 C261.46,44.84 260.99,46.11 260.05,47.08 C259.11,48.05 257.87,48.53 256.34,48.53 C254.77,48.53 253.51,48.06 252.57,47.11 C251.63,46.16 251.16,44.89 251.16,43.27 L251.16,5.47 C251.16,3.9 251.63,2.64 252.57,1.7 C253.51,0.76 254.77,0.28 256.34,0.28 C257.91,0.28 259.16,0.75 260.08,1.7 C261,2.64 261.46,3.9 261.46,5.47 L261.46,19.82 L283.36,19.82 L283.36,5.47 C283.36,3.9 283.82,2.64 284.74,1.7 C285.66,0.76 286.91,0.28 288.48,0.28 C290.05,0.28 291.31,0.75 292.25,1.7 Z" id="Path"></path>
                                <path d="M306.2,47.11 C305.26,46.17 304.79,44.89 304.79,43.27 L304.79,5.47 C304.79,3.9 305.26,2.64 306.2,1.7 C307.14,0.76 308.42,0.28 310.04,0.28 C311.66,0.28 312.94,0.75 313.88,1.7 C314.82,2.64 315.29,3.9 315.29,5.47 L315.29,43.27 C315.29,44.89 314.82,46.17 313.88,47.11 C312.94,48.05 311.66,48.53 310.04,48.53 C308.42,48.53 307.14,48.06 306.2,47.11 Z" id="Path"></path>
                                <path d="M327.7,46.84 C326.85,45.99 326.42,44.77 326.42,43.2 L326.42,5.53 C326.42,3.96 326.85,2.75 327.7,1.89 C328.55,1.04 329.77,0.61 331.34,0.61 L355.19,0.61 C358.51,0.61 360.18,1.96 360.18,4.65 C360.18,7.39 358.52,8.76 355.19,8.76 L336.66,8.76 L336.66,19.88 L353.84,19.88 C357.16,19.88 358.83,21.25 358.83,23.99 C358.83,26.69 357.17,28.03 353.84,28.03 L336.66,28.03 L336.66,39.96 L355.19,39.96 C358.51,39.96 360.18,41.33 360.18,44.07 C360.18,46.77 358.52,48.1101744 355.19,48.1101744 L331.34,48.1101744 C329.76,48.12 328.55,47.7 327.7,46.84 Z" id="Path"></path>
                                <path d="M377.63,45.77 C374.13,43.79 371.43,40.96 369.54,37.28 C367.65,33.6 366.71,29.28 366.71,24.34 C366.71,19.4 367.65,15.1 369.54,11.44 C371.43,7.78 374.12,4.96 377.63,2.98 C381.13,1 385.22,0.01 389.89,0.01 C395.77,0.01 400.85,1.63 405.12,4.86 C405.79,5.4 406.27,5.94 406.53,6.48 C406.8,7.02 406.93,7.69 406.93,8.5 C406.93,9.67 406.6,10.67 405.95,11.5 C405.3,12.33 404.5,12.75 403.56,12.75 C402.93,12.75 402.38,12.67 401.91,12.51 C401.44,12.35 400.91,12.07 400.33,11.67 C398.53,10.5 396.87,9.66 395.34,9.14 C393.81,8.62 392.17,8.36 390.42,8.36 C386.11,8.36 382.86,9.7 380.68,12.37 C378.5,15.04 377.41,19.03 377.41,24.33 C377.41,35.02 381.75,40.37 390.42,40.37 C392.08,40.37 393.65,40.11 395.14,39.6 C396.62,39.08 398.35,38.24 400.33,37.07 C401,36.67 401.56,36.39 402.01,36.23 C402.46,36.07 402.98,35.99 403.56,35.99 C404.5,35.99 405.3,36.41 405.95,37.24 C406.6,38.07 406.93,39.07 406.93,40.24 C406.93,41.05 406.78,41.73 406.49,42.29 C406.2,42.85 405.74,43.38 405.11,43.87 C400.84,47.1 395.77,48.720075 389.88,48.720075 C385.22,48.73 381.13,47.74 377.63,45.77 Z" id="Path"></path>
                                <path d="M427.19,47.05 C426.22,46.11 425.74,44.85 425.74,43.28 L425.74,9.18 L414.82,9.18 C411.5,9.18 409.83,7.74 409.83,4.87 C409.83,2.04 411.49,0.62 414.82,0.62 L447.17,0.62 C450.49,0.62 452.16,2.04 452.16,4.87 C452.16,7.75 450.5,9.18 447.17,9.18 L436.25,9.18 L436.25,43.28 C436.25,44.85 435.78,46.11 434.84,47.05 C433.9,47.99 432.62,48.46 431,48.46 C429.43,48.46 428.16,47.99 427.19,47.05 Z" id="Path"></path>
                                <path d="M497.11,43.88 C497.11,45.14 496.6,46.21 495.59,47.08 C494.58,47.96 493.42,48.39 492.12,48.39 C491.27,48.39 490.46,48.15 489.69,47.68 C488.93,47.21 488.34,46.5 487.94,45.56 L484.37,37.61 L461.53,37.61 L457.96,45.56 C457.56,46.5 456.98,47.21 456.24,47.68 C455.5,48.15 454.68,48.39 453.78,48.39 C452.48,48.39 451.31,47.95 450.28,47.08 C449.25,46.2 448.73,45.14 448.73,43.88 C448.73,43.25 448.91,42.53 449.27,41.72 L467.46,3.51 C467.95,2.43 468.7,1.61 469.68,1.05 C470.67,0.49 471.72,0.21 472.85,0.21 C474.02,0.21 475.1,0.5 476.08,1.09 C477.07,1.67 477.83,2.48 478.37,3.52 L496.56,41.73 C496.93,42.53 497.11,43.25 497.11,43.88 Z M465.1,29.66 L480.8,29.66 L472.98,12.14 L465.1,29.66 Z" id="Shape"></path>
                                <path d="M511.12,47.48 C508.06,46.65 505.57,45.47 503.64,43.94 C502.97,43.45 502.48,42.92 502.19,42.36 C501.9,41.8 501.75,41.09 501.75,40.24 C501.75,39.12 502.1,38.13 502.79,37.27 C503.49,36.42 504.28,35.99 505.18,35.99 C505.67,35.99 506.16,36.07 506.63,36.23 C507.1,36.39 507.67,36.67 508.35,37.07 C510.28,38.28 512.24,39.17 514.21,39.73 C516.19,40.29 518.36,40.57 520.75,40.57 C523.72,40.57 525.98,40.08 527.56,39.09 C529.13,38.1 529.92,36.69 529.92,34.84 C529.92,33.45 529.19,32.32 527.73,31.47 C526.27,30.62 523.67,29.81 519.95,29.04 C515.77,28.19 512.44,27.15 509.94,25.94 C507.45,24.73 505.63,23.22 504.48,21.43 C503.33,19.63 502.76,17.45 502.76,14.89 C502.76,12.06 503.58,9.51 505.22,7.24 C506.86,4.97 509.13,3.2 512.03,1.92 C514.93,0.64 518.2,-1.13686838e-13 521.83,-1.13686838e-13 C528.21,-1.13686838e-13 533.46,1.6 537.6,4.78 C538.27,5.32 538.76,5.87 539.05,6.43 C539.34,6.99 539.49,7.68 539.49,8.49 C539.49,9.61 539.14,10.6 538.45,11.45 C537.75,12.3 536.96,12.73 536.06,12.73 C535.57,12.73 535.11,12.66 534.68,12.53 C534.25,12.39 533.66,12.1 532.89,11.65 C531.05,10.48 529.35,9.61 527.8,9.02 C526.25,8.44 524.28,8.14 521.9,8.14 C519.16,8.14 517,8.67 515.43,9.72 C513.86,10.78 513.07,12.22 513.07,14.07 C513.07,15.15 513.37,16.04 513.98,16.73 C514.59,17.43 515.6,18.04 517.01,18.58 C518.42,19.12 520.43,19.68 523.04,20.27 C529.15,21.62 533.54,23.35 536.21,25.46 C538.88,27.57 540.22,30.47 540.22,34.15 C540.22,37.03 539.42,39.56 537.83,41.76 C536.24,43.96 533.99,45.67 531.09,46.88 C528.19,48.09 524.83,48.7 521.02,48.7 C517.48,48.73 514.18,48.31 511.12,47.48 Z" id="Path"></path>
                                <path d="M550.88,47.11 C549.94,46.17 549.47,44.89 549.47,43.27 L549.47,5.47 C549.47,3.9 549.94,2.64 550.88,1.7 C551.82,0.76 553.1,0.28 554.72,0.28 C556.34,0.28 557.62,0.75 558.56,1.7 C559.5,2.64 559.97,3.9 559.97,5.47 L559.97,43.27 C559.97,44.89 559.5,46.17 558.56,47.11 C557.62,48.05 556.34,48.53 554.72,48.53 C553.1,48.53 551.82,48.06 550.88,47.11 Z" id="Path"></path>
                                <path d="M578.3,47.48 C575.24,46.65 572.75,45.47 570.82,43.94 C570.15,43.45 569.66,42.92 569.37,42.36 C569.08,41.8 568.93,41.09 568.93,40.24 C568.93,39.12 569.28,38.13 569.97,37.27 C570.67,36.42 571.46,35.99 572.36,35.99 C572.85,35.99 573.34,36.07 573.81,36.23 C574.28,36.39 574.85,36.67 575.53,37.07 C577.46,38.28 579.42,39.17 581.39,39.73 C583.37,40.29 585.54,40.57 587.93,40.57 C590.9,40.57 593.16,40.08 594.74,39.09 C596.31,38.1 597.1,36.69 597.1,34.84 C597.1,33.45 596.37,32.32 594.91,31.47 C593.45,30.62 590.85,29.81 587.13,29.04 C582.95,28.19 579.62,27.15 577.12,25.94 C574.63,24.73 572.81,23.22 571.66,21.43 C570.51,19.63 569.94,17.45 569.94,14.89 C569.94,12.06 570.76,9.51 572.4,7.24 C574.04,4.97 576.31,3.2 579.21,1.92 C582.11,0.64 585.38,-1.13686838e-13 589.01,-1.13686838e-13 C595.39,-1.13686838e-13 600.64,1.6 604.78,4.78 C605.45,5.32 605.94,5.87 606.23,6.43 C606.52,6.99 606.67,7.68 606.67,8.49 C606.67,9.61 606.32,10.6 605.63,11.45 C604.93,12.3 604.14,12.73 603.24,12.73 C602.75,12.73 602.29,12.66 601.86,12.53 C601.43,12.39 600.84,12.1 600.07,11.65 C598.23,10.48 596.53,9.61 594.98,9.02 C593.43,8.44 591.46,8.14 589.08,8.14 C586.34,8.14 584.18,8.67 582.61,9.72 C581.04,10.78 580.25,12.22 580.25,14.07 C580.25,15.15 580.55,16.04 581.16,16.73 C581.77,17.43 582.78,18.04 584.19,18.58 C585.6,19.12 587.61,19.68 590.22,20.27 C596.33,21.62 600.72,23.35 603.39,25.46 C606.06,27.57 607.4,30.47 607.4,34.15 C607.4,37.03 606.6,39.56 605.01,41.76 C603.42,43.96 601.17,45.67 598.27,46.88 C595.37,48.09 592.01,48.7 588.2,48.7 C584.66,48.73 581.36,48.31 578.3,47.48 Z" id="Path"></path>
                            </g>
                            <g transform="translate(0.000000, 38.360000)" fill="#000000">
                                <path d="M70.59,81.35 C70.59,83.23 69.83,84.78 68.32,86.01 C66.81,87.24 65.03,87.85 62.99,87.85 C61.68,87.85 60.44,87.54 59.25,86.93 C58.07,86.32 57.06,85.4 56.25,84.17 L39.95,59.42 C38.31,56.81 36.58,54.97 34.74,53.91 C32.9,52.85 30.51,52.32 27.57,52.32 L15.56,52.32 L15.56,79.76 C15.56,82.21 14.87,84.15 13.48,85.58 C12.09,87.01 10.21,87.72 7.84,87.72 C5.47,87.72 3.57,87 2.14,85.58 C0.71,84.15 1.13686838e-13,82.21 1.13686838e-13,79.76 L1.13686838e-13,8.09 C1.13686838e-13,5.72 0.67,3.88 2.02,2.58 C3.37,1.27 5.22,0.62 7.59,0.62 L38.22,0.62 C48.02,0.62 55.47,2.81 60.58,7.17 C65.68,11.54 68.24,17.85 68.24,26.1 C68.24,32.8 66.34,38.29 62.54,42.58 C58.74,46.87 53.37,49.63 46.43,50.85 C48.8,51.42 50.88,52.44 52.68,53.91 C54.48,55.38 56.23,57.42 57.95,60.04 L69.1,77.07 C70.1,78.53 70.59,79.97 70.59,81.35 Z M49.15,36.82 C51.93,34.57 53.32,31.12 53.32,26.47 C53.32,21.73 51.93,18.28 49.15,16.12 C46.37,13.96 42,12.87 36.04,12.87 L15.46,12.87 L15.46,40.19 L36.04,40.19 C42,40.19 46.37,39.06 49.15,36.82 Z" id="Shape"></path>
                                <path d="M87.19,85.03 C85.84,83.72 85.17,81.89 85.17,79.52 L85.17,8.09 C85.17,5.72 85.84,3.88 87.19,2.58 C88.54,1.27 90.39,0.62 92.76,0.62 L136.99,0.62 C139.36,0.62 141.2,1.15 142.5,2.21 C143.81,3.27 144.46,4.78 144.46,6.74 C144.46,8.78 143.8,10.35 142.5,11.46 C141.19,12.56 139.35,13.11 136.99,13.11 L100.6,13.11 L100.6,36.88 L134.54,36.88 C136.91,36.88 138.75,37.41 140.05,38.47 C141.36,39.53 142.01,41.08 142.01,43.13 C142.01,45.09 141.36,46.6 140.05,47.66 C138.74,48.72 136.91,49.25 134.54,49.25 L100.6,49.25 L100.6,74.49 L136.99,74.49 C139.36,74.49 141.2,75.04 142.5,76.14 C143.81,77.24 144.46,78.82 144.46,80.86 C144.46,82.82 143.8,84.33 142.5,85.39 C141.19,86.45 139.35,86.9801136 136.99,86.9801136 L92.77,86.9801136 C90.4,86.99 88.54,86.34 87.19,85.03 Z" id="Path"></path>
                                <path d="M179.94,85.46 C178.51,84.03 177.8,82.13 177.8,79.76 L177.8,13.6 L155.5,13.6 C150.6,13.6 148.15,11.44 148.15,7.11 C148.15,2.78 150.6,0.62 155.5,0.62 L215.9,0.62 C220.8,0.62 223.25,2.78 223.25,7.11 C223.25,11.44 220.8,13.6 215.9,13.6 L193.6,13.6 L193.6,79.76 C193.6,82.13 192.88,84.03 191.46,85.46 C190.03,86.89 188.13,87.6 185.76,87.6 C183.31,87.6 181.37,86.89 179.94,85.46 Z" id="Path"></path>
                                <path d="M305.71,2.14 C307.1,3.57 307.79,5.47 307.79,7.84 L307.79,79.76 C307.79,82.13 307.07,84.05 305.65,85.52 C304.22,86.99 302.36,87.73 300.08,87.73 C297.71,87.73 295.83,87 294.44,85.52 C293.05,84.05 292.36,82.13 292.36,79.76 L292.36,49.5 L248.13,49.5 L248.13,79.76 C248.13,82.13 247.41,84.05 245.99,85.52 C244.56,86.99 242.66,87.73 240.29,87.73 C238,87.73 236.14,87 234.72,85.52 C233.29,84.05 232.58,82.13 232.58,79.76 L232.58,7.84 C232.58,5.47 233.27,3.57 234.66,2.14 C236.05,0.71 237.93,-5.68434189e-14 240.3,-5.68434189e-14 C242.67,-5.68434189e-14 244.57,0.72 246,2.14 C247.43,3.57 248.14,5.47 248.14,7.84 L248.14,36.75 L292.37,36.75 L292.37,7.84 C292.37,5.47 293.06,3.57 294.45,2.14 C295.84,0.71 297.72,-5.68434189e-14 300.09,-5.68434189e-14 C302.44,-5.68434189e-14 304.32,0.72 305.71,2.14 Z" id="Path"></path>
                                <path d="M328.55,85.52 C327.12,84.05 326.41,82.13 326.41,79.76 L326.41,7.84 C326.41,5.47 327.12,3.57 328.55,2.14 C329.98,0.71 331.88,-5.68434189e-14 334.25,-5.68434189e-14 C336.7,-5.68434189e-14 338.64,0.72 340.07,2.14 C341.5,3.57 342.21,5.47 342.21,7.84 L342.21,79.76 C342.21,82.13 341.49,84.05 340.07,85.52 C338.64,86.99 336.7,87.73 334.25,87.73 C331.88,87.72 329.98,86.99 328.55,85.52 Z" id="Path"></path>
                                <path d="M431.72,2.14 C433.07,3.57 433.74,5.47 433.74,7.84 L433.74,79.76 C433.74,82.13 433.05,84.05 431.66,85.52 C430.27,86.99 428.47,87.73 426.27,87.73 C423.65,87.73 421.65,86.79 420.27,84.91 L375.55,26.71 L375.55,79.76 C375.55,82.13 374.9,84.05 373.59,85.52 C372.28,86.99 370.49,87.73 368.2,87.73 C365.91,87.73 364.11,87 362.81,85.52 C361.5,84.05 360.85,82.13 360.85,79.76 L360.85,7.84 C360.85,5.47 361.54,3.57 362.93,2.14 C364.32,0.71 366.16,-5.68434189e-14 368.44,-5.68434189e-14 C370.97,-5.68434189e-14 372.93,0.94 374.32,2.82 L418.92,60.77 L418.92,7.84 C418.92,5.47 419.59,3.57 420.94,2.14 C422.29,0.71 424.06,-5.68434189e-14 426.27,-5.68434189e-14 C428.55,-5.68434189e-14 430.37,0.72 431.72,2.14 Z" id="Path"></path>
                                <path d="M521.83,80.37 C521.83,82.25 521.11,83.9 519.69,85.33 C518.26,86.76 516.57,87.47 514.61,87.47 C512.57,87.47 510.69,86.61 508.97,84.9 L468.17,46.67 L468.17,79.75 C468.17,82.12 467.45,84.04 466.03,85.51 C464.6,86.98 462.66,87.72 460.21,87.72 C457.84,87.72 455.94,86.99 454.51,85.51 C453.08,84.04 452.37,82.12 452.37,79.75 L452.37,7.84 C452.37,5.47 453.08,3.57 454.51,2.14 C455.94,0.71 457.84,-5.68434189e-14 460.21,-5.68434189e-14 C462.66,-5.68434189e-14 464.6,0.72 466.03,2.14 C467.46,3.57 468.17,5.47 468.17,7.84 L468.17,39.33 L507.62,2.33 C509.09,0.86 510.76,0.12 512.64,0.12 C514.52,0.12 516.17,0.84 517.6,2.26 C519.03,3.69 519.74,5.34 519.74,7.22 C519.74,9.1 518.92,10.82 517.29,12.37 L484.33,42.51 L519.37,75.1 C521.01,76.66 521.83,78.41 521.83,80.37 Z" id="Path"></path>
                            </g>
                            <g transform="translate(530.799421, -0.000000)" fill="#B83B4D" id="Path">
                                <path d="M101.020579,169.14 C100.120579,169.14 99.2605785,168.62 98.8605785,167.75 C98.3205785,166.56 98.8505785,165.16 100.040579,164.62 C129.900579,151.08 149.190579,121.16 149.190579,88.39 C149.190579,42.26 111.660579,4.73 65.5305785,4.73 C42.2905785,4.73 19.9005785,14.53 4.10057855,31.62 C3.21057855,32.58 1.72057855,32.64 0.760578546,31.75 C-0.199421454,30.86 -0.259421454,29.37 0.630578546,28.41 C17.3205785,10.35 40.9805785,1.13686838e-13 65.5405785,1.13686838e-13 C114.280579,1.13686838e-13 153.930579,39.65 153.930579,88.39 C153.930579,123.01 133.550579,154.62 102.000579,168.93 C101.670579,169.07 101.340579,169.14 101.020579,169.14 Z"></path>
                                <path d="M108.650579,176.65 C108.280579,176.65 107.900579,176.56 107.550579,176.38 L95.3605785,169.96 C94.2005785,169.35 93.7605785,167.92 94.3705785,166.76 L100.790579,154.57 C101.400579,153.41 102.830579,152.97 103.990579,153.58 C105.150579,154.19 105.590579,155.62 104.980579,156.78 L99.6605785,166.87 L109.750579,172.19 C110.910579,172.8 111.350579,174.23 110.740579,175.39 C110.320579,176.19 109.500579,176.65 108.650579,176.65 Z"></path>
                            </g>
                        </g>
                        <path d="M655.25,184.39 L667.76,184.39 L667.76,186.64 L662.84,186.64 L662.84,199.39 L660.13,199.39 L660.13,186.64 L655.25,186.64 L655.25,184.39 L655.25,184.39 Z M684.72,184.39 L684.72,199.39 L682.33,199.39 L682.33,189.34 L678.3,197 L676.52,197 L672.49,189.45 L672.49,199.39 L670.07,199.39 L670.07,184.39 L672.21,184.39 L677.41,194.37 L682.61,184.39 L684.72,184.39 L684.72,184.39 Z" id="Shape" fill="#000000" fill-rule="nonzero"></path>
                    </g>
                </g>
            </g>
        </g>
    </g>
</svg>