<svg xmlns="http://www.w3.org/2000/svg" width="34" height="27.6" viewBox="0 0 34 27.6">
    <path data-name="Path 2833" d="M-8.8-58.1a7.356 7.356 0 0 1 4.75 2.25A6.773 6.773 0 0 1-2.2-51a7.45 7.45 0 0 1-2.05 5.35A6.7 6.7 0 0 1-9.3-43.5a6.982 6.982 0 0 1-5.55-2.5Q-17-48.5-17-53.3a23.487 23.487 0 0 1 6.6-16.5 3.7 3.7 0 0 1 2.8-1.3 3.7 3.7 0 0 1 2.55 1.05A3.224 3.224 0 0 1-3.9-67.6a3.4 3.4 0 0 1-1 2.3 15.324 15.324 0 0 0-3.9 7.2zm19.2 0a7.356 7.356 0 0 1 4.75 2.25A6.773 6.773 0 0 1 17-51a7.45 7.45 0 0 1-2.05 5.35A6.7 6.7 0 0 1 9.9-43.5 6.982 6.982 0 0 1 4.35-46Q2.2-48.5 2.2-53.3a23.487 23.487 0 0 1 6.6-16.5 3.7 3.7 0 0 1 2.8-1.3 3.7 3.7 0 0 1 2.55 1.05 3.224 3.224 0 0 1 1.15 2.45 3.4 3.4 0 0 1-1 2.3 15.324 15.324 0 0 0-3.9 7.2z" transform="translate(17 71.1)" style="fill:#b83b4d"/>
</svg>
