<svg xmlns="http://www.w3.org/2000/svg" xmlns:xlink="http://www.w3.org/1999/xlink" width="266.864" height="160" viewBox="0 0 266.864 160">
  <defs>
    <clipPath id="clip-path">
      <rect id="Rectangle_1149" data-name="Rectangle 1149" width="9.834" height="4.956" transform="matrix(0.286, -0.958, 0.958, 0.286, 0, 9.424)"/>
    </clipPath>
  </defs>
  <g id="CHEST2023_logo_MASTER_earth_UPDATE" data-name="CHEST2023 logo MASTER_earth UPDATE" transform="translate(-59.28 -35.12)">
    <g id="Group_1154" data-name="Group 1154" transform="translate(59.28 35.12)">
      <g id="Group_1152" data-name="Group 1152" transform="translate(0)">
        <g id="Group_1151" data-name="Group 1151">
          <g id="Group_1150" data-name="Group 1150">
            <path id="Path_2540" data-name="Path 2540" d="M270.728,203.435a34.8,34.8,0,0,0-37.7,19.367c-5.822,12.323-3.511,31.3,5.349,40.49,12.9-6.289,34.744-13.315,34.744-13.315C266.89,234.88,256.141,218.963,270.728,203.435Z" transform="translate(-187.753 -161.485)" fill="#fade01"/>
            <g id="Group_1146" data-name="Group 1146" transform="translate(11.615 36.801)">
              <path id="Path_2541" data-name="Path 2541" d="M138.378,202.4,106.36,184.29l37.265,12.18Z" transform="translate(-106.36 -184.29)" fill="#fade01"/>
            </g>
            <g id="Group_1147" data-name="Group 1147" transform="translate(0 64.583)">
              <path id="Path_2542" data-name="Path 2542" d="M97.391,303.731,59.28,304.985,97.643,296.9Z" transform="translate(-59.28 -296.9)" fill="#fade01"/>
            </g>
            <g id="Group_1148" data-name="Group 1148" transform="translate(71.686)">
              <path id="Path_2543" data-name="Path 2543" d="M349.85,71.342,352.6,35.12l8.1,37.709Z" transform="translate(-349.85 -35.12)" fill="#fade01"/>
            </g>
            <g id="Group_1149" data-name="Group 1149" transform="translate(38.775 10.189)">
              <path id="Path_2544" data-name="Path 2544" d="M233.51,108.24,216.45,76.42,242.631,105.6Z" transform="translate(-216.45 -76.42)" fill="#fade01"/>
            </g>
          </g>
        </g>
      </g>
      <g id="Group_1153" data-name="Group 1153" transform="translate(9.661 82.59)">
        <path id="Path_2545" data-name="Path 2545" d="M127.285,375.174,98.44,385.1l27.427-15.215Z" transform="translate(-98.44 -369.89)" fill="#fade01"/>
      </g>
    </g>
    <path id="Path_2546" data-name="Path 2546" d="M433.027,140.108c-2.326,8.035-8.556,21.224-15.044,27.093-2.627,2.378-5.539-.674-2.413-3.54,5.033-4.616,13.32-13.969,16.633-23.637C432.558,138.988,433.372,138.916,433.027,140.108Zm-4.562.683a1.14,1.14,0,1,0,1.313.937A1.14,1.14,0,0,0,428.465,140.791Zm1.014-3.785a1.342,1.342,0,1,0,1.544,1.1A1.344,1.344,0,0,0,429.479,137.006Zm3.715-2.322a1.547,1.547,0,1,0,1.779,1.271A1.549,1.549,0,0,0,433.194,134.685Zm1.305,8.04a1.14,1.14,0,1,0,1.313.937A1.14,1.14,0,0,0,434.5,142.725Zm1.416-3.947a1.342,1.342,0,1,0,1.544,1.1A1.343,1.343,0,0,0,435.916,138.778Zm15.814,39.064c-.2-3.232-4.493-5.4-7.379-6.313a70.886,70.886,0,0,0-7.626-1.611c-1.979-.37-1.125-1.91.644-1.525,1.988.432,4.155.928,6.513,1.5,3.261.8,6.237-.6,6.508-1.8,1.483-6.585-3.661-12.686-5.84-13.621a4.107,4.107,0,0,1-1.961-2.314c-.822-1.712-1.845-3.844-8.178-3.844-1.774,0-2.615,1.137-3.442,2.714s-2.4,4.243-4.088,6.923a61.014,61.014,0,0,1-3.491,5.391c-.067.424.461.846,1.937.323,1.192-.422,4.631-.4,3.641.086-5.632,2.763-3.261,4.3-.106,7.014,3.824,3.294-1.488.106-4.569-.851-1.535-.476-2.354.661-1.463,2.033,1.354,2.085,2.292,3.126,2.418,4.024s-2.122-1.337-3.691-2.63c-3.34-2.756-5.1-.22-6.192,2.1-1.594,3.4-2.442,3.676-2.127,1.093.521-4.273-.5-4.258-1.13-3.7-3.846,3.414-6.212,8.3-5.99,6.861.743-4.781,3.111-7.142,3.933-9.032s-1.586-3.822-6.488-3c-1.483.247,1.305-1.5,3.53-1.917,1.313-.247-.247-1.638-3.688-3.279-.822-.39-.049-1.256,5.9.338,2.539,1.066,3.286-.807,2.7-2.47a26.676,26.676,0,0,0-1.557-3.688c-1.029-2.067,1.764.649,3.279,2.376.967,1.1,1.729-.782,2.763-5.83.336-1.643.565,2.909.076,5.124-.355,1.613,1.192,1.209,3.977-2.07,5.038-6.244,5.63-9.952,4.779-11.909-1.384-3.175-8.287-5.667-16.248-6.918a7,7,0,0,0-1.073-.175c-1.515,0-3.133.972-5.183,2.2-1.581.95-1.589,1.991-3.752,2.862-3.844,1.544-4.959,4.367-2.615,6.71,1.6,1.6,4.031,3.368,6.474,5.388,1.65,1.364.53,2.551-1.478.592a12.219,12.219,0,0,0-8.778-3.71,24.279,24.279,0,0,0-2.519.143c-8.425.881-9.118,3.232-10.167,6.789-.222.755-.454,1.537-.772,2.361-.424,1.1-.925,2.109-1.409,3.089-1.621,3.276-2.9,5.862-.639,9.789,2.018,3.508,6.047,7.046,10.49,7.046a8.43,8.43,0,0,0,5.1-1.774,38.8,38.8,0,0,1,5.489-4.579c2.053-1.441,2.317.227.535,1.5a28.455,28.455,0,0,0-6.706,6.3c-2.5,3.627-1.69,10.33,2.018,16.68,1.991,3.412,4.766,3.562,9.363,3.812a57.532,57.532,0,0,1,9.217,1.066,4.761,4.761,0,0,0,.967.1h0c2.206,0,4.747-1.4,6.8-3.733,2.556-2.911,2.645-6.02,2.2-9.469-.281-2.144-.984-6.5-1.685-7.912s1.739-2.4,2.063-.777c.637,3.187,1.231,6.787,1.562,9.3.543,4.167,2.815,6.153,6.713,6.153a13.67,13.67,0,0,0,3.947-.812,25.082,25.082,0,0,1,4.84-1.1c2.021-.215,3.757-.4,4.983-1.609,1.16-1.145,1.8-3.212,1.949-6.289.106-2.255,1.384-3.183,3.037-5.109A6.116,6.116,0,0,0,451.73,177.842Z" transform="translate(-238.543 -74.985)" fill="#0a80a4"/>
    <g id="Group_1163" data-name="Group 1163" transform="translate(91.096 90.99)">
      <g id="Group_1160" data-name="Group 1160" transform="translate(0)">
        <g id="Group_1156" data-name="Group 1156" transform="translate(0 2.477)">
          <g id="Group_1155" data-name="Group 1155">
            <path id="Path_2547" data-name="Path 2547" d="M252.267,328.785c-1.8-5.946-3.451-12.316-5.043-19.433,2.038-.693,3.8-1.377,5.356-2.075a38.48,38.48,0,0,0,5.053-2.667,27.4,27.4,0,0,0,3.538-2.637,17.481,17.481,0,0,0,2.314-2.455,7.63,7.63,0,0,0,1.673-4.241,6.739,6.739,0,0,0-1.251-4.5,6.575,6.575,0,0,0-1.993-1.919,6.4,6.4,0,0,0-2.028-.785,2.808,2.808,0,0,0-.861-.062,3.1,3.1,0,0,0-1.342.449,2.989,2.989,0,0,0-1.394,1.887,14.01,14.01,0,0,1-3.706,6.7,25.861,25.861,0,0,1-6.967,4.724c-.476-2.494-.905-4.986-1.275-7.428-.466-3.062-.836-5.817-1.1-8.188s-.479-4.5-.632-6.3l-.1-1.216c-.1-1.192-.183-2.141-.249-2.842a4.18,4.18,0,0,0-2.531-3.491l-.062-.027a7.934,7.934,0,0,0-3.72-.629,8.838,8.838,0,0,0-3.076.794,5.214,5.214,0,0,0-2.457,2.312,5.691,5.691,0,0,0-.637,3.1c.427,5.2,1.088,10.5,1.961,15.745.72,4.327,1.547,8.65,2.457,12.871-3.923,1.394-7.917,2.736-11.793,4.039l-1.406.474c-.656-2.9-1.3-5.859-1.732-8.793-.471-3.185-.711-5.363-.812-6.38a4.213,4.213,0,0,0-3.454-3.814,6.552,6.552,0,0,0-2.04-.168,5.324,5.324,0,0,0-1.389.3,15.409,15.409,0,0,0-2.487,1.152,5.494,5.494,0,0,0-2.06,2.09,4.411,4.411,0,0,0-.518,2.973c.955,6.355,1.932,11.684,3.049,16.618-1.468.518-2.874,1.041-4.194,1.564-1.224.484-4.608,1.764-6.849,2.613l-1.789.678c-.738.281-7.241,2.874-8.326,7.1a4.814,4.814,0,0,0,1.147,4.46l1.147,1.35,1.3-1.206c3.8-3.535,9.392-6.02,13.885-8.016,1.668-.74,3.451-1.485,5.321-2.223,1.517,5.581,2.938,10.189,4.433,14.378s3.17,8.309,4.966,12.2c1.557,3.373,2.97,6.192,4.2,8.381s2.132,3.691,2.768,4.613a4.766,4.766,0,0,0,3.224,2.272l.111.022.113.007a6.794,6.794,0,0,0,.977-.01,6.93,6.93,0,0,0,1.848-.419,8.1,8.1,0,0,0,2.329-1.34,4.916,4.916,0,0,0,1.692-2.761,4.812,4.812,0,0,0-.439-3.36,180.6,180.6,0,0,1-9.5-21.18c-1.924-5.373-3.908-11.136-5.479-17.082,2.413-.856,4.806-1.653,7.125-2.376,1.9-.592,3.868-1.2,6.106-1.877,1.327,5.363,2.563,9.9,3.861,14.154,1.261,4.132,2.7,8.435,4.28,12.794,1.312,3.619,2.455,6.6,3.595,9.372,1.221,2.97,2,4.729,2.356,5.514a4.465,4.465,0,0,0,1.317,1.7,5.579,5.579,0,0,0,1.591.876,6.107,6.107,0,0,0,3.5.3,5.566,5.566,0,0,0,3.032-1.633,5.313,5.313,0,0,0,1.347-2.9,5.62,5.62,0,0,0-.437-3.091A184.663,184.663,0,0,1,252.267,328.785Z" transform="translate(-188.241 -271.621)" fill="#00425c"/>
            <path id="Path_2548" data-name="Path 2548" d="M585.487,350.583l-.18-.2-.318-.18-.076-.084-.239-.136a2.606,2.606,0,0,0-1.5-.35,2.228,2.228,0,0,0-.286.042,2.169,2.169,0,0,0-1.668,1.581c-.336,1.214-.772,2.568-1.3,4.021-.56,1.552-1.174,3.052-1.826,4.458a20.532,20.532,0,0,1-1.9,3.355c-.01.012-.017.025-.027.037a12.2,12.2,0,0,1,.042-2.112c.116-1.2.311-2.539.585-3.97.284-1.5.587-2.988.9-4.426s.639-2.78.977-4.007c.276-.994.493-1.838.666-2.507l.133-.511a3.684,3.684,0,0,0-.121-2.285,4.277,4.277,0,0,0-1.2-1.7l-.069-.057a3.237,3.237,0,0,0,1.766-2.225,3.133,3.133,0,0,0-1.258-3.185,6.1,6.1,0,0,0-2.933-1.312,7.266,7.266,0,0,0-1.8-.089,5.677,5.677,0,0,0-1.406.3,3.237,3.237,0,0,0-2.277,2.405,3.052,3.052,0,0,0,.262,2,2.832,2.832,0,0,0-2.344,2.354,73.935,73.935,0,0,0-2.329,11.077q-.078.7-.136,1.364s-.1.311-.143.454c-.5,1.574-1.063,3.1-1.665,4.534a20.771,20.771,0,0,1-1.774,3.437l-.015.022a12.2,12.2,0,0,1-.027-2.09c.074-1.209.224-2.553.444-4,.229-1.5.479-3,.743-4.465.259-1.446.54-2.808.836-4.048.237-.994.424-1.836.572-2.507l.121-.543a3.706,3.706,0,0,0-.2-2.275,4.259,4.259,0,0,0-1.258-1.66l-.059-.049-.012-.007a3.254,3.254,0,0,0,1.687-2.3,3.132,3.132,0,0,0-1.367-3.136,6.072,6.072,0,0,0-2.975-1.2,7.487,7.487,0,0,0-1.549-.044,5.711,5.711,0,0,0-1.643.38,3.256,3.256,0,0,0-2.181,2.489,3.055,3.055,0,0,0,.333,1.993,2.825,2.825,0,0,0-2.255,2.418,70.079,70.079,0,0,0-1.7,8.84c-.178.592-.466,1.5-.928,2.936-.432,1.337-.933,2.687-1.488,4.014a20.281,20.281,0,0,1-1.7,3.286c-.025.037-.047.069-.069.1a15.189,15.189,0,0,1-.18-2.509c0-1.315.069-2.773.21-4.335.143-1.6.333-3.19.563-4.72s.461-3,.693-4.394l.2-1.221c.128-.785.234-1.431.326-1.922a3.689,3.689,0,0,0-.284-2.272,4.253,4.253,0,0,0-1.325-1.613l-.062-.047-.067-.039a9.928,9.928,0,0,0-3.644-1.325,23.777,23.777,0,0,0-3.042-.3l-.059,0-.059,0c-.054,0-.109,0-.16.01a3.244,3.244,0,0,0-2.98,2.516l-.022.081-.015.084c-.089.538-.19,1.061-.3,1.564a8.4,8.4,0,0,0-2.062-.562,11.368,11.368,0,0,0-2.544-.069,12.317,12.317,0,0,0-2.176.382,16.353,16.353,0,0,0-4.571,2.058c-.084.054-.165.109-.247.163-.054,0-.109,0-.165.007a2.579,2.579,0,0,0-.957.279,13.828,13.828,0,0,1-4.631,1.414c-.37.044-.738.081-1.1.111a28.281,28.281,0,0,1-3.915.064,32.92,32.92,0,0,1-4.325-.5,25.564,25.564,0,0,1-2.677-.612l-.069-.022-.069-.017a3.112,3.112,0,0,0-.989-.081,2.511,2.511,0,0,0-2.1,1.465,3.791,3.791,0,0,0-.452,2.055,5.9,5.9,0,0,0,.1.733,5.012,5.012,0,0,0-1.51-.5l-.081-.012-.081,0a18.384,18.384,0,0,0-2.662,0c-.259.022-.508.052-.748.086l-.126.007a2.6,2.6,0,0,0-2.477,2.684c-.249,3.363-.54,6.311-.866,8.763q-.277,2.095-.57,3.878.011-.5.03-.984c.074-1.991.2-3.836.385-5.489.195-1.791.331-2.99.447-3.812a3.638,3.638,0,0,0-.548-2.531,3.966,3.966,0,0,0-1.865-1.532,7.43,7.43,0,0,0-3.8-.641l-.039,0a29.29,29.29,0,0,0-2.951.392,3.066,3.066,0,0,0-2.664,3.015c-.113.881-.239,2.127-.373,3.7-.143,1.678-.227,3.553-.254,5.571,0,.355,0,.713,0,1.073l-.032.227c-.207,1.406-.479,2.837-.8,4.256a21.036,21.036,0,0,1-1.135,3.582c-.012.03-.027.059-.039.089a15.853,15.853,0,0,1-.553-2.368c-.212-1.3-.38-2.761-.5-4.335-.118-1.609-.19-3.217-.212-4.781s-.035-3.059-.032-4.48v-1.253c0-.8,0-1.456.007-1.959a3.692,3.692,0,0,0-.644-2.193,4.122,4.122,0,0,0-1.579-1.369l-.072-.035-.074-.03a9.62,9.62,0,0,0-3.8-.637c-.538.017-1.051.044-1.525.084-.543.044-1.049.106-1.5.183l-.057.01-.057.015a3.3,3.3,0,0,0-2.635,3.039l-.007.081v.081c0,.567-.015,1.125-.039,1.658a8.169,8.169,0,0,0-2.129-.175c-.136.007-.274.015-.41.027a11.83,11.83,0,0,0-4.162,1.164,16.653,16.653,0,0,0-4.13,2.882,20.7,20.7,0,0,0-3.279,3.93,17.307,17.307,0,0,0-2,4.428,21.339,21.339,0,0,0-.854,4.986,23.615,23.615,0,0,0,.244,4.845,12.089,12.089,0,0,0,1.522,4.357,8.164,8.164,0,0,0,3.148,3.034,6.89,6.89,0,0,0,3.91.738c.289-.025.585-.064.886-.116a8.7,8.7,0,0,0,4.717-2.521,18.963,18.963,0,0,0,3.18-4.332,33.78,33.78,0,0,0,1.974-4.352,18.979,18.979,0,0,0,2.475,4.85c1.907,2.635,4.229,3.858,6.9,3.636.234-.02.476-.052.715-.094a6.388,6.388,0,0,0,3.545-1.91,10.553,10.553,0,0,0,1.14-1.423,17.261,17.261,0,0,0,1.468,2.867,7.742,7.742,0,0,0,4.209,3.313,4.2,4.2,0,0,0,1.885.3c.047,0,.091-.007.138-.015.419-.052.767-.1,1.058-.16a4.492,4.492,0,0,0,1.4-.526l.047-.027.044-.03a7.752,7.752,0,0,0,1.853-1.843,12.18,12.18,0,0,0,1.638-3.274,28.647,28.647,0,0,0,1.058-4.039c.116.259.234.513.355.757a21.584,21.584,0,0,0,1.717,2.894,11.6,11.6,0,0,0,2.272,2.442,7.523,7.523,0,0,0,3.076,1.463,6.174,6.174,0,0,0,1.853.116,7.84,7.84,0,0,0,1.927-.424l.059-.02.057-.025a7.82,7.82,0,0,0,3.247-2.882l.035-.052a20.444,20.444,0,0,0,2-4.618,27.809,27.809,0,0,0,1.086-6.96,8.31,8.31,0,0,0,2.391,3.032,7.409,7.409,0,0,0,4.616,1.493,8.013,8.013,0,0,0,.844-.03,8.662,8.662,0,0,0,4.248-1.564A18.333,18.333,0,0,0,534,363.264a32.728,32.728,0,0,0,2.677-3.92,19.359,19.359,0,0,0,1.683,5.294c1.986,3.975,4.865,4.833,6.93,4.855q.322,0,.637-.022a6.3,6.3,0,0,0,3.2-1.192,11.28,11.28,0,0,0,2.711-2.84c.16-.234.318-.476.471-.72a12.263,12.263,0,0,0,1.924,3.656,7.082,7.082,0,0,0,5.442,2.79,6.234,6.234,0,0,0,.8-.015,6.171,6.171,0,0,0,3.163-1.206A12.713,12.713,0,0,0,566.485,367q.23-.326.451-.666a11.188,11.188,0,0,0,1.229,2.161,7.133,7.133,0,0,0,5.346,3,6.533,6.533,0,0,0,1.053,0h0a6.2,6.2,0,0,0,2.966-1.061,12.647,12.647,0,0,0,2.953-2.83,23.649,23.649,0,0,0,2.3-3.686,37.894,37.894,0,0,0,1.739-3.937c.481-1.288.886-2.5,1.2-3.6a19.45,19.45,0,0,0,.617-2.753A3.454,3.454,0,0,0,585.487,350.583Zm-118.03,7.256c-.323.9-.718,1.961-1.243,3.353-.484,1.283-1,2.65-1.539,4.09-.528,1.4-1.066,2.7-1.6,3.849-.442.947-.859,1.764-1.243,2.433-.037-.286-.069-.651-.084-1.115a23.39,23.39,0,0,1,.748-5.087,14.184,14.184,0,0,1,1.636-4.347,10.031,10.031,0,0,1,2.164-2.568,4.651,4.651,0,0,1,1.2-.715C467.481,357.767,467.469,357.8,467.457,357.839Zm43.322,9.133a16.539,16.539,0,0,1-.316,2.667c-.2-.506-.395-1.093-.59-1.752-.368-1.241-.715-2.667-1.034-4.234-.333-1.643-.654-3.276-.95-4.855-.3-1.609-.55-3.136-.743-4.542s-.36-2.6-.5-3.5c-.01-.109-.022-.217-.042-.323a11.662,11.662,0,0,1,1.31,1.984,21.685,21.685,0,0,1,1.8,4.67,33.2,33.2,0,0,1,.918,5.141A32.485,32.485,0,0,1,510.779,366.972Zm6.775-12.824c-.057.262-.109.526-.158.787a19.3,19.3,0,0,0-1.061-3.331c.047,0,.094,0,.141,0,.326-.015.649-.037.962-.062s.6-.057.9-.091A20.291,20.291,0,0,0,517.553,354.148Zm17.753-6.955c-.456.8-1.021,1.771-1.774,3.052q-1.032,1.75-2.188,3.718c-.748,1.275-1.49,2.442-2.2,3.466-.6.861-1.155,1.594-1.65,2.181a10.727,10.727,0,0,1,.1-1.2,22.606,22.606,0,0,1,1.557-4.831,13.552,13.552,0,0,1,2.309-3.933,9.578,9.578,0,0,1,2.544-2.1,4.362,4.362,0,0,1,1.379-.486C535.356,347.107,535.331,347.149,535.306,347.193Z" transform="translate(-386.305 -318.869)" fill="#00425c"/>
          </g>
        </g>
        <g id="Group_1157" data-name="Group 1157" transform="translate(1.152)">
          <path id="Path_2549" data-name="Path 2549" d="M256.937,318.745c-1.8-5.946-3.451-12.316-5.043-19.433,2.038-.693,3.8-1.377,5.356-2.075a38.483,38.483,0,0,0,5.053-2.667,27.4,27.4,0,0,0,3.538-2.637,17.479,17.479,0,0,0,2.314-2.455,7.63,7.63,0,0,0,1.673-4.241,6.739,6.739,0,0,0-1.251-4.5,6.575,6.575,0,0,0-1.993-1.919,6.4,6.4,0,0,0-2.028-.785,2.811,2.811,0,0,0-.861-.062,3.1,3.1,0,0,0-1.342.449,2.989,2.989,0,0,0-1.394,1.887,14.01,14.01,0,0,1-3.706,6.7,25.861,25.861,0,0,1-6.967,4.724c-.476-2.494-.905-4.986-1.275-7.428-.466-3.062-.836-5.817-1.1-8.188s-.479-4.5-.632-6.3l-.1-1.216c-.1-1.192-.183-2.141-.249-2.842a4.18,4.18,0,0,0-2.531-3.491l-.062-.027a7.934,7.934,0,0,0-3.72-.629,8.838,8.838,0,0,0-3.076.794,5.213,5.213,0,0,0-2.457,2.312,5.691,5.691,0,0,0-.637,3.1c.427,5.2,1.088,10.5,1.961,15.745.72,4.327,1.547,8.65,2.457,12.871-3.923,1.394-7.917,2.736-11.793,4.039l-1.406.474c-.656-2.9-1.3-5.859-1.732-8.793-.471-3.185-.711-5.363-.812-6.38a4.213,4.213,0,0,0-3.454-3.814,6.551,6.551,0,0,0-2.04-.168,5.323,5.323,0,0,0-1.389.3,15.41,15.41,0,0,0-2.487,1.152,5.494,5.494,0,0,0-2.06,2.09,4.411,4.411,0,0,0-.518,2.973c.955,6.355,1.932,11.684,3.049,16.618-1.468.518-2.874,1.041-4.194,1.564-1.224.484-4.609,1.764-6.849,2.613l-1.789.678c-.738.281-7.241,2.874-8.326,7.1a4.814,4.814,0,0,0,1.147,4.46l1.147,1.349,1.3-1.206c3.8-3.535,9.392-6.02,13.885-8.016,1.668-.74,3.451-1.485,5.321-2.223,1.517,5.581,2.938,10.189,4.433,14.378s3.17,8.309,4.966,12.2c1.557,3.372,2.97,6.192,4.2,8.381s2.132,3.691,2.768,4.613a4.765,4.765,0,0,0,3.224,2.272l.111.022.113.007a6.785,6.785,0,0,0,.977-.01,6.929,6.929,0,0,0,1.848-.419,8.1,8.1,0,0,0,2.329-1.34,4.916,4.916,0,0,0,1.692-2.761,4.812,4.812,0,0,0-.439-3.36,180.608,180.608,0,0,1-9.5-21.18c-1.924-5.373-3.908-11.136-5.479-17.082,2.413-.856,4.806-1.653,7.125-2.376,1.9-.592,3.868-1.2,6.106-1.877,1.327,5.363,2.563,9.9,3.861,14.154,1.261,4.132,2.7,8.435,4.28,12.794,1.312,3.619,2.455,6.6,3.595,9.372,1.221,2.97,2,4.729,2.356,5.514a4.464,4.464,0,0,0,1.317,1.7,5.579,5.579,0,0,0,1.591.876,6.106,6.106,0,0,0,3.5.3,5.565,5.565,0,0,0,3.032-1.633,5.313,5.313,0,0,0,1.347-2.9,5.62,5.62,0,0,0-.437-3.091A185.313,185.313,0,0,1,256.937,318.745Z" transform="translate(-192.911 -261.581)" fill="#fff"/>
          <path id="Path_2550" data-name="Path 2550" d="M590.164,340.545l-.18-.2-.318-.18-.076-.084-.239-.136a2.606,2.606,0,0,0-1.5-.35,2.224,2.224,0,0,0-.286.042,2.169,2.169,0,0,0-1.668,1.581c-.336,1.214-.772,2.568-1.3,4.021-.56,1.552-1.174,3.052-1.826,4.458a20.535,20.535,0,0,1-1.9,3.355c-.01.012-.017.025-.027.037a12.2,12.2,0,0,1,.042-2.112c.116-1.2.311-2.539.585-3.97.284-1.5.587-2.988.9-4.426s.639-2.78.977-4.007c.276-.994.493-1.838.666-2.507l.133-.511a3.684,3.684,0,0,0-.121-2.285,4.277,4.277,0,0,0-1.2-1.7l-.069-.057a3.231,3.231,0,0,0,1.766-2.225,3.133,3.133,0,0,0-1.258-3.185,6.1,6.1,0,0,0-2.933-1.312,7.269,7.269,0,0,0-1.8-.089,5.677,5.677,0,0,0-1.406.3,3.236,3.236,0,0,0-2.277,2.405,3.051,3.051,0,0,0,.261,2,2.832,2.832,0,0,0-2.344,2.354,73.936,73.936,0,0,0-2.329,11.077c-.052.464-.1.918-.136,1.364,0,0-.1.311-.143.454-.5,1.574-1.063,3.1-1.665,4.535a20.766,20.766,0,0,1-1.774,3.437l-.015.022a12.2,12.2,0,0,1-.027-2.09c.074-1.209.224-2.553.444-4,.229-1.5.481-3,.743-4.465.259-1.446.54-2.808.836-4.048.237-.994.424-1.836.572-2.507l.121-.543a3.706,3.706,0,0,0-.2-2.275,4.259,4.259,0,0,0-1.258-1.66l-.059-.049-.012-.007a3.254,3.254,0,0,0,1.688-2.3,3.132,3.132,0,0,0-1.367-3.136,6.072,6.072,0,0,0-2.975-1.2,7.311,7.311,0,0,0-1.549-.042,5.713,5.713,0,0,0-1.643.38,3.256,3.256,0,0,0-2.181,2.489,3.044,3.044,0,0,0,.336,1.993,2.825,2.825,0,0,0-2.255,2.418,70.1,70.1,0,0,0-1.7,8.84c-.178.592-.466,1.5-.928,2.936-.432,1.337-.933,2.687-1.488,4.014a20.286,20.286,0,0,1-1.7,3.286c-.025.037-.047.069-.069.1a15.189,15.189,0,0,1-.18-2.509c0-1.315.069-2.773.21-4.335.143-1.6.333-3.19.563-4.72s.461-3,.693-4.394l.2-1.221c.128-.785.234-1.431.326-1.922a3.69,3.69,0,0,0-.284-2.272,4.254,4.254,0,0,0-1.325-1.613l-.062-.047-.067-.039a9.928,9.928,0,0,0-3.644-1.325,23.781,23.781,0,0,0-3.042-.3l-.059,0-.059,0c-.054,0-.109,0-.16.01a3.245,3.245,0,0,0-2.98,2.516l-.022.081-.015.084c-.089.538-.19,1.061-.3,1.564a8.4,8.4,0,0,0-2.062-.562,11.367,11.367,0,0,0-2.544-.069,12.317,12.317,0,0,0-2.176.382,16.354,16.354,0,0,0-4.572,2.058c-.084.054-.165.109-.247.163-.054,0-.109,0-.165.007a2.579,2.579,0,0,0-.957.279,13.829,13.829,0,0,1-4.631,1.414c-.37.044-.738.081-1.1.111a28.276,28.276,0,0,1-3.915.064,32.9,32.9,0,0,1-4.325-.5,25.55,25.55,0,0,1-2.677-.612l-.069-.022-.069-.017a3.1,3.1,0,0,0-.987-.081,2.512,2.512,0,0,0-2.1,1.465,3.791,3.791,0,0,0-.451,2.055,5.91,5.91,0,0,0,.1.733,5.011,5.011,0,0,0-1.51-.5l-.081-.012-.081,0a18.384,18.384,0,0,0-2.662,0c-.259.022-.511.052-.75.086l-.126.007a2.6,2.6,0,0,0-2.477,2.684c-.249,3.363-.54,6.311-.866,8.763q-.278,2.095-.57,3.878.011-.5.03-.984c.074-1.991.2-3.836.385-5.489.195-1.791.331-2.99.447-3.812a3.637,3.637,0,0,0-.548-2.531,3.966,3.966,0,0,0-1.865-1.532,7.429,7.429,0,0,0-3.8-.641l-.039,0a29.288,29.288,0,0,0-2.951.392,3.066,3.066,0,0,0-2.664,3.015c-.113.881-.239,2.127-.373,3.7-.143,1.678-.227,3.553-.254,5.571,0,.355,0,.713,0,1.073l-.032.227c-.207,1.406-.479,2.837-.8,4.256a21.031,21.031,0,0,1-1.135,3.582c-.012.03-.027.059-.039.089a15.847,15.847,0,0,1-.553-2.368c-.212-1.3-.38-2.761-.5-4.335-.118-1.609-.19-3.217-.212-4.781s-.035-3.059-.032-4.48v-1.253c0-.8,0-1.456.007-1.959a3.692,3.692,0,0,0-.644-2.193,4.122,4.122,0,0,0-1.579-1.369l-.072-.035-.074-.03a9.619,9.619,0,0,0-3.8-.637c-.538.017-1.051.044-1.525.084-.543.044-1.048.106-1.5.183l-.057.01-.057.015a3.3,3.3,0,0,0-2.635,3.039l-.007.081v.081c0,.567-.015,1.125-.039,1.658a8.169,8.169,0,0,0-2.129-.175c-.136.007-.274.015-.41.027a11.831,11.831,0,0,0-4.162,1.164,16.653,16.653,0,0,0-4.13,2.882,20.694,20.694,0,0,0-3.279,3.93,17.3,17.3,0,0,0-2,4.428,21.339,21.339,0,0,0-.854,4.986,23.617,23.617,0,0,0,.244,4.845,12.09,12.09,0,0,0,1.522,4.357,8.163,8.163,0,0,0,3.148,3.034,6.89,6.89,0,0,0,3.91.738c.289-.025.585-.064.886-.116a8.7,8.7,0,0,0,4.717-2.521,18.965,18.965,0,0,0,3.18-4.332,33.783,33.783,0,0,0,1.974-4.352,18.977,18.977,0,0,0,2.474,4.85c1.907,2.635,4.229,3.859,6.9,3.637.234-.02.476-.052.715-.094a6.388,6.388,0,0,0,3.545-1.91,10.553,10.553,0,0,0,1.14-1.423,17.259,17.259,0,0,0,1.468,2.867,7.742,7.742,0,0,0,4.209,3.313,4.194,4.194,0,0,0,1.885.3c.047,0,.091-.007.138-.015.419-.052.767-.1,1.058-.16a4.492,4.492,0,0,0,1.4-.526l.047-.027.044-.03a7.751,7.751,0,0,0,1.853-1.843,12.175,12.175,0,0,0,1.638-3.274,28.64,28.64,0,0,0,1.058-4.039c.116.259.234.513.355.757a21.583,21.583,0,0,0,1.717,2.894,11.6,11.6,0,0,0,2.272,2.442,7.522,7.522,0,0,0,3.076,1.463,6.174,6.174,0,0,0,1.853.116,7.839,7.839,0,0,0,1.927-.424l.059-.02.057-.025a7.82,7.82,0,0,0,3.247-2.882l.035-.052a20.443,20.443,0,0,0,2-4.618,27.8,27.8,0,0,0,1.086-6.96,8.31,8.31,0,0,0,2.391,3.032,7.409,7.409,0,0,0,4.616,1.493,8.022,8.022,0,0,0,.844-.03,8.662,8.662,0,0,0,4.248-1.564,18.334,18.334,0,0,0,3.863-3.661,32.728,32.728,0,0,0,2.677-3.92,19.358,19.358,0,0,0,1.682,5.294c1.986,3.974,4.865,4.833,6.93,4.855q.322,0,.637-.022a6.3,6.3,0,0,0,3.2-1.192,11.279,11.279,0,0,0,2.711-2.84c.16-.234.318-.476.471-.72a12.266,12.266,0,0,0,1.924,3.656,7.082,7.082,0,0,0,5.442,2.79,6.24,6.24,0,0,0,.8-.015,6.172,6.172,0,0,0,3.163-1.206,12.711,12.711,0,0,0,2.842-2.946q.229-.326.451-.666a11.188,11.188,0,0,0,1.229,2.161,7.132,7.132,0,0,0,5.346,3,6.53,6.53,0,0,0,1.053,0h0a6.2,6.2,0,0,0,2.965-1.061,12.643,12.643,0,0,0,2.953-2.83,23.64,23.64,0,0,0,2.3-3.686,38.417,38.417,0,0,0,1.739-3.937c.481-1.288.886-2.5,1.2-3.6a19.433,19.433,0,0,0,.617-2.753A3.447,3.447,0,0,0,590.164,340.545ZM472.137,347.8c-.323.9-.718,1.961-1.243,3.353-.484,1.283-1,2.65-1.539,4.09-.528,1.4-1.066,2.7-1.6,3.849-.442.947-.859,1.764-1.243,2.433-.037-.286-.069-.651-.084-1.115a23.39,23.39,0,0,1,.748-5.087,14.183,14.183,0,0,1,1.636-4.347,10.032,10.032,0,0,1,2.164-2.568,4.654,4.654,0,0,1,1.2-.715C472.161,347.729,472.149,347.763,472.137,347.8Zm43.322,9.131a16.532,16.532,0,0,1-.316,2.667c-.2-.506-.395-1.093-.59-1.752-.368-1.241-.716-2.667-1.034-4.234-.333-1.643-.654-3.276-.95-4.855-.3-1.609-.55-3.136-.743-4.542s-.36-2.6-.5-3.5c-.01-.109-.022-.217-.042-.323a11.664,11.664,0,0,1,1.31,1.984,21.687,21.687,0,0,1,1.8,4.67,33.2,33.2,0,0,1,.918,5.141A32.831,32.831,0,0,1,515.459,356.931Zm6.772-12.821c-.057.262-.109.525-.158.787a19.3,19.3,0,0,0-1.061-3.331c.047,0,.094,0,.141,0,.326-.015.649-.037.962-.062s.6-.057.9-.091A20.563,20.563,0,0,0,522.231,344.11Zm17.753-6.955c-.456.8-1.019,1.771-1.774,3.052q-1.032,1.75-2.188,3.718c-.747,1.276-1.49,2.442-2.2,3.466-.6.861-1.155,1.594-1.65,2.181a10.727,10.727,0,0,1,.1-1.2,22.609,22.609,0,0,1,1.557-4.831,13.553,13.553,0,0,1,2.309-3.933,9.578,9.578,0,0,1,2.544-2.1,4.362,4.362,0,0,1,1.379-.486C540.033,337.069,540.008,337.111,539.984,337.155Z" transform="translate(-390.982 -308.831)" fill="#fff"/>
        </g>
        <g id="Group_1159" data-name="Group 1159" transform="translate(2.85 1.696)">
          <g id="Group_1158" data-name="Group 1158">
            <path id="Path_2551" data-name="Path 2551" d="M384.33,287.262a4.649,4.649,0,0,0,2.208.933,4.563,4.563,0,0,0,2.257-.128,1.657,1.657,0,0,0,1.194-1.214,1.526,1.526,0,0,0-.686-1.515,4.413,4.413,0,0,0-2.134-.945,4.661,4.661,0,0,0-2.359.136,1.617,1.617,0,0,0-1.182,1.15A1.579,1.579,0,0,0,384.33,287.262Zm-14.948-.3a4.626,4.626,0,0,0,2.23.846,4.5,4.5,0,0,0,2.245-.22A1.666,1.666,0,0,0,375,286.327a1.52,1.52,0,0,0-.738-1.488,4.4,4.4,0,0,0-2.159-.861,4.654,4.654,0,0,0-2.346.229,1.625,1.625,0,0,0-1.137,1.2A1.585,1.585,0,0,0,369.382,286.963ZM260.5,324.414c-2.08-6.876-3.854-13.959-5.405-21.052a65.33,65.33,0,0,0,6.646-2.494,37.436,37.436,0,0,0,4.831-2.546,26.218,26.218,0,0,0,3.321-2.47,15.932,15.932,0,0,0,2.107-2.23,5.948,5.948,0,0,0,1.325-3.333,5.061,5.061,0,0,0-.945-3.395,4.9,4.9,0,0,0-1.465-1.436,4.671,4.671,0,0,0-1.522-.59,1.237,1.237,0,0,0-.972.18,1.311,1.311,0,0,0-.624.834,15.715,15.715,0,0,1-4.15,7.495,30.737,30.737,0,0,1-9.417,5.98c-.644-3.19-1.216-6.409-1.7-9.624q-.692-4.563-1.11-8.255t-.636-6.343c-.15-1.769-.262-3.121-.35-4.041a2.494,2.494,0,0,0-1.557-2.117,6.215,6.215,0,0,0-2.921-.506,7.11,7.11,0,0,0-2.494.637,3.565,3.565,0,0,0-1.687,1.564,3.928,3.928,0,0,0-.449,2.174c.424,5.166,1.081,10.426,1.944,15.6q1.192,7.157,2.761,14.242c-5.44,1.961-10.932,3.775-16.409,5.622-.817-3.565-1.638-7.13-2.173-10.749-.442-2.975-.693-5.156-.822-6.464a2.538,2.538,0,0,0-2.156-2.331,4.283,4.283,0,0,0-2.465.076,13.535,13.535,0,0,0-2.211,1.026,3.858,3.858,0,0,0-1.433,1.453,2.69,2.69,0,0,0-.326,1.865c.908,6.047,1.969,12.047,3.37,18q-3.046,1.04-5.568,2.038c-1.683.664-7.414,2.825-8.652,3.3-2.773,1.058-9.873,4.9-6.491,8.882,3.925-3.651,9.513-6.175,14.351-8.324,2.351-1.044,4.749-2.018,7.157-2.936,1.443,5.43,3.007,10.816,4.882,16.071,1.448,4.061,3.091,8.122,4.909,12.059q2.342,5.074,4.137,8.262t2.716,4.527a3.071,3.071,0,0,0,2.129,1.527,5.109,5.109,0,0,0,2.124-.326,6.427,6.427,0,0,0,1.843-1.058,3.251,3.251,0,0,0,1.12-1.831,3.156,3.156,0,0,0-.294-2.208,179.276,179.276,0,0,1-9.587-21.385c-2.2-6.15-4.317-12.372-5.911-18.728q4.493-1.628,8.647-2.921t7.831-2.4c1.29,5.309,2.674,10.6,4.261,15.8,1.3,4.253,2.731,8.516,4.251,12.71,1.13,3.116,2.309,6.237,3.57,9.3,1.036,2.519,1.828,4.345,2.331,5.457a2.807,2.807,0,0,0,.819,1.071,3.929,3.929,0,0,0,1.14.624,4.386,4.386,0,0,0,2.563.229,3.911,3.911,0,0,0,2.132-1.127,3.587,3.587,0,0,0,.91-1.979,3.922,3.922,0,0,0-.308-2.171A186.251,186.251,0,0,1,260.5,324.414ZM396.029,299.62a1.915,1.915,0,0,1-.4-.269.869.869,0,0,0-.609-.123.486.486,0,0,0-.38.373c-.316,1.137-.755,2.534-1.337,4.145s-1.209,3.146-1.88,4.6a22.293,22.293,0,0,1-2.06,3.637c-.7.974-1.391,1.389-2.07,1.251-.471-.076-.78-.528-.93-1.362a11.81,11.81,0,0,1-.047-3.116c.118-1.243.321-2.623.607-4.125s.587-2.993.905-4.468.651-2.842,1-4.1.6-2.272.792-2.993a1.964,1.964,0,0,0-.062-1.241,2.588,2.588,0,0,0-.73-1.036,8.31,8.31,0,0,0-2.936-1.34,14.225,14.225,0,0,0-2.785-.432,1.221,1.221,0,0,0-1.581,1.063,73.082,73.082,0,0,0-2.294,10.872q-.085.766-.146,1.5c-.067.215-.131.422-.2.646q-.785,2.457-1.715,4.673a22.39,22.39,0,0,1-1.927,3.72q-1,1.5-2.018,1.335c-.471-.057-.8-.5-.972-1.325a11.754,11.754,0,0,1-.153-3.116q.115-1.876.461-4.15t.748-4.507q.4-2.232.856-4.145c.3-1.273.523-2.3.686-3.025a1.977,1.977,0,0,0-.1-1.238,2.593,2.593,0,0,0-.762-1.009,8.2,8.2,0,0,0-2.97-1.221,14.3,14.3,0,0,0-2.79-.321,1.224,1.224,0,0,0-1.539,1.127,67.423,67.423,0,0,0-1.695,8.84c0,.017-.012.032-.017.049q-.285.962-.965,3.052t-1.537,4.145a21.816,21.816,0,0,1-1.848,3.563q-.988,1.506-2.016,1.379c-.474-.037-.817-.493-1.026-1.364a14.84,14.84,0,0,1-.318-3.35q0-2.039.217-4.488t.575-4.818q.355-2.368.7-4.421c.227-1.367.395-2.44.533-3.175a1.979,1.979,0,0,0-.148-1.236,2.555,2.555,0,0,0-.8-.977,8.217,8.217,0,0,0-3.027-1.1,22.018,22.018,0,0,0-2.82-.284,1.577,1.577,0,0,0-1.581,1.275c-.116.7-.249,1.374-.395,2.023a15.036,15.036,0,0,0-.308,2.018,6.9,6.9,0,0,0-3.565-1.641,10.073,10.073,0,0,0-4.046.271,14.586,14.586,0,0,0-4.093,1.845c-.269.173-.528.353-.785.535-.012-.007-.02-.017-.032-.025a.706.706,0,0,0-.7.022,15.436,15.436,0,0,1-5.2,1.584,30.879,30.879,0,0,1-5.312.185,34.816,34.816,0,0,1-4.549-.526,27.124,27.124,0,0,1-2.884-.664.909.909,0,0,0-1.177.488,2.157,2.157,0,0,0-.281,1.172,3.617,3.617,0,0,0,.185.945.833.833,0,0,0,.407.508,12.076,12.076,0,0,1,3.03,3.787,23.373,23.373,0,0,1,1.942,5.035,35.847,35.847,0,0,1,1.115,10.4,15.859,15.859,0,0,1-.56,3.752c-.3.982-.7,1.535-1.2,1.66-.449.113-.878-.215-1.28-.992a18.007,18.007,0,0,1-1.179-3.109q-.574-1.939-1.068-4.377t-.955-4.88q-.459-2.442-.755-4.626t-.506-3.528a2.488,2.488,0,0,0-.794-1.665,3.243,3.243,0,0,0-1.752-.871,14.273,14.273,0,0,0-3.141.086.942.942,0,0,0-1.066,1.066q-.377,5.1-.881,8.923t-1.073,6.654c-.38,1.885-.752,3.461-1.127,4.722a26.361,26.361,0,0,1-1.11,3.141,38.013,38.013,0,0,1-.6-5.674q-.118-3.157,0-6.234t.392-5.61c.183-1.687.328-2.985.454-3.866a1.945,1.945,0,0,0-.289-1.372,2.286,2.286,0,0,0-1.12-.9,5.755,5.755,0,0,0-3.015-.506,27.518,27.518,0,0,0-2.775.368,1.4,1.4,0,0,0-1.3,1.48c-.111.839-.239,2.077-.377,3.713s-.222,3.454-.247,5.45c0,.387,0,.777,0,1.169-.017.116-.035.232-.052.355q-.322,2.194-.831,4.391a22.764,22.764,0,0,1-1.229,3.873c-.481,1.118-1.061,1.7-1.747,1.742q-.7.078-1.224-1.16a14.887,14.887,0,0,1-.851-3.257q-.329-2.021-.513-4.485t-.217-4.88q-.037-2.413-.032-4.507c0-1.394-.007-2.489.007-3.242a2,2,0,0,0-.343-1.2,2.455,2.455,0,0,0-.94-.817,7.918,7.918,0,0,0-3.133-.523,21.874,21.874,0,0,0-2.8.244,1.626,1.626,0,0,0-1.34,1.559c0,.715-.022,1.409-.059,2.077a15.092,15.092,0,0,0,.025,2.055,6.636,6.636,0,0,0-3.75-.96A10.025,10.025,0,0,0,274,301.223a14.957,14.957,0,0,0-3.708,2.593,18.988,18.988,0,0,0-3.012,3.609,15.548,15.548,0,0,0-1.8,4,19.477,19.477,0,0,0-.785,4.586,21.884,21.884,0,0,0,.225,4.5,10.32,10.32,0,0,0,1.3,3.745,6.47,6.47,0,0,0,2.5,2.418,5.586,5.586,0,0,0,3.7.447,7,7,0,0,0,3.809-2.045,17.194,17.194,0,0,0,2.894-3.947,31.9,31.9,0,0,0,2.122-4.823q.881-2.542,1.424-4.742c.841,3.437,1.648,6.955,3.765,9.878,1.685,2.329,3.656,3.279,5.938,2.867a4.717,4.717,0,0,0,2.623-1.414,9.959,9.959,0,0,0,1.858-2.825,20.966,20.966,0,0,0,.863-2.265c.143.7.3,1.394.486,2.06a17.567,17.567,0,0,0,2.05,4.729,6.044,6.044,0,0,0,3.35,2.63,2.5,2.5,0,0,0,1.246.2c.38-.047.693-.094.945-.143a2.76,2.76,0,0,0,.868-.328A6.288,6.288,0,0,0,308.1,325.5a10.732,10.732,0,0,0,1.394-2.817,29.953,29.953,0,0,0,1.142-4.594,62.922,62.922,0,0,0,.765-6.794,36.308,36.308,0,0,0,2.625,7.929,19.762,19.762,0,0,0,1.584,2.664,9.862,9.862,0,0,0,1.939,2.087,5.768,5.768,0,0,0,2.388,1.135,5.2,5.2,0,0,0,2.854-.252,6.162,6.162,0,0,0,2.526-2.285,19.025,19.025,0,0,0,1.821-4.231,28.108,28.108,0,0,0,1.044-7.51,29.657,29.657,0,0,0-.432-6.683,19.638,19.638,0,0,0-1.226-4.088,6.518,6.518,0,0,0-1.892-2.511,15.036,15.036,0,0,0,3.562.262,20.776,20.776,0,0,0,3.311-.4c.555-.118,1.078-.242,1.574-.375-.192.333-.38.676-.555,1.034A18.812,18.812,0,0,0,331,302.41a21.447,21.447,0,0,0-.5,4.446,10.346,10.346,0,0,0,.686,3.913,6.7,6.7,0,0,0,2.085,2.835,5.742,5.742,0,0,0,3.59,1.127,6.882,6.882,0,0,0,4.1-1.293,16.619,16.619,0,0,0,3.506-3.323,30.678,30.678,0,0,0,2.882-4.327q1.284-2.324,2.176-4.379c.281,3.538.523,7.142,2.141,10.379,1.3,2.593,3.1,3.893,5.43,3.918a4.656,4.656,0,0,0,2.832-.9,9.59,9.59,0,0,0,2.3-2.42,20.967,20.967,0,0,0,1.818-3.274q.385-.862.72-1.715c.069.748.163,1.463.286,2.139a12.774,12.774,0,0,0,2.3,5.689,5.425,5.425,0,0,0,4.189,2.149,4.452,4.452,0,0,0,2.894-.9,10.938,10.938,0,0,0,2.457-2.558,22.25,22.25,0,0,0,2.011-3.508c.111-.242.217-.481.321-.72a12.733,12.733,0,0,0,2.1,5.7,5.483,5.483,0,0,0,4.122,2.312,4.467,4.467,0,0,0,2.931-.777,10.9,10.9,0,0,0,2.553-2.455,21.848,21.848,0,0,0,2.136-3.422,36.832,36.832,0,0,0,1.663-3.762q.7-1.869,1.157-3.474a17.426,17.426,0,0,0,.572-2.556A1.775,1.775,0,0,0,396.029,299.62ZM280.844,306.3q-.526,1.454-1.253,3.377t-1.539,4.088q-.81,2.161-1.65,3.97a30.553,30.553,0,0,1-1.576,3.012q-.74,1.206-1.288,1.278a1.409,1.409,0,0,1-1.248-.975,7.355,7.355,0,0,1-.442-2.664,24.567,24.567,0,0,1,.787-5.509,15.818,15.818,0,0,1,1.85-4.872,11.539,11.539,0,0,1,2.553-3,5.23,5.23,0,0,1,2.566-1.2,2.106,2.106,0,0,1,1.91.595C281.418,304.7,281.191,305.333,280.844,306.3Zm67.726-10.384q-.755,1.325-1.789,3.074t-2.186,3.715q-1.155,1.965-2.275,3.58a28.6,28.6,0,0,1-2.05,2.655c-.617.7-1.113,1.034-1.483,1.012a1.468,1.468,0,0,1-1.081-1.189,7.291,7.291,0,0,1-.01-2.692,23.783,23.783,0,0,1,1.668-5.247,15.227,15.227,0,0,1,2.62-4.426A11.132,11.132,0,0,1,345,293.938a5.2,5.2,0,0,1,2.738-.7,2.185,2.185,0,0,1,1.8.94C349.4,294.458,349.073,295.036,348.57,295.919Z" transform="translate(-199.793 -268.454)" fill="#f1592b"/>
          </g>
        </g>
      </g>
      <path id="Path_2552" data-name="Path 2552" d="M921,278.164a5.319,5.319,0,0,0-1.675,2.356,3.455,3.455,0,0,0,.262,2.726,5.209,5.209,0,0,0,1.882,2.011,3.8,3.8,0,0,0,1.438-.73,2.034,2.034,0,0,0,.666-.918.867.867,0,0,0-.284-.994,6.913,6.913,0,0,1-1.021-1.152,1.6,1.6,0,0,1-.229-1.456,3.034,3.034,0,0,1,.851-1.256,9.738,9.738,0,0,1,1.964-1.379.778.778,0,0,0,.414-.414,1.152,1.152,0,0,0-.306-.918A12.191,12.191,0,0,0,921,278.164" transform="translate(-738.838 -272.473)" fill="#fff" stroke="#00425c" stroke-miterlimit="10" stroke-width="13.395"/>
      <path id="Path_2553" data-name="Path 2553" d="M923.832,274.874a5.319,5.319,0,0,0-1.675,2.356,3.455,3.455,0,0,0,.261,2.726,5.208,5.208,0,0,0,1.882,2.011,3.8,3.8,0,0,0,1.438-.73,2.033,2.033,0,0,0,.666-.918.867.867,0,0,0-.284-.994,6.908,6.908,0,0,1-1.021-1.152,1.6,1.6,0,0,1-.229-1.456,3.035,3.035,0,0,1,.851-1.256,9.738,9.738,0,0,1,1.964-1.379.778.778,0,0,0,.414-.414,1.152,1.152,0,0,0-.306-.918,12.152,12.152,0,0,0-3.962,2.124" transform="translate(-740.97 -269.994)" fill="#fff" stroke="#fff" stroke-miterlimit="10" stroke-width="8.707"/>
      <g id="Group_1162" data-name="Group 1162" transform="translate(180.331 1.243)">
        <g id="Group_1161" data-name="Group 1161" transform="translate(0 0)" clip-path="url(#clip-path)">
          <path id="Path_2554" data-name="Path 2554" d="M924.942,273.574a5.318,5.318,0,0,0-1.675,2.356,3.454,3.454,0,0,0,.261,2.726,5.209,5.209,0,0,0,1.882,2.011,3.8,3.8,0,0,0,1.438-.73,2.034,2.034,0,0,0,.666-.918.867.867,0,0,0-.284-.994,6.907,6.907,0,0,1-1.021-1.152,1.6,1.6,0,0,1-.229-1.456,3.035,3.035,0,0,1,.851-1.256,9.736,9.736,0,0,1,1.964-1.379.778.778,0,0,0,.414-.414,1.152,1.152,0,0,0-.306-.918,12.151,12.151,0,0,0-3.962,2.124" transform="translate(-922.137 -270.258)" fill="#f1592b"/>
        </g>
      </g>
    </g>
    <g id="Group_1168" data-name="Group 1168" transform="translate(169.381 158.982)">
      <g id="Group_1166" data-name="Group 1166" transform="translate(0)">
        <g id="Group_1165" data-name="Group 1165">
          <g id="Group_1164" data-name="Group 1164">
            <path id="Path_2555" data-name="Path 2555" d="M523.057,554.919a8.709,8.709,0,0,1-2.968,2.507,9.324,9.324,0,0,1-4.374.967,10.62,10.62,0,0,1-4.066-.747,9.355,9.355,0,0,1-5.319-5.3,10.823,10.823,0,0,1-.77-4.088,10.971,10.971,0,0,1,.77-4.132,9.185,9.185,0,0,1,2.154-3.187,9.745,9.745,0,0,1,3.254-2.045,11.256,11.256,0,0,1,4.088-.725,10.156,10.156,0,0,1,1.979.2,11.414,11.414,0,0,1,1.934.572,8.5,8.5,0,0,1,1.692.945,6.047,6.047,0,0,1,1.3,1.3l-2.132,1.626a5.329,5.329,0,0,0-2-1.626,6.351,6.351,0,0,0-2.793-.637,7.025,7.025,0,0,0-5.344,2.285,7.768,7.768,0,0,0-1.473,2.462,8.35,8.35,0,0,0-.506,2.99,9.27,9.27,0,0,0,.506,3.057,7.117,7.117,0,0,0,1.451,2.462,6.4,6.4,0,0,0,2.287,1.648,7.386,7.386,0,0,0,3.012.595,6.679,6.679,0,0,0,2.968-.659,5.609,5.609,0,0,0,2.2-1.912Z" transform="translate(-505.56 -537.926)" fill="#00b2b2"/>
            <path id="Path_2556" data-name="Path 2556" d="M587.62,540.12h2.7v8.045h9.737V540.12h2.726v19.256h-2.726v-8.815h-9.737v8.815h-2.7Z" transform="translate(-567.375 -539.395)" fill="#00b2b2"/>
            <path id="Path_2557" data-name="Path 2557" d="M670.762,556.98H680.83v2.4H668.08V540.12h12.355v2.373h-9.651v5.758h9.079v2.309h-9.079v6.419Z" transform="translate(-627.985 -539.395)" fill="#00b2b2"/>
            <path id="Path_2558" data-name="Path 2558" d="M739.978,542.2a4.245,4.245,0,0,0-1.539-1.3,4.814,4.814,0,0,0-2.2-.506,5.529,5.529,0,0,0-1.32.175,3.417,3.417,0,0,0-1.209.572,3.163,3.163,0,0,0-.878.989,2.829,2.829,0,0,0-.331,1.406,2.518,2.518,0,0,0,1.145,2.22,4.748,4.748,0,0,0,1.253.614c.484.175.989.353,1.539.528.659.2,1.32.417,1.979.681a7.4,7.4,0,0,1,1.826,1.011,5.1,5.1,0,0,1,1.342,1.562,4.792,4.792,0,0,1,.506,2.373,5.619,5.619,0,0,1-.55,2.593,5.428,5.428,0,0,1-1.473,1.826,6.3,6.3,0,0,1-2.132,1.078,8.592,8.592,0,0,1-2.484.353,9.229,9.229,0,0,1-3.518-.7,6.871,6.871,0,0,1-2.815-2.087l2.087-1.759a5.027,5.027,0,0,0,1.826,1.626,5.087,5.087,0,0,0,2.484.614,4.9,4.9,0,0,0,1.362-.2,3.959,3.959,0,0,0,1.231-.595,3.053,3.053,0,0,0,.9-1.011,2.863,2.863,0,0,0,.353-1.473,2.73,2.73,0,0,0-.373-1.451,3.056,3.056,0,0,0-.989-.989,7.347,7.347,0,0,0-1.451-.7c-.55-.2-1.142-.395-1.759-.595a13.933,13.933,0,0,1-1.826-.659,6.014,6.014,0,0,1-1.6-1.012,4.668,4.668,0,0,1-1.142-1.517,5.121,5.121,0,0,1-.439-2.22,4.931,4.931,0,0,1,.595-2.484,5.412,5.412,0,0,1,1.517-1.715,5.935,5.935,0,0,1,2.132-.989,9.809,9.809,0,0,1,2.373-.308,8.417,8.417,0,0,1,3.165.595,6.478,6.478,0,0,1,2.373,1.6Z" transform="translate(-673.966 -537.911)" fill="#00b2b2"/>
            <path id="Path_2559" data-name="Path 2559" d="M795.529,559.386h-2.682V542.5H786.67V540.13h15.037V542.5h-6.178v16.882Z" transform="translate(-717.318 -539.402)" fill="#00b2b2"/>
            <path id="Path_2560" data-name="Path 2560" d="M892.625,557.909H880.05V555.38l7.673-7.628a12.946,12.946,0,0,0,1.495-1.868,4,4,0,0,0,.614-2.2,3.54,3.54,0,0,0-.264-1.384,3.225,3.225,0,0,0-.725-1.056,3.131,3.131,0,0,0-1.078-.659,3.835,3.835,0,0,0-1.342-.242,3.247,3.247,0,0,0-2.418.945,4.143,4.143,0,0,0-1.187,2.418l-2.593-.439a5.46,5.46,0,0,1,.7-2.023,5.981,5.981,0,0,1,1.342-1.626,6.156,6.156,0,0,1,1.89-1.078,6.6,6.6,0,0,1,2.309-.372,7.449,7.449,0,0,1,2.309.353,5.855,5.855,0,0,1,1.934,1.034,4.912,4.912,0,0,1,1.342,1.715,5.377,5.377,0,0,1,.506,2.373,6.141,6.141,0,0,1-.242,1.715,6.952,6.952,0,0,1-.659,1.495,9.638,9.638,0,0,1-.989,1.342c-.373.417-.792.856-1.187,1.275l-6.264,6.089h9.429v2.351h-.025Z" transform="translate(-787.66 -537.926)" fill="#00b2b2"/>
            <path id="Path_2561" data-name="Path 2561" d="M1042.225,557.909H1029.65V555.38l7.673-7.628a12.942,12.942,0,0,0,1.495-1.868,4,4,0,0,0,.614-2.2,3.537,3.537,0,0,0-.264-1.384,3.225,3.225,0,0,0-.725-1.056,3.132,3.132,0,0,0-1.078-.659,3.846,3.846,0,0,0-1.342-.242,3.248,3.248,0,0,0-2.418.945,4.142,4.142,0,0,0-1.187,2.418l-2.593-.439a5.462,5.462,0,0,1,.7-2.023,5.985,5.985,0,0,1,1.342-1.626,6.155,6.155,0,0,1,1.89-1.078,6.6,6.6,0,0,1,2.309-.372,7.448,7.448,0,0,1,2.309.353,5.643,5.643,0,0,1,1.934,1.034,4.913,4.913,0,0,1,1.342,1.715,5.377,5.377,0,0,1,.506,2.373,6.139,6.139,0,0,1-.242,1.715,6.952,6.952,0,0,1-.659,1.495,9.632,9.632,0,0,1-.989,1.342c-.375.419-.792.856-1.187,1.275l-6.264,6.089h9.429v2.351h-.025Z" transform="translate(-900.353 -537.926)" fill="#00b2b2"/>
            <path id="Path_2562" data-name="Path 2562" d="M949.684,557.405a10.334,10.334,0,0,1-4.024-.77,9.3,9.3,0,0,1-3.165-2.109,9.4,9.4,0,0,1-2.087-3.21,11.2,11.2,0,0,1,0-8.048,9.455,9.455,0,0,1,5.253-5.319,10.485,10.485,0,0,1,4.024-.77,10.342,10.342,0,0,1,4.024.77,9.3,9.3,0,0,1,3.165,2.109,9.735,9.735,0,0,1,2.087,3.21,11.2,11.2,0,0,1,0,8.048,9.455,9.455,0,0,1-5.252,5.319A9.945,9.945,0,0,1,949.684,557.405Zm0-2.112a7.409,7.409,0,0,0,3.076-.614,7.231,7.231,0,0,0,2.4-1.715,8.061,8.061,0,0,0,1.562-2.529,9,9,0,0,0,0-6.2,7.972,7.972,0,0,0-1.562-2.529,7.229,7.229,0,0,0-2.4-1.715,8.011,8.011,0,0,0-6.153,0,7.229,7.229,0,0,0-2.4,1.715,8.06,8.06,0,0,0-1.562,2.529,9,9,0,0,0,0,6.2,7.972,7.972,0,0,0,1.562,2.529,7.255,7.255,0,0,0,2.4,1.715A7.481,7.481,0,0,0,949.684,555.293Z" transform="translate(-832.564 -537.18)" fill="#00b2b2"/>
          </g>
        </g>
      </g>
      <g id="Group_1167" data-name="Group 1167" transform="translate(144.068 0.261)">
        <path id="Path_2563" data-name="Path 2563" d="M1094.109,546.811h.715a10.687,10.687,0,0,0,1.5-.111,4.125,4.125,0,0,0,1.428-.466,2.948,2.948,0,0,0,1.071-1.031,3.274,3.274,0,0,0,.427-1.771,3.066,3.066,0,0,0-.92-2.349,3.37,3.37,0,0,0-2.405-.866,4.047,4.047,0,0,0-2.144.55,3.772,3.772,0,0,0-1.428,1.621l-2.225-.851a4.952,4.952,0,0,1,2.24-2.472,7.037,7.037,0,0,1,3.395-.824,7.4,7.4,0,0,1,2.213.331,5.665,5.665,0,0,1,1.855.962,4.56,4.56,0,0,1,1.263,1.579,4.954,4.954,0,0,1,.466,2.213,4.465,4.465,0,0,1-.92,2.761,4.71,4.71,0,0,1-2.405,1.69v.054a4.824,4.824,0,0,1,1.663.6,4.773,4.773,0,0,1,1.251,1.086,4.659,4.659,0,0,1,.8,1.47,5.464,5.464,0,0,1,.274,1.732,5.4,5.4,0,0,1-.523,2.445,5.263,5.263,0,0,1-1.4,1.759,5.963,5.963,0,0,1-2.048,1.071,8.415,8.415,0,0,1-2.46.358,7.544,7.544,0,0,1-3.873-.962,5.506,5.506,0,0,1-2.391-3.133l2.336-.77a4.187,4.187,0,0,0,5.469,2.61,3.735,3.735,0,0,0,2.418-3.543,3.519,3.519,0,0,0-.427-1.8,3.223,3.223,0,0,0-1.127-1.155,5.136,5.136,0,0,0-1.579-.619,8.337,8.337,0,0,0-1.786-.192h-.715v-1.979Z" transform="translate(-1089.52 -538.24)" fill="#00b2b2"/>
      </g>
    </g>
    <g id="Group_1169" data-name="Group 1169" transform="translate(187.072 184.571)">
      <path id="Path_2564" data-name="Path 2564" d="M577.27,644.42h1.041v2.9h3.5v-2.9h1.041v7.031h-1.041V648.2h-3.5v3.247H577.27Z" transform="translate(-577.27 -643.552)" fill="#00425c"/>
      <path id="Path_2565" data-name="Path 2565" d="M613.115,647.592c0,1.942-1.1,3.651-3.328,3.651-2.095,0-3.247-1.6-3.247-3.612s1.194-3.622,3.328-3.622C611.862,644.01,613.115,645.488,613.115,647.592Zm-5.482.01c0,1.488.738,2.761,2.2,2.761,1.579,0,2.2-1.305,2.2-2.751,0-1.488-.7-2.721-2.2-2.721C608.3,644.891,607.633,646.124,607.633,647.6Z" transform="translate(-599.319 -643.243)" fill="#00425c"/>
      <path id="Path_2566" data-name="Path 2566" d="M639.83,651.451V644.42h1.354c.982,1.638,3.064,5.006,3.449,5.766h.01c-.072-.871-.062-1.993-.062-3.146v-2.62h.972v7.031h-1.276c-.9-1.5-3.086-5.159-3.511-5.958h-.02c.052.77.062,2,.062,3.276v2.682Z" transform="translate(-624.396 -643.552)" fill="#00425c"/>
      <path id="Path_2567" data-name="Path 2567" d="M676.255,647.592c0,1.942-1.1,3.651-3.328,3.651-2.095,0-3.247-1.6-3.247-3.612s1.194-3.622,3.328-3.622C675,644.01,676.255,645.488,676.255,647.592Zm-5.482.01c0,1.488.738,2.761,2.2,2.761,1.579,0,2.2-1.305,2.2-2.751,0-1.488-.7-2.721-2.2-2.721C671.442,644.891,670.773,646.124,670.773,647.6Z" transform="translate(-646.882 -643.243)" fill="#00425c"/>
      <path id="Path_2568" data-name="Path 2568" d="M702.97,644.42h1.041v6.15h3.632l-.141.881H702.97V644.42Z" transform="translate(-671.959 -643.552)" fill="#00425c"/>
      <path id="Path_2569" data-name="Path 2569" d="M726.863,644.412v4.229c0,1.6.871,2.033,1.739,2.033,1.021,0,1.729-.476,1.729-2.033v-4.229h1.041v4.167c0,2.307-1.285,2.953-2.793,2.953-1.488,0-2.771-.7-2.771-2.894V644.41h1.053Z" transform="translate(-689.164 -643.544)" fill="#00425c"/>
      <path id="Path_2570" data-name="Path 2570" d="M756.48,644.42h1.041v6.15h3.632l-.141.881H756.48Z" transform="translate(-712.267 -643.552)" fill="#00425c"/>
      <path id="Path_2571" data-name="Path 2571" d="M780.363,644.412v4.229c0,1.6.871,2.033,1.739,2.033,1.021,0,1.729-.476,1.729-2.033v-4.229h1.041v4.167c0,2.307-1.285,2.953-2.793,2.953-1.488,0-2.77-.7-2.77-2.894V644.41h1.053Z" transform="translate(-729.465 -643.544)" fill="#00425c"/>
      <path id="Path_2572" data-name="Path 2572" d="M833.381,640.9v10.549h-.891V640.9Z" transform="translate(-769.525 -640.9)" fill="#00425c"/>
      <path id="Path_2573" data-name="Path 2573" d="M871.995,647.592c0,1.942-1.1,3.651-3.328,3.651-2.094,0-3.247-1.6-3.247-3.612s1.194-3.622,3.328-3.622C870.739,644.01,871.995,645.488,871.995,647.592Zm-5.484.01c0,1.488.738,2.761,2.2,2.761,1.579,0,2.2-1.305,2.2-2.751,0-1.488-.7-2.721-2.2-2.721C867.179,644.891,866.51,646.124,866.51,647.6Z" transform="translate(-794.331 -643.243)" fill="#00425c"/>
      <path id="Path_2574" data-name="Path 2574" d="M903.17,649.127a2.688,2.688,0,0,1-2.832,2.114c-2.124,0-3.187-1.589-3.187-3.58,0-1.912,1.063-3.641,3.227-3.641a2.573,2.573,0,0,1,2.793,2.154h-1.041a1.691,1.691,0,0,0-1.791-1.3c-1.5,0-2.094,1.354-2.094,2.751,0,1.345.567,2.751,2.134,2.751a1.734,1.734,0,0,0,1.749-1.253Z" transform="translate(-818.233 -643.25)" fill="#00425c"/>
      <path id="Path_2575" data-name="Path 2575" d="M927.075,645.311H924.83v-.891h5.544v.891h-2.245v6.141h-1.051v-6.141Z" transform="translate(-839.084 -643.552)" fill="#00425c"/>
      <path id="Path_2576" data-name="Path 2576" d="M956.325,647.592c0,1.942-1.1,3.651-3.328,3.651-2.095,0-3.247-1.6-3.247-3.612s1.194-3.622,3.328-3.622C955.072,644.01,956.325,645.488,956.325,647.592Zm-5.482.01c0,1.488.738,2.761,2.2,2.761,1.579,0,2.2-1.305,2.2-2.751,0-1.488-.7-2.721-2.2-2.721C951.512,644.891,950.843,646.124,950.843,647.6Z" transform="translate(-857.856 -643.243)" fill="#00425c"/>
      <path id="Path_2577" data-name="Path 2577" d="M983.05,644.42h2.761c1.527,0,2.215.809,2.215,1.769a1.558,1.558,0,0,1-.992,1.527,1.732,1.732,0,0,1,1.214,1.668,2.1,2.1,0,0,1-2.356,2.063H983.05Zm2.588,2.894c.96,0,1.335-.385,1.335-1.031,0-.6-.434-1.012-1.214-1.012h-1.69v2.043Zm-1.567,3.289h1.668c.871,0,1.436-.395,1.436-1.224,0-.728-.466-1.214-1.589-1.214h-1.517V650.6Z" transform="translate(-882.941 -643.552)" fill="#00425c"/>
      <path id="Path_2578" data-name="Path 2578" d="M1015.1,648.214h-3.469v2.356h3.814l-.131.881h-4.7V644.42h4.653v.891h-3.632v2.023h3.469v.881Z" transform="translate(-903.702 -643.552)" fill="#00425c"/>
      <path id="Path_2579" data-name="Path 2579" d="M1037.091,648.407v3.044h-1.031V644.42h2.813c1.456,0,2.235.8,2.235,1.892a1.621,1.621,0,0,1-1.162,1.658c.526.141,1.031.567,1.031,1.791v.3a5.169,5.169,0,0,0,.1,1.386h-1.012a5.082,5.082,0,0,1-.121-1.527v-.131c0-.962-.264-1.387-1.508-1.387h-1.347Zm0-.861h1.478c1.031,0,1.466-.385,1.466-1.142,0-.708-.466-1.113-1.377-1.113h-1.569v2.255Z" transform="translate(-922.873 -643.552)" fill="#00425c"/>
      <path id="Path_2580" data-name="Path 2580" d="M1072.59,650.327a1.794,1.794,0,0,1,1.184-1.68,1.494,1.494,0,0,1-.9-1.406c0-1.051.748-1.8,2.144-1.8a1.818,1.818,0,0,1,2.063,1.781,1.379,1.379,0,0,1-.91,1.377,1.76,1.76,0,0,1,1.162,1.7c0,1.3-1,2.043-2.418,2.043A2.085,2.085,0,0,1,1072.59,650.327Zm3.733-.039c0-.809-.516-1.224-1.354-1.224a1.182,1.182,0,0,0-1.354,1.224,1.236,1.236,0,0,0,1.367,1.243A1.192,1.192,0,0,0,1076.323,650.288Zm-2.479-3.035c0,.535.355.982,1.152.982.757,0,1.113-.353,1.113-.96a1,1,0,0,0-1.123-1.021C1074.189,646.252,1073.843,646.646,1073.843,647.253Z" transform="translate(-950.391 -644.32)" fill="#00425c"/>
      <path id="Path_2581" data-name="Path 2581" d="M1099.492,660.62v.891h-2.682v-.891Z" transform="translate(-968.635 -655.755)" fill="#00425c"/>
      <path id="Path_2582" data-name="Path 2582" d="M1113.5,652.506v-5.482a4.215,4.215,0,0,1-1.345.526v-.789a3.844,3.844,0,0,0,1.618-.94h.738v6.686Z" transform="translate(-980.198 -644.606)" fill="#00425c"/>
      <path id="Path_2583" data-name="Path 2583" d="M1128.834,652.506v-5.482a4.213,4.213,0,0,1-1.344.526v-.789a3.843,3.843,0,0,0,1.618-.94h.738v6.686Z" transform="translate(-991.746 -644.606)" fill="#00425c"/>
    </g>
  </g>
</svg>
