<?xml version="1.0" encoding="utf-8"?>
<!-- Generator: Adobe Illustrator 27.2.0, SVG Export Plug-In . SVG Version: 6.00 Build 0)  -->
<svg version="1.1" id="Layer_1" xmlns="http://www.w3.org/2000/svg" xmlns:xlink="http://www.w3.org/1999/xlink" x="0px" y="0px"
	 viewBox="0 0 524.99 195.37" style="enable-background:new 0 0 524.99 195.37;" xml:space="preserve">
<style type="text/css">
	.st0{fill:#572C84;}
	.st1{fill:#9F71AD;}
</style>
<g>
	<path class="st0" d="M229.32,66.98c0-6.05,3.62-8.46,6.94-8.46c2.39,0,3.64,0.66,4.58,1.32l-1.47,2.34
		c-0.92-0.62-1.7-0.92-2.96-0.92c-2.02,0-3.49,1.68-3.71,4.58c1.11-0.85,2.39-1.43,3.94-1.43c2.79,0,5.09,1.49,5.09,5.01
		c0,3.28-2.41,5.45-5.99,5.45C231.98,74.88,229.32,72.13,229.32,66.98z M238.48,69.58c0-1.32-0.58-2.6-2.54-2.6
		c-1.34,0-2.43,0.53-3.24,1.32c0.17,2.64,1.28,3.96,3.2,3.96C237.58,72.26,238.48,71,238.48,69.58z"/>
	<path class="st0" d="M247.34,61.72h-4.69v-2.9h12.87v2.9h-4.71v12.87h-3.47V61.72z"/>
	<path class="st0" d="M257.37,58.82h3.47v6.11h6.2v-6.11h3.47v15.76h-3.47v-6.73h-6.2v6.73h-3.47V58.82z"/>
</g>
<g>
	<path class="st0" d="M229.32,83.58h3.49l1.66,7.18c0.3,1.15,0.55,2.11,0.77,3.45h0.04c0.19-1.3,0.45-2.3,0.72-3.43l1.6-7.2h3.2
		l1.7,7.24c0.3,1.26,0.53,1.98,0.75,3.39h0.04c0.21-1.43,0.4-2.07,0.7-3.34l1.6-7.29h3.19l-4.11,15.76h-2.96l-2.49-10.97h-0.04
		l-2.66,10.97h-3L229.32,83.58z"/>
	<path class="st0" d="M249.52,91.46c0-5.54,3.62-8.18,7.43-8.18c3.79,0,7.41,2.64,7.41,8.18s-3.62,8.18-7.41,8.18
		C253.15,99.64,249.52,97,249.52,91.46z M260.92,91.46c0-3.3-1.53-5.3-3.96-5.3c-2.45,0-3.96,2-3.96,5.3s1.51,5.39,3.96,5.39
		C259.39,96.85,260.92,94.76,260.92,91.46z"/>
	<path class="st0" d="M266.82,83.58h5.92c3.88,0,6.2,1.38,6.2,4.88c0,2.49-1.17,3.86-3.28,4.49l3.51,6.39h-3.66l-3.28-5.94h-2v5.94
		h-3.41L266.82,83.58L266.82,83.58z M272.59,90.72c2,0,2.96-0.58,2.96-2.17c0-1.56-0.96-2.13-2.96-2.13h-2.36v4.3L272.59,90.72
		L272.59,90.72z"/>
	<path class="st0" d="M281.56,83.58h3.47v12.95h6.94v2.81h-10.42V83.58H281.56z"/>
	<path class="st0" d="M293.81,83.58h4.84c4.81,0,8.44,2.04,8.44,7.8c0,5.92-3.69,7.97-8.44,7.97h-4.84V83.58z M298.88,96.53
		c3.43,0,4.73-1.53,4.73-5.11c0-3.37-1.32-4.94-4.77-4.94h-1.58v10.05H298.88z"/>
	<path class="st0" d="M315.29,83.58h6.31c2.9,0,5.62,0.7,5.62,3.9c0,2.24-1.41,3.3-3,3.62v0.04c1.92,0.34,3.43,1.34,3.43,3.86
		c0,3.17-2.79,4.35-5.73,4.35h-6.62L315.29,83.58L315.29,83.58z M321.26,90.08c1.81,0,2.64-0.68,2.64-1.9c0-1.24-0.75-1.92-2.6-1.92
		h-2.6v3.81h2.56V90.08z M321.49,96.7c1.92,0,2.77-0.77,2.77-2.11c0-1.38-1-2.07-2.92-2.07h-2.64v4.17L321.49,96.7L321.49,96.7z"/>
	<path class="st0" d="M330.28,83.58h5.92c3.88,0,6.2,1.38,6.2,4.88c0,2.49-1.17,3.86-3.28,4.49l3.51,6.39h-3.66l-3.28-5.94h-2v5.94
		h-3.41L330.28,83.58L330.28,83.58z M336.05,90.72c2,0,2.96-0.58,2.96-2.17c0-1.56-0.96-2.13-2.96-2.13h-2.36v4.3L336.05,90.72
		L336.05,90.72z"/>
	<path class="st0" d="M344.19,91.46c0-5.54,3.62-8.18,7.43-8.18c3.79,0,7.41,2.64,7.41,8.18s-3.62,8.18-7.41,8.18
		C347.82,99.64,344.19,97,344.19,91.46z M355.59,91.46c0-3.3-1.53-5.3-3.96-5.3c-2.45,0-3.96,2-3.96,5.3s1.51,5.39,3.96,5.39
		C354.06,96.85,355.59,94.76,355.59,91.46z"/>
	<path class="st0" d="M361.49,83.58h3.47l6.6,10.05h0.04V83.58h3.2v15.76h-3.2l-6.88-10.14h-0.04v10.14h-3.19V83.58z"/>
	<path class="st0" d="M377.26,91.44c0-5.47,3.17-8.16,7.16-8.16s5.71,2.13,6.39,4.96l-3.28,0.96c-0.51-1.81-1.28-3.05-3.13-3.05
		c-2.38,0-3.66,2.02-3.66,5.28c0,3.32,1.32,5.41,3.71,5.41c1.85,0,2.77-1.17,3.32-3.32l3.26,0.72c-0.77,3.17-2.64,5.39-6.6,5.39
		C380.31,99.64,377.26,97,377.26,91.44z"/>
	<path class="st0" d="M393.29,83.58h3.47v6.11h6.2v-6.11h3.47v15.76h-3.47v-6.73h-6.2v6.73h-3.47V83.58z"/>
	<path class="st0" d="M409.65,83.58h3.45v15.76h-3.45V83.58z"/>
	<path class="st0" d="M416.29,83.58h10.74v2.9h-7.26v3.39h5.26v2.75h-5.26v3.92h7.65v2.81H416.3L416.29,83.58L416.29,83.58z"/>
	<path class="st0" d="M428.58,91.44c0-5.47,3.17-8.16,7.16-8.16s5.71,2.13,6.39,4.96l-3.28,0.96c-0.51-1.81-1.28-3.05-3.13-3.05
		c-2.39,0-3.66,2.02-3.66,5.28c0,3.32,1.32,5.41,3.71,5.41c1.85,0,2.77-1.17,3.32-3.32l3.26,0.72c-0.77,3.17-2.64,5.39-6.6,5.39
		C431.63,99.64,428.58,97,428.58,91.44z"/>
	<path class="st0" d="M448.18,86.48h-4.69v-2.9h12.87v2.9h-4.71v12.87h-3.47V86.48z"/>
	<path class="st0" d="M460.93,83.52h3.3l5.58,15.83h-3.51l-1.17-3.51h-5.37l-1.21,3.51h-3.2L460.93,83.52z M464.31,93.32l-1.81-5.37
		h-0.04l-1.85,5.37H464.31z"/>
	<path class="st0" d="M470.62,95.77l2.62-1.55c0.87,1.73,2.45,2.68,4.26,2.68c1.6,0,2.75-0.6,2.75-1.81c0-1.19-1.13-1.7-3.19-2.28
		c-2.81-0.79-5.75-1.51-5.75-4.81c0-2.94,2.3-4.71,5.69-4.71c3.24,0,5.16,1.55,6.26,3.24l-2.41,1.83c-0.83-1.34-2.34-2.24-3.88-2.24
		c-1.47,0-2.28,0.64-2.28,1.58c0,1.26,1.17,1.7,3.24,2.28c2.77,0.75,5.71,1.62,5.71,4.88c0,2.54-1.92,4.79-6.31,4.79
		C473.92,99.64,471.79,98.02,470.62,95.77z"/>
	<path class="st0" d="M486.1,83.58h3.45v15.76h-3.45V83.58z"/>
	<path class="st0" d="M491.74,95.77l2.62-1.55c0.87,1.73,2.45,2.68,4.26,2.68c1.6,0,2.75-0.6,2.75-1.81c0-1.19-1.13-1.7-3.19-2.28
		c-2.81-0.79-5.75-1.51-5.75-4.81c0-2.94,2.3-4.71,5.69-4.71c3.24,0,5.16,1.55,6.26,3.24l-2.41,1.83c-0.83-1.34-2.34-2.24-3.88-2.24
		c-1.47,0-2.28,0.64-2.28,1.58c0,1.26,1.17,1.7,3.24,2.28c2.77,0.75,5.71,1.62,5.71,4.88c0,2.54-1.92,4.79-6.31,4.79
		C495.04,99.64,492.91,98.02,491.74,95.77z"/>
</g>
<g>
	<path class="st0" d="M229.32,120.21c0-2.56,1.7-3.79,3.62-4.71c-0.62-1.19-1-2.34-1-3.47c0-2.07,1.38-3.98,4.47-3.98
		c2.88,0,4.09,1.68,4.09,3.45c0,2.36-1.73,3.56-3.64,4.52c0.28,0.4,0.62,0.81,0.96,1.24c0.62,0.77,1.19,1.43,1.73,1.94
		c0.51-0.87,0.85-1.94,1-3.2h2.92c-0.23,1.66-0.72,3.39-1.62,4.84c0.9,0.49,1.83,0.7,2.9,0.7v2.79c-2.04-0.02-3.6-0.41-5.03-1.21
		c-1.17,0.81-2.62,1.3-4.45,1.3C231.34,124.4,229.32,122.77,229.32,120.21z M237.43,121.4c-0.68-0.66-1.38-1.47-2.15-2.43
		c-0.38-0.49-0.77-1-1.11-1.47c-0.85,0.58-1.38,1.3-1.38,2.21c0,1.47,1,2.3,2.49,2.3C236.07,122.02,236.79,121.81,237.43,121.4z
		 M237.65,111.62c0-0.64-0.3-1.34-1.17-1.34c-0.77,0-1.38,0.51-1.38,1.56c0,0.77,0.23,1.53,0.68,2.36
		C236.86,113.58,237.65,112.82,237.65,111.62z"/>
	<path class="st0" d="M252.14,108.34h3.47l6.6,10.05h0.04v-10.05h3.2v15.76h-3.2l-6.88-10.14h-0.04v10.14h-3.19V108.34z"/>
	<path class="st0" d="M271.99,111.24h-4.69v-2.9h12.87v2.9h-4.71v12.87h-3.47V111.24z"/>
	<path class="st0" d="M282.01,108.34h4.58l3.51,11.59h0.04l3.28-11.59h4.69v15.76h-3.34v-10.76h-0.04
		c-0.23,1.36-0.53,2.37-0.87,3.51l-2.36,7.24h-3.07l-2.34-7.24c-0.36-1.19-0.58-1.87-0.92-3.68h-0.04v10.93h-3.11v-15.76H282.01z"/>
	<path class="st0" d="M306.33,116.2c0-5.47,3.17-8.16,7.16-8.16s5.71,2.13,6.39,4.96l-3.28,0.96c-0.51-1.81-1.28-3.05-3.13-3.05
		c-2.39,0-3.66,2.02-3.66,5.28c0,3.32,1.32,5.41,3.71,5.41c1.85,0,2.77-1.17,3.32-3.32l3.26,0.72c-0.77,3.17-2.64,5.39-6.6,5.39
		C309.38,124.4,306.33,121.76,306.33,116.2z"/>
	<path class="st0" d="M321.65,116.23c0-5.54,3.62-8.18,7.43-8.18c3.79,0,7.41,2.64,7.41,8.18s-3.62,8.18-7.41,8.18
		C325.27,124.4,321.65,121.76,321.65,116.23z M333.05,116.23c0-3.3-1.53-5.3-3.96-5.3c-2.45,0-3.96,2-3.96,5.3s1.51,5.39,3.96,5.39
		C331.51,121.61,333.05,119.53,333.05,116.23z"/>
	<path class="st0" d="M338.95,108.34h3.47l6.6,10.05h0.04v-10.05h3.2v15.76h-3.2l-6.88-10.14h-0.04v10.14h-3.2v-15.76H338.95z"/>
	<path class="st0" d="M355.4,108.34h10.42v2.9h-6.94v3.83h4.94v2.75h-4.94v6.28h-3.47v-15.76H355.4z"/>
	<path class="st0" d="M367.66,108.34h10.74v2.9h-7.26v3.39h5.26v2.75h-5.26v3.91h7.65v2.81h-11.12L367.66,108.34L367.66,108.34z"/>
	<path class="st0" d="M380.96,108.34h5.92c3.88,0,6.2,1.38,6.2,4.88c0,2.49-1.17,3.86-3.28,4.49l3.51,6.39h-3.66l-3.28-5.94h-2v5.94
		h-3.41L380.96,108.34L380.96,108.34z M386.74,115.48c2,0,2.96-0.58,2.96-2.17c0-1.56-0.96-2.13-2.96-2.13h-2.36v4.3L386.74,115.48
		L386.74,115.48z"/>
	<path class="st0" d="M395.7,108.34h10.74v2.9h-7.26v3.39h5.26v2.75h-5.26v3.91h7.65v2.81h-11.12L395.7,108.34L395.7,108.34z"/>
	<path class="st0" d="M409.01,108.34h3.47l6.6,10.05h0.04v-10.05h3.2v15.76h-3.2l-6.88-10.14h-0.04v10.14H409v-15.76H409.01z"/>
	<path class="st0" d="M424.79,116.2c0-5.47,3.17-8.16,7.16-8.16s5.71,2.13,6.39,4.96l-3.28,0.96c-0.51-1.81-1.28-3.05-3.13-3.05
		c-2.38,0-3.66,2.02-3.66,5.28c0,3.32,1.32,5.41,3.71,5.41c1.85,0,2.77-1.17,3.32-3.32l3.26,0.72c-0.77,3.17-2.64,5.39-6.6,5.39
		C427.83,124.4,424.79,121.76,424.79,116.2z"/>
	<path class="st0" d="M440.81,108.34h10.74v2.9h-7.26v3.39h5.26v2.75h-5.26v3.91h7.65v2.81h-11.12L440.81,108.34L440.81,108.34z"/>
</g>
<g>
	<path class="st1" d="M229.32,167.7l1.2-1.02c0.61,0.83,1.38,1.42,2.56,1.42c1.53,0,2.54-0.73,2.54-2.91v-10.86h1.79v10.98
		c0,2.83-1.61,4.35-4.27,4.35C231.31,169.67,230.17,168.88,229.32,167.7z"/>
	<path class="st1" d="M240.3,166.4v-7.75h1.75v7.38c0,1.42,0.61,2.1,1.97,2.1c1.3,0,2.36-0.67,3.48-1.73v-7.75h1.77v10.74h-1.77
		v-1.61c-0.94,0.92-2.28,1.81-4.03,1.81C241.42,169.59,240.3,168.43,240.3,166.4z"/>
	<path class="st1" d="M252.08,154.33h1.75v15.05h-1.75V154.33z"/>
	<path class="st1" d="M255.27,173.25l0.41-1.4c0.31,0.08,0.83,0.18,1.59,0.18c1.1,0,1.63-0.47,2.05-1.53l0.41-1.06l-4.15-10.8h1.85
		l3.15,8.68h0.04l3.15-8.68h1.77l-4.6,11.96c-0.73,1.89-1.57,2.91-3.66,2.91C256.33,173.52,255.74,173.39,255.27,173.25z"/>
	<path class="st1" d="M271.5,167.8h2.83v-11.59c-0.73,0.39-1.91,0.69-2.79,0.69v-1.59c1.16-0.04,2.2-0.35,2.87-0.98h1.67v13.46h2.52
		v1.59h-7.1L271.5,167.8L271.5,167.8z"/>
	<path class="st1" d="M279.93,165.7c0-2.07,1.5-3.27,3.86-4.27c-1.97-0.92-3.17-1.87-3.17-3.72c0-1.87,1.75-3.7,4.82-3.7
		c3.13,0,4.78,1.85,4.78,3.7c0,1.75-1.16,2.75-3.19,3.66c2.44,1.06,3.88,2.12,3.88,4.33s-2.01,4.01-5.47,4.01
		C281.97,169.71,279.93,167.96,279.93,165.7z M289.15,165.6c0-1.59-1.34-2.46-3.82-3.5c-2.44,1.1-3.6,1.99-3.6,3.5
		c0,1.55,1.53,2.62,3.72,2.62C287.62,168.23,289.15,167.21,289.15,165.6z M288.49,157.81c0-1.14-0.94-2.3-3.05-2.3
		c-2.05,0-3.07,1.1-3.07,2.24c0,1.38,1,2.03,3.15,2.97C287.62,159.79,288.49,159.14,288.49,157.81z"/>
	<path class="st1" d="M292.61,162.31h4.74v1.38h-4.74V162.31z"/>
	<path class="st1" d="M298.39,169.06c0-2.18,0.98-4.21,4.94-6.75c2.26-1.44,3.17-2.36,3.17-3.97c0-1.65-1.04-2.71-2.83-2.71
		c-1.55,0-2.79,0.85-3.68,2.48l-1.38-0.85c1.1-1.99,2.81-3.21,5.15-3.21c2.79,0,4.5,1.71,4.5,4.17c0,1.97-0.9,3.32-3.78,5.15
		c-2.62,1.67-3.91,3.15-4.07,4.43h7.93v1.59h-9.95V169.06z"/>
	<path class="st1" d="M310.18,161.86c0-4.7,2.07-7.81,5.67-7.81c3.62,0,5.63,3.11,5.63,7.81s-2.01,7.81-5.63,7.81
		C312.26,169.67,310.18,166.56,310.18,161.86z M319.72,161.86c0-4.09-1.51-6.22-3.86-6.22c-2.46,0-3.88,2.14-3.88,6.22
		c0,4.09,1.5,6.24,3.88,6.24C318.28,168.11,319.72,165.95,319.72,161.86z"/>
	<path class="st1" d="M324.35,169.39h-0.79v-2.14h2.1v1.89l-1.04,2.38h-0.81L324.35,169.39z"/>
	<path class="st1" d="M332.69,169.06c0-2.18,0.98-4.21,4.94-6.75c2.26-1.44,3.17-2.36,3.17-3.97c0-1.65-1.04-2.71-2.83-2.71
		c-1.55,0-2.79,0.85-3.68,2.48l-1.38-0.85c1.1-1.99,2.81-3.21,5.15-3.21c2.79,0,4.5,1.71,4.5,4.17c0,1.97-0.9,3.32-3.78,5.15
		c-2.62,1.67-3.91,3.15-4.07,4.43h7.93v1.59h-9.95V169.06z"/>
	<path class="st1" d="M344.49,161.86c0-4.7,2.07-7.81,5.67-7.81c3.62,0,5.63,3.11,5.63,7.81s-2.01,7.81-5.63,7.81
		C346.56,169.67,344.49,166.56,344.49,161.86z M354.03,161.86c0-4.09-1.51-6.22-3.86-6.22c-2.46,0-3.88,2.14-3.88,6.22
		c0,4.09,1.5,6.24,3.88,6.24C352.58,168.11,354.03,165.95,354.03,161.86z"/>
	<path class="st1" d="M357.22,169.06c0-2.18,0.98-4.21,4.94-6.75c2.26-1.44,3.17-2.36,3.17-3.97c0-1.65-1.04-2.71-2.83-2.71
		c-1.55,0-2.79,0.85-3.68,2.48l-1.38-0.85c1.1-1.99,2.81-3.21,5.15-3.21c2.79,0,4.5,1.71,4.5,4.17c0,1.97-0.9,3.32-3.78,5.15
		c-2.62,1.67-3.91,3.15-4.07,4.43h7.93v1.59h-9.95V169.06z"/>
	<path class="st1" d="M368.68,166.93l1.3-0.98c1.08,1.55,2.42,2.16,4.01,2.16c2.1,0,3.42-1.06,3.42-2.85c0-2.09-1.32-3.09-4.64-3.09
		h-0.61v-1.48h0.71c3.11,0,4.17-0.96,4.17-2.62c0-1.42-0.85-2.4-2.99-2.4c-1.44,0-2.66,0.67-3.54,1.71l-1.16-1.08
		c1.12-1.3,2.79-2.22,4.84-2.22c3.19,0,4.62,1.71,4.62,3.76c0,1.89-1.12,3.15-2.93,3.56c2.24,0.45,3.29,1.77,3.29,3.91
		c0,2.54-2.01,4.37-5.19,4.37C371.73,169.67,369.84,168.69,368.68,166.93z"/>
	<path class="st1" d="M390.32,154.33h1.71v19.12h-1.71V154.33z"/>
	<path class="st1" d="M403.06,154.33h1.89l7.91,11.9h0.04v-11.9h1.69v15.05h-1.61l-8.2-12.22h-0.04v12.22h-1.69L403.06,154.33
		L403.06,154.33z"/>
	<path class="st1" d="M417.1,164.02c0-3.91,2.6-5.59,4.86-5.59c2.54,0,4.47,1.79,4.47,5.67v0.37h-7.59
		c0.06,2.42,1.46,3.72,3.23,3.72c1.55,0,2.42-0.63,3.23-1.75l1.02,0.89c-1,1.42-2.36,2.28-4.37,2.28
		C419.42,169.61,417.1,167.76,417.1,164.02z M424.77,163.1c-0.14-1.91-1.06-3.21-2.83-3.21c-1.44,0-2.81,1-3.05,3.21H424.77z"/>
	<path class="st1" d="M427.3,158.65h1.81l1.4,5.04c0.37,1.32,0.61,2.2,0.94,3.58h0.04c0.37-1.5,0.57-2.28,0.94-3.6l1.36-5.02h1.53
		l1.4,5.12c0.37,1.28,0.57,2.1,0.89,3.5h0.04c0.37-1.42,0.57-2.2,0.94-3.46l1.46-5.17h1.65l-3.28,10.74h-1.63l-2.28-8.4h-0.04
		l-2.3,8.4h-1.61L427.3,158.65z"/>
	<path class="st1" d="M452.1,162.8l-5.06-8.46h1.91l4.09,6.94l4.07-6.94h1.87l-5.08,8.46v6.59h-1.79v-6.59H452.1z"/>
	<path class="st1" d="M458.37,164.02c0-3.7,2.36-5.59,5-5.59c2.62,0,4.98,1.89,4.98,5.59c0,3.68-2.36,5.59-4.98,5.59
		S458.37,167.7,458.37,164.02z M466.59,164.02c0-2.24-1.08-4.09-3.21-4.09c-2.05,0-3.23,1.67-3.23,4.09c0,2.28,1.06,4.11,3.23,4.11
		C465.41,168.13,466.59,166.48,466.59,164.02z"/>
	<path class="st1" d="M470.55,158.65h1.75v1.99h0.04c0.79-1.24,2.05-2.22,4.15-2.22h0.22l-0.12,1.63c-0.06-0.02-0.45-0.02-0.51-0.02
		c-1.71,0-2.99,0.89-3.78,2.42v6.94h-1.75L470.55,158.65L470.55,158.65z"/>
	<path class="st1" d="M478.4,154.33h1.75v9.68l4.8-5.37h1.99l-3.52,3.84l3.91,6.9h-1.87l-3.17-5.59l-2.14,2.3v3.29h-1.75
		L478.4,154.33L478.4,154.33z"/>
	<path class="st1" d="M490.2,169.39h-0.79v-2.14h2.09v1.89l-1.04,2.38h-0.81L490.2,169.39z"/>
	<path class="st1" d="M499.49,154.33h1.89l7.91,11.9h0.04v-11.9h1.69v15.05h-1.61l-8.2-12.22h-0.04v12.22h-1.69v-15.05H499.49z"/>
	<path class="st1" d="M518.11,162.8l-5.06-8.46h1.91l4.09,6.94l4.07-6.94h1.87l-5.08,8.46v6.59h-1.79v-6.59H518.11z"/>
</g>
<g>
	<rect x="229.32" y="136.58" class="st1" width="292.39" height="3.52"/>
</g>
<path class="st0" d="M114.01,66.7c-4.28-12.13-3.85-26.68-4.34-39.4V0h-6.41h-6.41v27.29c-0.49,12.72-0.06,27.28-4.34,39.4
	c-0.84,2.36-2,4.35-3.24,5.45c4.45-1.78,9.19-2.7,13.98-2.71c4.8,0.01,9.55,0.94,14.01,2.73C116.03,71.07,114.86,69.07,114.01,66.7z
	"/>
<path class="st0" d="M103.27,74.71c-17.96,0-32.55,14.6-32.55,32.56s14.6,32.55,32.55,32.55c17.96,0,32.56-14.6,32.56-32.55
	C135.82,89.31,121.22,74.71,103.27,74.71z M96.2,79.47c-3.19,3.15-5.67,7.1-7.4,11.5h-9.14C83.55,85.35,89.38,81.19,96.2,79.47z
	 M110.33,79.47c6.82,1.72,12.65,5.88,16.53,11.5h-9.14C116,86.57,113.53,82.62,110.33,79.47z M101.32,80.19v10.78h-8.27
	C95.02,86.59,97.82,82.83,101.32,80.19z M105.21,80.19c3.5,2.64,6.3,6.4,8.27,10.78h-8.27V80.19z M77.41,94.85H87.5
	c-0.94,3.36-1.48,6.9-1.6,10.47H74.67C74.91,101.59,75.87,98.06,77.41,94.85z M91.58,94.85h9.75v10.47H89.79
	C89.92,101.7,90.54,98.16,91.58,94.85z M105.21,94.85h9.75c1.04,3.3,1.65,6.85,1.79,10.47h-11.54V94.85z M119.03,94.85h10.09
	c1.54,3.2,2.49,6.74,2.74,10.47h-11.23C120.51,101.75,119.97,98.21,119.03,94.85z M74.67,109.21h11.27
	c0.18,3.53,0.78,7.06,1.82,10.47H77.42C75.87,116.47,74.91,112.94,74.67,109.21z M89.82,109.21h11.5v10.47h-9.49
	C90.68,116.31,90.02,112.77,89.82,109.21z M105.21,109.21h11.5c-0.2,3.56-0.86,7.1-2.01,10.47h-9.49V109.21z M120.6,109.21h11.27
	c-0.25,3.73-1.21,7.27-2.74,10.47h-10.34C119.82,116.27,120.42,112.74,120.6,109.21z M79.67,123.56h9.49
	c1.81,4.3,4.39,8.29,7.8,11.67C89.81,133.64,83.69,129.38,79.67,123.56z M93.41,123.56h7.91v10.42
	C97.91,131.06,95.29,127.49,93.41,123.56z M105.21,123.56h7.91c-1.88,3.93-4.5,7.5-7.91,10.42V123.56z M117.38,123.56h9.49
	c-4.02,5.82-10.15,10.07-17.28,11.67C112.99,131.85,115.57,127.86,117.38,123.56z"/>
<path class="st0" d="M65.55,107.16c0.02-14.59,8.44-27.85,21.64-34.07c-1.46-0.03-2.86-1.64-3.83-5.62
	c-0.92-3.99-0.9-8.73-0.75-13.56c0.32-10.11,3.84-33.9-13.09-37.31c-1.59-0.32-3.21-0.47-4.86-0.47
	c-17.52,0.05-37.51,17.78-39.1,38.46C22.7,91.94,10.7,94.19,3.02,121.51c-6.6,23.49-2.79,68.23,15.61,73.36
	c7.88,2.2,17.85-3.33,23.89-8.62c5.28-4.63,12.54-10.17,18.78-13.82c-0.13-0.14-0.24-0.29-0.29-0.49l-2.24-8.27
	c-0.17-0.62,0.2-1.26,0.82-1.43c0.62-0.17,1.26,0.2,1.43,0.82l2.24,8.27c1.48-0.8,2.89-1.47,4.16-1.95
	c9.25-3.54,20.61-2.63,26.85-11.66c3.01-4.36,6.55-10.33,7.58-12.9C81.6,144.03,65.58,127.41,65.55,107.16z M13.14,130.66h3.61v-5.4
	c0-0.64,0.52-1.16,1.16-1.16c0.64,0,1.16,0.52,1.16,1.16v5.4h3.61v6.06c0,0.64-0.52,1.16-1.16,1.16c-0.64,0-1.16-0.52-1.16-1.16
	v-3.73h-4.89v3.73c0,0.64-0.52,1.16-1.16,1.16s-1.16-0.52-1.16-1.16v-6.06H13.14z M14.28,167.2h-2.1v-2.1h2.1V167.2z M14.28,162.81
	h-2.1v-2.1h2.1V162.81z M14.28,158.43h-2.1v-2.1h2.1V158.43z M18.97,167.2h-2.1v-2.1h2.1V167.2z M18.97,162.81h-2.1v-2.1h2.1V162.81
	z M18.97,158.43h-2.1v-2.1h2.1V158.43z M23.66,167.2h-2.1v-2.1h2.1V167.2z M23.66,162.81h-2.1v-2.1h2.1V162.81z M23.66,158.43h-2.1
	v-2.1h2.1V158.43z M36.5,161.56h-7.13v6.69c0,0.64-0.52,1.16-1.16,1.16c-0.64,0-1.16-0.52-1.16-1.16V153.7H23.7v-12.62H12.15v10.29
	h3.05c0.64,0,1.16,0.52,1.16,1.16s-0.52,1.16-1.16,1.16H8.79v14.55c0,0.64-0.52,1.16-1.16,1.16s-1.16-0.52-1.16-1.16v-16.88h3.35
	v-12.62h16.2v12.62h3.35v7.86h7.13c0.64,0,1.16,0.52,1.16,1.16S37.15,161.56,36.5,161.56z M56.55,141.03
	c0.47,0.44,0.49,1.18,0.04,1.65l-10.56,11.14c-2.16,2.28-2.49,5.61-0.95,8.22l6.28-6.94c0.43-0.48,1.17-0.51,1.65-0.08
	c0.48,0.43,0.51,1.17,0.08,1.65l-6.96,7.69l-0.35,6.8c-0.03,0.62-0.55,1.11-1.16,1.11c-0.02,0-0.04,0-0.06,0
	c-0.64-0.03-1.14-0.58-1.1-1.22l0.34-6.78c-2.73-3.45-2.65-8.28,0.19-11.64c-5.32-7.44-6.82-15.67-7.22-18.94
	c-0.17-1.38,0.71-2.67,2-3.07c-0.31-1.98-0.42-5.91-0.3-11.28c0.01-0.63,0.53-1.14,1.16-1.14c0.01,0,0.02,0,0.03,0
	c0.64,0.01,1.15,0.55,1.14,1.19c-0.16,6.95,0.1,9.8,0.27,10.86l0.65-0.09c0.63-0.09,1.23,0.35,1.31,0.99
	c0.09,0.64-0.35,1.23-0.99,1.31l-2.49,0.35c-0.29,0.04-0.49,0.3-0.46,0.59c0.37,3.03,1.74,10.58,6.52,17.48l5.28-5.57
	c-1.55-1.1-3.98-3.47-5.4-8.14c-1.85-6.04-1.81-14.62-1.81-14.98c0-0.64,0.52-1.16,1.16-1.16c0,0,0,0,0.01,0
	c0.64,0,1.16,0.53,1.16,1.17c0,0.09-0.03,8.59,1.71,14.29c1.36,4.44,3.66,6.39,4.79,7.11l2.39-2.53
	C55.35,140.6,56.08,140.59,56.55,141.03z M58.89,137.32h-1.4c-0.64,0-1.16-0.52-1.16-1.16s0.52-1.16,1.16-1.16h1.4
	c0.86,0,1.69-1.03,1.69-2.07v-3.24c0-0.06,0.01-0.11,0.02-0.16c-0.01-0.05-0.02-0.11-0.02-0.16c0-1.59-1.39-2.88-3.1-2.88
	s-3.1,1.29-3.1,2.88c0,0.64-0.52,1.16-1.16,1.16c-0.64,0-1.16-0.52-1.16-1.16c0-0.97,0.28-1.87,0.76-2.65l-1.78-1.78
	c-0.45-0.45-0.45-1.19,0-1.65c0.46-0.46,1.19-0.46,1.65,0l1.76,1.76c0.56-0.36,1.19-0.63,1.88-0.77v-3.04
	c0-0.64,0.52-1.16,1.16-1.16c0.64,0,1.16,0.52,1.16,1.16v3.04c0.68,0.14,1.32,0.41,1.88,0.77l1.76-1.76c0.45-0.46,1.19-0.46,1.65,0
	c0.45,0.45,0.45,1.19,0,1.65l-1.78,1.78c0.28,0.46,0.49,0.95,0.62,1.48h1.75c0.64,0,1.16,0.52,1.16,1.16s-0.52,1.16-1.16,1.16h-1.61
	v2.39C62.92,135,61.26,137.32,58.89,137.32z M82.27,155.26l-4.74,9.35c-0.2,0.4-0.61,0.64-1.04,0.64c-0.13,0-0.26-0.02-0.38-0.07
	l-9.02-3.15c-0.61-0.21-0.93-0.88-0.72-1.48c0.21-0.61,0.88-0.93,1.48-0.72l8.06,2.82l4.28-8.44c0.29-0.57,0.99-0.8,1.57-0.51
	C82.33,153.98,82.56,154.69,82.27,155.26z M37.04,115.82c0-0.64,0.52-1.16,1.16-1.16h7.62c0.64,0,1.16,0.52,1.16,1.16
	s-0.52,1.16-1.16,1.16H38.2C37.56,116.99,37.04,116.46,37.04,115.82z M39.1,113.62c-0.07-0.09-1.79-2.15-1.37-4.78
	c0.3-1.84,1.53-3.43,3.67-4.73l0.61-0.37l0.61,0.37c2.14,1.3,3.37,2.89,3.67,4.73c0.43,2.63-1.29,4.69-1.37,4.78
	c-0.23,0.27-0.56,0.41-0.89,0.41c-0.27,0-0.53-0.09-0.75-0.28c-0.49-0.41-0.55-1.15-0.14-1.64c0.03-0.03,1.11-1.37,0.85-2.92
	c-0.16-0.97-0.83-1.88-1.97-2.7c-1.15,0.82-1.81,1.73-1.97,2.7c-0.26,1.56,0.83,2.91,0.85,2.93c0.41,0.49,0.34,1.23-0.15,1.64
	C40.24,114.17,39.52,114.11,39.1,113.62z M64.57,156.09l6.14-10.88l-2.28-3.42c-0.62-0.93-1.65-1.48-2.77-1.48h-1.62
	c-0.64,0-1.16-0.52-1.16-1.16s0.52-1.16,1.16-1.16h1.62c1.89,0,3.65,0.94,4.7,2.51l2.47,3.7l8.45,3.14l-6.55,12.3L64.57,156.09z
	 M77.98,148.6l-5.37-2l-4.64,8.21l5.65,1.97L77.98,148.6z"/>
<path class="st1" d="M192.41,139.35h-6.82v-1.76l0,0v-0.89c0-0.16,0.1-0.29,0.24-0.36c0.07-0.03,0.14-0.06,0.22-0.06h5.9
	c0.08,0,0.15,0.02,0.22,0.06c0.14,0.07,0.24,0.2,0.24,0.36v0.89l0,0V139.35z M188.79,134.6c0.75-0.03,1.04-0.03,1.07-0.26
	c0.02-0.15-0.07-0.39-0.23-0.8c-0.22-0.58-0.44-1.16-0.76-1.99c-0.32,0.88-0.5,1.55-0.81,2.16c-0.15,0.3-0.2,0.5-0.17,0.64
	C187.95,134.58,188.27,134.62,188.79,134.6z M157.82,117.02v-2.51c0-1.93-1.57-3.49-3.49-3.49s-3.49,1.57-3.49,3.49v2.51
	c1.15-0.36,2.32-0.54,3.49-0.54C155.5,116.48,156.67,116.66,157.82,117.02z M148.83,128.48c-1.36,0.52-2.64,1.23-3.81,2.12v-2.35
	c0-5.13,4.17-9.31,9.31-9.31c5.13,0,9.31,4.17,9.31,9.31v2.35c-1.16-0.89-2.45-1.6-3.81-2.12l0.78-3.17
	c0.06-0.25,0.02-0.5-0.12-0.72s-0.38-0.38-0.64-0.44c-0.52-0.11-1.06,0.21-1.19,0.71l-0.74,3.01c-0.85-0.21-1.72-0.34-2.6-0.39
	v-4.42c0-0.53-0.45-0.96-1-0.96s-1,0.43-1,0.96v4.42c-0.87,0.06-1.73,0.19-2.58,0.39l-0.74-3.01c-0.12-0.51-0.66-0.83-1.18-0.72
	c-0.27,0.06-0.5,0.22-0.64,0.44s-0.18,0.47-0.12,0.72L148.83,128.48z M187.9,194.87c-7.88,2.2-17.85-3.33-23.89-8.62
	c-6.39-5.6-15.66-12.52-22.53-15.84v-27.66c0-7.08,5.76-12.84,12.84-12.84s12.84,5.76,12.84,12.84v29.98c0,0.68,0.55,1.23,1.23,1.23
	s1.23-0.55,1.23-1.23v-4.51c0,0,0,0,0.01,0h10.19c0.59,0,1.06-0.44,1.06-0.97v-20.73c0-0.27,0.24-0.5,0.55-0.5h2.59v5.89
	c0,0.54,0.48,0.97,1.06,0.97s1.06-0.44,1.06-0.97v-7.84h-2.8v-2.78h11.27v2.78h-2.8v7.84c0,0.54,0.48,0.97,1.06,0.97
	s1.06-0.44,1.06-0.97v-5.89h2.59c0.3,0,0.54,0.22,0.54,0.5v20.73c0,0.54,0.48,0.97,1.06,0.97s1.06-0.44,1.06-0.97v-20.73
	c0-1.28-1.08-2.34-2.46-2.43v-4.73h-2.22v-1.76v-0.89c0-1.02-0.71-1.88-1.69-2.21c-0.15-0.02-0.28-0.06-0.39-0.11
	c-0.51-0.21-0.71-0.68-1.15-1.8c-0.49-1.25-0.87-2.54-1.14-3.85l-0.19-2.04c-0.11-1.85-0.11-4.87-0.11-6.59
	c0-1.78-0.01-3.56,0.01-5.33c0.01-0.64-0.04-1.06-0.97-1.06c-0.88,0-1,0.36-0.99,1.03c0.02,3.47,0.01,6.93,0.01,10.4l-0.04,1.72
	c-0.3,1.98-1.38,5.61-2.11,7.48c-0.01,0.01-0.02,0.02-0.02,0.03c-0.29,0.03-0.57,0.1-0.83,0.22c-0.87,0.38-1.47,1.19-1.47,2.12v0.89
	v1.76h-2.22v4.73c-1.37,0.1-2.46,1.15-2.46,2.43v19.76h-9.13c0,0,0,0-0.01,0v-23.52c0-3.56-1.26-7.02-3.54-9.77v-4.73
	c0-4.17-2.23-8.04-5.84-10.16c0.01-0.06,0.02-0.12,0.02-0.19v-3.4c0-2.83-1.97-5.24-4.72-5.82v-6.77c0-0.68-0.55-1.23-1.23-1.23
	s-1.23,0.55-1.23,1.23v6.77c-2.75,0.58-4.72,3-4.72,5.82v3.4c0,0.07,0.01,0.13,0.02,0.19c-3.6,2.12-5.84,5.99-5.84,10.16V133
	c-2.28,2.75-3.54,6.21-3.54,9.77v3.28v2.47v2.41c-0.57,0.56-1.25,0.89-1.95,0.89c-1.24,0-2.42-0.98-3.06-2.55
	c-0.19-0.47-0.64-0.77-1.14-0.77s-0.95,0.3-1.14,0.77c-0.64,1.57-1.82,2.55-3.06,2.55c-1.24,0-2.42-0.98-3.06-2.55
	c-0.19-0.47-0.64-0.77-1.14-0.77s-0.95,0.3-1.14,0.77c-0.64,1.57-1.82,2.55-3.06,2.55c-0.68,0-1.24,0.55-1.24,1.23
	s0.55,1.23,1.24,1.23c1.58,0,3.09-0.78,4.2-2.14c1.11,1.36,2.62,2.14,4.2,2.14c1.58,0,3.09-0.78,4.2-2.14
	c1.11,1.36,2.62,2.14,4.2,2.14c0.67,0,1.33-0.15,1.95-0.42v15.48c-9.23-3.5-20.53-2.62-26.75-11.63c-3-4.34-6.53-10.3-7.57-12.88
	c20.25-0.77,36.27-17.4,36.28-37.66c-0.02-14.59-8.45-27.86-21.65-34.07c1.46-0.03,2.87-1.63,3.83-5.62
	c0.92-3.99,0.9-8.73,0.75-13.56c-0.32-10.11-3.84-33.9,13.09-37.31c1.59-0.32,3.21-0.47,4.86-0.47
	c17.52,0.05,37.51,17.78,39.1,38.46c2.86,37.35,14.86,39.6,22.54,66.92C210.11,145,206.3,189.74,187.9,194.87z M193.19,156.05
	c-0.54,0-0.98,0.38-0.98,0.86v8.05c0,0.47,0.44,0.86,0.98,0.86s0.98-0.38,0.98-0.86v-8.05
	C194.17,156.44,193.73,156.05,193.19,156.05z M189.03,156.05c-0.54,0-0.98,0.38-0.98,0.86v8.05c0,0.47,0.44,0.86,0.98,0.86
	s0.98-0.38,0.98-0.86v-8.05C190.01,156.44,189.57,156.05,189.03,156.05z M184.87,156.05c-0.54,0-0.98,0.38-0.98,0.86v8.05
	c0,0.47,0.44,0.86,0.98,0.86s0.98-0.38,0.98-0.86v-8.05C185.85,156.44,185.41,156.05,184.87,156.05z M158.67,143.4h2.47v-2.43h-2.47
	V143.4z M153.09,143.4h2.47v-2.43h-2.47V143.4z M148.03,143.4h2.47v-2.43h-2.47V143.4z M158.67,149.7h2.47v-2.43h-2.47V149.7z
	 M158.67,156h2.47v-2.43h-2.47V156z M158.67,162.3h2.47v-2.43h-2.47V162.3z M153.09,149.7h2.47v-2.43h-2.47V149.7z M153.09,156h2.47
	v-2.43h-2.47V156z M153.09,162.3h2.47v-2.43h-2.47V162.3z M148.03,149.7h2.47v-2.43h-2.47V149.7z M148.03,156h2.47v-2.43h-2.47V156z
	 M148.03,162.3h2.47v-2.43h-2.47V162.3z"/>
</svg>
