<svg data-name="Management Icon" xmlns="http://www.w3.org/2000/svg" width="72" height="72" viewBox="0 0 72 72">
    <g data-name="Group 2234">
        <path data-name="Path 2596" d="M10.429 40.25a4.1 4.1 0 0 0 1.292-.2 42.487 42.487 0 0 0 9.618-4.25c4.914-3.216 4.914-7.57 4.912-16.244v-1.5a16.279 16.279 0 0 0 4.488-5.41 16.2 16.2 0 0 0 4.338 5.3v1.08c0 8.892 0 13.354 4.944 16.652a42.491 42.491 0 0 0 9.7 4.362 4.164 4.164 0 0 0 1.314.21 3.829 3.829 0 0 0 3.606-2.308 24.954 24.954 0 0 0-1.222-20.368c-3.8-7.712-9.3-10.848-13.232-12.118a4.2 4.2 0 0 0-1.3-.206 3.653 3.653 0 0 0-3.81 3.45v5.15a11.462 11.462 0 0 1-2.836-7.644V2.75a1.5 1.5 0 0 0-3 0v3.458a11.458 11.458 0 0 1-2.99 7.806V9.51a3.617 3.617 0 0 0-3.794-3.4 4.233 4.233 0 0 0-1.28.2c-3.9 1.238-9.348 4.294-13.118 11.808a23.956 23.956 0 0 0-1.212 19.87 3.81 3.81 0 0 0 3.582 2.262zm28.464-32a1.187 1.187 0 0 1 .372.06c3.388 1.09 8.128 3.818 11.466 10.59a21.988 21.988 0 0 1 1.12 17.952 1.026 1.026 0 0 1-1.19.338 39.644 39.644 0 0 1-8.976-4.008c-3.316-2.21-3.592-5.028-3.606-13.2a24.433 24.433 0 0 0 5.146 2.218 1.5 1.5 0 0 0 .748-2.906 20.724 20.724 0 0 1-5.9-2.772V8.7c.004-.158.314-.45.82-.45zM10.741 19.46c3.3-6.578 7.99-9.228 11.344-10.294a1.243 1.243 0 0 1 .372-.056c.494 0 .794.278.794.4v7.106a20.844 20.844 0 0 1-5.774 2.68 1.5 1.5 0 0 0 .746 2.908 24.513 24.513 0 0 0 5.028-2.142c-.006 8.26-.228 11.05-3.554 13.23a39.861 39.861 0 0 1-8.9 3.9 1.087 1.087 0 0 1-1.162-.314 20.988 20.988 0 0 1 1.106-17.418z" transform="translate(5.25 1.25)" style="fill:#fff"/>
        <path data-name="Path 2597" d="M57 23.244c-1.5-1.616-3.79-1.568-5.708.128-3.322 2.936-7.648 5.148-10.75 5.652a4.441 4.441 0 0 0-.21-.988c-.41-1.2-1.666-3.208-5.458-3.208a55.092 55.092 0 0 1-12.624-2.022c-8.234-2.288-17.314 7.486-17.7 7.9a1.5 1.5 0 0 0 2.212 2.026c.082-.088 8.2-8.84 14.676-7.038a58.887 58.887 0 0 0 13.432 2.132c2.216 0 2.52.89 2.622 1.18a1.613 1.613 0 0 1-.228 1.456 1.319 1.319 0 0 1-1.042.6h-8.8a1.5 1.5 0 0 0 0 3h8.8a4.325 4.325 0 0 0 3.484-1.852c.022-.034.034-.072.056-.106 4.3-.156 9.91-3.3 13.514-6.482.3-.268 1.052-.842 1.518-.336a2.557 2.557 0 0 1 .526.984c-1.329 4.112-9.985 12.18-20.62 13.408-14.388 1.664-21.754.046-21.826.028a1.5 1.5 0 0 0-.672 2.924 49.755 49.755 0 0 0 10.234.808 109.845 109.845 0 0 0 12.606-.78C47.033 41.274 57 32.12 58.329 26.67a1.474 1.474 0 0 0 .03-.554A5.659 5.659 0 0 0 57 23.244z" transform="translate(4.164 22.066)" style="fill:#fff"/>
    </g>
</svg>
