<svg xmlns="http://www.w3.org/2000/svg" width="185.374" height="182.501" viewBox="0 0 185.374 182.501">
    <defs>
        <clipPath id="b7mo53c2qa">
            <path data-name="Rectangle 1359" style="fill:#b4b4b4" d="M0 0h28.689v30.501H0z"/>
        </clipPath>
        <clipPath id="sq7azysegb">
            <path data-name="Rectangle 1360" transform="translate(0 .001)" style="fill:#750010" d="M0 0h33.5v27.5H0z"/>
        </clipPath>
        <clipPath id="qkz5w0k1zc">
            <path data-name="Rectangle 1361" transform="translate(0 .001)" style="fill:#b4b4b4" d="M0 0h33.5v27.5H0z"/>
        </clipPath>
        <clipPath id="3e0hmsft2d">
            <path data-name="Rectangle 1362" style="fill:#b4b4b4" d="M0 0h29.624v29.452H0z"/>
        </clipPath>
    </defs>
    <g data-name="Group 2669">
        <g data-name="Group 2660">
            <g data-name="Group 1859">
                <path data-name="Path 1005" d="M195.722 50.223a.556.556 0 0 0-.7-.356 81.686 81.686 0 0 0-51.472 50.065l-1.82-4.247-1.021.439 2.627 6.128 5.922-3.065-.51-.988-4.172 2.161a80.572 80.572 0 0 1 50.79-49.437.555.555 0 0 0 .356-.7z" transform="translate(-123.404 -35.21)" style="fill:#b4b4b4"/>
                <path data-name="Path 1006" d="M142.89 102.362a.558.558 0 0 1-.187-.033.551.551 0 0 1-.323-.3l-2.626-6.129a.555.555 0 0 1 .291-.728l1.021-.439a.555.555 0 0 1 .73.291l1.269 2.962a82.4 82.4 0 0 1 51.343-49.09 1.11 1.11 0 0 1 .686 2.112 80.155 80.155 0 0 0-49.95 47.76l2.905-1.505a.562.562 0 0 1 .424-.036.554.554 0 0 1 .325.274l.51.987a.554.554 0 0 1-.238.748l-5.922 3.066a.556.556 0 0 1-.258.06zm-1.9-6.393 2.173 5.07 1.212-.628a.555.555 0 0 1-.771-.682l.014-.039a.555.555 0 0 1-.5.353.579.579 0 0 1-.528-.336l-1.6-3.737zm7.072 2.533-3.419 1.77 3.419-1.77zm35.33-43.865h-.009zm11.355-4.688a79.5 79.5 0 0 0-11.355 4.688 79.5 79.5 0 0 1 11.355-4.687z" transform="translate(-122.959 -34.765)" style="fill:#b4b4b4"/>
            </g>
            <g data-name="Group 1860">
                <path data-name="Path 1007" d="M381.157 100.419a81.689 81.689 0 0 0-50.066-51.473l4.248-1.82-.439-1.026-6.128 2.627 3.066 5.922.987-.51-2.161-4.172a80.572 80.572 0 0 1 49.437 50.79.555.555 0 0 0 1.056-.343z" transform="translate(-207.063 -33.548)" style="fill:#b4b4b4"/>
                <path data-name="Path 1008" d="M380.184 101.255a1.108 1.108 0 0 1-1.057-.768 80.161 80.161 0 0 0-47.759-49.95l1.5 2.906a.556.556 0 0 1-.238.749l-.988.51a.557.557 0 0 1-.748-.238l-3.065-5.922a.556.556 0 0 1 .274-.766l6.128-2.628a.554.554 0 0 1 .729.291l.439 1.021a.555.555 0 0 1-.292.729l-2.962 1.269A82.406 82.406 0 0 1 381.24 99.8a1.11 1.11 0 0 1-1.056 1.453zm-51.09-52.694 2.536 4.9-1.905-3.678a.555.555 0 0 1 .679-.778l.041.014a.555.555 0 0 1-.028-1.024zm5.07-2.173-3.4 1.46 3.405-1.459z" transform="translate(-206.618 -33.102)" style="fill:#b4b4b4"/>
            </g>
            <g data-name="Group 1861">
                <path data-name="Path 1009" d="m382.811 240.3-2.626-6.128-5.922 3.066.51.987 4.172-2.161a80.576 80.576 0 0 1-50.791 49.436.555.555 0 0 0 .172 1.083.563.563 0 0 0 .172-.027 81.692 81.692 0 0 0 51.474-50.065l1.819 4.247z" transform="translate(-206.617 -117.207)" style="fill:#b4b4b4"/>
                <path data-name="Path 1010" d="M327.881 286.691a1.11 1.11 0 0 1-.343-2.166 80.163 80.163 0 0 0 49.951-47.761l-2.905 1.505a.554.554 0 0 1-.749-.238l-.51-.988a.555.555 0 0 1 .238-.747l5.922-3.066a.561.561 0 0 1 .442-.03.556.556 0 0 1 .323.3l2.626 6.128a.555.555 0 0 1-.29.729l-1.021.439a.555.555 0 0 1-.729-.291l-1.268-2.962a82.4 82.4 0 0 1-51.343 49.089 1.106 1.106 0 0 1-.344.059zm2.839-2.092q-1.408.518-2.838.982 1.431-.466 2.838-.981zm.017-.006-.014.005zm.016-.006h-.009zm.017-.007h-.005zm.017-.006zm48.741-49.086a.555.555 0 0 1 .51.336l1.6 3.736-2.173-5.069-1.206.625a.555.555 0 0 1 .766.685l-.014.037a.554.554 0 0 1 .5-.349zm-4.96 1.538 3-1.554z" transform="translate(-206.172 -116.763)" style="fill:#b4b4b4"/>
            </g>
            <g data-name="Group 1862">
                <path data-name="Path 1011" d="m193.789 279.658-.988.51 2.161 4.173a80.575 80.575 0 0 1-49.437-50.791.555.555 0 0 0-1.056.343 81.694 81.694 0 0 0 50.066 51.474l-4.248 1.819.439 1.021 6.128-2.626z" transform="translate(-125.065 -116.762)" style="fill:#750010"/>
                <path data-name="Path 1012" d="M190.282 288.318a.555.555 0 0 1-.51-.336l-.439-1.021a.554.554 0 0 1 .291-.729l2.961-1.269A82.408 82.408 0 0 1 143.5 233.62a1.11 1.11 0 0 1 2.112-.685 80.162 80.162 0 0 0 47.76 49.95l-1.505-2.906a.556.556 0 0 1 .239-.749l.987-.51a.557.557 0 0 1 .748.238l3.066 5.922a.556.556 0 0 1-.274.766l-6.128 2.626a.548.548 0 0 1-.223.046zm.29-1.284 3.327-1.426zm3.708-2.633a.555.555 0 0 1 .037 1.028l1.325-.567-.629-1.216a.555.555 0 0 1-.682.774zm-1.175-4.438 1.83 3.534-1.829-3.534z" transform="translate(-124.62 -116.317)" style="fill:#750010"/>
            </g>
            <g data-name="Group 1864">
                <path data-name="Path 1013" d="m206.291 71.023-.437 1.021 4.253 1.814A67.117 67.117 0 0 0 169.371 116a.555.555 0 0 0 .356.7.562.562 0 0 0 .172.027.555.555 0 0 0 .528-.384 66 66 0 0 1 40.1-41.452l-2.153 4.173.988.509 3.056-5.926z" transform="translate(-136.142 -44.633)" style="fill:#750010"/>
                <path data-name="Path 1014" d="M169.454 116.831a1.111 1.111 0 0 1-1.056-1.453 67.833 67.833 0 0 1 39.773-42l-2.979-1.27a.556.556 0 0 1-.293-.729l.437-1.022a.555.555 0 0 1 .728-.293l6.132 2.618a.555.555 0 0 1 .275.765l-3.056 5.927a.553.553 0 0 1-.748.239l-.988-.509a.554.554 0 0 1-.239-.748l1.492-2.893a65.589 65.589 0 0 0-38.423 40.6 1.107 1.107 0 0 1-1.055.768zm.542-2.71q-.282.8-.542 1.6.261-.804.546-1.6zm0-.014v.012zm0-.013v.008zm0-.013zm0-.014zm38.667-35.693 2.529-4.9-5.073-2.165 3.742 1.6a.555.555 0 0 1-.019 1.029l.037-.013a.555.555 0 0 1 .683.776z" transform="translate(-135.697 -44.187)" style="fill:#750010"/>
            </g>
            <g data-name="Group 1865">
                <path data-name="Path 1015" d="m364.357 111.25-1.814 4.252a67.121 67.121 0 0 0-42.136-40.736.555.555 0 1 0-.343 1.056 66.007 66.007 0 0 1 41.452 40.106l-4.173-2.153-.508.988 5.927 3.056 2.618-6.132z" transform="translate(-203.018 -46.285)" style="fill:#b4b4b4"/>
                <path data-name="Path 1016" d="M362.317 117.93a.551.551 0 0 1-.255-.062l-5.927-3.056a.555.555 0 0 1-.239-.748l.509-.988a.555.555 0 0 1 .748-.239l2.892 1.492a65.594 65.594 0 0 0-40.6-38.423 1.11 1.11 0 0 1 .683-2.112 67.839 67.839 0 0 1 42 39.773l1.27-2.979a.556.556 0 0 1 .729-.292l1.022.436a.555.555 0 0 1 .292.728l-2.617 6.132a.556.556 0 0 1-.323.3.55.55 0 0 1-.184.038zm-1.483-1.944 1.206.622.563-1.319a.533.533 0 0 1-.52.325.556.556 0 0 1-.5-.356l.013.037a.556.556 0 0 1-.759.691zm-3.7-1.906 2.85 1.47-2.85-1.471zm7.067-2.545-1.328 3.114 1.33-3.114z" transform="translate(-202.573 -45.841)" style="fill:#b4b4b4"/>
            </g>
            <g data-name="Group 1866">
                <path data-name="Path 1017" d="M363.377 225.1a.555.555 0 0 0-.7.356 66 66 0 0 1-40.106 41.453l2.153-4.173-.988-.508-3.056 5.927 6.132 2.617.437-1.021L323 267.94a67.122 67.122 0 0 0 40.734-42.14.555.555 0 0 0-.357-.7z" transform="translate(-203.464 -113.163)" style="fill:#b4b4b4"/>
                <path data-name="Path 1018" d="M326.368 270.885a.552.552 0 0 1-.218-.044l-6.132-2.617a.555.555 0 0 1-.276-.765l3.057-5.927a.553.553 0 0 1 .747-.239l.988.508a.555.555 0 0 1 .239.748l-1.492 2.893a65.591 65.591 0 0 0 38.423-40.6 1.111 1.111 0 0 1 1.4-.713 1.112 1.112 0 0 1 .713 1.4 67.839 67.839 0 0 1-39.772 42l2.978 1.27a.555.555 0 0 1 .293.729l-.437 1.021a.556.556 0 0 1-.511.336zm-2.725-2.322 2.433 1.039zM321 267.437l1.315.56a.554.554 0 0 1 .046-1.024q1.154-.42 2.288-.881-1.157.47-2.335.9a.555.555 0 0 1-.683-.777l1.9-3.68zm41.757-42.251a65 65 0 0 1-3.5 8.623 65.065 65.065 0 0 0 3.5-8.623z" transform="translate(-203.019 -112.718)" style="fill:#b4b4b4"/>
            </g>
            <g data-name="Group 1867">
                <path data-name="Path 1019" d="M210.942 268.073a66.005 66.005 0 0 1-41.452-40.105l4.173 2.153.509-.988-5.926-3.056-2.618 6.132 1.021.437 1.814-4.252A67.124 67.124 0 0 0 210.6 269.13a.562.562 0 0 0 .172.027.555.555 0 0 0 .171-1.084z" transform="translate(-134.489 -113.608)" style="fill:#b4b4b4"/>
                <path data-name="Path 1020" d="M210.326 269.267a1.122 1.122 0 0 1-.342-.054 67.838 67.838 0 0 1-42-39.773l-1.27 2.979a.556.556 0 0 1-.729.292l-1.021-.437a.556.556 0 0 1-.292-.728l2.618-6.132a.556.556 0 0 1 .765-.275l5.927 3.057a.555.555 0 0 1 .239.748l-.509.988a.553.553 0 0 1-.324.274.546.546 0 0 1-.424-.035l-2.893-1.493a65.593 65.593 0 0 0 40.6 38.423 1.111 1.111 0 0 1-.343 2.167zm-2.837-2.105q1.4.529 2.837.995l.171-.529-.171.529q-1.433-.466-2.837-.995zm-.012 0h.012zm-41.567-35.69 1.187-2.782zm3.134-4.5a.547.547 0 0 1 .255.062l3.679 1.9-4.9-2.529-.562 1.319a.555.555 0 0 1 1.023.032l-.013-.037a.555.555 0 0 1 .521-.744z" transform="translate(-134.044 -113.163)" style="fill:#b4b4b4"/>
            </g>
            <g data-name="Group 1869">
                <path data-name="Path 1021" d="m255.287 192.907-2.177 4.161c-3.8-13.633-5.886-31.653-5.886-50.918 0-20.05 2.364-39.375 6.486-53.02a.555.555 0 1 0-1.063-.321c-4.152 13.745-6.534 33.186-6.534 53.341 0 19.336 2.1 37.437 5.911 51.159l-3.928-2.437-.585.945 5.666 3.513 3.093-5.908z" transform="translate(-170.293 -54.149)" style="fill:#b4b4b4"/>
                <path data-name="Path 1022" d="M252.733 199.441a.549.549 0 0 1-.292-.084l-5.667-3.513a.555.555 0 0 1-.18-.764l.585-.945a.556.556 0 0 1 .765-.179l2.732 1.695c-3.591-13.6-5.562-31.259-5.562-49.946 0-20.207 2.39-39.708 6.558-53.5a1.11 1.11 0 1 1 2.125.642c-4.107 13.594-6.463 32.86-6.463 52.859 0 18.518 1.948 35.987 5.5 49.4l1.52-2.906a.556.556 0 0 1 .326-.273.547.547 0 0 1 .424.038l.984.516a.555.555 0 0 1 .234.749l-3.093 5.908a.556.556 0 0 1-.345.278.573.573 0 0 1-.151.025zm-1.428-2.094 1.213.752.635-1.213a.555.555 0 0 1-1.024-.114l-.012-.046a.555.555 0 0 1-.812.621zm3.771-4.135-1.835 3.507 1.836-3.507zm-7.245 1.981 2.254 1.4-2.253-1.4zm-1.607-49.336zm0-.122zm0-.3z" transform="translate(-169.848 -53.704)" style="fill:#b4b4b4"/>
            </g>
            <g data-name="Group 1870">
                <path data-name="Path 1023" d="m307.46 95.435 3.928 2.437.585-.945-5.667-3.513-3.093 5.908.984.516 2.177-4.16c3.8 13.632 5.886 31.652 5.886 50.917 0 20.049-2.364 39.375-6.487 53.02a.555.555 0 1 0 1.063.321c4.153-13.745 6.534-33.187 6.534-53.341.001-19.336-2.098-37.439-5.91-51.16z" transform="translate(-195.694 -54.592)" style="fill:#b4b4b4"/>
                <path data-name="Path 1024" d="M305.861 200.441a1.114 1.114 0 0 1-.323-.048 1.11 1.11 0 0 1-.74-1.384c4.107-13.6 6.463-32.862 6.463-52.859 0-18.519-1.947-35.987-5.5-49.4l-1.52 2.905a.557.557 0 0 1-.75.234l-.984-.516a.554.554 0 0 1-.234-.749l3.092-5.908a.554.554 0 0 1 .345-.278.561.561 0 0 1 .439.064l5.667 3.513a.555.555 0 0 1 .179.764l-.585.945a.555.555 0 0 1-.765.179l-2.726-1.703c3.591 13.6 5.562 31.258 5.562 49.945 0 20.206-2.39 39.707-6.558 53.5a1.1 1.1 0 0 1-1.062.796zm6.51-54.261zm0-.17zm0-.028zm-8.853-47.338 1.919-3.668a.556.556 0 0 1 1.027.109l.01.037a.555.555 0 0 1 .832-.6l3.457 2.143-4.688-2.906z" transform="translate(-195.249 -54.148)" style="fill:#b4b4b4"/>
            </g>
            <g data-name="Group 1873">
                <path data-name="Path 1027" d="M294.91 211.588a.557.557 0 0 0-.691-.372c-13.66 4.1-32.982 6.458-53.012 6.458-19.247 0-37.265-2.081-50.912-5.86l4.16-2.183-.517-.984-5.9 3.1 3.52 5.663.944-.586-2.44-3.924c13.734 3.794 31.832 5.884 51.148 5.884 20.134 0 39.573-2.37 53.332-6.5a.555.555 0 0 0 .368-.696z" transform="translate(-144.457 -105.855)" style="fill:#b4b4b4"/>
                <path data-name="Path 1028" d="M240.761 218.895c-18.668 0-36.324-1.962-49.934-5.537l1.7 2.729a.555.555 0 0 1-.178.764l-.945.586a.554.554 0 0 1-.764-.178l-3.52-5.663a.555.555 0 0 1 .213-.785l5.9-3.1a.557.557 0 0 1 .749.233l.517.983a.556.556 0 0 1-.233.751l-2.905 1.524c13.43 3.533 30.9 5.472 49.4 5.472 19.979 0 39.243-2.345 52.853-6.434a1.111 1.111 0 0 1 .639 2.127c-13.81 4.148-33.307 6.528-53.492 6.528zm-.169-1.11zm-51.324-4.831 2.02 3.249zm-.893-1.436.761 1.225a.555.555 0 0 1 .032-.618.561.561 0 0 1 .583-.205l-.05-.014a.555.555 0 0 1-.127-1.018zm106.089-.373-.532.159zm-101.206-2.191-2.633 1.382 2.633-1.381z" transform="translate(-144.012 -105.41)" style="fill:#b4b4b4"/>
            </g>
            <g data-name="Group 1872">
                <path data-name="Path 1025" d="m290.412 152.884-.944.586 2.441 3.924c-13.734-3.794-31.832-5.884-51.148-5.884-20.136 0-39.574 2.37-53.332 6.5a.555.555 0 0 0 .319 1.064c13.659-4.1 32.981-6.458 53.013-6.458 19.247 0 37.265 2.081 50.911 5.86l-4.16 2.183.517.983 5.9-3.1z" transform="translate(-144.011 -80.437)" style="fill:#750010"/>
                <path data-name="Path 1026" d="M287.585 161.757a.555.555 0 0 1-.492-.3l-.517-.983a.555.555 0 0 1 .234-.751l2.905-1.524c-13.429-3.532-30.9-5.472-49.4-5.472-19.979 0-39.243 2.345-52.854 6.434a1.128 1.128 0 0 1-1.382-.744 1.112 1.112 0 0 1 .744-1.383c13.808-4.148 33.3-6.528 53.492-6.528 18.667 0 36.324 1.962 49.932 5.537l-1.7-2.729a.555.555 0 0 1 .179-.765l.944-.585a.555.555 0 0 1 .764.178l3.521 5.663a.555.555 0 0 1-.213.785l-5.9 3.1a.559.559 0 0 1-.257.067zm.232-1.305 2.819-1.481zm3.511-2.964.047.013a.555.555 0 0 1 .123 1.019l1.2-.631-2.913-4.685 2.147 3.452a.555.555 0 0 1-.606.832zm-51.012-5.867c-20.083 0-39.464 2.362-53.173 6.481 13.71-4.119 33.09-6.482 53.173-6.482zm.123 0z" transform="translate(-143.566 -79.992)" style="fill:#750010"/>
            </g>
        </g>
        <g data-name="Group 2662">
            <g data-name="Group 2661" style="clip-path:url(#b7mo53c2qa)" transform="translate(83.75 152)">
                <path data-name="Path 2786" d="M28.3 21.456c-.1-.639-.2-1.3-.282-1.981-.025-.219-.929-9.21-.929-9.215-.367-3.4-.974-4.87-2.944-5.446a2.387 2.387 0 0 1 .382-.532 2.6 2.6 0 0 0 .779-2.391.75.75 0 0 0-1.473.286c.093.476-.07.69-.445 1.13a3.123 3.123 0 0 0-.736 1.248c-.554-.05-1.17-.074-1.879-.074-.409 0-.793.006-1.154.021a.763.763 0 0 0 .012-.173 2.82 2.82 0 0 1 .17-1.641A4.3 4.3 0 0 0 20.1.7a.75.75 0 0 0-1.5.1 2.828 2.828 0 0 1-.213 1.373 4.234 4.234 0 0 0-.246 2.36.563.563 0 0 0 .035.105 3.642 3.642 0 0 0-3.145 2.117c-.843-1.131-2.331-1.81-4.531-2.087a.728.728 0 0 0 .043-.132 4.234 4.234 0 0 0-.246-2.36A2.829 2.829 0 0 1 10.083.8a.75.75 0 0 0-1.5-.1 4.3 4.3 0 0 0 .3 1.99 2.817 2.817 0 0 1 .173 1.641.68.68 0 0 0 .013.221 22.574 22.574 0 0 0-3.023.05A3.083 3.083 0 0 0 5.3 3.306c-.377-.44-.538-.654-.447-1.131a.749.749 0 0 0-1.472-.283 2.6 2.6 0 0 0 .78 2.389 2.729 2.729 0 0 1 .376.508 5.822 5.822 0 0 0-3.493 1.73C-.42 8.224-.046 10.681.386 13.525c.1.639.2 1.3.284 1.987.33 2.681.524 4.879.68 6.646.594 6.742.734 8.342 6.574 8.342h11.583a2.871 2.871 0 0 0 .306-.037h.961c3.516 0 5.7-.635 6.87-2 1.467-1.707 1.092-4.164.657-7.009m-7.728 6.969a1.391 1.391 0 0 1-.83.539L9.156 29a1.334 1.334 0 0 1-1.041-.572 1.8 1.8 0 0 1-.247-1.6C9.76 20.9 12.12 17.5 14.345 17.5s4.584 3.4 6.474 9.329a1.786 1.786 0 0 1-.246 1.595m-17.729-6.4c-.157-1.778-.352-3.991-.685-6.7-.087-.7-.19-1.377-.289-2.029-.394-2.581-.7-4.62.313-5.8.854-.995 2.732-1.474 5.741-1.474 5.39 0 6.31 1.559 6.466 3.26-.164 1.178-.274 2.655-.411 4.52l-.172 2.249c-3.506.5-5.93 5.819-7.366 10.324a3.281 3.281 0 0 0 .284 2.614c-3.263-.083-3.339-.8-3.881-6.962m23.663 5.461c-.729.848-2.215 1.321-4.509 1.44a3.286 3.286 0 0 0 .25-2.553c-1.376-4.321-3.665-9.386-6.943-10.236l.171-2.227c.137-1.884.246-3.373.411-4.514v-.009c.432-2.993 1.026-3.407 4.887-3.407a16.835 16.835 0 0 1 2.349.111.776.776 0 0 0 .139.025c1.724.306 2.011 1.282 2.336 4.3 0 0 .911 9.059.931 9.236.087.7.19 1.378.289 2.03.394 2.582.7 4.621-.311 5.805" style="fill:#b4b4b4"/>
                <path data-name="Path 2787" d="M14.344 21.733a3.017 3.017 0 1 0 3.018 3.017 3.021 3.021 0 0 0-3.018-3.017m0 4.535a1.518 1.518 0 1 1 1.518-1.518 1.52 1.52 0 0 1-1.518 1.518" style="fill:#b4b4b4"/>
            </g>
        </g>
        <g data-name="Group 2664">
            <g data-name="Group 2663" style="clip-path:url(#sq7azysegb)" transform="translate(0 78.25)">
                <path data-name="Path 2788" d="M6.895 17.793a.75.75 0 0 1-.229-1.464C6.759 16.3 16 13.234 16 5.147a.75.75 0 0 1 1.5 0c0 9.19-10.273 12.578-10.377 12.611a.784.784 0 0 1-.228.035" style="fill:#750010"/>
                <path data-name="Path 2789" d="M12.557 12.661a8 8 0 0 1-3.943-1.2.75.75 0 0 1 .786-1.279c.036.023 3.653 2.219 5.235-.036a.75.75 0 0 1 1.228.862 3.844 3.844 0 0 1-3.311 1.653" style="fill:#750010"/>
                <path data-name="Path 2790" d="M26.2 17.639a.745.745 0 0 1-.253-.044C25.843 17.559 16 13.921 16 4.75v-4a.75.75 0 0 1 1.5 0v4c0 8.107 8.86 11.4 8.949 11.433a.75.75 0 0 1-.254 1.456" style="fill:#750010"/>
                <path data-name="Path 2791" d="M21.141 12.665a3.917 3.917 0 0 1-3.485-1.833.75.75 0 1 1 1.262-.81c1.584 2.47 5.42.184 5.459.161a.75.75 0 1 1 .778 1.282 8.279 8.279 0 0 1-4.014 1.2" style="fill:#750010"/>
                <path data-name="Path 2792" d="M5.97 22.471a.946.946 0 0 0 .452-.115c1.715-.916.114-4.187 2.59-5.467a1.474 1.474 0 0 0 .208-.982.316.316 0 0 0-.271-.157.3.3 0 0 0-.127.028c-.221.1-.375-.15-.572-.028a8.865 8.865 0 0 0-1.435.554 1.813 1.813 0 0 1-1.473-.173.91.91 0 0 0-.822-.043 1.036 1.036 0 0 0-.575.677 4.58 4.58 0 0 0-.19 1.171.663.663 0 0 0 .239.614.643.643 0 0 0 .4.124 2.425 2.425 0 0 0 1.127-.415c.44-.258.8-.454 1.171-.636a16.126 16.126 0 0 0-.814 1.947c-.321.768-.233.781-.726 1.187a.9.9 0 0 0-.352.7.86.86 0 0 0 .352.692 1.393 1.393 0 0 0 .818.322z" style="fill:#750010"/>
                <path data-name="Path 2793" d="M3.2 27.5a2.278 2.278 0 0 1-2.161-1.417 17.479 17.479 0 0 1 .8-13.756c2.467-5.216 6.034-7.337 8.592-8.2A2.489 2.489 0 0 1 11.22 4a2.194 2.194 0 0 1 2.28 2.092v7.1c0 6.01 0 9.024-3.145 11.208A27.409 27.409 0 0 1 4 27.368a2.443 2.443 0 0 1-.8.132m8.017-22a1 1 0 0 0-.312.052c-2.28.767-5.471 2.677-7.714 7.416a16 16 0 0 0-.748 12.589.873.873 0 0 0 1.068.392A25.993 25.993 0 0 0 9.5 23.165c2.5-1.736 2.5-4.147 2.5-9.972v-7.1c0-.321-.357-.592-.78-.592" style="fill:#750010"/>
                <path data-name="Path 2794" d="M27.531 22.471a.946.946 0 0 1-.452-.115c-1.715-.916-.114-4.187-2.59-5.467a1.474 1.474 0 0 1-.208-.982.316.316 0 0 1 .271-.157.3.3 0 0 1 .127.028c.221.1.375-.15.572-.028a8.865 8.865 0 0 1 1.435.554 1.813 1.813 0 0 0 1.473-.173.91.91 0 0 1 .822-.043 1.036 1.036 0 0 1 .575.677 4.58 4.58 0 0 1 .19 1.171.663.663 0 0 1-.239.614.643.643 0 0 1-.4.124 2.425 2.425 0 0 1-1.127-.415c-.44-.258-.8-.454-1.171-.636a16.126 16.126 0 0 1 .814 1.947c.321.768.233.781.726 1.187a.9.9 0 0 1 .352.7.86.86 0 0 1-.352.692 1.393 1.393 0 0 1-.818.322z" style="fill:#750010"/>
                <path data-name="Path 2795" d="M30.3 27.5a2.475 2.475 0 0 1-.8-.132 27.425 27.425 0 0 1-6.355-2.968C20 22.213 20 19.2 20 13.193v-7.1A2.194 2.194 0 0 1 22.281 4a2.471 2.471 0 0 1 .786.129c2.56.861 6.127 2.982 8.6 8.2a17.484 17.484 0 0 1 .8 13.756A2.283 2.283 0 0 1 30.3 27.5m-8.018-22c-.423 0-.78.271-.78.592v7.1c0 5.829 0 8.24 2.5 9.976a25.949 25.949 0 0 0 5.983 2.783.862.862 0 0 0 1.071-.392 15.992 15.992 0 0 0-.748-12.588c-2.244-4.739-5.434-6.649-7.716-7.417a1.007 1.007 0 0 0-.31-.051" style="fill:#750010"/>
                <path data-name="Path 2796" d="M27.75 12.75a1 1 0 1 1-1 1 1 1 0 0 1 1-1" style="fill:#750010"/>
                <path data-name="Path 2797" d="M23.75 19a.75.75 0 1 1-.75.75.75.75 0 0 1 .75-.75" style="fill:#750010"/>
                <path data-name="Path 2798" d="M9.75 19a.75.75 0 1 1-.75.75.75.75 0 0 1 .75-.75" style="fill:#750010"/>
                <path data-name="Path 2799" d="M5.75 12.75a1 1 0 1 1-1 1 1 1 0 0 1 1-1" style="fill:#750010"/>
            </g>
        </g>
        <g data-name="Group 2666">
            <g data-name="Group 2665" style="clip-path:url(#qkz5w0k1zc)" transform="translate(80 -.001)">
                <path data-name="Path 2800" d="M30.3 27.5a2.475 2.475 0 0 1-.8-.132 27.425 27.425 0 0 1-6.355-2.968C20 22.213 20 19.2 20 13.193v-7.1A2.194 2.194 0 0 1 22.281 4a2.471 2.471 0 0 1 .786.129c2.56.861 6.127 2.982 8.6 8.2a17.484 17.484 0 0 1 .8 13.756A2.283 2.283 0 0 1 30.3 27.5m-8.018-22c-.423 0-.78.271-.78.592v7.1c0 5.829 0 8.24 2.5 9.976a25.949 25.949 0 0 0 5.983 2.783.862.862 0 0 0 1.071-.392 15.992 15.992 0 0 0-.748-12.588c-2.244-4.739-5.434-6.649-7.716-7.417a1.007 1.007 0 0 0-.31-.051" style="fill:#b4b4b4"/>
                <path data-name="Path 2801" d="M3.2 27.5a2.278 2.278 0 0 1-2.161-1.417 17.482 17.482 0 0 1 .8-13.757c2.467-5.215 6.034-7.336 8.592-8.2A2.489 2.489 0 0 1 11.22 4a2.194 2.194 0 0 1 2.28 2.092v7.1c0 6.01 0 9.024-3.145 11.208A27.409 27.409 0 0 1 4 27.368a2.443 2.443 0 0 1-.8.132m8.017-22a1 1 0 0 0-.312.052c-2.28.767-5.471 2.677-7.714 7.416a16 16 0 0 0-.748 12.589.873.873 0 0 0 1.068.392A25.993 25.993 0 0 0 9.5 23.165c2.5-1.736 2.5-4.147 2.5-9.972v-7.1c0-.321-.357-.592-.78-.592" style="fill:#b4b4b4"/>
                <path data-name="Path 2802" d="M6.317 17.793a.75.75 0 0 1-.217-1.468c.1-.03 9.9-3.1 9.9-11.178a.75.75 0 0 1 1.5 0c0 9.2-10.858 12.581-10.967 12.614a.746.746 0 0 1-.217.032" style="fill:#b4b4b4"/>
                <path data-name="Path 2803" d="M12.489 12.72a7.462 7.462 0 0 1-3.9-1.278.75.75 0 0 1 .839-1.242c.142.094 3.5 2.3 5.148-.049a.75.75 0 1 1 1.228.862 3.863 3.863 0 0 1-3.315 1.709" style="fill:#b4b4b4"/>
                <path data-name="Path 2804" d="M27.159 17.793a.753.753 0 0 1-.242-.04C26.472 17.6 16 13.932 16 4.751v-4a.75.75 0 0 1 1.5 0v4c0 8.1 9.8 11.548 9.9 11.582a.75.75 0 0 1-.241 1.46" style="fill:#b4b4b4"/>
                <path data-name="Path 2805" d="M21.249 12.726a4.411 4.411 0 0 1-.9-.089 3.9 3.9 0 0 1-2.543-1.807.75.75 0 1 1 1.261-.811 2.422 2.422 0 0 0 1.582 1.148 5.885 5.885 0 0 0 3.7-.967.75.75 0 0 1 .833 1.247 8.042 8.042 0 0 1-3.934 1.279" style="fill:#b4b4b4"/>
                <path data-name="Path 2806" d="M24.75 18.75a1 1 0 1 1-1 1 1 1 0 0 1 1-1" style="fill:#b4b4b4"/>
                <path data-name="Path 2807" d="M27.75 12.75a1 1 0 1 1-1 1 1 1 0 0 1 1-1" style="fill:#b4b4b4"/>
                <path data-name="Path 2808" d="M29.25 19.15a1.1 1.1 0 1 1-1.1 1.1 1.1 1.1 0 0 1 1.1-1.1" style="fill:#b4b4b4"/>
                <path data-name="Path 2809" d="M8.75 18.75a1 1 0 1 1-1 1 1 1 0 0 1 1-1" style="fill:#b4b4b4"/>
                <path data-name="Path 2810" d="M5.75 12.75a1 1 0 1 1-1 1 1 1 0 0 1 1-1" style="fill:#b4b4b4"/>
                <path data-name="Path 2811" d="M4.25 19.15a1.1 1.1 0 1 1-1.1 1.1 1.1 1.1 0 0 1 1.1-1.1" style="fill:#b4b4b4"/>
            </g>
        </g>
        <g data-name="Group 2668">
            <g data-name="Group 2667" style="clip-path:url(#3e0hmsft2d)" transform="translate(155.75 77.274)">
                <path data-name="Path 2812" d="M4.559 24.8a.75.75 0 0 1-.593-.29 16 16 0 0 1-2.83-4.81l-.078-.238a15.284 15.284 0 0 1-1.052-5.4 14.6 14.6 0 0 1 1.64-5.634 13.222 13.222 0 0 1 3.642-4.4A14.489 14.489 0 0 1 10.1 1.451c.341-.12.683-.257 1.024-.394A11.309 11.309 0 0 1 15.394 0 12.276 12.276 0 0 1 21 1.506a.75.75 0 1 1-.681 1.337A10.826 10.826 0 0 0 15.394 1.5a10.132 10.132 0 0 0-3.711.949c-.361.145-.722.29-1.083.417a13.138 13.138 0 0 0-4.338 2.3A11.9 11.9 0 0 0 3 9.069a13.224 13.224 0 0 0-1.5 5.046 14.105 14.105 0 0 0 .978 4.874l.078.24a14.747 14.747 0 0 0 2.59 4.359.75.75 0 0 1-.592 1.21" style="fill:#b4b4b4"/>
                <path data-name="Path 2813" d="M13.9 29.452a12.566 12.566 0 0 1-5.779-1.108A.75.75 0 0 1 8.784 27a11.123 11.123 0 0 0 5.062.954 15.424 15.424 0 0 0 5.041-.647l.282-.1a15.72 15.72 0 0 0 4.43-2.047 11.48 11.48 0 0 0 3.325-4.153 12.654 12.654 0 0 0 1.186-5.15 14.33 14.33 0 0 0-.672-5.2A14.362 14.362 0 0 0 24.728 6a.75.75 0 1 1 1.151-.962 16 16 0 0 1 2.979 5.135 15.807 15.807 0 0 1 .75 5.747 14.1 14.1 0 0 1-1.338 5.751 12.979 12.979 0 0 1-3.77 4.692 16.808 16.808 0 0 1-4.841 2.264l-.286.1a16.615 16.615 0 0 1-5.469.728" style="fill:#b4b4b4"/>
                <path data-name="Path 2814" d="M15.2 12.08c-2.168 0-3.932-1.407-3.932-3.137s1.768-3.136 3.932-3.136 3.932 1.407 3.932 3.136-1.76 3.137-3.932 3.137m0-4.773c-1.318 0-2.432.75-2.432 1.636s1.118 1.637 2.432 1.637 2.432-.75 2.432-1.637-1.11-1.636-2.432-1.636" style="fill:#b4b4b4"/>
                <path data-name="Path 2815" d="M15.03 15.712a.748.748 0 0 1-.329-.077 6.663 6.663 0 0 1-3.382-7.167.75.75 0 0 1 1.479.255 5.152 5.152 0 0 0 2.566 5.567.75.75 0 0 1-.334 1.422" style="fill:#b4b4b4"/>
                <path data-name="Path 2816" d="M18.679 22.638a2.694 2.694 0 0 1-1.807-.648 2.871 2.871 0 0 1-.9-2.424 4.489 4.489 0 0 1 1.128-2.577c1.424-1.621 3.637-2.018 4.929-.882a2.872 2.872 0 0 1 .9 2.424 4.489 4.489 0 0 1-1.129 2.577 4.27 4.27 0 0 1-3.12 1.53m-.447-4.66a3.028 3.028 0 0 0-.769 1.7 1.422 1.422 0 0 0 .4 1.183c.663.58 1.949.238 2.812-.744a3.028 3.028 0 0 0 .77-1.7 1.42 1.42 0 0 0-.4-1.182c-.664-.578-1.951-.239-2.813.745" style="fill:#b4b4b4"/>
                <path data-name="Path 2817" d="M21.859 17.786a.749.749 0 0 1-.648-.371c-1.443-2.465-6.008-1.72-6.053-1.713a.75.75 0 0 1-.254-1.479c.23-.038 5.636-.927 7.6 2.434a.75.75 0 0 1-.646 1.129" style="fill:#b4b4b4"/>
                <path data-name="Path 2818" d="M10.067 21.148a3.143 3.143 0 0 1-1.48-.388 4.478 4.478 0 0 1-1.895-2.073c-.908-1.95-.38-4.127 1.176-4.851s3.563.272 4.47 2.222a4.471 4.471 0 0 1 .368 2.784 2.864 2.864 0 0 1-1.543 2.068 2.589 2.589 0 0 1-1.1.238M8.5 15.195c-.793.37-1 1.679-.449 2.859A3.013 3.013 0 0 0 9.3 19.438a1.4 1.4 0 0 0 1.234.112 1.409 1.409 0 0 0 .709-1.017 3.012 3.012 0 0 0-.259-1.842c-.55-1.18-1.684-1.864-2.478-1.5" style="fill:#b4b4b4"/>
                <path data-name="Path 2819" d="M10.15 21.149a.75.75 0 0 1-.051-1.5c3.639-.253 4.167-4.586 4.187-4.771a.756.756 0 0 1 .828-.663.748.748 0 0 1 .663.825c-.214 1.993-1.655 5.833-5.574 6.1h-.053" style="fill:#b4b4b4"/>
                <path data-name="Path 2820" d="M24.4.7a.893.893 0 1 1-.893.893A.893.893 0 0 1 24.4.7" style="fill:#b4b4b4"/>
                <path data-name="Path 2821" d="M28.009 1.6a.893.893 0 1 1-.893.893.893.893 0 0 1 .893-.893" style="fill:#b4b4b4"/>
                <path data-name="Path 2822" d="M4.551 26.867a.893.893 0 1 1-.893.893.893.893 0 0 1 .893-.893" style="fill:#b4b4b4"/>
                <path data-name="Path 2823" d="M.942 25.965a.893.893 0 1 1-.893.893.893.893 0 0 1 .893-.893" style="fill:#b4b4b4"/>
            </g>
        </g>
    </g>
</svg>
