<svg xmlns="http://www.w3.org/2000/svg" width="403.562" height="340.29" viewBox="0 0 403.562 340.29">
    <g data-name="Group 2223">
        <g data-name="Group 2224">
            <g data-name="Group 1863">
                <g data-name="Group 1859">
                    <path data-name="Path 1005" d="M251.938 50.615a1.123 1.123 0 0 0-1.414-.721 165.157 165.157 0 0 0-104.071 101.225l-3.679-8.588-2.064.888 5.311 12.39 11.973-6.2-1.032-2-8.435 4.369a162.9 162.9 0 0 1 102.69-99.949 1.122 1.122 0 0 0 .721-1.414z" transform="translate(-115.675 -39.345)" style="fill:#fcc454"/>
                    <path data-name="Path 1006" d="M146.142 157.054a1.128 1.128 0 0 1-.378-.066 1.115 1.115 0 0 1-.652-.615l-5.312-12.391a1.122 1.122 0 0 1 .588-1.473l2.064-.888a1.123 1.123 0 0 1 1.475.589l2.566 5.989A166.605 166.605 0 0 1 250.3 48.948a2.245 2.245 0 0 1 1.386 4.271 162.062 162.062 0 0 0-100.992 96.564l5.874-3.043a1.135 1.135 0 0 1 .856-.073 1.12 1.12 0 0 1 .657.554l1.032 2a1.121 1.121 0 0 1-.48 1.512l-11.974 6.2a1.124 1.124 0 0 1-.517.121zm-3.837-12.925 4.393 10.25 2.451-1.269a1.122 1.122 0 0 1-1.559-1.38l.029-.08a1.122 1.122 0 0 1-1.01.713 1.171 1.171 0 0 1-1.067-.68l-3.236-7.555zm14.3 5.122-6.912 3.579 6.913-3.578zm71.431-88.689-.018.009zm22.959-9.479a160.741 160.741 0 0 0-22.957 9.478 160.735 160.735 0 0 1 22.957-9.477z" transform="translate(-115.798 -39.467)" style="fill:#fcc454"/>
                </g>
                <g data-name="Group 1860">
                    <path data-name="Path 1007" d="M434.687 155.92A165.164 165.164 0 0 0 333.462 51.849l8.588-3.679-.887-2.064-12.391 5.311 6.2 11.973 2-1.032-4.372-8.435a162.9 162.9 0 0 1 99.954 102.691 1.123 1.123 0 0 0 2.136-.694z" transform="translate(-92.648 -39.802)" style="fill:#b4b4b4"/>
                    <path data-name="Path 1008" d="M433.742 158.634a2.241 2.241 0 0 1-2.136-1.552A162.074 162.074 0 0 0 335.043 56.09l3.042 5.875a1.124 1.124 0 0 1-.482 1.514l-2 1.03a1.125 1.125 0 0 1-1.512-.48l-6.2-11.973a1.124 1.124 0 0 1 .554-1.548l12.398-5.308a1.121 1.121 0 0 1 1.474.589l.887 2.065a1.123 1.123 0 0 1-.59 1.474l-5.988 2.565A166.613 166.613 0 0 1 435.877 155.7a2.245 2.245 0 0 1-2.135 2.937zM330.446 52.095 335.573 62l-3.852-7.437a1.123 1.123 0 0 1 1.373-1.574l.083.029a1.122 1.122 0 0 1-.057-2.07zM340.7 47.7l-6.884 2.952L340.7 47.7z" transform="translate(-92.77 -39.924)" style="fill:#b4b4b4"/>
                </g>
                <g data-name="Group 1861">
                    <path data-name="Path 1009" d="m439.055 246.558-5.31-12.39-11.974 6.2 1.032 2 8.436-4.369a162.913 162.913 0 0 1-102.692 99.955 1.122 1.122 0 0 0 .347 2.19 1.135 1.135 0 0 0 .347-.055 165.169 165.169 0 0 0 104.072-101.23l3.678 8.587z" transform="translate(-92.77 -16.774)" style="fill:#b4b4b4"/>
                    <path data-name="Path 1010" d="M329.016 341.383a2.245 2.245 0 0 1-.694-4.38 162.078 162.078 0 0 0 100.993-96.566l-5.874 3.043a1.121 1.121 0 0 1-1.514-.48l-1.032-2a1.122 1.122 0 0 1 .482-1.511l11.973-6.2a1.121 1.121 0 0 1 1.548.554l5.31 12.39a1.123 1.123 0 0 1-.587 1.474l-2.065.888a1.122 1.122 0 0 1-1.475-.589l-2.565-5.988a166.611 166.611 0 0 1-103.809 99.251 2.239 2.239 0 0 1-.691.114zm5.739-4.23q-2.847 1.047-5.738 1.986 2.893-.939 5.738-1.986zm.034-.011-.029.01zm.033-.012-.018.007zm.034-.013h-.01zm.034-.011zm98.546-99.246a1.121 1.121 0 0 1 1.031.68l3.236 7.554-4.394-10.249-2.439 1.263a1.122 1.122 0 0 1 1.548 1.385l-.028.075a1.12 1.12 0 0 1 1.009-.706zm-10.029 3.11 6.07-3.143z" transform="translate(-92.892 -16.897)" style="fill:#b4b4b4"/>
                </g>
                <g data-name="Group 1862">
                    <path data-name="Path 1011" d="m244.215 327.166-2 1.032 4.369 8.436a162.911 162.911 0 0 1-99.954-102.692 1.123 1.123 0 0 0-2.136.693 165.173 165.173 0 0 0 101.229 104.074l-8.588 3.678.888 2.064 12.39-5.31z" transform="translate(-115.218 -16.896)" style="fill:#b4b4b4"/>
                    <path data-name="Path 1012" d="M238.145 345.7a1.121 1.121 0 0 1-1.032-.679l-.887-2.064a1.12 1.12 0 0 1 .589-1.474l5.987-2.566a166.617 166.617 0 0 1-99.25-103.817 2.245 2.245 0 0 1 4.271-1.385 162.076 162.076 0 0 0 96.564 100.992l-3.043-5.875a1.124 1.124 0 0 1 .483-1.514l2-1.03a1.126 1.126 0 0 1 1.512.482l6.2 11.973a1.124 1.124 0 0 1-.554 1.548l-12.391 5.31a1.107 1.107 0 0 1-.449.099zm.587-2.6 6.727-2.884zm7.5-5.323a1.122 1.122 0 0 1 .075 2.078l2.678-1.147-1.272-2.458a1.123 1.123 0 0 1-1.378 1.565 1.106 1.106 0 0 0-.105-.038zm-2.375-8.974 3.7 7.144-3.7-7.145z" transform="translate(-115.34 -17.018)" style="fill:#b4b4b4"/>
                </g>
            </g>
            <g data-name="Group 1864">
                <path data-name="Path 1013" d="m244.046 71.023-.883 2.065 8.6 3.668A135.7 135.7 0 0 0 169.4 161.95a1.122 1.122 0 0 0 .721 1.414 1.135 1.135 0 0 0 .347.055 1.123 1.123 0 0 0 1.067-.777 133.444 133.444 0 0 1 81.087-83.81l-4.353 8.436 2 1.028 6.179-11.982z" transform="translate(-112.169 -36.75)" style="fill:#b4b4b4"/>
                <path data-name="Path 1014" d="M170.589 164.665a2.247 2.247 0 0 1-2.136-2.937 137.148 137.148 0 0 1 80.414-84.915l-6.023-2.568a1.125 1.125 0 0 1-.592-1.474l.884-2.066a1.122 1.122 0 0 1 1.473-.592l12.4 5.292a1.123 1.123 0 0 1 .557 1.547l-6.179 11.983a1.118 1.118 0 0 1-1.512.484l-2-1.028a1.121 1.121 0 0 1-.484-1.512l3.017-5.849a132.612 132.612 0 0 0-77.687 82.084 2.239 2.239 0 0 1-2.132 1.551zm1.1-5.48q-.569 1.608-1.1 3.235.527-1.627 1.097-3.235zm.01-.028-.008.024zm.01-.027-.006.016zm.01-.027v.008zm.009-.028zM249.9 86.908l5.113-9.913-10.253-4.378 7.565 3.227a1.122 1.122 0 0 1-.038 2.08l.074-.027a1.123 1.123 0 0 1 1.381 1.569z" transform="translate(-112.292 -36.872)" style="fill:#b4b4b4"/>
            </g>
            <g data-name="Group 1865">
                <path data-name="Path 1015" d="m410.011 148.559-3.668 8.6a135.709 135.709 0 0 0-85.194-82.363 1.122 1.122 0 1 0-.693 2.135 133.458 133.458 0 0 1 83.811 81.088l-8.437-4.353-1.028 2 11.983 6.179 5.292-12.4z" transform="translate(-93.761 -36.294)" style="fill:#fcc454"/>
                <path data-name="Path 1016" d="M406.908 163.086a1.112 1.112 0 0 1-.515-.126l-11.983-6.178a1.123 1.123 0 0 1-.483-1.512l1.028-2a1.123 1.123 0 0 1 1.513-.484l5.847 3.017a132.622 132.622 0 0 0-82.082-77.687 2.244 2.244 0 0 1 1.382-4.271 137.161 137.161 0 0 1 84.919 80.416l2.568-6.023a1.123 1.123 0 0 1 1.474-.59l2.066.882a1.123 1.123 0 0 1 .59 1.473l-5.291 12.4a1.128 1.128 0 0 1-1.033.682zm-3-3.931 2.439 1.257 1.138-2.667a1.077 1.077 0 0 1-1.052.658 1.124 1.124 0 0 1-1.017-.721l.027.075a1.123 1.123 0 0 1-1.536 1.4zm-7.473-3.854 5.763 2.972-5.762-2.974zm14.289-5.145-2.686 6.3 2.688-6.3z" transform="translate(-93.883 -36.417)" style="fill:#fcc454"/>
            </g>
            <g data-name="Group 1866">
                <path data-name="Path 1017" d="M407.006 225.131a1.121 1.121 0 0 0-1.413.721 133.452 133.452 0 0 1-81.088 83.812l4.353-8.437-2-1.028-6.179 11.983 12.4 5.291.883-2.065-8.6-3.667a135.711 135.711 0 0 0 82.363-85.195 1.123 1.123 0 0 0-.719-1.415z" transform="translate(-93.639 -17.886)" style="fill:#b4b4b4"/>
                <path data-name="Path 1018" d="M333.2 318.718a1.115 1.115 0 0 1-.441-.09l-12.4-5.291a1.123 1.123 0 0 1-.558-1.547l6.18-11.983a1.119 1.119 0 0 1 1.511-.484l2 1.028a1.122 1.122 0 0 1 .484 1.513l-3.017 5.849a132.615 132.615 0 0 0 77.686-82.085 2.246 2.246 0 0 1 2.827-1.442 2.248 2.248 0 0 1 1.442 2.827A137.161 137.161 0 0 1 328.5 311.93l6.022 2.568a1.122 1.122 0 0 1 .591 1.474l-.883 2.065a1.124 1.124 0 0 1-1.03.681zm-5.51-4.694 4.92 2.1zm-5.337-2.277 2.658 1.133a1.121 1.121 0 0 1 .092-2.07q2.334-.849 4.627-1.781-2.34.951-4.721 1.815a1.123 1.123 0 0 1-1.381-1.57l3.839-7.44zm84.427-85.425a131.433 131.433 0 0 1-7.082 17.435 131.587 131.587 0 0 0 7.083-17.435z" transform="translate(-93.761 -18.009)" style="fill:#b4b4b4"/>
            </g>
            <g data-name="Group 1867">
                <path data-name="Path 1019" d="M257.247 310.988a133.453 133.453 0 0 1-83.811-81.088l8.437 4.353 1.028-2-11.982-6.179-5.292 12.4 2.065.883 3.668-8.6a135.715 135.715 0 0 0 85.194 82.363 1.135 1.135 0 0 0 .347.055 1.123 1.123 0 0 0 .346-2.191z" transform="translate(-112.624 -17.764)" style="fill:#b4b4b4"/>
                <path data-name="Path 1020" d="M257.024 314.424a2.264 2.264 0 0 1-.691-.109 137.159 137.159 0 0 1-84.917-80.415l-2.568 6.023a1.124 1.124 0 0 1-1.475.59l-2.065-.883a1.123 1.123 0 0 1-.59-1.473l5.292-12.4a1.125 1.125 0 0 1 1.547-.557l11.983 6.18a1.123 1.123 0 0 1 .483 1.512l-1.028 2a1.118 1.118 0 0 1-.656.554 1.1 1.1 0 0 1-.856-.071l-5.849-3.018a132.62 132.62 0 0 0 82.083 77.687 2.246 2.246 0 0 1-.694 4.381zm-5.736-4.256q2.84 1.069 5.736 2.011l.346-1.069-.346 1.069q-2.896-.941-5.736-2.011zm-.025-.009.024.009zm-84.041-72.151 2.4-5.625zm6.336-9.106a1.105 1.105 0 0 1 .515.126l7.438 3.838-9.912-5.113-1.137 2.666a1.122 1.122 0 0 1 2.068.064l-.026-.074a1.122 1.122 0 0 1 1.054-1.505z" transform="translate(-112.747 -17.887)" style="fill:#b4b4b4"/>
            </g>
            <g data-name="Group 1872">
                <path data-name="Path 1025" d="m396.051 154.288-1.909 1.184 4.935 7.935c-27.768-7.672-64.36-11.9-103.413-11.9-40.711 0-80.013 4.793-107.83 13.151a1.123 1.123 0 0 0 .645 2.151c27.617-8.3 66.684-13.056 107.185-13.056 38.914 0 75.344 4.208 102.935 11.847l-8.412 4.415 1.046 1.985 11.936-6.267z" transform="translate(-110.003 -26.896)" style="fill:#b4b4b4"/>
                <path data-name="Path 1026" d="M391.357 173.25a1.122 1.122 0 0 1-.994-.6l-1.046-1.988a1.123 1.123 0 0 1 .473-1.518l5.874-3.082C368.511 158.921 333.195 155 295.786 155c-40.395 0-79.344 4.741-106.863 13.009a2.28 2.28 0 0 1-2.795-1.5 2.248 2.248 0 0 1 1.5-2.8c27.918-8.387 67.338-13.2 108.153-13.2 37.742 0 73.442 3.967 100.956 11.194l-3.431-5.517a1.123 1.123 0 0 1 .363-1.547l1.908-1.183a1.123 1.123 0 0 1 1.544.36l7.119 11.449a1.123 1.123 0 0 1-.431 1.587l-11.936 6.268a1.13 1.13 0 0 1-.516.13zm.469-2.639 5.7-2.994zm7.1-5.994.1.026a1.123 1.123 0 0 1 .249 2.061l2.431-1.276-5.889-9.472 4.341 6.979a1.122 1.122 0 0 1-1.226 1.681zm-103.14-11.862c-40.606 0-79.79 4.776-107.508 13.1 27.722-8.323 66.903-13.1 107.508-13.1zm.249 0z" transform="translate(-110.126 -27.018)" style="fill:#b4b4b4"/>
            </g>
            <g data-name="Group 1873">
                <path data-name="Path 1027" d="M404.122 214.593a1.127 1.127 0 0 0-1.4-.752c-27.619 8.3-66.686 13.056-107.184 13.056-38.915 0-75.345-4.208-102.936-11.847l8.41-4.413-1.046-1.989-11.935 6.267 7.117 11.45 1.909-1.184-4.934-7.935c27.768 7.672 64.36 11.9 103.415 11.9 40.708 0 80.01-4.793 107.829-13.151a1.123 1.123 0 0 0 .755-1.402z" transform="translate(-109.88 -19.899)" style="fill:#b4b4b4"/>
                <path data-name="Path 1028" d="M295.663 230.387c-37.743 0-73.443-3.967-100.959-11.194l3.431 5.517a1.121 1.121 0 0 1-.36 1.546l-1.91 1.185a1.121 1.121 0 0 1-1.544-.36L187.2 215.63a1.123 1.123 0 0 1 .431-1.587l11.935-6.267a1.126 1.126 0 0 1 1.515.471l1.046 1.988a1.124 1.124 0 0 1-.471 1.518l-5.874 3.081c27.153 7.143 62.468 11.063 99.878 11.063 40.395 0 79.344-4.741 106.86-13.009a2.246 2.246 0 0 1 1.292 4.3c-27.917 8.388-67.337 13.199-108.149 13.199zm-.342-2.245zm-103.769-9.769 4.083 6.569zm-1.8-2.9 1.539 2.476a1.122 1.122 0 0 1 .064-1.249 1.134 1.134 0 0 1 1.179-.415l-.1-.028a1.123 1.123 0 0 1-.256-2.057zm214.5-.754-1.075.322zm-204.625-4.43-5.323 2.795 5.324-2.793z" transform="translate(-110.003 -20.021)" style="fill:#b4b4b4"/>
            </g>
            <g data-name="Group 1871">
                <g data-name="Group 1869">
                    <path data-name="Path 1021" d="m264.66 295.6-4.4 8.413c-7.674-27.564-11.9-64-11.9-102.949 0-40.538 4.781-79.611 13.115-107.2a1.122 1.122 0 1 0-2.148-.649c-8.4 27.79-13.211 67.1-13.211 107.847 0 39.094 4.244 75.693 11.951 103.437l-7.942-4.926-1.182 1.91 11.457 7.1 6.253-11.945z" transform="translate(-102.769 -34.13)" style="fill:#fcc454"/>
                    <path data-name="Path 1022" d="M260.52 309.829a1.11 1.11 0 0 1-.59-.17l-11.458-7.1a1.123 1.123 0 0 1-.364-1.544l1.182-1.91a1.124 1.124 0 0 1 1.547-.363l5.524 3.427c-7.26-27.492-11.246-63.2-11.246-100.983 0-40.856 4.832-80.283 13.259-108.171a2.244 2.244 0 1 1 4.3 1.3c-8.3 27.485-13.066 66.439-13.066 106.873 0 37.44 3.938 72.76 11.111 99.89l3.073-5.875a1.124 1.124 0 0 1 .66-.551 1.105 1.105 0 0 1 .856.077l1.99 1.044a1.122 1.122 0 0 1 .473 1.514l-6.253 11.945a1.123 1.123 0 0 1-.7.562 1.157 1.157 0 0 1-.298.035zm-2.887-4.234 2.453 1.521 1.284-2.453a1.123 1.123 0 0 1-2.07-.231l-.025-.093a1.123 1.123 0 0 1-1.642 1.256zm7.624-8.361-3.71 7.092 3.712-7.09zm-14.649 4.006 4.557 2.825-4.556-2.825zm-3.248-99.75zm0-.247zm0-.6z" transform="translate(-102.891 -34.253)" style="fill:#fcc454"/>
                </g>
                <g data-name="Group 1870">
                    <path data-name="Path 1023" d="m311.8 97.5 7.942 4.926 1.183-1.91-11.458-7.1-6.253 11.945 1.99 1.043 4.4-8.412c7.674 27.563 11.9 64 11.9 102.948 0 40.537-4.78 79.611-13.115 107.2a1.122 1.122 0 1 0 2.148.649c8.4-27.791 13.211-67.1 13.211-107.848.002-39.098-4.242-75.699-11.948-103.441z" transform="translate(-95.777 -34.008)" style="fill:#b4b4b4"/>
                    <path data-name="Path 1024" d="M309.587 310.829a2.255 2.255 0 0 1-.652-.1 2.244 2.244 0 0 1-1.5-2.8c8.3-27.488 13.066-66.442 13.066-106.874 0-37.443-3.937-72.76-11.111-99.889l-3.073 5.874a1.125 1.125 0 0 1-1.516.474l-1.989-1.044a1.121 1.121 0 0 1-.473-1.514l6.261-11.94a1.119 1.119 0 0 1 .7-.562 1.135 1.135 0 0 1 .888.129l11.458 7.1a1.123 1.123 0 0 1 .354 1.547l-1.182 1.912a1.122 1.122 0 0 1-1.546.363l-5.525-3.426c7.26 27.49 11.246 63.2 11.246 100.982 0 40.854-4.832 80.282-13.259 108.173a2.229 2.229 0 0 1-2.147 1.595zM322.75 201.12zm0-.345zm0-.057zm-17.9-95.71 3.88-7.417a1.123 1.123 0 0 1 2.077.22l.02.074a1.122 1.122 0 0 1 1.683-1.216L319.5 101l-9.479-5.875z" transform="translate(-95.899 -34.131)" style="fill:#b4b4b4"/>
                </g>
            </g>
        </g>
        <path data-name="Path 2836" d="M-19.642.126A5.212 5.212 0 0 1-22.253-.5a4.241 4.241 0 0 1-1.708-1.778 5.7 5.7 0 0 1-.595-2.66 5.7 5.7 0 0 1 .595-2.66 4.2 4.2 0 0 1 1.708-1.771A5.259 5.259 0 0 1-19.642-10a5.851 5.851 0 0 1 1.876.3 4 4 0 0 1 1.47.833L-17-7.308a4.716 4.716 0 0 0-1.281-.714 3.959 3.959 0 0 0-1.319-.224 2.5 2.5 0 0 0-2.023.84 3.739 3.739 0 0 0-.707 2.464 3.768 3.768 0 0 0 .707 2.471 2.487 2.487 0 0 0 2.023.847 3.959 3.959 0 0 0 1.323-.224A4.716 4.716 0 0 0-17-2.562l.7 1.554a4 4 0 0 1-1.47.833 5.851 5.851 0 0 1-1.872.301zm9-7.168a2.254 2.254 0 0 1 1.834.721 3.338 3.338 0 0 1 .6 2.177V0h-2.114v-4.046a1.627 1.627 0 0 0-.259-1.022.971.971 0 0 0-.8-.322 1.39 1.39 0 0 0-1.057.42 1.559 1.559 0 0 0-.4 1.12V0h-2.114v-9.87h2.114v3.906a2.345 2.345 0 0 1 .931-.805 2.883 2.883 0 0 1 1.267-.273zm8.932 1.736-1.19.126a1.841 1.841 0 0 0-1.246.5 1.6 1.6 0 0 0-.364 1.1V0h-2.112v-6.874h2.03v1.162a2.277 2.277 0 0 1 2.142-1.3l.616-.042zM2.156.112A4.012 4.012 0 0 1 .238-.329a3.093 3.093 0 0 1-1.274-1.246 3.84 3.84 0 0 1-.448-1.9 3.84 3.84 0 0 1 .448-1.9A3.048 3.048 0 0 1 .238-6.608a4.065 4.065 0 0 1 1.918-.434 4.065 4.065 0 0 1 1.918.434 3.048 3.048 0 0 1 1.274 1.239 3.84 3.84 0 0 1 .448 1.9 3.84 3.84 0 0 1-.448 1.9 3.093 3.093 0 0 1-1.274 1.24 4.012 4.012 0 0 1-1.918.441zm0-1.61Q3.7-1.5 3.7-3.472a2.318 2.318 0 0 0-.4-1.484 1.387 1.387 0 0 0-1.141-.49q-1.54 0-1.54 1.974T2.156-1.5zM11.4-7.042a2.254 2.254 0 0 1 1.834.721 3.338 3.338 0 0 1 .6 2.177V0h-2.116v-4.046a1.627 1.627 0 0 0-.259-1.022.971.971 0 0 0-.805-.322 1.39 1.39 0 0 0-1.054.42 1.559 1.559 0 0 0-.4 1.12V0H7.084v-6.874h2.058v.98a2.409 2.409 0 0 1 .945-.854 2.858 2.858 0 0 1 1.313-.294zM15.414 0v-6.874h2.114V0zm-.07-10.178h2.268V-8.2h-2.268zM22.428.112a3.606 3.606 0 0 1-2.646-.952 3.471 3.471 0 0 1-.966-2.59 3.8 3.8 0 0 1 .462-1.9 3.183 3.183 0 0 1 1.3-1.267 4.074 4.074 0 0 1 1.946-.448 4.616 4.616 0 0 1 1.456.231 3.132 3.132 0 0 1 1.134.623l-.56 1.442a3.147 3.147 0 0 0-.889-.5 2.764 2.764 0 0 0-.945-.175 1.662 1.662 0 0 0-1.281.49 2.071 2.071 0 0 0-.455 1.456 2.1 2.1 0 0 0 .455 1.463 1.649 1.649 0 0 0 1.281.5 2.764 2.764 0 0 0 .945-.175 3.147 3.147 0 0 0 .889-.5l.56 1.456a3.339 3.339 0 0 1-1.176.616 5.022 5.022 0 0 1-1.51.23zM-18.41 8.958a3.12 3.12 0 0 1 2.275.728 3.054 3.054 0 0 1 .735 2.254V16h-2v-1.022a1.676 1.676 0 0 1-.7.833 2.149 2.149 0 0 1-1.148.3 2.822 2.822 0 0 1-1.267-.28 2.219 2.219 0 0 1-.9-.784 2.005 2.005 0 0 1-.329-1.12 1.73 1.73 0 0 1 .385-1.19 2.3 2.3 0 0 1 1.239-.63 10.944 10.944 0 0 1 2.338-.2h.364v-.247a1.163 1.163 0 0 0-.266-.868 1.335 1.335 0 0 0-.924-.252 3.987 3.987 0 0 0-1.12.182 5.449 5.449 0 0 0-1.176.5l-.56-1.414a5.735 5.735 0 0 1 1.451-.608 5.879 5.879 0 0 1 1.603-.242zm-.378 5.7a1.284 1.284 0 0 0 .994-.413 1.524 1.524 0 0 0 .378-1.071v-.238h-.238a4.784 4.784 0 0 0-1.589.182.659.659 0 0 0-.455.658.843.843 0 0 0 .259.63.9.9 0 0 0 .651.25zm4.97 1.342V9.126h2.118V16zm-.07-10.178h2.268V7.8h-2.268zm8.722 4.872-1.19.126a1.841 1.841 0 0 0-1.246.5 1.6 1.6 0 0 0-.364 1.1V16h-2.114V9.126h2.03v1.162a2.277 2.277 0 0 1 2.142-1.3l.616-.042zm10.36-1.568h2.058L4.466 16H2.674l-1.512-3.878L-.308 16h-1.778l-2.8-6.874h2.156l1.624 4.354L.518 9.126h1.428l1.638 4.4zm5.824-.168a3.12 3.12 0 0 1 2.275.728 3.054 3.054 0 0 1 .735 2.254V16h-2v-1.022a1.676 1.676 0 0 1-.7.833 2.149 2.149 0 0 1-1.148.3 2.822 2.822 0 0 1-1.267-.28 2.219 2.219 0 0 1-.9-.784 2.005 2.005 0 0 1-.329-1.12 1.73 1.73 0 0 1 .385-1.19 2.3 2.3 0 0 1 1.239-.63 10.944 10.944 0 0 1 2.338-.2h.364v-.247a1.163 1.163 0 0 0-.266-.868 1.335 1.335 0 0 0-.924-.252 3.987 3.987 0 0 0-1.12.182 5.449 5.449 0 0 0-1.176.5l-.56-1.414A5.735 5.735 0 0 1 9.415 9.2a5.879 5.879 0 0 1 1.603-.242zm-.378 5.7a1.284 1.284 0 0 0 .994-.413 1.524 1.524 0 0 0 .378-1.071v-.238h-.238a4.784 4.784 0 0 0-1.589.182.659.659 0 0 0-.455.658.843.843 0 0 0 .259.63.9.9 0 0 0 .651.25zm9.73-5.518h2.072L18.3 18.52h-2.144l1.316-2.9-2.828-6.48h2.2l1.736 4.368zM-27.9 32v-6.874h2.114V32zm-.07-10.178h2.27V23.8h-2.268zm8.12 3.136a2.254 2.254 0 0 1 1.834.721 3.338 3.338 0 0 1 .6 2.177V32h-2.114v-4.046a1.627 1.627 0 0 0-.259-1.022.971.971 0 0 0-.805-.322 1.39 1.39 0 0 0-1.057.42 1.559 1.559 0 0 0-.4 1.12V32h-2.114v-6.874h2.058v.98a2.409 2.409 0 0 1 .945-.854 2.858 2.858 0 0 1 1.31-.294zm6.678.168h1.722v1.582h-1.722V32h-2.114v-5.292h-1.3v-1.582h1.3a2.873 2.873 0 0 1 .847-2.191 4.016 4.016 0 0 1 2.5-.833l.77-.042.126 1.554-.658.028a1.924 1.924 0 0 0-1.141.3 1.112 1.112 0 0 0-.329.9zm8.722 3.836h-4.48a1.77 1.77 0 0 0 .539 1.2 1.894 1.894 0 0 0 1.253.371 3.324 3.324 0 0 0 1.057-.175 3.405 3.405 0 0 0 .959-.5l.56 1.414a3.821 3.821 0 0 1-1.225.616 4.86 4.86 0 0 1-1.449.224 3.792 3.792 0 0 1-2.737-.959 3.445 3.445 0 0 1-1-2.611 3.889 3.889 0 0 1 .434-1.862 3.182 3.182 0 0 1 1.2-1.267 3.374 3.374 0 0 1 1.75-.455A2.931 2.931 0 0 1-5.3 25.9a3.66 3.66 0 0 1 .847 2.548zm-3.08-2.548a1.245 1.245 0 0 0-.959.385 1.918 1.918 0 0 0-.441 1.113h2.7a1.827 1.827 0 0 0-.371-1.12 1.168 1.168 0 0 0-.931-.378zm7.63 5.7a3.606 3.606 0 0 1-2.646-.952 3.471 3.471 0 0 1-.966-2.59 3.8 3.8 0 0 1 .462-1.9 3.183 3.183 0 0 1 1.3-1.267 4.074 4.074 0 0 1 1.95-.447 4.616 4.616 0 0 1 1.456.231 3.132 3.132 0 0 1 1.134.623l-.56 1.442a3.147 3.147 0 0 0-.889-.5 2.764 2.764 0 0 0-.945-.175 1.662 1.662 0 0 0-1.281.49 2.071 2.071 0 0 0-.455 1.456 2.1 2.1 0 0 0 .455 1.463 1.649 1.649 0 0 0 1.281.5 2.764 2.764 0 0 0 .945-.175 3.147 3.147 0 0 0 .889-.5l.56 1.456a3.339 3.339 0 0 1-1.176.616 5.022 5.022 0 0 1-1.514.227zm7.518-1.554a5.645 5.645 0 0 0 .672-.042l-.112 1.54a5.936 5.936 0 0 1-.812.056 3.235 3.235 0 0 1-2.289-.686 2.753 2.753 0 0 1-.721-2.086v-2.634h-1.3v-1.582h1.3V23.11h2.112v2.016H8.19v1.582H6.468v2.618q0 1.232 1.148 1.232zM9.226 32v-6.874h2.114V32zm-.07-10.178h2.268V23.8H9.156zm7.112 10.29a4.012 4.012 0 0 1-1.918-.441 3.093 3.093 0 0 1-1.274-1.246 4.24 4.24 0 0 1 0-3.794 3.048 3.048 0 0 1 1.274-1.239 4.065 4.065 0 0 1 1.918-.434 4.065 4.065 0 0 1 1.918.434 3.048 3.048 0 0 1 1.274 1.239 4.24 4.24 0 0 1 0 3.794 3.093 3.093 0 0 1-1.274 1.246 4.012 4.012 0 0 1-1.918.441zm0-1.61q1.54 0 1.54-1.974a2.318 2.318 0 0 0-.4-1.484 1.387 1.387 0 0 0-1.141-.49q-1.54 0-1.54 1.974t1.541 1.972zm9.24-5.544a2.254 2.254 0 0 1 1.834.721 3.338 3.338 0 0 1 .6 2.177V32H25.83v-4.046a1.627 1.627 0 0 0-.259-1.022.971.971 0 0 0-.805-.322 1.39 1.39 0 0 0-1.057.42 1.559 1.559 0 0 0-.4 1.12V32H21.2v-6.874h2.058v.98a2.409 2.409 0 0 1 .945-.854 2.858 2.858 0 0 1 1.305-.294z" transform="translate(185.911 10.178)" style="fill:#750010"/>
        <path data-name="Path 2837" d="M12.131 14.126A5.212 5.212 0 0 1 9.52 13.5a4.241 4.241 0 0 1-1.708-1.778 5.7 5.7 0 0 1-.6-2.66 5.7 5.7 0 0 1 .6-2.66A4.2 4.2 0 0 1 9.52 4.627 5.259 5.259 0 0 1 12.131 4a5.851 5.851 0 0 1 1.876.3 4 4 0 0 1 1.47.833l-.7 1.554a4.716 4.716 0 0 0-1.277-.709 3.959 3.959 0 0 0-1.323-.224 2.5 2.5 0 0 0-2.023.84 3.739 3.739 0 0 0-.707 2.464 3.768 3.768 0 0 0 .707 2.471 2.487 2.487 0 0 0 2.023.847 3.959 3.959 0 0 0 1.323-.224 4.716 4.716 0 0 0 1.281-.714l.7 1.554a4 4 0 0 1-1.47.833 5.851 5.851 0 0 1-1.88.301zm9-7.168a2.254 2.254 0 0 1 1.834.721 3.338 3.338 0 0 1 .6 2.177V14h-2.11V9.954a1.627 1.627 0 0 0-.255-1.022.971.971 0 0 0-.805-.322 1.39 1.39 0 0 0-1.057.42 1.559 1.559 0 0 0-.4 1.12V14h-2.117V4.13h2.114v3.906a2.345 2.345 0 0 1 .931-.805 2.883 2.883 0 0 1 1.267-.273zm8.932 1.736-1.19.126a1.841 1.841 0 0 0-1.246.5 1.6 1.6 0 0 0-.364 1.1V14h-2.112V7.126h2.03v1.162a2.277 2.277 0 0 1 2.142-1.3l.616-.042zm3.864 5.418a4.012 4.012 0 0 1-1.918-.441 3.093 3.093 0 0 1-1.274-1.246 3.84 3.84 0 0 1-.448-1.9 3.84 3.84 0 0 1 .448-1.9 3.048 3.048 0 0 1 1.274-1.239 4.455 4.455 0 0 1 3.836 0 3.048 3.048 0 0 1 1.274 1.239 3.84 3.84 0 0 1 .448 1.9 3.84 3.84 0 0 1-.448 1.9 3.093 3.093 0 0 1-1.274 1.246 4.012 4.012 0 0 1-1.916.441zm0-1.61q1.54 0 1.54-1.974a2.318 2.318 0 0 0-.4-1.484 1.387 1.387 0 0 0-1.141-.49q-1.54 0-1.54 1.974t1.543 1.972zm9.24-5.544A2.254 2.254 0 0 1 45 7.679a3.338 3.338 0 0 1 .6 2.177V14h-2.109V9.954a1.627 1.627 0 0 0-.259-1.022.971.971 0 0 0-.805-.322 1.39 1.39 0 0 0-1.057.42 1.559 1.559 0 0 0-.4 1.12V14h-2.113V7.126h2.058v.98a2.409 2.409 0 0 1 .945-.854 2.858 2.858 0 0 1 1.309-.294zM47.187 14V7.126H49.3V14zm-.07-10.178h2.268V5.8h-2.268zm7.083 10.29a3.606 3.606 0 0 1-2.646-.952 3.471 3.471 0 0 1-.966-2.59 3.8 3.8 0 0 1 .462-1.9 3.183 3.183 0 0 1 1.3-1.267 4.074 4.074 0 0 1 1.95-.445 4.616 4.616 0 0 1 1.456.231 3.132 3.132 0 0 1 1.134.623l-.56 1.442a3.147 3.147 0 0 0-.889-.5 2.764 2.764 0 0 0-.945-.175 1.662 1.662 0 0 0-1.281.49 2.071 2.071 0 0 0-.455 1.456 2.1 2.1 0 0 0 .455 1.463 1.649 1.649 0 0 0 1.281.5 2.764 2.764 0 0 0 .945-.175 3.147 3.147 0 0 0 .889-.5l.56 1.456a3.339 3.339 0 0 1-1.176.616 5.022 5.022 0 0 1-1.514.227zm10.6-7.154a3.12 3.12 0 0 1 2.275.728 3.054 3.054 0 0 1 .735 2.254V14h-2v-1.022a1.676 1.676 0 0 1-.7.833 2.149 2.149 0 0 1-1.148.3 2.822 2.822 0 0 1-1.267-.28 2.219 2.219 0 0 1-.9-.784 2.005 2.005 0 0 1-.329-1.12 1.73 1.73 0 0 1 .385-1.19 2.3 2.3 0 0 1 1.239-.63 10.944 10.944 0 0 1 2.338-.2h.364V9.66a1.163 1.163 0 0 0-.266-.868 1.335 1.335 0 0 0-.926-.252 3.987 3.987 0 0 0-1.12.182 5.449 5.449 0 0 0-1.176.5l-.56-1.414A5.735 5.735 0 0 1 63.2 7.2a5.879 5.879 0 0 1 1.6-.242zm-.378 5.7a1.284 1.284 0 0 0 .994-.413 1.524 1.524 0 0 0 .378-1.071v-.238h-.238a4.784 4.784 0 0 0-1.589.182.659.659 0 0 0-.455.658.843.843 0 0 0 .259.63.9.9 0 0 0 .65.25zM69.391 14V7.126h2.114V14zm-.07-10.178h2.268V5.8h-2.268zm8.722 4.872-1.19.126a1.841 1.841 0 0 0-1.246.5 1.6 1.6 0 0 0-.364 1.1V14h-2.114V7.126h2.03v1.162a2.277 2.277 0 0 1 2.142-1.3l.616-.042zM88.4 7.126h2.058L87.675 14h-1.792l-1.512-3.878L82.9 14h-1.777l-2.8-6.874h2.156L82.1 11.48l1.624-4.354h1.428l1.638 4.4zm5.824-.168a3.12 3.12 0 0 1 2.275.728 3.054 3.054 0 0 1 .735 2.254V14h-2v-1.022a1.676 1.676 0 0 1-.7.833 2.149 2.149 0 0 1-1.148.3 2.822 2.822 0 0 1-1.267-.28 2.219 2.219 0 0 1-.9-.784 2.005 2.005 0 0 1-.329-1.12 1.73 1.73 0 0 1 .385-1.19 2.3 2.3 0 0 1 1.239-.63 10.944 10.944 0 0 1 2.338-.2h.364V9.66a1.163 1.163 0 0 0-.266-.868 1.335 1.335 0 0 0-.924-.252 3.987 3.987 0 0 0-1.12.182 5.449 5.449 0 0 0-1.176.5l-.56-1.414a5.735 5.735 0 0 1 1.454-.608 5.879 5.879 0 0 1 1.603-.242zm-.378 5.7a1.284 1.284 0 0 0 .994-.413 1.524 1.524 0 0 0 .378-1.071v-.238h-.238a4.784 4.784 0 0 0-1.589.182.659.659 0 0 0-.455.658.843.843 0 0 0 .259.63.9.9 0 0 0 .654.25zm9.73-5.516h2.072l-4.144 9.38h-2.139l1.316-2.9-2.828-6.482h2.2l1.736 4.368zM11.564 30v-6.874h2.114V30zm-.07-10.178h2.268V21.8h-2.268zm8.12 3.136a2.254 2.254 0 0 1 1.834.721 3.338 3.338 0 0 1 .6 2.177V30h-2.112v-4.046a1.627 1.627 0 0 0-.259-1.022.971.971 0 0 0-.805-.322 1.39 1.39 0 0 0-1.057.42 1.559 1.559 0 0 0-.4 1.12V30H15.3v-6.874h2.06v.98a2.409 2.409 0 0 1 .945-.854 2.858 2.858 0 0 1 1.309-.294zm6.678.168h1.722v1.582h-1.722V30h-2.114v-5.292h-1.3v-1.582h1.3a2.873 2.873 0 0 1 .847-2.191 4.016 4.016 0 0 1 2.5-.833l.77-.042.126 1.554-.658.028a1.924 1.924 0 0 0-1.141.3 1.112 1.112 0 0 0-.329.9zM28.9 30v-9.87h2.11V30zm6.79-7.042a3.12 3.12 0 0 1 2.275.728 3.054 3.054 0 0 1 .735 2.254V30h-2v-1.022a1.676 1.676 0 0 1-.7.833 2.149 2.149 0 0 1-1.148.3 2.822 2.822 0 0 1-1.267-.28 2.219 2.219 0 0 1-.9-.784 2.005 2.005 0 0 1-.329-1.12 1.73 1.73 0 0 1 .385-1.19 2.3 2.3 0 0 1 1.239-.63 10.944 10.944 0 0 1 2.338-.2h.364v-.247a1.163 1.163 0 0 0-.266-.868 1.335 1.335 0 0 0-.924-.252 3.987 3.987 0 0 0-1.12.182 5.449 5.449 0 0 0-1.176.5l-.56-1.414a5.735 5.735 0 0 1 1.449-.609 5.879 5.879 0 0 1 1.601-.241zm-.378 5.7a1.284 1.284 0 0 0 .994-.413 1.524 1.524 0 0 0 .378-1.071v-.238h-.238a4.784 4.784 0 0 0-1.589.182.659.659 0 0 0-.455.658.843.843 0 0 0 .259.63.9.9 0 0 0 .647.25zm13.44-5.7a2.111 2.111 0 0 1 1.75.714 3.451 3.451 0 0 1 .574 2.184V30h-2.118v-4.074a1.8 1.8 0 0 0-.217-1.008.836.836 0 0 0-.735-.308 1.134 1.134 0 0 0-.938.42 1.837 1.837 0 0 0-.336 1.176V30h-2.114v-4.074a1.8 1.8 0 0 0-.217-1.008.836.836 0 0 0-.735-.308 1.134 1.134 0 0 0-.938.42 1.837 1.837 0 0 0-.336 1.176V30h-2.114v-6.874h2.058v.924a2.15 2.15 0 0 1 .861-.812 2.649 2.649 0 0 1 1.239-.28 2 2 0 0 1 2.044 1.274 2.462 2.462 0 0 1 .938-.931 2.639 2.639 0 0 1 1.33-.343zm12.39 0a2.111 2.111 0 0 1 1.75.714 3.451 3.451 0 0 1 .574 2.184V30h-2.118v-4.074a1.8 1.8 0 0 0-.217-1.008.836.836 0 0 0-.735-.308 1.134 1.134 0 0 0-.938.42 1.837 1.837 0 0 0-.336 1.176V30h-2.114v-4.074a1.8 1.8 0 0 0-.217-1.008.836.836 0 0 0-.735-.308 1.134 1.134 0 0 0-.938.42 1.837 1.837 0 0 0-.336 1.176V30h-2.114v-6.874h2.058v.924a2.15 2.15 0 0 1 .861-.812 2.649 2.649 0 0 1 1.239-.28 2 2 0 0 1 2.044 1.274 2.462 2.462 0 0 1 .938-.931 2.639 2.639 0 0 1 1.33-.343zm6.972 0a3.12 3.12 0 0 1 2.275.728 3.054 3.054 0 0 1 .735 2.254V30h-2v-1.022a1.676 1.676 0 0 1-.7.833 2.149 2.149 0 0 1-1.148.3A2.822 2.822 0 0 1 66 29.832a2.219 2.219 0 0 1-.9-.784 2.005 2.005 0 0 1-.329-1.12 1.73 1.73 0 0 1 .385-1.19 2.3 2.3 0 0 1 1.239-.63 10.944 10.944 0 0 1 2.338-.2h.367v-.248a1.163 1.163 0 0 0-.266-.868 1.335 1.335 0 0 0-.924-.252 3.987 3.987 0 0 0-1.12.182 5.449 5.449 0 0 0-1.176.5l-.56-1.414a5.735 5.735 0 0 1 1.449-.609 5.879 5.879 0 0 1 1.607-.241zm-.378 5.7a1.284 1.284 0 0 0 .994-.413 1.524 1.524 0 0 0 .378-1.071v-.238h-.238a4.784 4.784 0 0 0-1.589.182.659.659 0 0 0-.455.658.843.843 0 0 0 .259.63.9.9 0 0 0 .647.25zm8.778-.1a5.645 5.645 0 0 0 .672-.042l-.112 1.54a5.936 5.936 0 0 1-.812.056 3.235 3.235 0 0 1-2.289-.686 2.753 2.753 0 0 1-.721-2.086v-2.632h-1.3v-1.582h1.3V21.11h2.114v2.016h1.722v1.582h-1.726v2.618q0 1.232 1.148 1.232zM78.12 30v-6.874h2.114V30zm-.07-10.178h2.268V21.8H78.05zm7.112 10.29a4.012 4.012 0 0 1-1.918-.441 3.093 3.093 0 0 1-1.274-1.246 4.24 4.24 0 0 1 0-3.794 3.048 3.048 0 0 1 1.274-1.239 4.455 4.455 0 0 1 3.836 0 3.048 3.048 0 0 1 1.274 1.239 4.24 4.24 0 0 1 0 3.794 3.093 3.093 0 0 1-1.274 1.246 4.012 4.012 0 0 1-1.918.441zm0-1.61q1.54 0 1.54-1.974a2.318 2.318 0 0 0-.4-1.484 1.387 1.387 0 0 0-1.141-.49q-1.54 0-1.54 1.974t1.541 1.972zm9.24-5.544a2.254 2.254 0 0 1 1.834.721 3.338 3.338 0 0 1 .6 2.177V30h-2.112v-4.046a1.627 1.627 0 0 0-.259-1.022.971.971 0 0 0-.8-.322 1.39 1.39 0 0 0-1.057.42 1.559 1.559 0 0 0-.4 1.12V30H90.09v-6.874h2.058v.98a2.409 2.409 0 0 1 .945-.854 2.858 2.858 0 0 1 1.307-.294zm6.16 4.8V29.2a3.653 3.653 0 0 1-.287 1.463 4.464 4.464 0 0 1-.973 1.351l-.826-.658A3.016 3.016 0 0 0 99.33 30h-1.036v-2.24zM31.8 38.958a2.805 2.805 0 0 1 1.575.455 3.019 3.019 0 0 1 1.078 1.274 4.378 4.378 0 0 1 .385 1.883 4.286 4.286 0 0 1-.385 1.869 2.818 2.818 0 0 1-2.653 1.673 2.765 2.765 0 0 1-1.267-.287 2.089 2.089 0 0 1-.875-.805v3.5h-2.113v-9.394h2.086v.966a2.143 2.143 0 0 1 .882-.833 2.731 2.731 0 0 1 1.287-.301zm-.615 5.542a1.4 1.4 0 0 0 1.148-.5 2.219 2.219 0 0 0 .406-1.435 2.366 2.366 0 0 0-.406-1.477 1.367 1.367 0 0 0-1.148-.525 1.382 1.382 0 0 0-1.148.511 2.3 2.3 0 0 0-.406 1.463 2.279 2.279 0 0 0 .406 1.449 1.382 1.382 0 0 0 1.148.514zm9.856-3.808-1.19.126a1.841 1.841 0 0 0-1.246.5 1.6 1.6 0 0 0-.364 1.1V46h-2.114v-6.874h2.03v1.162a2.277 2.277 0 0 1 2.142-1.3l.616-.042zm.7 5.306v-6.872h2.114V46zm-.07-10.178h2.268v1.98h-2.268zm12.278 3.136a2.111 2.111 0 0 1 1.75.714 3.451 3.451 0 0 1 .574 2.184V46h-2.114v-4.074a1.8 1.8 0 0 0-.217-1.008.836.836 0 0 0-.735-.308 1.134 1.134 0 0 0-.938.42 1.837 1.837 0 0 0-.336 1.176V46h-2.114v-4.074a1.8 1.8 0 0 0-.217-1.008.836.836 0 0 0-.735-.308 1.134 1.134 0 0 0-.938.42 1.837 1.837 0 0 0-.336 1.176V46h-2.114v-6.874h2.058v.924a2.15 2.15 0 0 1 .861-.812 2.649 2.649 0 0 1 1.239-.28 2 2 0 0 1 2.044 1.274 2.462 2.462 0 0 1 .938-.931 2.639 2.639 0 0 1 1.33-.343zm6.972 0a3.12 3.12 0 0 1 2.275.728 3.054 3.054 0 0 1 .735 2.254V46h-2v-1.022a1.676 1.676 0 0 1-.7.833 2.149 2.149 0 0 1-1.148.3 2.822 2.822 0 0 1-1.267-.28 2.219 2.219 0 0 1-.9-.784 2.005 2.005 0 0 1-.329-1.12 1.73 1.73 0 0 1 .385-1.19 2.3 2.3 0 0 1 1.239-.63 10.944 10.944 0 0 1 2.338-.2h.364v-.247a1.163 1.163 0 0 0-.266-.868 1.335 1.335 0 0 0-.924-.252 3.987 3.987 0 0 0-1.12.182 5.449 5.449 0 0 0-1.176.5l-.56-1.414a5.735 5.735 0 0 1 1.449-.609 5.879 5.879 0 0 1 1.605-.241zm-.378 5.7a1.284 1.284 0 0 0 .994-.413 1.524 1.524 0 0 0 .378-1.071v-.238h-.238a4.784 4.784 0 0 0-1.589.182.659.659 0 0 0-.455.658.843.843 0 0 0 .259.63.9.9 0 0 0 .651.252zm9.884-3.962-1.19.126a1.841 1.841 0 0 0-1.246.5 1.6 1.6 0 0 0-.364 1.1V46h-2.114v-6.874h2.03v1.162a2.277 2.277 0 0 1 2.142-1.3l.616-.042zm.7 5.306v-6.874h2.114V46zm-.07-10.178h2.268V37.8h-2.268zM74.865 46v-9.87h2.114V46zm8.5-6.86h2.072l-4.144 9.38h-2.144l1.316-2.9-2.828-6.48h2.2l1.736 4.368zM22.022 54.958a2.254 2.254 0 0 1 1.834.721 3.338 3.338 0 0 1 .6 2.177V62h-2.112v-4.046a1.627 1.627 0 0 0-.259-1.022.972.972 0 0 0-.805-.322 1.39 1.39 0 0 0-1.057.42 1.559 1.559 0 0 0-.4 1.12V62H17.71v-6.874h2.058v.98a2.409 2.409 0 0 1 .945-.854 2.858 2.858 0 0 1 1.309-.294zm10.206 4h-4.48a1.77 1.77 0 0 0 .539 1.2 1.894 1.894 0 0 0 1.253.371 3.324 3.324 0 0 0 1.057-.175 3.405 3.405 0 0 0 .959-.5l.56 1.414a3.821 3.821 0 0 1-1.225.616 4.86 4.86 0 0 1-1.449.224 3.792 3.792 0 0 1-2.737-.959 3.445 3.445 0 0 1-1-2.611 3.889 3.889 0 0 1 .434-1.862 3.182 3.182 0 0 1 1.2-1.267 3.374 3.374 0 0 1 1.75-.455 2.931 2.931 0 0 1 2.289.938 3.66 3.66 0 0 1 .847 2.548zm-3.08-2.548a1.245 1.245 0 0 0-.959.385 1.918 1.918 0 0 0-.441 1.113h2.7a1.827 1.827 0 0 0-.371-1.12 1.168 1.168 0 0 0-.929-.374zm10.976-1.288V62h-2.058v-.98a2.175 2.175 0 0 1-.847.812 2.84 2.84 0 0 1-3.122-.441 3.208 3.208 0 0 1-.637-2.177v-4.088h2.114v4.13a1.349 1.349 0 0 0 .259.91 1 1 0 0 0 .791.294 1.3 1.3 0 0 0 1-.42 1.573 1.573 0 0 0 .385-1.106v-3.808zm5.432 5.432a5.645 5.645 0 0 0 .672-.042l-.112 1.54a5.936 5.936 0 0 1-.812.056 3.235 3.235 0 0 1-2.289-.686 2.753 2.753 0 0 1-.721-2.086v-2.628h-1.3v-1.582h1.3V53.11h2.114v2.016h1.722v1.582h-1.722v2.618q0 1.232 1.148 1.232zm6.524-3.864-1.19.126a1.841 1.841 0 0 0-1.246.5 1.6 1.6 0 0 0-.364 1.1V62h-2.114v-6.874H49.2v1.162a2.277 2.277 0 0 1 2.142-1.3l.616-.042zm3.864 5.418a4.012 4.012 0 0 1-1.918-.441 3.093 3.093 0 0 1-1.274-1.246 4.24 4.24 0 0 1 0-3.794 3.048 3.048 0 0 1 1.274-1.239 4.455 4.455 0 0 1 3.836 0 3.048 3.048 0 0 1 1.274 1.239 4.24 4.24 0 0 1 0 3.794 3.093 3.093 0 0 1-1.274 1.246 4.012 4.012 0 0 1-1.918.445zm0-1.61q1.54 0 1.54-1.974a2.318 2.318 0 0 0-.4-1.484 1.387 1.387 0 0 0-1.141-.49q-1.54 0-1.54 1.974t1.541 1.976zm9.184-5.544a2.805 2.805 0 0 1 1.575.455 3.019 3.019 0 0 1 1.078 1.274 4.378 4.378 0 0 1 .385 1.883 4.286 4.286 0 0 1-.385 1.869 2.818 2.818 0 0 1-2.653 1.673 2.765 2.765 0 0 1-1.267-.287 2.089 2.089 0 0 1-.875-.805v3.5h-2.114v-9.39h2.086v.966a2.143 2.143 0 0 1 .882-.833 2.731 2.731 0 0 1 1.288-.301zm-.616 5.546a1.4 1.4 0 0 0 1.148-.5 2.218 2.218 0 0 0 .406-1.435 2.366 2.366 0 0 0-.406-1.477 1.367 1.367 0 0 0-1.148-.525 1.382 1.382 0 0 0-1.148.511 2.3 2.3 0 0 0-.406 1.463 2.279 2.279 0 0 0 .406 1.449 1.382 1.382 0 0 0 1.148.514zm9.254-5.544a2.254 2.254 0 0 1 1.834.721 3.338 3.338 0 0 1 .6 2.177V62h-2.112v-4.046a1.627 1.627 0 0 0-.259-1.022.971.971 0 0 0-.8-.322 1.39 1.39 0 0 0-1.057.42 1.559 1.559 0 0 0-.4 1.12V62h-2.118v-9.87h2.114v3.906a2.345 2.345 0 0 1 .931-.805 2.883 2.883 0 0 1 1.267-.273zM77.784 62v-6.874H79.9V62zm-.07-10.178h2.268V53.8h-2.268zM81.522 62v-9.87h2.114V62zm3.738 0v-6.874h2.114V62zm-.07-10.178h2.268V53.8H85.19zm7.084 10.29a3.606 3.606 0 0 1-2.646-.952 3.471 3.471 0 0 1-.966-2.59 3.8 3.8 0 0 1 .462-1.9 3.183 3.183 0 0 1 1.3-1.267 4.074 4.074 0 0 1 1.946-.448 4.616 4.616 0 0 1 1.456.231 3.132 3.132 0 0 1 1.134.623l-.56 1.442a3.147 3.147 0 0 0-.889-.5 2.764 2.764 0 0 0-.945-.175 1.662 1.662 0 0 0-1.281.49 2.071 2.071 0 0 0-.455 1.456 2.1 2.1 0 0 0 .455 1.463 1.649 1.649 0 0 0 1.281.5 2.764 2.764 0 0 0 .945-.175 3.147 3.147 0 0 0 .889-.5l.56 1.456a3.339 3.339 0 0 1-1.176.616 5.022 5.022 0 0 1-1.51.23z" transform="translate(297.911 133.178)" style="fill:#707070"/>
        <path data-name="Path 2839" d="M-15.5 0v-9.87h2.184v8.092H-8.9V0zm14.2-6.874V0h-2.06v-.98a2.175 2.175 0 0 1-.847.812 2.474 2.474 0 0 1-1.183.28 2.454 2.454 0 0 1-1.939-.721 3.208 3.208 0 0 1-.637-2.177v-4.088h2.114v4.13a1.35 1.35 0 0 0 .259.91 1 1 0 0 0 .793.294 1.3 1.3 0 0 0 1-.42 1.573 1.573 0 0 0 .385-1.106v-3.808zm5.936-.168a2.254 2.254 0 0 1 1.834.721 3.338 3.338 0 0 1 .6 2.177V0H4.956v-4.046A1.627 1.627 0 0 0 4.7-5.068a.971.971 0 0 0-.8-.322 1.39 1.39 0 0 0-1.057.42 1.559 1.559 0 0 0-.4 1.12V0H.322v-6.874H2.38v.98a2.409 2.409 0 0 1 .945-.854 2.858 2.858 0 0 1 1.309-.294zm11.032.168v6.132a3.211 3.211 0 0 1-.952 2.52 4.092 4.092 0 0 1-2.814.854 6.9 6.9 0 0 1-1.771-.224 5.335 5.335 0 0 1-1.491-.63L9.2.322a5.473 5.473 0 0 0 2.646.728q1.736 0 1.736-1.638v-.756A2.077 2.077 0 0 1 12.7-.5a2.793 2.793 0 0 1-1.318.3 3 3 0 0 1-1.589-.42 2.877 2.877 0 0 1-1.085-1.2 3.943 3.943 0 0 1-.392-1.8 3.943 3.943 0 0 1 .392-1.8 2.925 2.925 0 0 1 1.085-1.2 2.967 2.967 0 0 1 1.589-.427 2.773 2.773 0 0 1 1.3.3 2.133 2.133 0 0 1 .889.833v-.966zM12-1.806a1.448 1.448 0 0 0 1.155-.476 1.965 1.965 0 0 0 .413-1.33 1.993 1.993 0 0 0-.413-1.337A1.438 1.438 0 0 0 12-5.432a1.459 1.459 0 0 0-1.162.483 1.97 1.97 0 0 0-.42 1.337 1.948 1.948 0 0 0 .42 1.323A1.459 1.459 0 0 0 12-1.806zM-29.617 6.13V16h-2.1v-1.022a2.153 2.153 0 0 1-.875.833 2.689 2.689 0 0 1-1.281.3 2.805 2.805 0 0 1-1.575-.455 3.019 3.019 0 0 1-1.078-1.274 4.379 4.379 0 0 1-.385-1.883 4.286 4.286 0 0 1 .385-1.869 2.908 2.908 0 0 1 1.071-1.239 2.9 2.9 0 0 1 1.582-.434 2.711 2.711 0 0 1 1.267.294 2.107 2.107 0 0 1 .875.826V6.13zm-3.64 8.372a1.362 1.362 0 0 0 1.141-.511 2.333 2.333 0 0 0 .4-1.463 2.3 2.3 0 0 0-.4-1.456 1.37 1.37 0 0 0-1.141-.5 1.4 1.4 0 0 0-1.148.5 2.219 2.219 0 0 0-.406 1.435 2.366 2.366 0 0 0 .406 1.477 1.367 1.367 0 0 0 1.148.516zm11.452-1.54h-4.48a1.77 1.77 0 0 0 .539 1.2 1.894 1.894 0 0 0 1.253.371 3.324 3.324 0 0 0 1.057-.175 3.405 3.405 0 0 0 .959-.5l.56 1.414a3.821 3.821 0 0 1-1.225.616 4.86 4.86 0 0 1-1.449.224 3.792 3.792 0 0 1-2.737-.959 3.445 3.445 0 0 1-1-2.611 3.889 3.889 0 0 1 .428-1.862 3.182 3.182 0 0 1 1.2-1.267 3.374 3.374 0 0 1 1.75-.455 2.931 2.931 0 0 1 2.289.938 3.66 3.66 0 0 1 .847 2.548zm-3.08-2.548a1.245 1.245 0 0 0-.959.385 1.918 1.918 0 0 0-.441 1.113h2.7a1.827 1.827 0 0 0-.371-1.12 1.168 1.168 0 0 0-.929-.378zm7 5.7a6.578 6.578 0 0 1-1.743-.217 4.322 4.322 0 0 1-1.365-.623l.56-1.456a4.687 4.687 0 0 0 1.233.582 4.529 4.529 0 0 0 1.358.21 1.509 1.509 0 0 0 .763-.161.493.493 0 0 0 .273-.441.46.46 0 0 0-.194-.388 2 2 0 0 0-.707-.252l-1.12-.252a2.956 2.956 0 0 1-1.463-.693 1.731 1.731 0 0 1-.469-1.281 1.827 1.827 0 0 1 .371-1.134 2.45 2.45 0 0 1 1.05-.77 4.028 4.028 0 0 1 1.547-.28 4.7 4.7 0 0 1 1.442.224 4.429 4.429 0 0 1 1.26.63l-.56 1.4a3.782 3.782 0 0 0-2.156-.756 1.5 1.5 0 0 0-.77.168.527.527 0 0 0-.28.476.413.413 0 0 0 .168.35 1.825 1.825 0 0 0 .588.238l1.162.266a3.114 3.114 0 0 1 1.533.721 1.769 1.769 0 0 1 .483 1.309 1.816 1.816 0 0 1-.791 1.561 3.677 3.677 0 0 1-2.173.567zm7.91-1.554a5.645 5.645 0 0 0 .672-.042l-.112 1.54a5.936 5.936 0 0 1-.812.056 3.235 3.235 0 0 1-2.289-.686 2.753 2.753 0 0 1-.721-2.086v-2.634h-1.3V9.126h1.3V7.11h2.114v2.016H-9.4v1.582h-1.722v2.618q-.001 1.232 1.147 1.232zm6.524-3.864-1.19.126a1.841 1.841 0 0 0-1.246.5 1.6 1.6 0 0 0-.364 1.1V16h-2.114V9.126h2.03v1.162a2.277 2.277 0 0 1 2.142-1.3l.616-.042zm7.322-1.57V16H1.813v-.98a2.175 2.175 0 0 1-.847.812 2.474 2.474 0 0 1-1.183.28 2.454 2.454 0 0 1-1.939-.721 3.208 3.208 0 0 1-.637-2.177V9.126h2.114v4.13a1.35 1.35 0 0 0 .259.91 1 1 0 0 0 .791.294 1.3 1.3 0 0 0 1-.42 1.573 1.573 0 0 0 .385-1.106V9.126zm4.9 6.986a3.606 3.606 0 0 1-2.646-.952 3.471 3.471 0 0 1-.966-2.59 3.8 3.8 0 0 1 .462-1.9 3.183 3.183 0 0 1 1.3-1.267 4.074 4.074 0 0 1 1.946-.448 4.616 4.616 0 0 1 1.456.231 3.132 3.132 0 0 1 1.134.623l-.56 1.442a3.147 3.147 0 0 0-.889-.5 2.764 2.764 0 0 0-.945-.175 1.662 1.662 0 0 0-1.281.49 2.071 2.071 0 0 0-.455 1.456 2.1 2.1 0 0 0 .455 1.463 1.649 1.649 0 0 0 1.281.5 2.764 2.764 0 0 0 .945-.175 3.147 3.147 0 0 0 .889-.5l.56 1.456a3.339 3.339 0 0 1-1.176.616 5.022 5.022 0 0 1-1.51.23zm7.518-1.554a5.645 5.645 0 0 0 .672-.042l-.112 1.54a5.936 5.936 0 0 1-.812.056 3.235 3.235 0 0 1-2.289-.686 2.753 2.753 0 0 1-.721-2.086v-2.632h-1.3V9.126h1.3V7.11h2.114v2.016h1.722v1.582h-1.722v2.618q0 1.232 1.148 1.232zM17.9 16V9.126h2.114V16zm-.07-10.178h2.27V7.8h-2.271zm7.112 10.29a4.012 4.012 0 0 1-1.918-.441 3.093 3.093 0 0 1-1.274-1.246 3.84 3.84 0 0 1-.448-1.9 3.84 3.84 0 0 1 .448-1.9 3.048 3.048 0 0 1 1.274-1.239 4.455 4.455 0 0 1 3.836 0 3.048 3.048 0 0 1 1.274 1.239 3.84 3.84 0 0 1 .448 1.9 3.84 3.84 0 0 1-.448 1.9 3.093 3.093 0 0 1-1.274 1.246 4.012 4.012 0 0 1-1.919.441zm0-1.61q1.54 0 1.54-1.974a2.318 2.318 0 0 0-.4-1.484 1.387 1.387 0 0 0-1.141-.49q-1.54 0-1.54 1.974t1.54 1.972zm9.24-5.544a2.254 2.254 0 0 1 1.834.721 3.338 3.338 0 0 1 .6 2.177V16H34.5v-4.046a1.627 1.627 0 0 0-.259-1.022.971.971 0 0 0-.805-.322 1.39 1.39 0 0 0-1.057.42 1.559 1.559 0 0 0-.4 1.12V16h-2.11V9.126h2.058v.98a2.409 2.409 0 0 1 .945-.854 2.858 2.858 0 0 1 1.309-.294z" transform="translate(36.911 163.178)" style="fill:#707070"/>
        <path data-name="Path 2838" d="M-28.028 0v-9.87h2.184V0zm12.446-7.042a2.111 2.111 0 0 1 1.75.714 3.451 3.451 0 0 1 .574 2.184V0h-2.114v-4.074a1.8 1.8 0 0 0-.217-1.008.836.836 0 0 0-.735-.308 1.134 1.134 0 0 0-.938.42 1.837 1.837 0 0 0-.338 1.176V0h-2.114v-4.074a1.8 1.8 0 0 0-.217-1.008.836.836 0 0 0-.735-.308 1.134 1.134 0 0 0-.938.42 1.837 1.837 0 0 0-.336 1.176V0h-2.114v-6.874h2.058v.924a2.15 2.15 0 0 1 .861-.812 2.649 2.649 0 0 1 1.239-.28 2 2 0 0 1 2.046 1.274 2.462 2.462 0 0 1 .938-.931 2.639 2.639 0 0 1 1.33-.343zm8.176 0a2.805 2.805 0 0 1 1.575.455 3.019 3.019 0 0 1 1.078 1.274 4.378 4.378 0 0 1 .385 1.883 4.286 4.286 0 0 1-.385 1.869A2.908 2.908 0 0 1-5.824-.322a2.9 2.9 0 0 1-1.582.434 2.765 2.765 0 0 1-1.267-.287 2.089 2.089 0 0 1-.875-.805v3.5h-2.114v-9.394h2.086v.966a2.143 2.143 0 0 1 .882-.833 2.731 2.731 0 0 1 1.288-.301zM-8.022-1.5A1.4 1.4 0 0 0-6.874-2a2.218 2.218 0 0 0 .406-1.43 2.366 2.366 0 0 0-.406-1.477 1.367 1.367 0 0 0-1.148-.525 1.382 1.382 0 0 0-1.148.511 2.3 2.3 0 0 0-.406 1.463 2.279 2.279 0 0 0 .406 1.449 1.382 1.382 0 0 0 1.148.509zm7.994-5.542a3.12 3.12 0 0 1 2.275.728 3.054 3.054 0 0 1 .735 2.254V0h-2v-1.022a1.676 1.676 0 0 1-.7.833 2.149 2.149 0 0 1-1.148.3 2.822 2.822 0 0 1-1.267-.28 2.219 2.219 0 0 1-.9-.784 2.005 2.005 0 0 1-.329-1.12 1.73 1.73 0 0 1 .385-1.19 2.3 2.3 0 0 1 1.239-.63A10.944 10.944 0 0 1 .6-4.088h.366v-.252A1.163 1.163 0 0 0 .7-5.208a1.335 1.335 0 0 0-.924-.252 3.987 3.987 0 0 0-1.12.182 5.449 5.449 0 0 0-1.176.5l-.56-1.414A5.735 5.735 0 0 1-1.631-6.8a5.879 5.879 0 0 1 1.603-.242zm-.378 5.7a1.284 1.284 0 0 0 .994-.413 1.524 1.524 0 0 0 .378-1.073v-.238H.728a4.784 4.784 0 0 0-1.589.182.659.659 0 0 0-.455.658.843.843 0 0 0 .259.63.9.9 0 0 0 .651.252zM4.564 0v-6.874h2.114V0zm-.07-10.178h2.268V-8.2H4.494zm8.722 4.872-1.19.126a1.841 1.841 0 0 0-1.246.5 1.6 1.6 0 0 0-.364 1.1V0H8.3v-6.874h2.03v1.162a2.277 2.277 0 0 1 2.142-1.3l.616-.042zm6.748 2.268h-4.48a1.77 1.77 0 0 0 .539 1.2 1.894 1.894 0 0 0 1.253.371 3.324 3.324 0 0 0 1.057-.175 3.405 3.405 0 0 0 .959-.5l.56 1.414a3.821 3.821 0 0 1-1.225.616 4.86 4.86 0 0 1-1.449.224 3.792 3.792 0 0 1-2.737-.959 3.445 3.445 0 0 1-1-2.611 3.889 3.889 0 0 1 .434-1.862 3.182 3.182 0 0 1 1.2-1.267 3.374 3.374 0 0 1 1.75-.455 2.931 2.931 0 0 1 2.289.938 3.66 3.66 0 0 1 .847 2.548zm-3.08-2.548a1.245 1.245 0 0 0-.959.385 1.918 1.918 0 0 0-.441 1.113h2.7a1.827 1.827 0 0 0-.371-1.12 1.168 1.168 0 0 0-.929-.378zM28.2-9.87V0h-2.1v-1.022a2.153 2.153 0 0 1-.875.833 2.689 2.689 0 0 1-1.281.3 2.805 2.805 0 0 1-1.575-.455 3.019 3.019 0 0 1-1.078-1.274A4.378 4.378 0 0 1 20.9-3.5a4.286 4.286 0 0 1 .385-1.869 2.908 2.908 0 0 1 1.071-1.239 2.9 2.9 0 0 1 1.582-.434 2.711 2.711 0 0 1 1.267.294 2.107 2.107 0 0 1 .875.826V-9.87zM24.556-1.5a1.362 1.362 0 0 0 1.144-.509 2.333 2.333 0 0 0 .4-1.463 2.3 2.3 0 0 0-.4-1.456 1.37 1.37 0 0 0-1.141-.5 1.4 1.4 0 0 0-1.148.5A2.218 2.218 0 0 0 23-3.5a2.366 2.366 0 0 0 .406 1.477 1.367 1.367 0 0 0 1.15.523zM-28.252 8.958a2.111 2.111 0 0 1 1.75.714 3.451 3.451 0 0 1 .574 2.184V16h-2.114v-4.074a1.8 1.8 0 0 0-.217-1.008.836.836 0 0 0-.735-.308 1.134 1.134 0 0 0-.938.42 1.837 1.837 0 0 0-.336 1.176V16h-2.114v-4.074a1.8 1.8 0 0 0-.217-1.008.836.836 0 0 0-.735-.308 1.134 1.134 0 0 0-.938.42 1.837 1.837 0 0 0-.336 1.176V16h-2.114V9.126h2.058v.924a2.15 2.15 0 0 1 .861-.812 2.649 2.649 0 0 1 1.239-.28 2 2 0 0 1 2.044 1.274 2.462 2.462 0 0 1 .938-.931 2.639 2.639 0 0 1 1.33-.343zm10.542.168V16h-2.058v-.98a2.175 2.175 0 0 1-.847.812 2.474 2.474 0 0 1-1.183.28 2.454 2.454 0 0 1-1.939-.721 3.208 3.208 0 0 1-.637-2.177V9.126h2.114v4.13a1.35 1.35 0 0 0 .259.91 1 1 0 0 0 .791.294 1.3 1.3 0 0 0 1-.42 1.573 1.573 0 0 0 .385-1.106V9.126zm4.9 6.986a3.606 3.606 0 0 1-2.646-.952 3.471 3.471 0 0 1-.966-2.59 3.8 3.8 0 0 1 .462-1.9 3.183 3.183 0 0 1 1.3-1.267 4.074 4.074 0 0 1 1.946-.448 4.616 4.616 0 0 1 1.456.231 3.132 3.132 0 0 1 1.134.623l-.56 1.442a3.147 3.147 0 0 0-.889-.5 2.764 2.764 0 0 0-.945-.175 1.662 1.662 0 0 0-1.281.49 2.071 2.071 0 0 0-.455 1.456 2.1 2.1 0 0 0 .455 1.463 1.649 1.649 0 0 0 1.281.5 2.764 2.764 0 0 0 .945-.175 3.147 3.147 0 0 0 .889-.5l.56 1.456a3.339 3.339 0 0 1-1.176.616 5.022 5.022 0 0 1-1.51.23zm6.944 0a4.012 4.012 0 0 1-1.918-.441 3.093 3.093 0 0 1-1.274-1.246 3.84 3.84 0 0 1-.448-1.9 3.84 3.84 0 0 1 .448-1.9 3.048 3.048 0 0 1 1.274-1.233 4.065 4.065 0 0 1 1.918-.434 4.065 4.065 0 0 1 1.918.434 3.048 3.048 0 0 1 1.274 1.239 3.84 3.84 0 0 1 .448 1.9 3.84 3.84 0 0 1-.448 1.9 3.093 3.093 0 0 1-1.274 1.246 4.012 4.012 0 0 1-1.918.435zm0-1.61q1.54 0 1.54-1.974a2.318 2.318 0 0 0-.4-1.484 1.387 1.387 0 0 0-1.141-.49q-1.54 0-1.54 1.974t1.541 1.972zm8.2 1.61a3.606 3.606 0 0 1-2.642-.952 3.471 3.471 0 0 1-.966-2.59 3.8 3.8 0 0 1 .462-1.9A3.183 3.183 0 0 1 .49 9.406a4.074 4.074 0 0 1 1.946-.448 4.616 4.616 0 0 1 1.456.231 3.132 3.132 0 0 1 1.134.623l-.56 1.442a3.147 3.147 0 0 0-.889-.5 2.764 2.764 0 0 0-.945-.175 1.662 1.662 0 0 0-1.281.49A2.071 2.071 0 0 0 .9 12.528a2.1 2.1 0 0 0 .455 1.463 1.649 1.649 0 0 0 1.281.5 2.764 2.764 0 0 0 .945-.175 3.147 3.147 0 0 0 .889-.5l.56 1.456a3.339 3.339 0 0 1-1.176.616 5.022 5.022 0 0 1-1.516.224zM5.978 16V9.126h2.114V16zm-.07-10.178h2.268V7.8H5.908zM9.716 16V6.13h2.114V16zm3.738 0V9.126h2.114V16zm-.07-10.178h2.268V7.8h-2.268zm6.86 3.136a3.12 3.12 0 0 1 2.275.728 3.054 3.054 0 0 1 .735 2.254V16h-2v-1.022a1.676 1.676 0 0 1-.7.833 2.149 2.149 0 0 1-1.148.3 2.822 2.822 0 0 1-1.267-.28 2.219 2.219 0 0 1-.9-.784 2.005 2.005 0 0 1-.329-1.12 1.73 1.73 0 0 1 .385-1.19 2.3 2.3 0 0 1 1.239-.63 10.944 10.944 0 0 1 2.338-.2h.364v-.247a1.163 1.163 0 0 0-.266-.868 1.335 1.335 0 0 0-.924-.252 3.987 3.987 0 0 0-1.12.182 5.449 5.449 0 0 0-1.176.5l-.56-1.414a5.735 5.735 0 0 1 1.451-.608 5.879 5.879 0 0 1 1.603-.242zm-.378 5.7a1.284 1.284 0 0 0 .994-.413 1.524 1.524 0 0 0 .378-1.071v-.238H21a4.784 4.784 0 0 0-1.589.182.659.659 0 0 0-.455.658.843.843 0 0 0 .259.63.9.9 0 0 0 .651.25zm9.884-3.962-1.19.126a1.841 1.841 0 0 0-1.246.5 1.6 1.6 0 0 0-.364 1.1V16h-2.114V9.126h2.03v1.162a2.277 2.277 0 0 1 2.142-1.3l.616-.042zm5.88-1.556h2.07l-4.144 9.38h-2.14l1.316-2.9L29.9 9.14h2.2l1.736 4.368zm-62.405 22.972a3.606 3.606 0 0 1-2.646-.952 3.471 3.471 0 0 1-.966-2.59 3.8 3.8 0 0 1 .462-1.9 3.183 3.183 0 0 1 1.3-1.267 4.074 4.074 0 0 1 1.946-.448 4.616 4.616 0 0 1 1.456.231 3.132 3.132 0 0 1 1.134.623l-.56 1.442a3.147 3.147 0 0 0-.889-.5 2.764 2.764 0 0 0-.945-.175 1.662 1.662 0 0 0-1.281.49 2.071 2.071 0 0 0-.455 1.456 2.1 2.1 0 0 0 .455 1.463 1.649 1.649 0 0 0 1.281.5 2.764 2.764 0 0 0 .945-.175 3.147 3.147 0 0 0 .889-.5l.56 1.456a3.339 3.339 0 0 1-1.176.616 5.022 5.022 0 0 1-1.51.23zm3.64-.112v-9.87h2.114V32zm9.926-3.038h-4.48a1.77 1.77 0 0 0 .539 1.2 1.894 1.894 0 0 0 1.253.371 3.324 3.324 0 0 0 1.057-.175 3.405 3.405 0 0 0 .959-.5l.56 1.414a3.821 3.821 0 0 1-1.225.616 4.86 4.86 0 0 1-1.449.224 3.792 3.792 0 0 1-2.737-.959 3.445 3.445 0 0 1-1-2.611 3.889 3.889 0 0 1 .432-1.862 3.182 3.182 0 0 1 1.2-1.267 3.374 3.374 0 0 1 1.75-.455 2.931 2.931 0 0 1 2.289.938 3.66 3.66 0 0 1 .847 2.548zm-3.08-2.548a1.245 1.245 0 0 0-.959.385 1.918 1.918 0 0 0-.441 1.113h2.7a1.827 1.827 0 0 0-.371-1.12 1.168 1.168 0 0 0-.929-.378zm7.406-1.456a3.12 3.12 0 0 1 2.275.728 3.054 3.054 0 0 1 .735 2.254V32h-2v-1.022a1.676 1.676 0 0 1-.7.833 2.149 2.149 0 0 1-1.148.3 2.822 2.822 0 0 1-1.267-.28 2.219 2.219 0 0 1-.9-.784 2.005 2.005 0 0 1-.329-1.12 1.73 1.73 0 0 1 .385-1.19 2.3 2.3 0 0 1 1.239-.63 10.944 10.944 0 0 1 2.338-.2h.364v-.247a1.163 1.163 0 0 0-.266-.868 1.335 1.335 0 0 0-.924-.252 3.987 3.987 0 0 0-1.12.182 5.449 5.449 0 0 0-1.176.5l-.56-1.414a5.735 5.735 0 0 1 1.449-.609 5.879 5.879 0 0 1 1.605-.241zm-.378 5.7a1.284 1.284 0 0 0 .994-.413 1.524 1.524 0 0 0 .378-1.071v-.238h-.238a4.784 4.784 0 0 0-1.589.182.659.659 0 0 0-.455.658.843.843 0 0 0 .259.63.9.9 0 0 0 .651.25zm9.884-3.964-1.19.126a1.841 1.841 0 0 0-1.246.5 1.6 1.6 0 0 0-.364 1.1V32h-2.114v-6.874h2.03v1.162a2.277 2.277 0 0 1 2.142-1.3l.619-.044zm3.752-1.736a3.12 3.12 0 0 1 2.275.728 3.054 3.054 0 0 1 .735 2.254V32h-2v-1.022a1.676 1.676 0 0 1-.7.833 2.149 2.149 0 0 1-1.148.3 2.822 2.822 0 0 1-1.267-.28 2.219 2.219 0 0 1-.9-.784 2.005 2.005 0 0 1-.329-1.12 1.73 1.73 0 0 1 .385-1.19 2.3 2.3 0 0 1 1.239-.63A10.944 10.944 0 0 1 5 27.912h.364v-.252a1.163 1.163 0 0 0-.266-.868 1.335 1.335 0 0 0-.924-.252 3.987 3.987 0 0 0-1.12.182 5.449 5.449 0 0 0-1.176.5l-.56-1.414a5.735 5.735 0 0 1 1.454-.608 5.879 5.879 0 0 1 1.603-.242zM4 30.656a1.284 1.284 0 0 0 .994-.413 1.524 1.524 0 0 0 .378-1.071v-.238h-.241a4.784 4.784 0 0 0-1.589.182.659.659 0 0 0-.455.658.843.843 0 0 0 .259.63.9.9 0 0 0 .654.252zm9.282-5.7a2.254 2.254 0 0 1 1.834.721 3.338 3.338 0 0 1 .6 2.177V32H13.6v-4.046a1.627 1.627 0 0 0-.259-1.022.971.971 0 0 0-.805-.322 1.39 1.39 0 0 0-1.057.42 1.559 1.559 0 0 0-.4 1.12V32H8.967v-6.874h2.058v.98a2.409 2.409 0 0 1 .945-.854 2.858 2.858 0 0 1 1.309-.294zm7.294 7.154a3.606 3.606 0 0 1-2.646-.952 3.471 3.471 0 0 1-.966-2.59 3.8 3.8 0 0 1 .462-1.9 3.183 3.183 0 0 1 1.3-1.267 4.074 4.074 0 0 1 1.946-.448 4.616 4.616 0 0 1 1.456.231 3.132 3.132 0 0 1 1.134.623l-.56 1.442a3.147 3.147 0 0 0-.889-.5 2.764 2.764 0 0 0-.945-.175 1.662 1.662 0 0 0-1.281.49 2.071 2.071 0 0 0-.455 1.456 2.1 2.1 0 0 0 .455 1.463 1.649 1.649 0 0 0 1.281.5 2.764 2.764 0 0 0 .945-.175 3.147 3.147 0 0 0 .889-.5l.56 1.456a3.339 3.339 0 0 1-1.176.616 5.022 5.022 0 0 1-1.513.232zm9.828-3.15h-4.48a1.77 1.77 0 0 0 .539 1.2 1.894 1.894 0 0 0 1.253.371 3.324 3.324 0 0 0 1.057-.175 3.405 3.405 0 0 0 .959-.5l.56 1.414a3.821 3.821 0 0 1-1.225.616 4.86 4.86 0 0 1-1.449.224 3.792 3.792 0 0 1-2.737-.959 3.445 3.445 0 0 1-1-2.611 3.889 3.889 0 0 1 .434-1.862 3.182 3.182 0 0 1 1.2-1.267 3.374 3.374 0 0 1 1.75-.455 2.931 2.931 0 0 1 2.289.938 3.66 3.66 0 0 1 .847 2.548zm-3.08-2.548a1.245 1.245 0 0 0-.959.385 1.918 1.918 0 0 0-.441 1.113h2.7a1.827 1.827 0 0 0-.371-1.12 1.168 1.168 0 0 0-.932-.376z" transform="translate(185.911 308.178)" style="fill:#707070"/>
    </g>
</svg>
